<svg xmlns="http://www.w3.org/2000/svg" width="301" height="316" viewBox="0 0 301 316">
  <g fill="none" fill-rule="evenodd" transform="matrix(-1 0 0 1 329.816 -26.348)">
    <path d="M140.766258,141.601687 C141.023451,139.258544 141.148911,138.086972 141.148911,138.086972 L141.54411,134.572258 L141.926764,131.063809 L142.31569,127.549094 L142.660706,124.397755 L143.005721,121.246416 L143.357009,118.101341 L143.702025,114.950002 L144.04704,111.798663 L144.392055,108.647324 C144.392055,108.647324 144.624156,106.542254 145.082086,102.33838 C128.075966,100.534034 115.197485,103.516216 106.954755,105.483454 C98.9190337,108.302744 94.9043098,109.712389 94.9043098,109.712389 C94.9043098,109.712389 92.7213037,110.783719 88.8947699,112.650715 C84.9490491,114.367349 79.9055521,117.612665 73.8960123,121.58473 C62.2094018,129.873442 48.8855368,143.343381 39.3505675,158.874535 C29.5584049,174.274121 23.1473926,191.25251 19.7913344,204.334014 C18.1791718,210.906091 17.0186656,216.419369 16.5670092,220.360109 C15.9836196,224.275789 15.6574233,226.512425 15.6574233,226.512425 L15.6260583,226.763029 C15.6260583,226.763029 15.375138,230.284008 14.9862117,235.559213 C14.6788344,240.840682 14.5910123,247.989147 15.2810429,255.181468 C16.1906288,269.622496 20.9518405,283.863042 20.9518405,283.863042 C20.9518405,283.863042 21.6042331,285.567146 22.7333742,288.555593 C23.7809663,291.5691 25.5625,295.779239 28.2034356,300.678538 C33.2971166,310.464606 42.2863344,322.825624 54.0858589,332.191931 C65.7473773,341.74619 79.6044479,347.879711 90.0929141,350.886954 C95.3559663,352.509612 99.7909816,353.392989 102.902393,353.862871 C106.013804,354.407933 107.789064,354.714923 107.789064,354.714923 L108.052531,354.746248 C108.052531,354.746248 120.899647,356.231074 133.012822,354.727453 C138.947086,353.768894 144.956626,352.910577 149.146994,351.588644 C153.418911,350.429602 156.273129,349.658996 156.273129,349.658996 C156.273129,349.658996 158.537684,348.83827 162.495951,347.40983 C166.529494,346.100426 171.955644,343.631982 178.410567,340.555824 C191.138497,334.134108 207.015475,323.615025 220.402071,309.900748 C233.907853,296.355627 244.333589,279.270732 249.577822,265.030187 C251.986656,257.79401 253.837193,251.716875 254.395491,247.180951 C255.167071,242.732738 255.599908,240.195378 255.599908,240.195378 L255.637546,239.925979 C255.637546,239.925979 255.869647,236.079215 256.227209,230.296539 C256.509494,227.414598 256.252301,224.025185 256.120567,220.403965 C256.070383,216.776479 255.731641,212.923449 255.079248,209.101746 C254.194755,201.401952 252.074479,193.902642 250.38704,188.370569 C248.448681,182.901147 247.150169,179.254866 247.150169,179.254866 C247.150169,179.254866 245.970844,176.723771 243.624739,171.655314 C241.228451,166.630714 237.176089,159.231645 230.413788,150.34775 C223.538574,141.607952 213.896963,131.245496 199.82661,122.035817 C185.850353,112.869993 167.294801,104.982247 145.082086,102.33838 C144.624156,106.542254 144.392055,108.647324 144.392055,108.647324 L144.04704,111.798663 L143.702025,114.950002 L143.357009,118.101341 L143.005721,121.246416 L142.660706,124.397755 L142.31569,127.549094 L141.926764,131.063809 L141.54411,134.572258 L141.148911,138.086972 C141.148911,138.086972 141.023451,139.258544 140.766258,141.601687 C171.660813,145.473511 189.99681,162.652383 199.067577,174.430748 C203.690782,180.520414 206.494816,185.570075 208.106979,189.015873 C209.731687,192.467937 210.547178,194.197101 210.547178,194.197101 C210.547178,194.197101 211.419126,196.684341 212.736457,200.424599 C213.846779,204.202447 215.358574,209.295963 215.904325,214.552372 C216.39362,217.152384 216.625721,219.777456 216.625721,222.264696 C216.694724,224.739405 216.951917,227.038693 216.700997,229.030991 C216.475169,232.996792 216.33089,235.640659 216.33089,235.640659 L216.305798,235.809816 C216.305798,235.809816 216.010966,237.351028 215.502853,240.057546 C215.277025,242.795389 213.959693,246.604563 212.516902,251.228198 C209.129479,260.343901 202.109985,272.266364 192.098267,282.315565 C182.218282,292.439947 170.086288,300.509381 160.576411,305.302173 C155.752469,307.557605 151.756564,309.449661 148.833344,310.345569 C145.96658,311.404369 144.323052,312.012082 144.323052,312.012082 C144.323052,312.012082 142.31569,312.53835 139.304647,313.327751 C136.293604,314.342695 132.310245,314.774986 128.33316,315.508001 C124.468988,315.658364 120.46681,316.284872 117.77569,315.852581 C115.003021,315.689689 113.152485,315.589448 113.152485,315.589448 L112.989387,315.564387 C113.077209,315.338844 108.052531,315.138361 101.296503,313.008231 C94.4902914,311.053524 85.9464571,307.23182 78.9332362,301.467939 C71.8321933,295.823095 66.3809509,288.373905 63.1628988,282.209058 C59.7880215,276.125658 58.7027914,271.3266 58.4957822,271.451902 C58.4957822,271.451902 57.8308436,269.077434 56.8459816,265.518864 C56.0367638,261.885113 54.9954448,256.985814 54.6817945,251.854707 C53.7345706,241.667673 54.9327147,231.054614 54.9327147,231.054614 L54.9578067,230.866662 C54.9578067,230.866662 55.215,229.187618 55.6666564,226.255557 C55.9740337,223.3047 56.8898926,219.150947 58.0880368,214.182732 C60.6223313,204.302688 65.5466411,191.359016 72.7731442,179.981616 C79.8365491,168.460119 89.2836963,159.137668 96.9555828,153.668246 C100.91385,151.168476 104.131902,148.94437 106.609739,147.960751 C108.993482,146.757854 110.360997,146.068695 110.360997,146.068695 C110.442546,146.732794 119.82069,140.035415 140.766258,141.601687"/>
    <path fill="#38416C" d="M15.0225951,97.7599891 C-22.7158098,172.471164 17.8956319,303.987893 84.9540675,333.709471 C152.018776,363.437314 248.152595,308.956108 285.891,234.251198 C323.629405,159.546288 293.587979,68.4331119 218.788653,30.742342 C143.989328,-6.9484278 52.761,23.055079 15.0225951,97.7599891 Z"/>
    <path fill="#1D1D1B" d="M20.041,83.958491 C-17.6974049,158.669666 22.9140368,290.186395 89.9724724,319.907973 C157.037181,349.635816 253.171,295.15461 290.909405,220.4497 C328.64781,145.74479 298.606383,54.6316137 223.807058,16.9408439 C149.007733,-20.7499259 57.7794049,9.25358084 20.041,83.958491 Z"/>
    <path fill="#1D1D1B" d="M241.635569,219.783721 C169.640278,247.48794 198.276551,185.927185 243.373192,270.643706 C256.747241,295.779239 318.799817,309.856892 328.228146,273.970468 C338.371597,235.352465 277.034143,206.163419 241.635569,219.783721 M254.07494,252.030129 C270.014649,245.896608 292.773115,256.885572 304.24017,267.504897 C309.427946,279.928566 271.062241,270.662501 261.012885,255.977135 C210.672011,182.431266 213.218851,267.749235 254.07494,252.030129"/>
    <path fill="#FFFFFF" d="M172.043466,1.60704085 C88.7630368,-7.53372264 13.8382515,52.4858211 4.68593558,135.66113 C-4.46638037,218.830174 55.6290184,293.666651 138.903175,302.807415 C222.183604,311.948178 297.114663,251.928635 306.266979,168.753325 C315.419294,85.5780162 255.323896,10.7478043 172.043466,1.60704085"/>
    <path fill="#432918" d="M169.189248,27.5495175 C100.255184,19.9812911 38.2339724,69.6634395 30.662454,138.510492 C23.0846626,207.357545 72.8296012,269.300471 141.757393,276.862432 C210.691457,284.430659 272.712669,234.74851 280.29046,165.901457 C287.861979,97.0544046 238.123313,35.1177439 169.189248,27.5495175"/>
    <path d="M169.189248,27.5520236 C100.255184,19.9837972 38.2339724,69.6659456 30.662454,138.506733 C23.0846626,207.353786 277.906718,115.238196 266.640399,93.8679808 C247.859018,58.24469 212.272255,32.2759 169.189248,27.5520236"/>
    <path fill="#B17F4A" d="M234.116117 240.072582C231.801377 243.618622 231.650825 247.045625 232.108755 250.547809 229.467819 249.808529 226.387773 250.109253 223.966393 251.293355 223.790748 251.343475 223.577466 251.412391 223.314 251.493838 223.175994 251.443717 223.075626 251.393596 222.912528 251.33721 218.878985 249.946361 216.200411 250.272145 212.292328 251.788297 210.284966 252.565168 208.490887 254.626382 207.876132 256.806632 203.485028 255.879399 198.89946 258.44182 196.779184 262.31991 193.416853 261.449063 189.872604 262.238464 187.194031 264.594137 186.359721 264.763294 185.563049 265.032693 184.804015 265.389803 181.805518 264.393654 178.524736 265.17679 175.858709 266.993665 174.453555 267.006196 173.035856 267.250534 171.662067 267.70162 169.566883 266.536314 167.189414 265.991251 164.849583 266.197999 164.611209 266.022577 164.397926 265.847154 164.147006 265.677997 162.459567 264.43751 160.577666 263.698229 158.495028 263.460156 154.580672 263.717024 154.342298 263.597988 157.773632 263.103046 154.129015 258.228807 145.748279 256.982055 141.156439 261.27364 140.372313 262.006655 139.625825 262.777261 138.866791 263.535337 137.36127 263.510276 135.862021 263.779675 134.425503 264.587872 134.080488 264.782089 133.748018 264.995102 133.409276 265.18932 130.241408 263.272203 126.333325 262.752201 122.613433 264.675583 122.40015 264.788354 121.747758 265.183055 120.900902 265.709322 121.057727 265.245706 121.214552 264.800885 121.365104 264.387389 124.940718 254.569996 116.447067 248.292378 108.511715 249.971421 108.48035 249.90877 108.467804 249.846119 108.436439 249.789734 108.034966 249.050453 107.545672 248.361294 107.018739 247.690929 107.859322 245.466823 108.423893 243.267777 108.593264 240.667765 108.612083 240.379571 108.618356 240.097642 108.630902 239.815713 109.640856 238.49378 110.186607 236.752085 110.086239 234.928945 109.872957 231.132301 108.863003 227.930841 106.027604 225.293239 105.049015 224.384801 103.800687 223.708172 102.602543 223.150579 102.332804 223.025277 100.043156 222.392503 101.285212 222.774674 100.080794 222.405034 99.0394755 222.467685 97.8538773 222.925036 95.9531564 222.204551 93.8140613 221.910092 91.430319 222.054189 89.353954 222.173225 87.6665153 222.724553 86.2049049 223.55781 87.8233405 218.846464 87.8735245 213.627645 83.4824202 210.363534 78.9846748 207.017977 73.7780798 207.450268 68.6467607 208.834853 68.6593067 208.816058 68.6718528 208.790997 68.6781258 208.778467 71.6515307 202.5635 66.4449356 196.968776 60.8117761 196.135519 63.4840767 190.559591 58.7542301 182.483892 52.4310399 182.784617 52.4561319 181.494009 52.525135 180.240991 52.6756871 179.08195 53.3719908 173.719034 50.1664847 170.260706 46.1141227 169.17058 45.7753804 168.343589 45.3425429 167.522862 44.6713313 166.68334 44.1506718 166.031771 43.5610092 165.474178 42.9462546 164.954176 44.382773 164.233691 45.8067454 163.45682 47.2056258 162.567178 55.0092454 157.592698 50.5115 145.795537 42.6576963 144.072638 42.9838926 143.803239 43.310089 143.57143 43.6300123 143.258176 46.1893988 140.720815 47.6510092 136.842726 47.5192761 133.20271 48.460227 128.961245 47.2244448 123.855198 43.341454 121.449404 41.9739387 120.603618 39.6529264 119.143852 37.1186319 117.790593 37.4071902 117.370832 37.6769294 116.926011 37.9278497 116.443599 40.0543988 115.265763 41.8735706 113.473947 42.5636012 111.1496 42.6075123 111.005503 42.6326043 110.867671 42.6765153 110.723574 42.7392454 110.729839 42.7957025 110.754899 42.8584325 110.767429 49.514092 111.49418 53.9114693 110.679718 59.4003497 106.88934 61.7025429 105.298007 62.8755951 102.879683 63.1704264 100.317262 65.1338773 98.8449667 66.7272209 97.0782119 67.7748129 94.9856725 73.050411 92.6801201 76.7640307 88.5764874 78.100181 84.0530938 78.8905798 83.8651412 79.6747055 83.6458631 80.4588313 83.3514039 82.1086319 82.7311602 83.6894294 81.3465758 84.8122975 79.6925925 87.2085859 78.4896956 88.6451043 76.4472769 90.2259018 74.3422073 91.0978497 73.1769009 91.7063313 71.7484608 92.0074356 70.2448397 97.1575736 68.8665203 100.632819 64.0173422 99.9616074 59.1305735 101.391853 57.6582778 102.201071 55.8351371 102.652727 53.8678995 104.12061 53.1474144 105.400304 52.0886145 106.334982 50.772946 108.097696 51.4683708 110.092512 51.7565648 112.538985 51.3681294 115.004276 50.9734288 117.770672 49.3319757 119.150733 47.0452186 122.33742 47.9787167 125.166546 46.9136517 127.694567 45.1406318 129.865028 45.222078 131.941393 44.6268946 133.635104 43.3864072 137.129169 47.2331712 143.006975 47.5276304 147.216163 42.8914652 147.724276 42.1020641 148.339031 41.4630251 149.041607 40.9430228 149.599905 41.1435056 150.183294 41.3001328 150.835687 41.3690488 150.96742 41.3878441 151.143064 41.3627837 151.293617 41.3627837 153.050058 43.9941207 156.337113 45.6668992 159.774721 45.3285845 162.591301 45.0466555 165.445518 44.0755668 168.262098 42.8413445 170.231822 44.8211123 173.224046 45.9175027 176.071991 45.7608755 176.435825 45.7420803 177.470871 45.5729229 178.625104 45.3411146 180.902206 49.6828207 186.089982 51.5184915 190.374445 49.3633012 189.364491 54.9329645 194.395442 58.8361143 199.401301 58.9426208 201.910503 61.9623933 206.470979 63.4096286 210.197144 61.6867294 210.91854 61.3546797 213.641025 59.6067202 215.805212 58.1970753 217.235457 59.6505758 219.217727 60.5590136 221.300365 60.8472076 221.664199 61.7055247 222.122129 62.5889021 222.768248 63.5662558 224.562328 66.279039 228.100304 67.0057892 231.079982 66.7677158 238.093202 66.2038579 231.908018 66.8178365 238.638954 69.1484493 232.566684 67.0496448 238.137113 70.764842 239.178433 74.0164227 240.138202 76.9986046 244.027466 79.7803037 247.138877 79.8178943 248.958049 79.8366895 250.54512 79.730183 252.094552 79.5234351 255.030319 81.2776598 257.150595 83.0130892 260.732482 83.8400808 240.909782 53.4356084 208.114506 31.8210546 169.190503 27.5482645 100.256439 19.9863032 38.235227 69.6621865 30.6637086 138.509239 23.0859172 207.356292 72.8245828 269.299218 141.758647 276.861179 182.483003 281.334452 220.785979 265.815829 246.881684 238.180525 245.118969 237.572812 243.418985 236.864857 242.120472 236.589193 239.322712 235.98148 235.64673 237.729439 234.116117 240.072582M276.377359 159.595646C271.064123 164.269402 268.548647 170.377863 268.373003 177.313315 268.285181 180.633812 268.943847 184.355274 270.342727 187.400107 272.155626 191.353378 263.480058 198.157263 261.504061 201.139445 257.627344 207.003568 258.743939 214.152033 260.851669 220.392061 271.18331 204.497532 278.077344 186.028053 280.291715 165.90459 280.686914 162.289634 280.893923 158.706004 280.981745 155.134904 279.645595 156.569609 278.165166 158.023109 276.377359 159.595646"/>
    <path fill="#432918" d="M248.929821,73.397432 C246.771906,73.1593587 246.401799,76.5049157 248.559713,76.7429891 C250.7239,76.9810624 251.087735,73.6355054 248.929821,73.397432 M247.129468,70.0769353 C247.110649,69.0995816 246.288885,68.1723486 245.316569,68.0658421 C243.698133,67.8841545 242.706998,69.5005472 243.227658,70.9227222 C243.296661,71.11694 243.409575,71.2673021 243.516216,71.4176642 C242.788548,70.7285045 241.678225,70.5029613 240.605541,71.3612784 C237.795235,73.6167101 242.267888,77.4133535 243.9616,74.5940638 C244.551262,73.610445 244.356799,72.5140546 243.785956,71.7434488 C244.27525,72.2070653 244.952735,72.3887528 245.718041,72.3135718 C246.947551,72.1820049 247.386661,71.0542891 247.129468,70.0769353 M241.000741,65.6099276 C240.938011,65.6099276 240.875281,65.6099276 240.812551,65.6036625 C238.102612,65.5159512 237.688594,69.268739 240.354621,69.769946 C240.411078,69.7824762 240.473808,69.7950064 240.536538,69.8075366 C243.221385,70.3087436 243.729498,65.7039039 241.000741,65.6099276 M228.693103,51.9395054 C227.821155,51.3756475 227.137397,51.344322 226.165081,51.6575764 C224.703471,52.127458 224.433732,54.5520471 225.763609,55.328918 C226.64183,55.8489203 227.319314,55.9616919 228.285357,55.6045819 C229.746968,55.0532542 229.997888,52.7852923 228.693103,51.9395054 M231.948793,61.6315966 C231.955066,61.7506333 231.967612,61.8759351 231.973885,61.9949717 C231.992704,62.2455753 232.061707,62.4648533 232.155802,62.6653362 C231.936247,62.508709 231.685327,62.4147326 231.390495,62.4773835 C230.687919,62.6214805 230.713011,63.0036509 230.411906,63.5487136 C229.295311,65.5535418 233.868333,66.0296885 232.814468,63.504858 C232.795649,63.4484722 232.758011,63.3983515 232.732919,63.3482308 C233.836968,64.1814875 235.800419,63.9810047 236.252075,62.4648533 C236.289713,62.3520818 236.321078,62.2330451 236.358716,62.1140084 C237.437673,58.4990526 231.679054,57.8725438 231.948793,61.6315966 M225.895342,57.0831427 C224.120081,56.888925 223.122673,58.3737508 223.160311,59.952553 C223.160311,60.0152039 223.166584,60.0778548 223.166584,60.1405057 C223.223041,62.5212391 227.319314,62.9723255 227.896431,60.660508 C227.908977,60.5978571 227.921523,60.5414713 227.934069,60.4788204 C228.316722,58.9438738 227.66433,57.2773604 225.895342,57.0831427 M208.995863,55.184821 C208.920587,55.1597607 208.839038,55.1409654 208.763762,55.1221701 C207.145327,54.689879 205.370066,55.7298837 205.67117,57.5968799 C205.915817,59.1255614 208.11137,60.2846027 209.347152,59.0127898 C209.416155,58.9438738 209.478885,58.8749579 209.541615,58.812307 C210.507658,57.816158 210.733486,55.6421724 208.995863,55.184821 M220.067719,52.697581 C220.425281,52.4219172 220.707566,52.0460119 220.732658,51.488419 C220.751477,51.1375741 220.732658,50.7804641 220.720112,50.4296192 C220.651109,47.4161118 215.137137,48.5626229 216.573655,51.6638415 C216.73048,52.0084214 216.91867,52.3154107 217.163317,52.5660142 C215.601339,53.7062602 215.77071,56.7636232 218.261094,57.033022 C220.876937,57.321216 221.661063,54.044575 220.067719,52.697581 M210.633118,40.9693362 C210.520204,40.8315042 210.401017,40.6999374 210.28183,40.5621055 C208.280741,38.2816134 204.824314,41.0570474 206.618394,43.5004318 C206.725035,43.6445288 206.825403,43.7886258 206.932044,43.9327228 C208.744943,46.4011675 212.659299,43.2686235 210.633118,40.9693362 M201.179698,54.2199974 C198.959054,54.7212045 200.351661,58.7559212 202.628762,57.0706125 C203.168241,56.675912 203.381523,56.2436209 203.444253,55.5857866 C203.557167,54.4580708 202.133195,53.4368614 201.179698,54.2199974 M206.844222,46.21948 C205.696262,46.0941782 204.912137,46.6580361 204.498118,47.4349071 C204.140557,47.2594846 203.75163,47.1216527 203.306247,47.0965923 C201.637627,46.9900858 200.257566,48.3057543 200.270112,49.8594961 C200.169744,49.8281707 200.069376,49.7905802 199.956462,49.77805 C198.532489,49.6214228 197.196339,51.2064901 197.917735,52.5722793 C197.967919,52.6662556 198.018103,52.7602319 198.068287,52.8604733 C198.714406,54.0821655 200.232474,54.2450578 201.129514,53.1987881 C201.198517,53.1110769 201.26752,53.0296307 201.336523,52.9481846 C201.543532,52.7101112 201.6439,52.4469775 201.700357,52.1775787 C202.87341,52.8166177 204.466753,52.7351716 205.219514,51.4696238 C205.238333,51.3255268 205.301063,51.2378155 205.401431,51.1939599 C205.489253,51.1187788 205.54571,51.0310676 205.614713,50.9496215 C205.827995,51.0373327 206.028732,51.1375741 206.298471,51.1688996 C209.491431,51.5197445 210.037183,46.5703249 206.844222,46.21948 M201.311431,42.6233194 C200.546124,41.9341597 199.266431,42.0782568 198.708133,43.1997075 C198.657949,43.306214 198.601492,43.4127205 198.545035,43.5254921 C198.143563,44.3399536 198.664222,45.5553806 199.53617,45.8185143 C199.799637,45.8999605 200.075649,46.0127321 200.357934,46.0127321 C201.361615,46.0127321 202.007735,45.4927298 202.22729,44.515376 L202.246109,44.4151346 C202.396661,43.7385051 201.932459,42.9741644 201.311431,42.6233194 M198.181201,42.1847633 C198.206293,41.526929 197.723271,40.9129504 197.095971,40.7375279 C197.039514,40.7124676 197.008149,40.6936723 196.932873,40.6560818 C196.412213,40.4430688 195.822551,40.455599 195.314437,40.6874072 C194.273118,41.1510237 193.790097,42.4040413 194.254299,43.444046 C195.283072,45.7433333 198.714406,44.3524837 198.181201,42.1847633 M192.692321,53.6624046 C191.945833,53.4243313 191.349897,52.9419195 190.860603,52.3342059 C189.355081,50.4484144 191.970925,47.5351485 193.865373,49.2204572 C194.455035,49.2956382 195.044698,49.5587719 195.370894,50.0537139 C195.609268,50.4108239 195.784913,50.6927529 195.853916,51.1375741 C196.136201,52.9732449 194.36094,54.1949371 192.692321,53.6624046 M193.281983,44.3775441 C193.187888,44.2835678 193.093793,44.1895914 192.999698,44.0956151 C190.986063,42.021871 187.931109,44.4715204 189.518179,46.8835793 C189.593456,46.9900858 189.668732,47.1028574 189.737735,47.215629 C191.349897,49.6715435 195.326983,46.4888788 193.281983,44.3775441 M190.314851,38.1249862 C189.405265,37.4420916 188.03775,37.5235377 187.498271,38.8517364 C187.297535,39.3341482 187.278716,39.7288487 187.291262,40.242586 C187.3289,41.8401834 189.511906,42.3727159 190.590863,41.5143988 C191.60709,40.6999374 191.60709,38.6888441 190.314851,38.1249862 M186.657689,38.1312513 C186.620051,38.1061909 186.557321,38.0686004 186.500863,38.0310099 L186.51341,38.037275 C185.202351,37.1977532 183.351814,38.1312513 183.621554,39.7977647 C183.916385,41.6334355 186.394222,41.7963278 187.121891,40.1799351 C187.146983,40.1235493 187.172075,40.0734286 187.197167,40.0170428 C187.473179,39.3967991 187.241078,38.5071566 186.657689,38.1312513 M186.500863,38.0310099 C186.344038,37.9307685 186.212305,37.8493223 186.500863,38.0310099 M182.856247,46.3071912 C182.900158,46.3197214 182.937796,46.3259865 182.975434,46.3385167 C182.875066,46.2758658 182.780971,46.2445403 182.680603,46.1881545 C182.630419,46.1630942 182.592781,46.1192386 182.542597,46.0941782 C182.523778,46.0879131 182.498686,46.0941782 182.479867,46.0879131 C182.116032,45.9124907 181.752198,45.7809238 181.300541,45.7308031 C178.621968,45.436344 178.164038,49.5838323 180.842612,49.8782914 C181.501278,49.9472074 181.990572,49.8532311 182.6116,49.6464832 C184.186124,49.1264808 183.94775,47.1341828 182.856247,46.3071912 M178.088762,41.3389764 C177.963302,41.3515065 177.844115,41.3703018 177.724928,41.3890971 C175.472919,41.7211467 175.115357,44.9852576 177.241906,45.7997191 C177.304637,45.8247794 177.367367,45.8435747 177.430097,45.868635 C178.377321,46.3573119 179.487643,46.0691179 180.284314,45.2358612 C180.321952,45.1982706 180.353317,45.1606801 180.390956,45.1293547 C181.952934,43.5066968 179.951845,41.100903 178.088762,41.3389764 M176.802796,34.5037653 C173.578471,34.1529204 173.032719,39.1461955 176.257044,39.5033056 C179.48137,39.8541505 180.027121,34.8608753 176.802796,34.5037653 M169.337919,31.7972472 C169.099544,31.9664046 168.879989,32.1606223 168.685526,32.3799004 C166.000679,35.055093 169.965219,38.8266761 172.417965,35.9697959 C172.775526,35.550035 173.0139,35.1553344 173.164452,34.622802 C173.798026,32.3548401 171.414284,30.1683243 169.337919,31.7972472 M169.250097,39.7789694 C170.059314,39.7664393 168.974084,39.7789694 168.566339,39.7852345 C168.2966,39.7914996 168.064498,39.8478854 167.83867,39.9168014 C168.215051,38.5948678 167.58775,36.9220893 165.624299,37.1789579 C165.505112,37.1914881 165.385925,37.2040182 165.266738,37.2228135 C163.271922,37.4796821 162.945725,40.4493339 164.8339,41.1322285 C164.946814,41.169819 165.059729,41.2136746 165.178916,41.2575302 C165.674483,41.4329527 166.088502,41.4266876 166.458609,41.3389764 C166.207689,42.3225952 166.69071,43.4565761 168.033133,43.8387465 C168.215051,43.8512767 169.017995,43.9828435 169.074452,43.9765784 C169.532382,43.9013974 169.958946,43.6821193 170.297689,43.3688649 C171.414284,42.3163301 171.201002,39.747644 169.250097,39.7789694 M168.133502,43.876337 C168.095863,43.870072 168.070771,43.8450116 168.033133,43.8387465 C167.96413,43.8324814 167.976676,43.8387465 168.133502,43.876337 M168.566339,39.7852345 C168.566339,39.7852345 168.578885,39.7789694 168.585158,39.7789694 C168.346784,39.7852345 168.403241,39.7852345 168.566339,39.7852345 M164.056048,32.3799004 C163.961952,32.2859241 163.87413,32.1856827 163.786308,32.0854413 C162.293333,30.4189279 159.777857,32.4362862 161.082643,34.2468967 C161.164192,34.3596683 161.239468,34.4661748 161.314744,34.5726813 C162.638348,36.4083521 165.561569,34.0714742 164.056048,32.3799004 M156.503348,33.0878554 C156.497075,33.275808 156.490802,33.4700258 156.484529,33.6579784 C156.384161,36.3206408 160.110327,36.7278716 160.587075,34.1090647 C160.624713,33.9211121 160.656078,33.7331595 160.693716,33.5452068 C161.183011,30.8762793 156.609989,30.3688072 156.503348,33.0878554 M157.663854,38.3192039 C156.754268,38.2189625 156.133241,38.6763139 155.813317,39.3028227 C156.001508,38.5322169 155.844683,37.6425744 155.167198,36.9972703 L155.173471,36.9220893 C153.442121,34.6729227 149.860235,37.6049839 151.767229,39.6536677 C152.181247,40.0984889 152.545081,40.4430688 153.115925,40.674877 C154.314069,41.1572888 155.229928,40.6310214 155.650219,39.7977647 C155.418118,40.8252391 155.882321,42.0344011 157.243563,42.1847633 C159.733946,42.454162 160.160511,38.5948678 157.663854,38.3192039 M152.369437,31.0830272 C152.294161,30.9702556 152.218885,30.8637491 152.149882,30.7509775 C150.474989,28.2073518 146.359897,31.5027881 148.480173,33.6830387 C148.574268,33.7832802 148.668363,33.8772565 148.762459,33.9712328 C150.845097,36.1138929 154.012965,33.5827973 152.369437,31.0830272 M146.397535,34.6854528 C147.162842,34.3909937 147.78387,33.77075 147.871692,32.7119501 C147.921876,32.0917064 147.946968,31.5027881 147.865419,30.8825444 C147.551768,28.4955458 144.00752,28.1071104 143.179483,30.3688072 C142.966201,30.9514604 142.85956,31.5403786 142.778011,32.1543573 C142.583548,33.5452068 143.442949,34.4160541 144.496814,34.7418386 C143.04775,35.7003971 143.123026,38.8767968 145.387581,38.8329411 C145.450311,38.8266761 145.513041,38.8266761 145.575771,38.8266761 C148.235526,38.7765554 148.687183,35.5750953 146.397535,34.6854528 M137.972888,32.4488164 C137.866247,32.4864069 137.765879,32.5239975 137.665511,32.561588 C136.624192,32.9625536 136.448548,34.553886 137.376952,35.1678646 C137.464775,35.2305155 137.55887,35.2869013 137.652965,35.3495522 C138.70683,36.051242 140.199805,35.4999143 140.344084,34.1779807 C140.488363,32.849782 139.152213,31.991465 137.972888,32.4488164 M133.675879,31.7972472 C133.644514,31.7659218 133.619422,31.7283313 133.588057,31.6907407 C132.791385,30.6883267 131.336048,30.8136284 130.558195,31.7471265 C130.539376,31.7721869 130.514284,31.7972472 130.495465,31.8223076 C130.119084,32.279659 130.031262,33.0565299 130.301002,33.5827973 C130.319821,33.6141228 130.332367,33.6391831 130.344913,33.6705086 C130.896937,34.7543688 132.295817,35.192925 133.293225,34.3847286 C133.32459,34.3534032 133.362229,34.3283428 133.399867,34.2970174 C134.152627,33.6830387 134.278087,32.561588 133.675879,31.7972472 M261.017903,206.568144 C259.694299,206.424047 258.979176,207.927668 259.713118,208.948877 C259.73821,208.986468 259.763302,209.024059 259.788394,209.055384 C260.202413,209.631772 261.15591,209.738279 261.682842,209.268397 C261.714207,209.237072 261.745572,209.205746 261.78321,209.174421 C262.711615,208.341164 262.347781,206.712241 261.017903,206.568144 M263.044084,204.375363 C262.924897,204.387893 262.799437,204.394158 262.68025,204.406689 C262.285051,204.438014 262.216048,205.064523 262.592428,205.177294 C262.711615,205.214885 262.824529,205.252476 262.943716,205.283801 C263.690204,205.515609 263.821937,204.312712 263.044084,204.375363 M264.869529,201.67511 C264.875802,201.737761 264.888348,201.794147 264.894621,201.856798 C265.170633,203.479456 267.454008,203.730059 268.075035,202.207643 C268.100127,202.151257 268.118946,202.094871 268.144038,202.038485 C269.216722,199.388353 264.392781,198.862086 264.869529,201.67511 M268.808977,191.350245 C266.89571,191.143497 265.440373,193.517966 266.782796,195.034117 C266.807888,195.071707 266.839253,195.103033 266.870618,195.140623 C267.66729,196.042796 268.896799,196.174363 269.875388,195.466408 C269.913026,195.441348 269.944391,195.416287 269.982029,195.384962 C271.619284,194.194595 270.715971,191.563258 268.808977,191.350245 M274.228854,185.454797 C274.210035,185.398411 274.191216,185.335761 274.172397,185.279375 C273.582735,183.224426 271.198992,182.967557 270.170219,184.840819 C270.145127,184.890939 270.113762,184.947325 270.082397,184.997446 C269.392367,186.256729 270.590511,187.804205 271.857658,187.942037 C273.124805,188.086134 274.624054,186.833117 274.228854,185.454797 M272.760971,181.702009 C272.742152,181.582973 272.723333,181.457671 272.704514,181.338634 C272.635511,180.831162 271.889023,180.743451 271.707106,181.232128 C271.663195,181.344899 271.619284,181.457671 271.575373,181.570443 C271.211538,182.529001 272.90525,182.716954 272.760971,181.702009 M276.568686,173.137634 C276.549867,173.087513 276.537321,173.037393 276.518502,172.981007 C276.066845,171.514976 273.582735,171.239312 272.823701,172.573776 C272.792336,172.623897 272.767244,172.667752 272.735879,172.717873 C271.932934,174.133783 272.453594,176.06343 274.285311,176.263913 C276.123302,176.464396 277.045434,174.697641 276.568686,173.137634 M276.86979,163.188674 C272.422229,162.699997 271.669468,169.585329 276.110756,170.074006 C280.558317,170.562683 281.317351,163.677351 276.86979,163.188674 M241.753502,238.432382 L241.747229,238.426117 C241.628041,238.375996 241.515127,238.31961 241.370848,238.29455 C241.308118,238.28202 241.239115,238.275755 241.176385,238.263225 C241.151293,238.263225 241.132474,238.244429 241.107382,238.244429 C241.076017,238.244429 241.038379,238.238164 241.007014,238.238164 C239.984514,238.081537 239.407397,238.827083 239.35094,239.629014 C239.231753,240.418415 239.633225,241.270467 240.668271,241.339383 C240.699637,241.345648 240.731002,241.351913 240.76864,241.358178 C240.793732,241.358178 240.812551,241.345648 240.837643,241.351913 C240.900373,241.358178 240.969376,241.358178 241.032106,241.364443 C241.182658,241.376973 241.295572,241.339383 241.427305,241.314322 L241.439851,241.314322 C242.907735,241.063719 243.133563,238.99624 241.753502,238.432382 M236.208164,237.611655 C234.081615,237.379847 233.717781,240.675283 235.850603,240.913357 C237.977152,241.145165 238.340986,237.843464 236.208164,237.611655 M240.787459,242.479629 C240.762367,242.360592 240.731002,242.241555 240.70591,242.122519 C240.454989,240.938417 238.899284,240.76926 238.39117,241.871915 C238.340986,241.978422 238.290802,242.091193 238.240618,242.203965 C237.299667,244.246384 241.257934,244.678675 240.787459,242.479629 M234.11298,246.276272 C232.620005,246.11338 232.369084,248.425197 233.855787,248.58809 C235.348762,248.750982 235.605956,246.439165 234.11298,246.276272 M215.174775,248.25604 C213.01686,248.017967 212.646753,251.363524 214.81094,251.595332 C216.968854,251.833405 217.338962,248.487848 215.174775,248.25604 M220.971032,249.402551 C220.782842,249.383756 220.594652,249.371226 220.400189,249.35243 C218.875848,249.202068 218.141906,250.586653 218.380281,251.726899 C217.803164,251.250752 216.774391,251.188101 216.253732,251.714369 C216.222367,251.745694 216.191002,251.77702 216.159637,251.808345 C215.093225,252.88594 215.381784,254.859443 217.100587,255.047396 C218.562198,255.204023 219.283594,253.894619 218.982489,252.704253 C219.239683,252.929796 219.553333,253.117748 219.98617,253.167869 L220.550741,253.236785 C223.022305,253.543774 223.44887,249.640625 220.971032,249.402551 M218.110541,256.275353 C216.046722,256.04981 215.689161,259.257535 217.759253,259.483078 C219.829345,259.708621 220.180633,256.507161 218.110541,256.275353 M211.561523,256.795355 C209.127597,256.532221 208.713578,260.303804 211.147505,260.566938 C213.581431,260.836337 213.995449,257.064754 211.561523,256.795355 M203.456799,262.740924 C203.575986,262.684538 203.695173,262.646947 203.808087,262.571766 C203.87709,262.51538 203.952367,262.46526 204.027643,262.415139 C204.617305,262.001643 204.83686,261.3814 204.799222,260.761156 C206.235741,259.721151 205.67117,257.384273 204.14683,256.77656 C202.308839,256.04981 200.514759,257.83536 201.035419,259.63344 C200.521032,260.353925 200.401845,261.337544 201.091876,262.089355 C201.148333,262.15827 201.211063,262.227186 201.26752,262.289837 C201.474529,262.51538 201.70663,262.665743 201.951278,262.772249 C200.031738,263.260926 199.906278,265.917323 202.095557,266.443591 C202.045373,266.437326 202.001462,266.437326 201.951278,266.431061 C204.604759,267.508656 205.407704,263.473939 203.456799,262.740924 M198.287842,262.84743 C195.690817,262.559236 195.251707,266.581423 197.848732,266.869617 C200.445756,267.151546 200.884867,263.129359 198.287842,262.84743 M194.072382,261.989113 C194.009652,261.970318 193.953195,261.951523 193.896738,261.932727 C191.130342,261.105736 190.647321,265.503828 193.520357,265.29708 C193.583087,265.290815 193.645817,265.284549 193.708548,265.284549 C195.38344,265.159248 195.678271,262.46526 194.072382,261.989113 M195.126247,267.088895 C195.088609,267.019979 195.050971,266.951063 195.013333,266.875882 C194.467581,265.873468 193.012244,265.541418 192.278302,266.581423 C192.240664,266.637808 192.196753,266.700459 192.152842,266.76311 C191.400081,267.828175 192.021109,269.369387 193.350986,269.513484 C194.580495,269.645051 195.766094,268.272996 195.126247,267.088895 M192.880511,270.32168 C192.303394,270.259029 192.203026,271.154937 192.786416,271.217588 C193.363532,271.280239 193.4639,270.384331 192.880511,270.32168 M187.259897,268.442154 C186.726692,267.214197 185.628916,266.907207 184.399406,267.13275 C182.793517,267.42721 182.605327,269.576135 184.054391,270.221439 C184.763241,270.534693 185.334084,270.760236 186.11821,270.547223 C187.052888,270.290355 187.680189,269.406977 187.259897,268.442154 M182.210127,269.375652 L182.166216,269.012277 C181.90275,266.875882 178.684698,266.525037 177.963302,268.54866 L177.837842,268.89324 C176.583241,272.445545 182.668057,273.11591 182.210127,269.375652 M177.04117,270.697586 C177.009805,270.66626 176.97844,270.634935 176.947075,270.603609 C176.401324,269.995896 175.648563,269.820473 174.945986,270.058547 C174.914621,270.064812 174.895802,270.064812 174.845618,270.077342 C173.057811,270.365536 172.781799,272.902897 174.462965,273.573261 C174.582152,273.610851 174.688793,273.667237 174.795434,273.729888 C176.533057,274.682182 178.283225,272.088435 177.04117,270.697586 M170.253778,271.148672 C167.575204,270.860478 167.117275,275.001701 169.795848,275.29616 C172.474422,275.590619 172.932351,271.443131 170.253778,271.148672 M164.125051,271.267709 C161.477842,270.973249 161.032459,275.076882 163.679667,275.365076 C166.326876,275.65327 166.772259,271.555903 164.125051,271.267709 M157.6764,267.0701 C157.632489,265.585274 155.098195,265.303345 154.728087,266.744315 C154.709268,266.806966 154.696722,266.863352 154.677903,266.926002 C154.04433,269.394447 157.764222,269.801678 157.682673,267.251787 C157.682673,267.195401 157.682673,267.13275 157.6764,267.0701 M160.725081,272.959282 C160.712535,272.877836 160.699989,272.79639 160.687443,272.708679 C160.543164,271.718795 159.263471,271.71253 158.868271,272.508196 C158.899637,272.483136 158.931002,272.45181 158.962367,272.420485 C158.052781,273.366513 159.112919,274.682182 160.229514,273.999287 C160.273425,273.974227 160.311063,273.949166 160.348701,273.924106 C160.656078,273.736153 160.768992,273.291332 160.725081,272.959282 M161.565664,270.127462 C161.502934,270.114932 161.446477,270.102402 161.383747,270.083607 C160.298517,269.801678 160.1166,271.443131 161.239468,271.399275 C161.302198,271.399275 161.364928,271.399275 161.421385,271.39301 C162.067505,271.374215 162.180419,270.290355 161.565664,270.127462 M161.879314,266.236843 C161.427658,265.409851 160.078962,265.998769 160.536891,266.832026 C160.725081,267.176606 160.919544,267.521186 161.095189,267.872031 C161.226922,268.128899 161.603302,268.20408 161.785219,267.947212 C162.211784,267.339498 162.236876,266.882147 161.879314,266.236843 M155.273839,262.47779 C155.25502,262.427669 155.236201,262.377549 155.217382,262.327428 C154.866094,261.39393 153.423302,261.237303 152.877551,262.070559 C152.846186,262.114415 152.821094,262.15827 152.789729,262.202126 C151.121109,264.758282 156.346523,265.328405 155.273839,262.47779 M153.21002,269.807943 C151.202658,269.5824 150.857643,272.696149 152.865005,272.915427 C154.87864,273.134705 155.217382,270.027221 153.21002,269.807943 M148.530357,270.659995 C146.196799,270.403126 145.795327,274.024347 148.135158,274.281216 C150.468716,274.531819 150.870189,270.916864 148.530357,270.659995 M147.495311,267.414679 C147.664683,266.769375 147.821508,266.136601 147.90933,265.459972 C148.153977,263.57418 145.15548,263.248396 144.986109,265.134187 C144.90456,266.0113 144.678732,267.232992 145.055112,268.066249 C145.299759,268.617576 145.970971,269.037337 146.359897,269.488424 C146.604544,269.770352 146.987198,269.739027 147.225572,269.475893 C147.796416,268.830589 147.771324,268.135164 147.495311,267.414679 M144.917106,262.841165 C144.935925,261.744775 144.170618,260.967904 143.054023,261.068145 C142.207167,261.143326 141.699054,261.481641 141.216032,262.170801 C139.352949,264.827198 144.227075,266.919737 144.84183,263.592976 C144.910833,263.348637 144.935925,263.091769 144.917106,262.841165 M145.149207,269.275411 C144.942198,268.90577 144.760281,268.605046 144.402719,268.360708 C143.900879,268.009863 143.079115,268.028658 142.614913,268.454684 C141.44186,268.949626 141.341492,270.941924 142.677643,271.38048 C142.934836,271.468191 143.198302,271.524577 143.461768,271.587228 C144.647367,271.856627 145.726324,270.30915 145.149207,269.275411 M137.420863,270.30915 C137.376952,270.277825 137.333041,270.246499 137.295403,270.208909 C135.407229,268.749143 134.93048,273.097114 137.088394,272.08217 C137.138578,272.05711 137.182489,272.038314 137.232673,272.013254 C137.916431,271.693735 138.016799,270.772767 137.420863,270.30915 M130.031262,269.9771 L130.081446,270.158788 C130.445281,271.486987 132.038624,271.662409 132.678471,270.440717 L132.766293,270.277825 C133.901707,268.116369 129.391416,267.621427 130.031262,269.9771 M126.524652,265.804552 C125.094406,265.647925 124.849759,267.859501 126.280005,268.016128 C127.71025,268.17902 127.954897,265.961179 126.524652,265.804552 M43.3822285,198.235577 C43.3383175,198.260637 43.3006794,198.285698 43.2630414,198.310758 C42.3785475,198.887146 42.2029034,200.491009 42.9431181,201.242819 C42.9744831,201.274145 43.0058482,201.30547 43.0372132,201.336795 C44.3294525,202.646199 46.7257408,202.257763 46.951569,200.196549 C47.1836702,198.141601 44.925388,197.239428 43.3822285,198.235577 M56.3171672,206.041877 C53.7013236,205.753683 53.2496672,209.807195 55.8717837,210.095389 C58.4876273,210.383583 58.9330107,206.330071 56.3171672,206.041877 M64.5536242,207.564293 C62.238885,207.31369 61.8436856,210.891055 64.1584248,211.147923 C66.4731641,211.404792 66.8620905,207.821162 64.5536242,207.564293 M71.7111242,219.280008 C71.3033788,218.622173 70.6321672,218.058316 69.8229494,217.970604 C68.1982408,217.795182 70.6384402,218.070846 69.3712929,217.933014 C69.0952807,217.901688 68.8443604,217.958074 68.5934402,218.070846 C68.2107868,218.252533 67.8908635,218.70362 67.8720445,219.129646 C67.9410475,218.998079 68.0163236,218.860247 68.0915997,218.72868 C67.8845905,219.004344 67.7654034,219.311333 67.7277653,219.655913 C67.6713083,220.13206 67.6964003,220.53929 67.8093144,221.009172 C68.6185322,224.423645 73.6306641,222.374961 71.7111242,219.280008 M67.5834862,228.621254 C66.397888,228.489687 66.1971518,230.331623 67.38275,230.456925 C68.5683482,230.588492 68.7690844,228.752821 67.5834862,228.621254 M68.7000813,233.764891 C68.7063543,233.821277 68.7126273,233.883928 68.7126273,233.946579 C68.7879034,234.898872 70.3310629,235.074295 70.6070752,234.153327 C70.6258942,234.096941 70.6384402,234.03429 70.6572592,233.977904 C71.1402807,232.374042 68.5808942,232.092113 68.7000813,233.764891 M77.0306334,238.551419 C76.8110782,238.563949 76.4723359,238.538888 76.2778727,238.495033 C75.3996518,238.29455 74.6029801,239.278169 74.7598052,240.09263 C74.9919064,241.301792 75.5062929,241.86565 76.604069,242.416978 C79.2700966,243.751442 80.725434,238.401057 77.0306334,238.551419 M87.839023,245.204942 C87.795112,245.129761 87.7449279,245.05458 87.6947439,244.979399 C86.803977,243.60108 84.2132255,244.321565 84.2194985,245.988078 L84.2194985,246.257477 C84.2383175,249.997735 89.852658,248.312426 87.839023,245.204942 M91.6530107,245.975548 C88.7925199,245.662294 88.3032255,250.091711 91.1637163,250.404965 C94.0242071,250.71822 94.5135015,246.288802 91.6530107,245.975548 M106.030741,247.247361 C102.775051,246.883986 102.216753,251.927382 105.472443,252.284492 C108.728133,252.641602 109.286431,247.598206 106.030741,247.247361 M107.479805,256.381859 C106.808594,255.74282 106.062106,255.423301 105.133701,255.39824 C104.682044,255.379445 104.349575,255.642579 104.268026,256.0874 C104.092382,256.995838 104.249207,257.797769 104.719683,258.593435 C106.231477,261.124531 109.625173,258.405483 107.479805,256.381859 M112.761676,264.457558 C112.767949,264.520209 112.780495,264.576594 112.793041,264.639245 C113.131784,266.675399 116.011094,266.994918 116.782673,265.077802 C116.807765,265.021416 116.832857,264.96503 116.851676,264.908644 C118.1941,261.600678 112.172014,260.936578 112.761676,264.457558 M116.939498,257.027163 C116.857949,256.306678 116.569391,255.843062 115.979729,255.429566 C114.430296,254.333175 112.981232,255.905713 113.181968,257.252707 C112.416661,255.561133 109.443256,255.536072 109.311523,257.785239 C109.273885,258.349097 109.336615,258.793918 109.531078,259.326451 C110.446937,261.794895 114.173103,260.122117 113.263517,257.666202 C113.294882,257.854155 113.33252,258.042108 113.370158,258.23006 C113.382704,257.991987 113.326247,257.791504 113.276063,257.591021 C113.370158,257.82283 113.526983,258.029577 113.752811,258.211265 C114.562029,259.827658 117.159054,258.831509 116.939498,257.027163 M104.525219,258.205 C104.431124,257.741383 104.211569,257.359213 104.061017,256.939452 C103.427443,255.178962 101.213072,255.611253 100.403854,256.807885 C100.328578,255.73029 99.4566304,254.752936 98.3400353,254.627635 C96.8846979,254.464742 95.4858175,255.811736 95.7869218,257.302827 C95.7994678,257.365478 95.8120138,257.421864 95.8245598,257.484515 C96.2762163,259.689826 99.2057101,260.021875 100.152934,257.998252 C100.184299,258.19247 100.215664,258.392953 100.334851,258.5997 C100.962152,259.708621 101.652183,260.416576 103.025971,260.278744 C103.979468,260.184768 104.707137,259.132233 104.525219,258.205 M93.1961702,243.425657 C93.1898972,243.557224 93.1836242,243.682526 93.1710782,243.807828 C93.0017071,246.564466 97.003885,247.003022 97.4304494,244.271444 C97.4492684,244.146142 97.4743604,244.020841 97.4931794,243.895539 C97.9260169,241.145165 93.3718144,240.650223 93.1961702,243.425657 M102.712321,240.305643 C102.467673,238.645395 99.8894678,239.058891 100.134115,240.719139 C100.472857,243.068547 103.063609,242.755293 102.712321,240.305643 M105.961738,232.23621 C106.024468,231.18994 105.428532,230.494515 104.669498,230.181261 C104.951784,229.930657 105.177612,229.592343 105.246615,229.109931 C105.259161,228.978364 105.27798,228.853062 105.296799,228.727761 C105.616722,226.428473 101.89683,226.021242 101.70864,228.339325 C101.702367,228.464627 101.689821,228.589929 101.677275,228.71523 C101.614544,229.517162 101.997198,230.068489 102.530403,230.369214 C102.135204,230.663673 101.852919,231.127289 101.809008,231.778858 C101.77137,232.348981 101.758824,232.919104 101.727459,233.489227 C101.696094,234.05935 101.8341,234.554292 102.034836,235.086825 C102.078747,235.205862 103.025971,236.628037 102.379851,235.569237 C102.66841,236.045383 103.032244,236.264661 103.60936,236.227071 C105.71709,236.089239 105.855097,233.858868 105.961738,232.23621 M99.3437163,227.737877 C99.2057101,227.549924 99.055158,227.468478 98.8481488,227.355706 C97.8068298,226.791848 97.5621825,229.003424 98.7038696,228.671375 C98.9296979,228.608724 99.092796,228.564868 99.2684402,228.408241 C99.4691764,228.226553 99.5005414,227.957155 99.3437163,227.737877 M87.4689156,228.683905 C87.5002807,228.558603 87.4940077,228.527278 87.4689156,228.683905 M87.6069218,228.201493 C87.5504647,228.427036 87.4940077,228.658845 87.4438236,228.884388 L87.4375506,228.884388 C87.4500966,228.784146 87.4563696,228.734026 87.4689156,228.683905 C87.4438236,228.759086 87.4124586,228.846797 87.3497285,228.947039 L87.3748206,228.947039 C87.1176273,229.279088 87.0862623,229.730175 87.3748206,230.112345 C88.2593144,231.290182 89.9592991,231.052108 90.8187009,229.987043 C92.6190537,227.750407 88.2342224,225.689193 87.6069218,228.201493 M96.006477,230.713793 C94.4821365,230.544636 94.2249433,232.906574 95.7430107,233.069467 C97.2673512,233.238624 97.5245445,230.882951 96.006477,230.713793 M89.9718451,235.187066 L89.4135475,235.074295 C87.5755567,234.698389 87.2242684,237.91238 89.0998972,237.943705 C89.2880874,237.94997 89.4762776,237.94997 89.6707408,237.956235 C91.4710936,237.987561 91.7408328,235.544176 89.9718451,235.187066 M84.2571365,237.868524 C84.6523359,234.804896 79.7405721,234.266098 79.4959248,237.342257 C79.3453727,239.159132 79.7970291,240.882031 81.8357561,241.226611 C82.739069,241.376973 83.4228267,240.762995 83.8180261,240.036244 C83.6612009,240.41215 83.736477,240.305643 84.0375813,239.704195 C84.1504954,239.416001 84.2069525,239.121542 84.2006794,238.814552 C84.2132255,238.495033 84.2194985,238.181778 84.2571365,237.868524 M78.6867071,228.859327 C78.667888,229.053545 78.655342,229.241498 78.636523,229.42945 C78.4106948,232.2738 82.6387009,232.737417 83.0401733,229.911862 C83.0652653,229.72391 83.0903574,229.535957 83.1217224,229.348004 C83.5231948,226.503654 78.9125353,225.996182 78.6867071,228.859327 M80.2863236,214.919506 L80.2298666,215.489629 C79.8660322,218.74121 84.9158021,219.292538 85.2733635,216.040957 L85.3360936,215.477099 C85.6936549,212.225519 80.650158,211.667926 80.2863236,214.919506 M78.3291457,210.026473 C78.2413236,209.926231 78.1472285,209.82599 78.0594064,209.725748 C76.8424433,208.372489 74.4837929,208.898757 74.2705107,210.828404 C74.0572285,212.758051 76.2465077,213.77926 77.7269371,212.726726 C77.8398512,212.645279 77.9464923,212.570098 78.0594064,212.488652 C78.8058942,211.95612 78.9439003,210.703102 78.3291457,210.026473 M76.0834095,213.866972 C74.3520598,213.672754 74.0509555,216.360477 75.7885782,216.548429 C77.5199279,216.742647 77.8210322,214.054924 76.0834095,213.866972 M79.3328267,219.035669 C78.3918758,218.935428 78.2287776,220.395193 79.1760015,220.5017 C80.1169525,220.601941 80.2800506,219.142176 79.3328267,219.035669 M73.8000353,224.179307 C70.9458175,223.859787 70.456523,228.295469 73.3170138,228.608724 C76.1775046,228.921978 76.6605261,224.492561 73.8000353,224.179307 M64.4532561,198.06642 C62.8285475,197.884732 61.4296672,199.350763 61.6931334,200.96089 C61.7056794,201.061132 61.7621365,201.142578 61.7809555,201.236554 C60.4197132,201.812942 59.8865077,203.629818 60.8211856,204.964281 C60.8525506,205.001872 60.8776426,205.039463 60.9027347,205.077053 C61.5864923,206.054407 63.248839,206.236094 64.1270598,205.427898 C64.1584248,205.402838 64.1960629,205.371512 64.2274279,205.340187 C64.8860936,204.738738 65.1307408,203.899217 65.0366457,203.122346 C65.33775,202.978249 65.6388543,202.790296 65.9085936,202.508367 C66.1908788,202.213908 66.366523,201.869328 66.5170752,201.493423 C67.1255567,199.971006 66.0716917,198.241842 64.4532561,198.06642 M68.2045138,216.028427 C68.1417837,216.009632 68.0727807,215.997102 68.0100506,215.978306 C68.1166917,215.853005 68.2421518,215.752763 68.3174279,215.571076 C68.8318144,214.280467 67.4392071,212.820702 66.1281488,213.472271 C66.0591457,213.503597 65.9964156,213.541187 65.9274126,213.572512 L65.9650506,213.572512 C65.4067531,213.77926 65.0240997,214.299263 65.0617377,215.038543 C65.0805567,215.414448 65.2499279,215.727703 65.5196672,215.990836 C66.0842377,216.554694 66.9185475,216.692526 67.5646672,216.366742 C67.6023052,216.441923 67.6587623,216.504574 67.7716764,216.504574 C67.8971365,216.504574 68.0288696,216.498309 68.1543298,216.498309 C68.4617071,216.492044 68.5056181,216.097343 68.2045138,216.028427 M65.1119218,219.204827 C64.7104494,218.847717 64.277612,218.534462 63.8196825,218.258798 C63.9137776,218.083376 63.9388696,217.882893 63.8071365,217.701206 C63.6628574,217.506988 63.5060322,217.419277 63.29275,217.306505 C62.8599126,217.068432 62.5588083,217.28771 62.4208021,217.613494 C60.8337316,217.256384 59.9492377,219.706034 61.5990383,220.401458 C62.7532715,220.88387 63.8949586,220.87134 64.9990077,220.263627 C65.4192991,220.031818 65.4694831,219.530611 65.1119218,219.204827 M55.6208635,212.332025 C53.3374893,212.081422 52.9548359,215.614931 55.2319371,215.865535 C57.5153113,216.116138 57.9042377,212.582629 55.6208635,212.332025 M52.9297439,206.818748 C52.2146212,205.92284 50.972566,207.382605 52.089161,207.958994 C52.7352807,208.297308 53.3814003,207.37634 52.9297439,206.818748 M57.7285936,202.257763 C57.8101426,201.712701 57.6094064,201.336795 57.3145752,200.904504 C56.4677193,199.638957 54.4729034,200.403297 54.3286242,201.769087 C54.1843451,203.06596 55.4891304,203.849096 56.5931794,203.441865 C56.7500046,203.41054 56.8942837,203.354154 57.0260169,203.278973 C57.0385629,203.272708 57.0448359,203.272708 57.0573819,203.266443 L57.0762009,203.253912 C57.4149433,203.040899 57.6658635,202.702585 57.7285936,202.257763 M58.7448206,192.860131 C58.6632715,190.560844 54.7990997,190.623495 55.1942991,193.198446 C55.2883942,193.84375 55.5204954,194.263511 56.0286089,194.683272 C57.2894831,195.710746 59.158839,194.313632 58.7448206,192.860131 M52.5721825,194.92761 C52.5031794,194.92761 52.1267991,194.965201 52.038977,194.946406 C50.5836396,194.55797 50.4895445,196.819667 51.8570598,196.625449 C52.4906334,196.537738 52.8419218,196.287135 53.017566,195.666891 C53.105388,195.366167 52.9548359,194.921345 52.5721825,194.92761 M47.5914156,193.392664 C47.4032255,192.421575 47.0080261,192.02061 46.1360782,191.588318 C44.1789003,190.61723 42.792566,193.987847 44.875204,194.758453 C45.1073052,194.833634 45.3331334,194.92761 45.5526887,195.027852 C46.5877347,195.478938 47.8046979,194.501584 47.5914156,193.392664 M38.2132715,183.074064 C37.0214003,182.942497 35.9173512,184.258165 36.5132868,185.398411 L36.5885629,185.542508 C37.1531334,186.607573 38.4830107,186.75167 39.2608635,185.836968 L39.3675046,185.711666 C40.1955414,184.728047 39.4051426,183.199366 38.2132715,183.074064 M43.858977,185.085157 C44.0471672,187.064925 46.7445598,187.359384 47.3593144,185.467327 C48.2939923,182.610447 43.5704187,182.090445 43.858977,185.085157 M48.3755414,179.26489 C48.3128113,179.25236 48.2500813,179.246095 48.1873512,179.233565 C47.0707561,179.001757 46.8574739,180.950199 47.992888,180.975259 L48.1873512,180.975259 C49.2976733,181.00032 49.4670445,179.490433 48.3755414,179.26489 M39.9508942,177.347773 C39.9697132,177.410424 39.9822592,177.46681 40.0010782,177.529461 C40.4025506,179.045612 42.2342684,179.246095 42.9619371,177.855245 C42.9870291,177.79886 43.0183942,177.742474 43.0434862,177.692353 C44.3169064,175.236439 39.2420445,174.678846 39.9508942,177.347773 M38.9158482,174.146313 C38.9283942,174.202699 38.9472132,174.26535 38.9597592,174.321736 C39.3173206,175.700055 41.0047592,175.888008 41.6508788,174.616195 C41.6822439,174.566074 41.7073359,174.509688 41.7324279,174.453303 C42.880388,172.216666 38.2822745,171.709194 38.9158482,174.146313 M39.3298666,165.951578 C37.5985169,165.763625 37.3036856,168.451348 39.0350353,168.639301 C40.772658,168.827253 41.0674893,166.145796 39.3298666,165.951578 M39.743885,152.406458 C39.6811549,152.343807 39.6184248,152.281156 39.5556948,152.218505 C38.4077347,151.084524 36.3000046,151.391513 36.0992684,153.220919 C35.8985322,155.05659 37.8870752,155.8084 39.2545905,154.950083 L39.4804187,154.805986 C40.2080874,154.3549 40.3586396,153.014171 39.743885,152.406458 M31.7332561,158.608895 C30.9428574,158.521184 30.8111242,159.749141 31.601523,159.836852 C32.3919218,159.924563 32.5236549,158.696606 31.7332561,158.608895 M35.1834095,162.737588 C34.700388,163.226265 35.2022285,163.852774 35.716615,163.401687 C36.1369064,163.038312 35.5597899,162.355418 35.1834095,162.737588 M37.4354187,161.616137 C37.2346825,161.710113 37.3664156,161.998308 37.5671518,161.923126 C38.2258175,161.678788 38.1066304,161.315413 37.4354187,161.616137 M45.866339,153.064292 C45.7157868,152.506699 45.5526887,152.137059 45.0759402,151.786214 C43.4637776,150.602112 41.9143451,153.114413 43.3885015,154.141887 C43.4575046,154.217068 43.5390537,154.292249 43.6206028,154.361165 C44.0158021,154.918758 44.8250199,155.125506 45.2954954,154.480202 C45.3143144,154.455141 45.3331334,154.423816 45.3519525,154.398756 C45.7157868,154.110562 45.9980721,153.534174 45.866339,153.064292 M41.5003267,148.766442 C40.6409248,148.2715 39.7187929,148.327885 38.796661,147.983305 C38.1630874,147.745232 37.686339,148.597284 38.2195445,149.01078 C39.1730414,149.743795 40.2331794,150.044519 41.3999586,149.69994 C41.770066,149.587168 41.839069,148.954394 41.5003267,148.766442 M34.8133021,144.305699 C34.7693911,144.72546 34.7631181,144.744255 34.8509402,145.151486 C34.9073972,145.42715 35.2775046,145.471005 35.3966917,145.207871 C35.5660629,144.831966 35.5723359,144.813171 35.6162469,144.39341 C35.672704,143.879673 34.8697592,143.791962 34.8133021,144.305699 M35.5786089,141.524 C35.4092377,142.069062 35.2273206,142.388582 35.3841457,142.946175 C35.4656948,143.234369 35.7417071,143.340875 35.9989003,143.177983 C36.4756488,142.870994 36.714023,142.570269 36.9461242,142.062797 C37.3475966,141.198215 35.8483482,140.621827 35.5786089,141.524 M38.0439003,136.649761 C38.0439003,136.90663 37.9560782,137.138438 37.9623512,137.401572 C37.9623512,137.796272 38.1693604,138.090731 38.5708328,138.159647 C39.3549586,138.303744 39.8567991,137.890249 40.0951733,137.157233 C40.6221058,135.572166 38.0439003,135.189996 38.0439003,136.649761 M42.2719064,128.837196 C39.9885322,128.586593 39.5996058,132.120102 41.8829801,132.370706 C44.1600813,132.62131 44.5490077,129.0878 42.2719064,128.837196 M138.606462,37.968359 C136.831201,37.7741413 136.047075,39.4907754 136.454821,40.7939137 C136.404637,40.7688534 136.366998,40.7375279 136.316814,40.7187327 C136.2039,40.6811421 136.090986,40.6498167 135.978072,40.6122262 C134.315725,40.104754 132.496554,40.9818664 132.289544,42.8300673 C132.044897,45.0416434 134.190265,46.1881545 136.084713,45.5929712 C136.191354,45.5616457 136.304268,45.5240552 136.41091,45.4927298 C137.859974,45.0353783 138.217535,43.2811537 137.659238,42.0093408 C137.816063,42.0657266 137.954069,42.1409076 138.142259,42.1597029 C140.852198,42.4604271 141.310127,38.2628181 138.606462,37.968359 M131.047489,39.5659564 C130.972213,39.4594499 130.890664,39.3529435 130.815388,39.246437 C129.196952,37.0098005 125.646431,39.8541505 127.484422,41.9153645 C127.572244,42.0156059 127.660066,42.1095822 127.747888,42.2098236 C129.560787,44.2459772 132.647106,41.7837976 131.047489,39.5659564 M125.357873,36.7028112 C123.946446,35.8695545 122.01436,36.4334124 121.813624,38.250288 C121.625434,39.960657 123.388149,41.169819 124.937581,40.5245149 C125.037949,40.4869244 125.138317,40.4430688 125.238686,40.4054782 C125.903624,40.1298144 126.380373,39.4469198 126.449376,38.7452299 C126.537198,37.8618525 126.10436,37.1413674 125.357873,36.7028112 M119.963087,36.9158242 C117.974544,35.5124445 115.352428,38.0310099 116.958317,40.029573 C118.971952,42.5356082 122.541293,38.7326997 119.963087,36.9158242 M120.998133,41.7086166 C118.231738,41.4078923 117.761262,45.6932126 120.527658,46.0002019 C123.300327,46.3071912 123.770802,42.0156059 120.998133,41.7086166 M118.583026,43.1558519 C118.545388,43.0305501 118.50775,42.9052484 118.463839,42.7862117 C117.623256,40.1799351 113.664989,43.3500696 116.029913,44.7346541 C116.136554,44.8035701 116.249468,44.866221 116.362382,44.9288718 C117.679713,45.6932126 119.040956,44.5968222 118.583026,43.1558519 M109.142152,43.4753714 C109.098241,43.4503111 109.048057,43.4189856 109.004146,43.3939253 C107.567627,42.523078 107.26025,45.3110422 108.847321,44.7722446 C108.903778,44.7534494 108.953962,44.7409192 109.004146,44.7221239 C109.499713,44.5529666 109.593808,43.7447702 109.142152,43.4753714 M103.734821,45.1794754 C103.722275,45.1293547 103.703456,45.0792339 103.684637,45.0353783 C103.684637,44.6782683 103.496446,44.4151346 103.138885,44.3524837 C102.624498,44.2647725 102.229299,44.371279 101.840373,44.7158588 C101.150342,45.3235724 101.256983,46.4700835 102.154023,46.8209284 C103.082428,47.1905686 104.305664,46.150564 103.734821,45.1794754 M95.2725353,49.8594961 C92.8699739,49.5963624 92.4622285,53.3178248 94.8647899,53.5809585 C97.2673512,53.8440922 97.6750966,50.1226298 95.2725353,49.8594961 M93.942658,64.4884768 C93.6039156,63.9183538 92.7633328,63.8744982 92.4434095,64.5573928 C92.3932255,64.6701643 92.3430414,64.7766708 92.2928574,64.8894424 C92.0858482,65.3279986 92.3430414,66.0234234 92.8386089,66.1549902 C92.895066,66.1737855 92.957796,66.1863157 93.0142531,66.2051109 C94.3002193,66.5434257 94.6954187,65.0460696 93.942658,64.4884768 M92.2552193,56.2624162 C92.1799433,56.2060304 92.1046672,56.1496446 92.0356641,56.0932588 C90.7622439,55.0971098 88.811339,55.7048233 88.2342224,57.1708539 C88.1275813,57.4277225 88.0773972,57.6783261 88.0585782,57.9226645 C87.870388,57.7535071 87.6194678,57.6532657 87.3622745,57.5279639 C87.1929034,57.4527829 85.6685629,57.177119 86.9043451,57.5655545 C86.4965997,57.4339876 86.0888543,57.3776018 85.6622899,57.3400113 C81.9298512,56.9954315 82.2936856,63.009916 85.78775,62.2706356 C87.4438236,61.9197907 88.3157715,60.7043636 88.3345905,59.1944774 C88.817612,60.0527944 89.840112,60.6041222 90.944161,60.5477364 C91.0319831,60.5414713 91.1198052,60.5414713 91.2139003,60.5352062 C93.3969064,60.4224346 93.7356488,57.4214574 92.2552193,56.2624162 M79.1007255,61.4373789 C76.2088696,61.1178594 75.7195752,65.5973974 78.605158,65.9106518 C81.4970138,66.2301713 81.9925813,61.7506333 79.1007255,61.4373789 M85.4364617,63.3482308 C85.3235475,63.3795562 85.2043604,63.4108816 85.0851733,63.4422071 C83.2158175,63.9559443 81.9549433,66.6499322 83.9936702,67.9217451 C84.0877653,67.9843959 84.1818604,68.0407817 84.2759555,68.1034326 C85.7124739,69.0056053 87.6571058,68.6359651 88.3283175,66.9506564 C89.0183482,65.2277572 87.4563696,62.796903 85.4364617,63.3482308 M88.6545138,73.1029729 L88.6545138,73.0904427 C88.6482408,73.0152617 88.6670598,72.9463457 88.6545138,72.8711646 L88.6545138,73.1029729 M88.6545138,73.0904427 C88.6607868,72.0065825 88.0585782,71.2359766 87.2179954,70.9289873 C87.0799893,70.8475412 87.0298052,70.8224808 87.1050813,70.8851317 C86.9921672,70.8475412 86.9043451,70.7723601 86.778885,70.7598299 C85.3423666,69.9704288 83.4416457,70.5718773 82.8268911,72.1318842 C82.1368604,73.8673136 83.3287316,75.7343099 85.1416304,75.9786483 C85.8567531,76.0726246 86.4965997,76.028769 87.1364463,75.671659 C88.1087623,75.1328614 88.7360629,74.2181586 88.6545138,73.0904427 M80.8446212,75.4147904 C80.5309709,75.3082839 80.2047745,75.2393679 79.8848512,75.1641869 C76.9177193,74.4437017 76.3217837,79.8817982 79.3704647,79.8254124 C79.702934,79.8191473 80.0354034,79.8254124 80.3678727,79.7878219 C82.5947899,79.5309532 82.9648972,76.1540708 80.8446212,75.4147904 M79.8158482,70.5405519 C79.7217531,70.4841661 79.627658,70.4277803 79.5335629,70.3713945 C78.4232408,69.694765 76.9428113,69.9516336 76.4221518,71.2547719 C75.8889463,72.6017658 77.0933635,74.4186414 78.642796,74.0239408 C79.5523819,73.7921326 80.5372439,73.3723717 80.5686089,72.2697162 C80.5874279,71.6369423 80.3992377,70.8976619 79.8158482,70.5405519 M73.498931,67.276441 C73.4487469,67.2137901 73.3985629,67.1511392 73.3421058,67.0822232 C72.6458021,66.2427014 71.5480261,66.2176411 70.6886242,66.7940292 C70.6133482,66.8441499 70.5380721,66.8942706 70.462796,66.9443913 C68.8443604,68.0219865 69.8229494,70.5781424 71.5793911,70.7723601 C73.4362009,70.9728429 74.7033482,68.7362065 73.498931,67.276441 M72.8716304,72.614296 C70.0174126,72.8398392 70.1365997,77.6702221 73.4111089,77.1815452 C74.2015077,77.0625085 74.7284402,76.7555192 75.2365537,76.1415406 C76.578977,74.5126177 74.7598052,72.0754984 72.8716304,72.614296 M73.549115,77.1878103 C71.5731181,76.9685322 71.2343758,80.0321603 73.2103727,80.2514384 C75.1863696,80.4644514 75.525112,77.4008233 73.549115,77.1878103 M65.4381181,84.9063988 C63.248839,84.6620604 62.8787316,88.0577381 65.0680107,88.2958115 C67.2572899,88.5401499 67.6336702,85.1444722 65.4381181,84.9063988 M67.2949279,81.291443 C67.2510169,78.9545651 64.8045445,78.2967309 63.5436702,79.6437248 C62.9163696,78.3468516 60.7396365,78.1338386 59.9743298,79.3993864 C59.9492377,79.443242 59.9178727,79.4933627 59.8927807,79.5372183 C59.0396518,80.9468631 59.6355874,82.8827754 61.4359402,83.0832582 C62.1698819,83.1647043 62.7595445,82.9141008 63.1735629,82.4943399 C64.2337009,83.8663942 67.338839,83.7410924 67.2949279,81.4856607 L67.2949279,81.291443 M69.1015537,83.4716936 C68.9949126,83.5531398 68.8882715,83.6283208 68.7816304,83.709767 C66.2034248,85.5830283 69.477934,89.6616007 71.8679494,87.5565311 C71.9683175,87.4688198 72.0686856,87.3811086 72.1690537,87.2933974 C74.54025,85.2008579 71.6609402,81.6172276 69.1015537,83.4716936 M63.9200506,93.5459553 C63.8510475,93.5459553 63.7883175,93.5396902 63.7255874,93.5396902 C62.5650813,93.4958346 62.3831641,95.1184924 63.5311242,95.3315054 C63.5938543,95.3440355 63.6565844,95.3503006 63.7193144,95.3628308 C64.8798206,95.5821089 65.0993758,93.5898109 63.9200506,93.5459553 M59.252934,89.0664173 C56.4238083,88.7531629 55.9407868,93.1387245 58.7699126,93.4457138 C61.5990383,93.7589682 62.0820598,89.3796717 59.252934,89.0664173 M51.4555874,103.281902 C51.3489463,103.225516 51.2485782,103.11901 51.1482101,103.043829 C51.060388,102.962383 50.9600199,102.924792 50.8721979,102.830816 C50.8094678,102.7619 50.7467377,102.686719 50.6777347,102.617803 C50.6400966,102.567682 50.5899126,102.555152 50.5522745,102.505031 C50.5209095,102.461176 50.4958175,102.423585 50.4644525,102.379729 C48.5135475,99.6356209 52.5972745,96.3401845 54.5669985,99.1030884 C54.5983635,99.1344138 54.6297285,99.1720043 54.6610936,99.2095949 C54.7050046,99.2597156 54.7112776,99.3098363 54.7489156,99.359957 L54.9182868,99.5917652 C54.9872899,99.6982717 54.9998359,99.8047782 55.062566,99.9050196 C55.11275,100.024056 55.1942991,100.143093 55.2256641,100.26213 C56.116431,102.548887 53.5005874,104.641426 51.4555874,103.281902"/>
    <path fill="#FFFFFF" d="M83.9648144 214.287359C83.6574371 214.256034 82.9423144 214.268564 82.8482193 215.108086L82.7854893 215.671944C82.6913942 216.511465 83.3939709 216.680623 83.6950752 216.711948 84.0024525 216.749539 84.7238482 216.737008 84.8116702 215.897487L84.8744003 215.327364C84.9684954 214.487842 84.2721917 214.318684 83.9648144 214.287359M115.971574 256.594246C115.883752 256.619306 115.701834 256.863645 115.726926 257.045332L112.841344 257.891119C112.759794 257.703166 112.515147 257.602925 112.314411 257.577865 112.138767 257.559069 112.007034 257.602925 111.875301 257.897384 111.856482 258.260759 111.887847 258.492567 112.007034 258.818352 112.08231 259.031365 112.151313 259.03763 112.195224 259.03763 112.352049 259.056425 112.615515 258.968714 112.79116 258.780761 112.954258 258.605339 112.947985 258.448712 112.922893 258.33594L112.85389 257.97883 115.770837 257.064127 115.965301 257.245815 116.103307 257.527744C116.17231 257.534009 116.316589 257.490153 116.479687 257.22702 116.448322 256.963886 116.410684 256.876175 115.971574 256.594246M87.3610199 245.793234C87.0850077 245.761908 86.8152684 245.931066 86.7839034 246.269381 86.7901764 246.864564 86.9783666 246.883359 87.0975537 246.895889 87.373566 246.927215 87.6809433 246.776853 87.7813113 246.620226 87.8691334 246.469863 87.6746702 246.144079 87.6119402 246.043837L87.3610199 245.793234zM82.0195552 228.490314C81.774908 228.465253 81.5365337 228.515374 81.3985276 228.621881 81.3671626 228.653206 81.2667945 228.734652 81.2479755 228.997786L81.2040644 229.567909C81.1601534 230.119237 81.5114417 230.275864 81.818819 230.307189 82.1261963 230.34478 82.5088497 230.263334 82.5841258 229.718271L82.6656748 229.154413C82.7033129 228.891279 82.6217638 228.791038 82.5966718 228.759712 82.4900307 228.621881 82.2642025 228.515374 82.0195552 228.490314M92.5343681 247.503603C92.0074356 247.447217 91.8568834 247.816857 91.8192454 248.142642 91.7878804 248.462161 91.8506104 248.856862 92.3775429 248.919513 92.9044755 248.975899 93.0550276 248.599993 93.0926656 248.280474 93.1303037 247.954689 93.0613006 247.559989 92.5343681 247.503603M92.1441871 57.3043003C92.031273 57.2165891 91.8932669 57.1602033 91.7489877 57.1476731 91.3600613 57.1038175 90.8644939 57.3168305 90.6888497 57.7491216 90.6512117 57.849363 90.6323926 57.9496044 90.6198466 58.062376L90.5947546 58.2691239 90.7076687 58.4758718C90.8770399 58.776596 91.2534202 59.0021392 91.6737117 59.0459948L92.1818252 59.0397297C92.3135583 59.0334646 92.5142945 59.0209344 92.6334816 58.6575593 92.7652147 58.2377984 92.6460276 57.6990008 92.1441871 57.3043003M115.971574 263.649988C115.676742 263.618663 115.425822 263.693844 115.338 263.781555 115.281543 263.844206 115.268997 264.013363 115.338 264.408064 115.394457 264.752643 115.676742 264.83409 115.83984 264.852885 116.002939 264.87168 116.29777 264.852885 116.492233 264.357943 116.573782 264.15746 116.598874 263.988303 116.554963 263.913122 116.498506 263.81288 116.272678 263.681313 115.971574 263.649988M78.3071902 240.103281C78.2570061 240.097016 78.2068221 240.090751 78.150365 240.090751 77.9370828 240.097016 77.6485245 240.090751 77.3976043 240.059425 77.3787853 240.059425 77.3662393 240.059425 77.3474202 240.05316 77.4666074 240.535572 77.6547975 240.74232 78.3322822 241.080635 78.4201043 241.12449 78.4640153 241.130755 78.4828344 241.130755L78.4828344 241.13702C78.5957485 241.093165 78.8215767 240.72979 78.7776656 240.36015 78.7588466 240.234848 78.7463006 240.153402 78.3071902 240.103281M77.4973451 210.51327C77.396977 210.50074 76.8888635 210.475679 76.8261334 211.014477 76.7696764 211.54701 77.2715169 211.634721 77.371885 211.647251 77.5036181 211.659781 77.6980813 211.647251 77.9050905 211.503154L78.2375598 211.045802 77.9803666 210.757608C77.8172684 210.582186 77.6290782 210.5258 77.4973451 210.51327M83.8004617 237.695608C83.8380997 237.388618 83.7565506 237.244521 83.6938206 237.163075 83.5558144 236.987653 83.2923482 236.862351 82.9975169 236.831025 82.7089586 236.7997 82.4266733 236.862351 82.2635752 237.000183 82.1882991 237.062834 82.081658 237.18187 82.056566 237.482595 81.8934678 239.543809 82.7026856 239.675375 83.135523 239.750556L83.148069 239.750556C83.1982531 239.756822 83.3738972 239.61899 83.5307224 239.330796L83.5683604 239.349591 83.6750015 239.167903C83.7126396 239.061397 83.7314586 238.96742 83.7377316 238.622841 83.7502776 238.309586 83.7628236 238.008862 83.8004617 237.695608M96.4562515 243.116162C96.1865123 243.084836 95.9732301 243.153752 95.879135 243.235198 95.8477699 243.260259 95.7787669 243.32291 95.7599479 243.542188L95.7411288 243.918093C95.7097638 244.331589 95.897954 244.563397 96.2931534 244.607253 96.6820798 244.651108 96.914181 244.463156 96.976911 244.055925L97.0396411 243.68002C97.0710061 243.460742 97.0145491 243.391826 96.9957301 243.3605 96.914181 243.260259 96.7197178 243.147487 96.4562515 243.116162M87.743046 72.3718371C87.743046 72.3718371 87.5423098 72.296656 87.4670337 72.2590655L87.3541196 72.2465353 87.0969264 72.1087034C86.9526472 72.0272573 86.7895491 71.9771366 86.6201779 71.9583413 86.1434294 71.9082206 85.5224018 72.1212336 85.2840276 72.7101519 85.0895644 73.2050938 85.2589356 73.6185896 85.3781227 73.8190725 85.5914049 74.1887126 85.9615123 74.4393162 86.3880767 74.495702L86.4821718 74.501967C86.9777393 74.5583528 87.2286595 74.4894369 87.4544877 74.3641351 87.8120491 74.1636523 88.2323405 73.8065423 88.1821564 73.073527 88.1821564 72.7101519 88.0316043 72.4783436 87.743046 72.3718371M105.137465 231.602809L104.754811 231.408592 104.485072 231.609075C104.453707 231.62787 104.384704 231.677991 104.372158 231.897269L104.290609 233.588842C104.278063 233.858241 104.33452 234.133905 104.428615 234.409569 104.466253 234.478485 104.547802 234.603787 104.629351 234.729088 105.118646 234.660172 105.363293 234.215351 105.495026 232.160402 105.501299 232.02257 105.520118 231.759437 105.137465 231.602809M137.188762 42.3194627L136.768471 42.1440402 136.580281 42.0876544C136.47364 42.0500639 136.366998 42.0312686 136.260357 42.0187384 135.783609 41.9686177 134.949299 42.1189798 134.848931 43.0148874 134.736017 44.0298317 135.645603 44.2115193 135.927888 44.2428447 136.172535 44.267905 136.429729 44.2428447 136.674376 44.1676636L137.006845 44.0674222C137.107213 44.0298317 137.238946 43.9671808 137.339314 43.7541678 137.477321 43.4409134 137.471048 42.9898271 137.314222 42.6327171L137.188762 42.3194627zM107.486706 257.503937C107.26715 257.297189 107.053868 257.153092 106.784129 257.059115 106.790402 257.090441 106.796675 257.121766 106.796675 257.153092L103.886 257.980083C103.810724 257.810926 103.741721 257.648034 103.515893 257.297189 103.246153 257.272128 102.8635 257.447551 102.712948 257.673094L102.67531 257.72948 102.700402 257.873577C103.202242 258.750689 103.440617 258.775749 103.616261 258.794545 103.704083 258.80081 103.804451 258.80081 103.911092 258.794545 103.980095 258.769484 104.086736 258.600327 104.086736 258.525146L107.072687 257.835986C107.191874 258.030204 107.298515 258.11165 107.354972 258.117915 107.45534 258.12418 107.624712 258.023939 107.687442 257.892372 107.731353 257.798396 107.66235 257.666829 107.486706 257.503937M120.136222 38.1726009C120.029581 38.0974198 119.929213 38.0598293 119.828845 38.0472991 119.559106 38.0159737 119.245456 38.1976612 119.101176 38.46706 118.981989 38.680073 119.007081 38.8742907 119.188998 39.0998339 119.283094 39.2126055 119.414827 39.3441723 119.552833 39.3629676 119.79748 39.3880279 120.211498 39.1123641 120.355778 38.7239286 120.437327 38.5109156 120.424781 38.3793488 120.136222 38.1726009M121.884509 43.2391776C121.508129 43.195322 121.294847 43.3895397 121.250936 43.8155657 121.200752 44.2353266 121.370123 44.4733999 121.746503 44.5109905 122.11661 44.5548461 122.336166 44.3606283 122.380077 43.9408674 122.430261 43.5148415 122.26089 43.2830332 121.884509 43.2391776M99.2232745 256.154437C98.9849003 256.129376 98.702615 256.248413 98.5144248 256.455161 98.4203298 256.555402 98.2760506 256.76215 98.3638727 257.200706 98.4705138 257.720709 98.8657132 257.82095 99.0288113 257.839745 99.1981825 257.858541 99.5996549 257.84601 99.8254831 257.376129L99.9509433 257.112995 99.9383972 256.931307C99.9133052 256.555402 99.5808359 256.192027 99.2232745 256.154437M74.6857837 225.704856C74.1588512 225.64847 74.0082991 226.01811 73.970661 226.343895 73.939296 226.663414 74.0082991 227.058115 74.5289586 227.120765 75.0558911 227.177151 75.2064433 226.801246 75.2440813 226.481726 75.2817193 226.162207 75.2127163 225.761241 74.6857837 225.704856M60.1349187 90.5932192C59.7271733 90.5493636 59.4950721 90.7561115 59.451161 91.2071979 59.394704 91.6645493 59.5766212 91.9151528 59.9843666 91.9590084 60.392112 92.0028641 60.6242132 91.7961162 60.6743972 91.3450298 60.7245813 90.8939435 60.5426641 90.6370749 60.1349187 90.5932192M79.9833374 62.9641809C79.4375859 62.9077951 79.2807607 63.2899654 79.2431227 63.6220151 79.2054847 63.9540648 79.2807607 64.3675606 79.8202393 64.4239464 80.3659908 64.4865973 80.522816 64.0981618 80.560454 63.7661121 80.598092 63.4340625 80.529089 63.0268317 79.9833374 62.9641809M54.6479202 100.428781L54.6102822 100.32854C54.5475521 100.253359 54.371908 100.002755 54.371908 100.002755 54.1147147 99.6331148 53.8888865 99.6080545 53.8136104 99.5955243 53.4309571 99.5579338 52.9353896 99.858658 52.6844693 100.290949 52.370819 100.829747 52.5715552 101.249508 52.7534724 101.518906 52.8036564 101.569027 52.8538405 101.631678 52.9102975 101.706859L53.349408 102.038909C53.4936871 102.132885 53.6442393 102.195536 53.8010644 102.208066 54.1335337 102.245657 54.4973681 102.076499 54.7294693 101.78204 54.8800215 101.587822 55.0243006 101.262038 54.7733804 100.654324L54.6479202 100.428781zM45.9234233 199.373317C45.6913221 199.348257 45.4529479 199.404642 45.1581166 199.592595 45.0514755 199.699101 45.0075644 200.081272 45.1706626 200.28802 45.3337607 200.457177 45.553316 200.569949 45.7916902 200.595009 46.0802485 200.626335 46.4629018 200.344406 46.4942669 200.049946 46.5381779 199.648981 46.3437147 199.417173 45.9234233 199.373317M73.0077546 67.9386608C72.8885675 67.9261306 72.7317423 67.9762513 72.355362 68.2205898 72.2863589 68.2707105 72.1546258 68.3584217 72.2299018 68.6716761 72.3051779 68.9849305 72.5560982 69.2543293 72.7944724 69.2793896 73.1645798 69.3232453 73.3590429 69.0162559 73.409227 68.9222796 73.4907761 68.7844477 73.5848712 68.5087838 73.377862 68.2581803L73.0077546 67.9386608zM80.0855874 71.8637385L79.7907561 71.688316C79.671569 71.6131349 79.5335629 71.5630142 79.4018298 71.5504841 79.0129034 71.5066284 78.9188083 71.7384367 78.8811702 71.832413 78.8309862 71.9639799 78.8686242 72.1707278 78.9752653 72.3398852 79.0630874 72.4902473 79.1822745 72.5716934 79.2450046 72.5842236L79.3140077 72.5716934C79.9601273 72.4088011 80.0981334 72.258439 80.0981334 72.2459088 80.1044064 72.0141006 80.0542224 71.8637385 80.0855874 71.8637385zM130.62908 40.1511157C130.50362 39.9819583 130.422071 39.9694281 130.384433 39.9694281 130.152331 39.9443678 129.757132 40.1573808 129.594034 40.4769003 129.499939 40.6585878 129.518758 40.7588292 129.663037 40.9217215L129.932776 41.2224457C130.064509 41.3728078 130.202515 41.454254 130.334248 41.4730493L130.334248 41.4730493C130.553804 41.4918445 130.81727 41.3414824 130.949003 41.1222043 131.030552 40.9843724 131.093282 40.7901547 130.861181 40.4706352L130.62908 40.1511157zM139.487192 39.4957875C139.19236 39.464462 139.117084 39.5647034 139.073173 39.6148241 138.928894 39.7902466 138.872437 40.1097661 138.953986 40.3541045L139.016716 40.5545873 139.355459 40.673624C139.487192 40.6861542 139.876118 40.7300098 139.945121 40.1410915 140.007851 39.5521733 139.612652 39.5083176 139.487192 39.4957875M70.7080706 219.500539L70.4069663 219.469213 70.3881472 219.607045 70.2815061 219.845119C70.2501411 220.145843 70.2626871 220.383916 70.3316902 220.678375 70.4696963 221.242233 70.7206166 221.267294 70.8209847 221.279824 71.1095429 221.311149 71.4608313 221.148257 71.6051104 220.916449 71.7305706 220.722231 71.6803865 220.446567 71.4671043 220.095722 71.2600951 219.763673 70.9589908 219.531864 70.7080706 219.500539M106.912098 248.771657C106.071515 248.67768 105.902144 249.37937 105.870779 249.68636 105.833141 249.987084 105.845687 250.707569 106.68627 250.801545 107.526853 250.889257 107.696224 250.193832 107.733862 249.886842 107.765227 249.579853 107.752681 248.865633 106.912098 248.771657M87.5329003 58.9062833L87.4952623 59.0315851C87.256888 58.956404 87.0247868 58.9188135 86.6421334 58.8749579 86.6233144 58.8749579 86.5982224 58.8749579 86.5731304 58.8686928 86.3033911 58.8436324 85.6760905 58.7872466 85.5882684 59.6768892 85.5443574 60.1154453 85.7011825 60.7795447 86.171658 60.8296654 86.2720261 60.8421955 86.3912132 60.8359304 86.5229463 60.8108701 87.4011672 60.6229174 87.8528236 60.0778548 87.8653696 59.1944774L87.8653696 58.9689342C87.7775475 58.9501389 87.6395414 58.9188135 87.5329003 58.9062833M74.5095123 74.0797001L74.0327638 74.1486161C73.4619202 74.1924717 73.4054632 74.7939202 73.4054632 74.9756077 73.3991902 75.1760905 73.4431012 75.6585023 74.0076718 75.7148881L74.0202178 75.7211532 74.3840521 78.7534558C74.3840521 78.7534558 74.3965982 78.7597209 74.4279632 78.7597209L74.4091442 78.7096002 74.252319 75.6960928C74.6475184 75.633442 74.8419816 75.5206704 75.1117209 75.1948858 75.1681779 75.1259698 75.306184 74.9630775 75.1744509 74.6498231 75.0552638 74.355364 74.7667055 74.1110256 74.5095123 74.0797001M65.3339862 199.591968C64.9074218 199.548113 64.6188635 199.798716 64.5122224 199.911488 64.4055813 200.017994 64.1734801 200.318719 64.1922991 200.556792L64.2863942 200.80113 64.5874985 202.160655 63.4269923 202.649331C63.2074371 202.743308 63.038066 202.950056 62.9627899 203.213189 62.8749678 203.520179 62.9314248 203.852228 63.1948911 204.228134 63.2513482 204.30958 63.4207193 204.409821 63.6528206 204.434882 63.8911948 204.459942 64.079385 204.397291 64.2487561 204.240664 64.6063175 203.914879 64.6000445 203.482588 64.5812255 203.313431L64.4557653 202.235836 65.4343543 201.772219C65.6225445 201.678243 65.7480046 201.590532 65.8546457 201.49029 65.9550138 201.377519 66.0428359 201.214626 66.149477 200.945227 66.3125752 200.550527 66.149477 200.212212 66.0679279 200.080645 65.9926518 199.949078 65.7605506 199.642089 65.3339862 199.591968M87.0454877 64.8405747C86.9953037 64.8343096 86.9451196 64.8343096 86.8886626 64.8343096L86.5373742 64.928286C86.0606258 65.0598528 85.5964233 65.57359 85.5211472 66.0560018 85.4897822 66.281545 85.5336933 66.4632325 85.8473436 66.6574503L86.1359018 66.8391378C86.342911 66.9644396 86.5750123 67.0521508 86.8071135 67.0772112L86.8071135 67.0772112C87.0643067 67.1022715 87.6978804 67.0960064 87.9676196 66.4131118 88.0805337 66.1186527 88.0178037 65.6863616 87.8045215 65.3355167 87.6414233 65.0661179 87.4281411 64.8844304 87.0454877 64.8405747M62.7639356 80.0966907C62.5443804 80.0716303 62.3687362 80.1342812 62.2370031 80.3472942 62.0299939 80.685609 62.0488129 81.0677793 62.155454 81.2870574 62.2495491 81.468745 62.4001012 81.5627213 62.6510215 81.5940467 62.8705767 81.6191071 63.0211288 81.5689864 63.152862 81.4436846L63.5668804 81.0239237 63.228138 80.328499C63.184227 80.2345226 63.0023098 80.121751 62.7639356 80.0966907M66.2498451 80.4926443C66.130658 80.4801141 65.9048298 80.4926443 65.7040936 80.6993922L65.183434 81.2632501 65.4280813 81.5890347C65.5159034 81.7018063 65.7668236 81.8396382 66.0992929 81.8772287 66.4505813 81.9148193 66.6952285 81.8208429 66.7767776 81.751927L66.8269617 81.3384312C66.8144156 80.830959 66.6136794 80.5302348 66.2498451 80.4926443M57.1978972 207.571185C57.0724371 207.558654 56.7462408 207.521064 56.6897837 208.041066 56.6333267 208.554803 56.959523 208.592394 57.0849831 208.604924 57.2104433 208.617454 57.5366396 208.655045 57.5930966 208.141308 57.6495537 207.621305 57.3233574 207.583715 57.1978972 207.571185M71.7230429 84.4985416C71.5097607 84.4734812 71.2839325 84.5486623 71.0455583 84.7240847L70.725635 84.955893C70.4370767 85.1626409 70.3555276 85.381919 70.4370767 85.7014385 70.5625368 86.1587899 71.0079202 86.5973461 71.3968466 86.6412017 71.5097607 86.6537319 71.6791319 86.6474668 71.9049601 86.446984L72.2123374 86.1713201C72.5448067 85.883126 72.6514479 85.5698716 72.5385337 85.2252918 72.4193466 84.8431214 72.0743313 84.5361321 71.7230429 84.4985416M125.635767 38.0278773C125.491488 37.9401661 125.32839 37.8837803 125.165291 37.8712501 124.895552 37.8399247 124.43135 37.8712501 124.36862 38.4351081 124.318436 38.9049897 124.726181 39.1681234 125.033558 39.1994488 125.159018 39.211979 125.284479 39.1931837 125.403666 39.143063L125.698497 39.0240263C125.836503 38.9676405 125.968236 38.7734228 125.987055 38.6042654 125.999601 38.4914938 126.024693 38.2534205 125.635767 38.0278773M219.944768 50.2090881C219.53075 50.1652324 219.09164 50.3531851 218.94736 50.5536679 218.915995 50.5975235 218.840719 50.70403 218.997544 51.0423448 219.097913 51.2616229 219.204554 51.4245151 219.298649 51.5247566L219.668756 51.9006618 220.264692 51.4370453C220.277238 51.2052371 220.270965 50.9734288 220.252146 50.4847519 220.252146 50.3155946 220.245873 50.2404135 219.944768 50.2090881M199.172963 264.373606C199.04123 264.361075 198.733853 264.323485 198.683669 264.830957 198.627212 265.332164 198.934589 265.36349 199.060049 265.37602 199.191782 265.394815 199.49916 265.42614 199.555617 264.924933 199.605801 264.423726 199.304696 264.386136 199.172963 264.373606M219.657465 53.4136806L219.111713 53.8146462C218.798063 54.0339243 218.641238 54.5664568 218.760425 54.9924828 218.848247 55.3307976 219.067802 55.50622 219.475548 55.5438106 219.764106 55.5814011 220.121667 55.5563407 220.322403 55.0927242 220.504321 54.6666982 220.422771 54.1216356 220.140486 53.8772971L219.657465 53.4136806zM204.821178 49.2060475C204.620442 49.1058061 204.451071 49.0494203 204.231515 49.0243599L204.218969 49.0243599C203.69831 48.9867694 203.347021 49.2373729 203.190196 49.387735 202.939276 49.6258084 202.794997 49.9453279 202.794997 50.2648473L202.782451 50.9038863 203.428571 51.2547313C203.629307 51.3612378 203.842589 51.4301537 204.055871 51.4552141 204.40716 51.4928046 204.664353 51.4176235 204.833724 51.2234058 204.990549 50.8349704 205.260288 50.5154509 205.624123 50.308703L205.454752 50.3901491 205.969138 49.7761705 204.821178 49.2060475zM207.724325 47.747535C207.435767 47.7162095 207.115844 47.7412699 206.883742 48.1735609L206.331718 49.2010354 207.511043 49.6771821C208.313988 49.7648933 208.470813 49.100794 208.502178 48.8125999 208.533543 48.5181408 208.52727 47.8352462 207.724325 47.747535M181.705778 269.214013C181.655594 268.838107 181.241575 268.762926 181.116115 268.750396 180.990655 268.731601 180.570363 268.719071 180.444903 269.082446L180.319443 269.420761C180.25044 269.621243 180.18771 269.896907 180.288078 270.066065 180.388446 270.222692 180.651913 270.347994 180.940471 270.385584 181.229029 270.41691 181.511314 270.347994 181.636775 270.216427 181.781054 270.07233 181.774781 269.790401 181.749689 269.589918L181.705778 269.214013zM204.417824 258.15112C204.166903 258.12606 203.90971 258.238831 203.72152 258.458109 203.633698 258.564616 203.432962 258.859075 203.545876 259.228715L203.746612 259.93667 203.320048 260.538119C203.207133 260.694746 203.106765 260.920289 203.357686 261.195953L203.627425 261.408966 203.715247 261.452822 204.198268 261.195953C204.267271 261.145832 204.342548 261.076916 204.330002 260.882699L204.279817 260.043177 204.957302 259.5545C205.1204 259.435463 205.18313 259.241245 205.151765 258.978112 205.107854 258.633532 204.888299 258.307747 204.417824 258.15112M210.187735 41.5833148C210.018363 41.3890971 209.836446 41.2763255 209.648256 41.2575302 209.334606 41.2199397 208.964498 41.4329527 208.788854 41.739942 208.619483 42.021871 208.657121 42.3037999 208.889222 42.6170543L209.209146 43.0556105C209.397336 43.3124791 209.554161 43.3312744 209.610618 43.3375395 209.961906 43.37513 210.451201 43.0744058 210.645664 42.6922354 210.78367 42.4228366 210.752305 42.2286189 210.401017 41.8276532L210.187735 41.5833148zM209.219183 56.5694055C208.874167 56.5318149 208.529152 56.6320563 208.347235 56.8262741 208.265686 56.9077202 208.165317 57.0580823 208.221775 57.3776018 208.265686 57.6407355 208.654612 58.0166408 209.043538 58.0542313L209.501468 57.7723024C209.733569 57.534229 209.871575 57.0518172 209.633201 56.6633818L209.219183 56.5694055zM203.868308 264.141171L203.372741 264.266473C203.090456 264.335389 203.052817 264.510811 203.052817 264.611052 203.052817 264.836596 203.297465 264.936837 203.498201 264.986958L203.567204 265.049609C203.686391 265.093464 203.76794 265.105994 203.811851 265.112259L203.874581 265.112259C203.924765 265.093464 204.037679 264.918042 204.062771 264.648643 204.087863 264.385509 204.006314 264.210087 203.968676 264.178761L203.868308 264.141171zM275.668509 173.256044C275.392497 173.224719 275.21058 173.31243 275.110212 173.487853 274.890656 173.876288 274.903202 174.270989 275.02239 174.496532 275.078847 174.609303 275.185488 174.74087 275.499138 174.772196 275.819061 174.809786 275.950794 174.70328 276.032344 174.603038 276.189169 174.415086 276.29581 174.02665 276.113893 173.443997 276.10762 173.412671 275.944521 173.28737 275.668509 173.256044M269.68908 192.878927C269.350337 192.841336 269.061779 193.09194 268.923773 193.355073 268.785767 193.624472 268.798313 193.862545 269.055506 194.157005 269.193512 194.307367 269.35661 194.401343 269.519709 194.420138 269.682807 194.438934 269.864724 194.382548 270.140736 194.182065 270.347745 194.031703 270.410475 193.80616 270.335199 193.5117 270.259923 193.223506 270.027822 192.916517 269.68908 192.878927M273.218273 185.113976C272.979899 185.088916 272.728979 185.264339 272.540788 185.602653L272.509423 186.003619C272.641156 186.247957 272.904623 186.43591 273.073994 186.454705 273.237092 186.473501 273.538196 186.348199 273.720113 186.135186L273.764025 185.72169C273.663656 185.36458 273.456647 185.139037 273.218273 185.113976M226.776072 58.6137037C226.399692 58.5698481 226.224048 58.6888848 226.117406 58.7891262 225.866486 59.0209344 225.715934 59.4594906 225.72848 60.1235899 225.741026 60.5809414 226.537698 60.6686526 226.550244 60.6749177 226.556517 60.6749177 227.359462 60.7563638 227.510014 60.1361201 227.629201 59.6725036 227.579017 59.2088871 227.378281 58.9269581 227.303005 58.8079214 227.152452 58.6575593 226.776072 58.6137037M277.754284 164.715476C276.016661 164.527524 275.753195 166.125121 275.715557 166.450906 275.677919 166.77669 275.590097 168.399348 277.327719 168.587301 279.065342 168.775253 279.328808 167.177656 279.366446 166.851871 279.404084 166.526087 279.491906 164.903429 277.754284 164.715476M235.340607 60.6354476C235.077141 60.6041222 234.826221 60.6730382 234.688215 60.804605 234.512571 60.9737624 234.493752 61.299547 234.512571 61.5438854L234.575301 62.0075019 234.65685 62.1891895 234.694488 62.157864C234.813675 62.2455753 234.989319 62.3082261 235.171236 62.3270214 235.233966 62.3332865 235.748353 62.3834072 235.848721 62.0513575L235.949089 61.7005126C236.018092 61.4687043 236.074549 61.1491848 235.936543 60.9424369 235.836175 60.7795447 235.604074 60.6667731 235.340607 60.6354476M228.373179 52.9989318C228.210081 52.9801365 227.990526 53.017727 227.683149 53.1179685 227.620419 53.1367637 227.501232 53.299656 227.47614 53.5627897 227.444775 53.8259234 227.526324 54.013876 227.582781 54.0452015 227.858793 54.2080938 228.065802 54.2895399 228.2289 54.3083352 228.322995 54.3208654 228.479821 54.3208654 228.806017 54.1955636 228.956569 54.1391778 229.044391 53.9198997 229.069483 53.7382122 229.088302 53.5565246 229.044391 53.3184513 228.906385 53.23074 228.6241 53.0427874 228.461002 53.011462 228.373179 52.9989318M246.65962 70.3062376L246.653347 70.1182849C246.653347 69.8990068 246.402426 69.6170779 246.195417 69.5920175 246.0135 69.5732223 245.88804 69.6170779 245.787672 69.7486447 245.687304 69.8802116 245.599482 70.1370802 245.812764 70.5819014L245.881767 70.6633476C245.913132 70.694673 246.019773 70.7949144 246.276966 70.8262399 246.377334 70.8387701 246.490248 70.832505 246.690985 70.8137097 246.716077 70.7886494 246.753715 70.6570825 246.709804 70.4879251L246.65962 70.3062376zM243.149245 72.3442707C242.954782 72.3254755 242.747773 72.4507772 242.603494 72.5635488 242.195748 72.8955985 242.258479 73.1148766 242.296117 73.2276481 242.409031 73.6348789 242.892052 74.0483747 243.299798 74.0922303 243.412712 74.1047605 243.538172 74.1172906 243.713816 73.8353617 244.027466 73.3028292 243.268433 72.3568009 243.149245 72.3442707M165.009544 272.793884C164.877811 272.781354 164.532796 272.743763 164.476339 273.282561 164.419882 273.827624 164.758624 273.865214 164.890357 273.877744 165.02209 273.890274 165.367106 273.927865 165.429836 273.389067 165.486293 272.844005 165.141278 272.806414 165.009544 272.793884M170.325917 41.3164221L170.325917 41.310157 169.654706 41.3164221C169.573156 41.3226871 169.485334 41.3414824 169.334782 41.385338L169.046224 41.4730493 168.983494 41.736183C168.93331 41.9178705 168.939583 42.2436551 169.290871 42.3501616L170.031086 42.4566681C170.131454 42.4190776 170.225549 42.3564267 170.300825 42.2812456 170.39492 42.1935344 170.495288 41.9679912 170.501561 41.7048575 170.507834 41.4855794 170.445104 41.3477475 170.325917 41.3164221M171.968817 32.7727215C171.768081 32.7476611 171.554799 32.8291072 171.259968 33.0609155 171.115689 33.1611569 170.990229 33.2676634 170.808311 33.4744113 170.406839 33.875377 170.275106 34.2888728 170.413112 34.6961035 170.557391 35.1095993 170.958863 35.441649 171.360336 35.4855046 171.686532 35.5230951 172.006456 35.3602028 172.313833 35.0030928 172.55848 34.7148988 172.671394 34.5144159 172.752943 34.232487 172.847038 33.875377 172.790581 33.4932066 172.583572 33.1924824 172.420474 32.954409 172.194646 32.7977818 171.968817 32.7727215M177.68729 36.0336998C176.865526 35.9459886 176.702428 36.6226181 176.671063 36.9233423 176.639698 37.2178014 176.652244 37.9194913 177.467735 38.0134676 178.289498 38.1011789 178.452597 37.4182843 178.490235 37.1238251 178.5216 36.8231009 178.509054 36.121411 177.68729 36.0336998M144.241503 262.598706C143.915307 262.630032 143.783574 262.673887 143.507561 263.062323 143.438558 263.162564 143.325644 263.350517 143.375828 263.457023 143.438558 263.60112 143.689479 263.776543 143.959218 263.807868L143.965491 263.807868C144.128589 263.826663 144.304233 263.839194 144.398328 263.337987L144.454785 262.968346 144.241503 262.667622 144.241503 262.598706zM179.364692 42.8695374C179.352146 42.8695374 178.994584 42.9071279 178.994584 42.9071279 178.517836 42.982309 178.417468 43.4146 178.398649 43.5962876 178.37983 43.7842402 178.37983 44.2290615 178.862851 44.4107491L179.176502 44.5423159C179.245505 44.5736413 179.314508 44.5987017 179.389784 44.6049668 179.65325 44.6362922 179.973173 44.4859301 180.343281 44.0974946 180.48756 43.9471325 180.512652 43.840626 180.443649 43.6526734 180.311916 43.2767681 179.879078 42.9259232 179.364692 42.8695374M166.871373 38.7001213L166.507538 38.7439769C166.225253 38.7815674 166.162523 39.0760266 166.149977 39.2013283 166.137431 39.3266301 166.137431 39.6273543 166.400897 39.7213306L166.73964 39.8466324 167.159931 39.8779578 167.335575 39.8403673 167.42967 39.5208478C167.511219 39.2201236 167.467308 38.9256644 167.379486 38.7878325L166.871373 38.7001213zM151.92719 31.6042825C151.782911 31.3850044 151.67627 31.3787394 151.619813 31.3662092 151.186975 31.3223536 150.540856 31.8298257 150.459307 32.274647L147.448264 31.9739227C147.454537 31.6794636 147.448264 31.3912695 147.410626 31.0968104 147.33535 30.5329525 146.770779 30.426446 146.595135 30.4076507 146.425764 30.3888554 145.85492 30.3700602 145.660457 30.9025927 145.47854 31.3912695 145.396991 31.8987417 145.334261 32.3811534 145.302896 32.5879014 145.233893 33.0765782 145.999199 33.3146516L146.469675 33.4587486 146.896239 33.2958563C147.285166 33.1392291 147.385534 32.9074208 147.429445 32.3686233L150.459307 32.3623582C150.459307 32.3936836 150.46558 32.4876599 150.647497 32.6756126L150.898417 32.9387463C151.099153 33.1392291 151.29989 33.2582658 151.506899 33.277061 151.789184 33.3083865 152.084015 33.1517593 152.247113 32.8948907 152.416485 32.6192268 152.38512 32.2997073 152.146745 31.9363322L151.92719 31.6042825zM158.549603 39.8466324C158.361413 39.8278371 158.29241 39.8591626 158.217133 40.0095247L155.388008 38.9569899C155.425646 38.8003627 155.482103 38.4119272 155.168452 38.1174681L154.760707 37.6601167C154.735615 37.6538516 154.716796 37.6538516 154.697977 37.6538516 154.409419 37.6225261 154.001673 37.8793947 153.844848 38.1926491 153.750753 38.3743367 153.769572 38.4745781 153.926397 38.6437355 154.296505 39.038436 154.478422 39.1825331 154.992808 39.3579555 155.08063 39.3704857 155.218637 39.3830159 155.344097 39.1386774L158.179495 40.1536217C158.135584 40.3541045 158.173222 40.529527 158.229679 40.604708 158.242225 40.6235033 158.279863 40.673624 158.455508 40.6924193 158.643698 40.7174796 158.844434 40.4982016 158.863253 40.3102489 158.907164 39.8842229 158.675063 39.8591626 158.549603 39.8466324M163.288232 33.2081451L160.25837 33.1580244C160.245824 32.9324812 159.844351 32.8385049 159.700072 32.8259747 159.442879 32.7946493 159.229597 32.8635652 159.072771 33.1580244L159.047679 33.7344125C159.035133 34.1228479 159.198232 34.342126 159.530701 34.3797165 159.869443 34.411042 160.076452 34.2356195 160.145456 33.8597142L160.25837 33.2144102 163.363508 33.3773025 163.608155 33.7469426C163.733615 33.7532077 163.984535 33.5527249 163.971989 33.414893L163.545425 33.0013972 163.288232 33.2081451zM182.985471 47.5338955L182.866284 47.4775097C182.590271 47.3396777 182.402081 47.2832919 182.182526 47.2582316 181.931606 47.2269061 181.649321 47.5151002 181.624229 47.7657037 181.561498 48.3358267 181.937879 48.3734173 182.057066 48.3922125 182.4209 48.429803 182.684367 48.3922125 183.248937 48.2042599 183.299121 48.1040185 183.230118 47.7218481 182.985471 47.5338955M171.135135 272.678606C171.009675 272.666076 170.639567 272.622221 170.576837 273.192344 170.514107 273.756202 170.884215 273.793792 171.009675 273.812587 171.135135 273.825117 171.511515 273.862708 171.574245 273.29885 171.630702 272.734992 171.260595 272.691137 171.135135 272.678606M197.741463 42.4322342L197.747736 42.2254863 197.496816 42.1377751 197.333718 42.0437988 196.982429 42.0876544C196.706417 42.2129562 196.568411 42.5700662 196.693871 42.839465 196.800512 43.0838034 196.913426 43.1151288 197.013794 43.127659 197.239623 43.1527194 197.521908 43.0399478 197.678733 42.8645253 197.785374 42.7329585 197.779101 42.6452472 197.760282 42.5638011L197.741463 42.4322342zM176.486009 271.51518L176.134721 271.590361C176.09081 271.602891 175.940258 271.627951 175.915166 271.866024 175.890074 272.085303 176.002988 272.154218 175.990442 272.154218L175.984169 272.154218C176.21627 272.2294 176.442098 272.335906 176.573831 272.417352 176.59265 272.429882 176.605196 272.436147 176.605196 272.436147 176.674199 272.423617 176.856117 272.285785 176.950212 272.035182L176.856117 271.627951 176.486009 271.51518zM195.151966 50.9101514C195.126874 50.8725609 194.982595 50.7785846 194.719129 50.7472591L194.041644 50.5655716 193.690356 50.2523172C193.533531 50.2335219 193.251245 50.4152095 193.088147 50.7096686 192.943868 50.9790674 192.943868 51.2171407 193.100693 51.4113585 193.439436 51.8373844 193.80327 52.1067832 194.204742 52.2383501 194.280018 52.2634104 194.349021 52.2759406 194.424298 52.2822057 194.731675 52.3197962 195.032779 52.2195548 195.227242 52.019072 195.384067 51.8561797 195.440525 51.6494318 195.396613 51.3862981 195.384067 51.2797916 195.358975 51.2171407 195.151966 50.9101514M192.960178 45.1694512C192.778261 44.9814986 192.590071 44.8749921 192.408153 44.8561968 192.113322 44.8248714 191.856129 45.0065589 191.736942 45.2007767 191.58639 45.4513802 191.617755 45.7395742 191.83731 46.0716239L192.056865 46.4036736C192.182325 46.5916262 192.263874 46.5978913 192.314058 46.6041564 192.602617 46.6354818 193.123276 46.3472878 193.317739 45.933792 193.430653 45.7082488 193.386742 45.6080074 193.248736 45.4639104L192.960178 45.1694512zM190.095923 39.5496672L189.951644 39.4431607C189.863822 39.6499086 189.851276 39.8128009 189.857549 40.2513571 189.882641 40.2952127 190.02692 40.3954541 190.265294 40.4205145 190.478577 40.4455748 190.641675 40.389189 190.691859 40.3515985 190.779681 40.2764174 190.873776 40.0195488 190.754589 39.537137L190.095923 39.5496672zM146.894985 36.1239171L146.480966 35.9672899 146.386871 36.0299407C146.204954 36.1489774 146.016764 36.6439194 146.123405 37.0887406 146.179862 37.3142838 146.242592 37.3205489 146.311595 37.3330791L146.59388 37.3330791C147.058083 37.3205489 147.340368 37.1451264 147.396825 36.831872 147.415644 36.7191004 147.440736 36.330665 146.894985 36.1239171M200.310259 51.879987L200.460811 52.1744462C200.529814 52.306013 200.62391 52.3811941 200.718005 52.3937243 200.818373 52.3999894 200.925014 52.3436036 201.075566 52.1681811L201.257483 51.8987823 201.345305 51.4602261 200.837192 51.309864C200.68664 51.2910688 200.47963 51.4101054 200.310259 51.879987"/>
  </g>
</svg>
