<svg xmlns="http://www.w3.org/2000/svg" width="307" height="533" viewBox="0 0 307 533" xmlns:xlink="http://www.w3.org/1999/xlink">
  <defs>
    <polygon id="a" points=".132 .265 69.246 .265 69.246 25.76 .132 25.76 .132 .265"/>
    <polygon id="c" points="0 .438 0 25.065 43.288 25.065 43.288 .438 0 .438"/>
  </defs>
  <g fill="none" fill-rule="evenodd">
    <g transform="translate(125.924 .225)">
      <path fill="#499F87" d="M177.993768,520.388077 C177.993768,527.083553 138.214572,532.511262 89.1448444,532.511262 C40.0746281,532.511262 0.295432591,527.083553 0.295432591,520.388077 C0.295432591,513.6926 40.0746281,508.264892 89.1448444,508.264892 C138.214572,508.264892 177.993768,513.6926 177.993768,520.388077"/>
      <path fill="#AA7E12" d="M48.1028002 63.4340839C48.1028002 63.4340839 43.8179782 79.787071 46.6029417 86.7615055 49.387417 93.7354514 50.2596094 93.7808859 50.2596094 93.7808859 50.2596094 93.7808859 46.9738797 88.8558877 49.6958812 76.9168831 52.4178828 64.9783671 53.1431642 72.0456247 53.1431642 72.0456247 53.1431642 72.0456247 50.9712246 81.8247823 53.2407795 86.9334725 55.5108224 92.0421627 55.0549591 90.6898767 55.0549591 90.6898767 55.0549591 90.6898767 53.4477238 80.2165 57.2278749 73.1477768 61.0075378 66.0790536 54.1134599 65.1801352 54.1134599 65.1801352L48.1028002 63.4340839zM103.982023 88.3222526L100.36977 89.725347 100.686531 96.2586275 102.507056 112.745964 105.790833 134.75774C105.790833 134.75774 106.005099 134.550598 106.396048 134.209107 107.973023 133.836837 116.334258 134.126543 123.961914 140.697441 124.742348 141.370165 125.494474 142.207038 126.235862 143.174353 127.963164 147.659174 126.948941 160.721826 130.083368 165.7758 133.409608 171.139509 137.860864 174.402485 137.860864 174.402485 137.860864 174.402485 131.014129 163.88856 132.365124 153.795758 132.384647 153.652126 132.402706 153.516311 132.421741 153.373657 134.694713 157.412927 137.263458 161.807857 140.515023 165.883279 146.174267 172.975941 162.942617 177.278047 162.942617 177.278047L159.546094 171.809301C170.521466 172.680861 181.035118 168.07537 181.035118 168.07537 181.035118 168.07537 161.469115 167.372357 155.324722 156.430957 149.180329 145.489556 155.138765 127.42325 131.876072 122.181676 104.918641 116.107626 103.982023 88.3222526 103.982023 88.3222526"/>
      <path fill="#AA7E12" d="M116.793684,115.273683 C116.793684,115.273683 108.466614,108.129236 112.828552,98.6036321 C116.266074,91.0957091 118.249616,90.8851472 127.660703,81.3272994 C137.071791,71.7694515 147.870479,47.9598383 125.192989,23.3040693 C109.032295,5.73363391 105.305344,37.7864268 105.305344,37.7864268 L90.1369083,87.4428759 C90.1369083,87.4428759 77.8979067,106.857071 85.843789,117.476522 C87.9103041,120.238742 91.4371436,123.982933 95.9796698,127.465265 C95.3808002,122.704905 116.793684,115.273683 116.793684,115.273683"/>
      <path fill="#F2CCB0" d="M122.231245,53.6400745 C122.231245,80.6906795 106.282863,102.619404 86.6099712,102.619404 C66.9365913,102.619404 52.301135,83.9990901 50.9882097,53.6400745 C49.6752844,23.2810589 71.7055849,14.3895832 86.9618742,10.4563266 C102.218164,6.52355848 122.231245,26.5894696 122.231245,53.6400745"/>
      <path fill="#AA7E12" d="M46.973538 58.629316C46.973538 58.629316 43.1675189 39.2527386 48.732565 30.0515269 54.2971231 20.8503151 58.5111739 20.9226194 58.5111739 20.9226194 58.5111739 20.9226194 62.7916032 21.4639247 61.5074744 24.1699622 60.2233456 26.8764884 52.9461278 38.2424324 52.5180849 47.9849494 52.090042 57.7274664 48.2376556 62.5982363 48.2376556 62.5982363L46.973538 58.629316zM126.158111 60.1952906C126.158111 60.1952906 133.793089 42.9526673 128.764927 32.3542236 123.737253 21.7562686 121.433533 19.6149863 121.433533 19.6149863 121.433533 19.6149863 116.094954 19.1596645 117.142854 22.1944913 118.190754 25.2288295 124.894482 38.4150834 123.537142 48.3574143 122.179801 58.3002337 125.950191 64.1231732 125.950191 64.1231732L126.158111 60.1952906z"/>
      <path fill="#F2CCB0" d="M52.0327418,52.9636873 C52.0327418,52.9636873 44.7994509,50.0470878 45.6228356,59.5922335 C46.4432919,69.139822 50.6773539,69.7974004 52.9137196,66.8080081 C55.1535017,63.8205699 52.0327418,52.9636873 52.0327418,52.9636873"/>
      <g transform="translate(55.153)">
        <mask id="b" fill="white">
          <use xlink:href="#a"/>
        </mask>
        <path fill="#AA7E12" d="M5.00902957,8.61842924 C-0.0547621622,10.7567803 -1.46969539,20.6497684 2.1650089,23.7705786 C5.79922512,26.8909004 9.95275453,24.3944476 15.6637355,24.3944476 C21.3747164,24.3944476 47.8533444,25.018805 53.0455002,25.642674 C58.2371679,26.2670314 68.8176862,24.3944476 69.2384079,20.3375896 C69.6596178,16.2802432 53.4706146,-5.7994406 31.1801695,1.87067855 C13.5508531,7.93740082 10.0728213,6.48007819 5.00902957,8.61842924" mask="url(#b)"/>
      </g>
      <path fill="#C58F16" d="M70.8547703,17.6467457 C70.8547703,17.6467457 73.3385906,19.2823864 74.517783,19.1592737 C75.6969754,19.036161 76.091341,18.784073 76.091341,18.784073 L78.0680501,20.2619144 C78.0680501,20.2619144 74.9184936,23.6787815 72.0691041,22.572721 C69.2197146,21.4666605 68.1518037,19.9639034 68.1518037,19.9639034 L70.8547703,17.6467457 Z"/>
      <path fill="#86640C" d="M73.6387087 14.7596054C73.6387087 14.7596054 70.1797119 13.8577557 68.3386881 15.0322122 66.4981523 16.2066687 63.6419297 18.3997365 63.6419297 18.3997365 63.6419297 18.3997365 65.6118057 19.8082049 66.8817803 19.8858831L68.1517548 19.96405C68.1517548 19.96405 70.5584591 18.1691444 71.676642 16.7890115 72.7948248 15.4088786 73.6387087 14.7596054 73.6387087 14.7596054M75.9315936 16.2902094C75.9315936 16.2902094 78.415414 17.9253616 79.5946064 17.8022489 80.7737987 17.6796247 81.1681644 17.4275367 81.1681644 17.4275367L83.1448734 18.9053781C83.1448734 18.9053781 79.995317 22.3222452 77.1459275 21.2161847 74.296538 20.1101242 73.228627 18.6073671 73.228627 18.6073671L75.9315936 16.2902094z"/>
      <path fill="#C58F16" d="M78.4840375 14.2641743C78.4840375 14.2641743 74.7336591 13.0491688 72.8931234 14.2241138 71.0525876 15.3985703 69.0265828 18.2653384 69.0265828 18.2653384 69.0265828 18.2653384 70.4571345 19.3127738 71.7271091 19.3909406 72.9970836 19.4686189 73.2669898 19.3762843 73.2669898 19.3762843 73.2669898 19.3762843 75.4037879 17.6737133 76.5219707 16.2935804 77.6401536 14.9134475 78.4840375 14.2641743 78.4840375 14.2641743M83.2504932 15.8056729C83.2504932 15.8056729 85.7343135 17.4413136 86.9135059 17.3182008 88.0926983 17.1950881 88.4870639 16.9430001 88.4870639 16.9430001L90.463773 18.4208415C90.463773 18.4208415 87.3142165 21.8377086 84.464827 20.7316481 81.6154375 19.6255876 80.5475266 18.1228305 80.5475266 18.1228305L83.2504932 15.8056729z"/>
      <path fill="#86640C" d="M85.5859871,14.1242557 C85.5859871,14.1242557 81.9751986,12.5418662 80.0267979,13.5272566 C78.0788854,14.5126471 75.7776056,17.1634794 75.7776056,17.1634794 C75.7776056,17.1634794 77.0968758,18.3481952 78.3526962,18.552406 C79.6090046,18.7561283 79.886232,18.6911522 79.886232,18.6911522 C79.886232,18.6911522 82.1821429,17.2098909 83.4321064,15.9479853 C84.6820698,14.6865683 85.5859871,14.1242557 85.5859871,14.1242557"/>
      <path fill="#C58F16" d="M93.2206232,14.1681757 C93.2206232,14.1681757 89.7826137,12.2384324 87.7468474,13.0274287 C85.7115692,13.816425 83.1613704,16.2283599 83.1613704,16.2283599 C83.1613704,16.2283599 84.3576455,17.5366771 85.5875978,17.8635121 C86.8175501,18.1898586 87.1001463,18.1522408 87.1001463,18.1522408 C87.1001463,18.1522408 89.5302782,16.9040144 90.897868,15.7715726 C92.2654579,14.6386423 93.2206232,14.1681757 93.2206232,14.1681757"/>
      <path fill="#86640C" d="M88.0650243,15.5429346 C88.0650243,15.5429346 90.5488447,17.1785753 91.728037,17.0554626 C92.9072294,16.9323499 93.3015951,16.6802619 93.3015951,16.6802619 L95.2783041,18.1581033 C95.2783041,18.1581033 92.1287477,21.5749704 89.2793582,20.4689099 C86.4299687,19.3628494 85.3620577,17.8600923 85.3620577,17.8600923 L88.0650243,15.5429346 Z"/>
      <path fill="#C58F16" d="M94.1487003,16.017163 C94.1487003,16.017163 96.6325207,17.6528037 97.811713,17.5296909 C98.9909054,17.4065782 99.3852711,17.1544902 99.3852711,17.1544902 L101.36198,18.6323316 C101.36198,18.6323316 98.2124237,22.0491987 95.3630342,20.9431382 C92.5136447,19.8370777 91.4457337,18.3343206 91.4457337,18.3343206 L94.1487003,16.017163 Z"/>
      <path fill="#86640C" d="M97.5391224 13.5164599C97.5391224 13.5164599 94.0342464 11.7112949 92.0282528 12.5730841 90.0222591 13.4348732 87.5604022 15.9367 87.5604022 15.9367 87.5604022 15.9367 88.8030445 17.2015368 90.0437345 17.4839145 91.2844245 17.7658036 91.5655564 17.7179264 91.5655564 17.7179264 91.5655564 17.7179264 93.9498092 16.383228 95.2754245 15.2024204 96.6015278 14.0211244 97.5391224 13.5164599 97.5391224 13.5164599M101.036872 16.3713564C101.036872 16.3713564 103.120958 18.4940741 104.299175 18.6220722 105.477879 18.7505589 105.916171 18.5873857 105.916171 18.5873857L107.537561 20.4492216C107.537561 20.4492216 103.739839 23.1249696 101.1872 21.4429173 98.6345609 19.7603765 97.9068391 18.0665993 97.9068391 18.0665993L101.036872 16.3713564z"/>
      <path fill="#86640C" d="M110.790443,14.7947316 C110.790443,14.7947316 107.380254,12.816134 105.33375,13.5763063 C103.287246,14.3364786 100.702882,16.7117729 100.702882,16.7117729 C100.702882,16.7117729 101.88061,18.037189 103.10617,18.381123 C104.331241,18.725057 104.614325,18.6913476 104.614325,18.6913476 C104.614325,18.6913476 107.062028,17.4778077 108.445236,16.3649076 C109.828933,15.251519 110.790443,14.7947316 110.790443,14.7947316"/>
      <path fill="#C58F16" d="M103.909836 14.1303625C103.909836 14.1303625 100.45816 12.2255348 98.428251 13.0291874 96.3983417 13.8328401 93.8657137 16.2628511 93.8657137 16.2628511 93.8657137 16.2628511 95.0717502 17.562863 96.3036548 17.8804157 97.5360475 18.1984569 97.8186437 18.1583964 97.8186437 18.1583964 97.8186437 18.1583964 100.239502 16.893071 101.598795 15.7503698 102.958575 14.6076687 103.909836 14.1303625 103.909836 14.1303625M106.407615 15.4957414C106.407615 15.4957414 107.655627 18.1968936 108.721585 18.7152373 109.788032 19.233581 110.256097 19.2277185 110.256097 19.2277185L111.15611 21.5272886C111.15611 21.5272886 106.679474 22.7657442 104.842355 20.3215654 103.004747 17.8768982 102.890049 16.0365581 102.890049 16.0365581L106.407615 15.4957414z"/>
      <path fill="#C58F16" d="M115.78732,17.2282113 C115.78732,17.2282113 113.24249,14.2153689 111.059324,14.2407731 C108.876647,14.2666659 105.644606,15.631654 105.644606,15.631654 C105.644606,15.631654 106.307413,17.276577 107.345064,18.0137878 C108.382714,18.7505101 108.660429,18.8145092 108.660429,18.8145092 C108.660429,18.8145092 111.373645,18.497445 113.051164,17.9155907 C114.728194,17.334225 115.78732,17.2282113 115.78732,17.2282113"/>
      <path fill="#86640C" d="M112.022933,18.3168797 C112.022933,18.3168797 113.02593,21.118183 114.042105,21.7293499 C115.05828,22.3405167 115.524881,22.3766688 115.524881,22.3766688 L116.216973,24.7470776 C116.216973,24.7470776 111.648579,25.5824855 110.035487,22.9839273 C108.422394,20.3858577 108.471202,18.5425863 108.471202,18.5425863 L112.022933,18.3168797 Z"/>
      <path fill="#C58F16" d="M116.974712,20.5108757 C116.974712,20.5108757 118.697621,22.9364898 119.840696,23.2496456 C120.984259,23.5628015 121.44305,23.4709555 121.44305,23.4709555 L122.750119,25.5658262 C122.750119,25.5658262 118.577554,27.6069573 116.322642,25.5423762 C114.067241,23.4773065 113.616259,21.6897291 113.616259,21.6897291 L116.974712,20.5108757 Z"/>
      <path fill="#86640C" d="M120.412038 21.1807654C120.412038 21.1807654 117.465521 17.428758 115.283332 17.3725756 113.101143 17.3163932 109.819806 18.5597342 109.819806 18.5597342 109.819806 18.5597342 110.421116 20.2285958 111.430458 21.0039129 112.440287 21.7792301 112.715562 21.8534885 112.715562 21.8534885 112.715562 21.8534885 115.43854 21.6380412 117.13607 21.1196975 118.834087 20.6008653 120.412038 21.1807654 120.412038 21.1807654M121.8053 23.7981813C121.8053 23.7981813 121.685234 26.7719402 122.398313 27.7197129 123.111393 28.6674856 123.530162 28.8760933 123.530162 28.8760933L123.284172 31.3334627C123.284172 31.3334627 118.735789 30.3930181 118.214035 27.3787102 117.692281 24.3644022 118.4283 22.6740447 118.4283 22.6740447L121.8053 23.7981813z"/>
      <path fill="#86640C" d="M128.027785,32.0409213 C128.027785,32.0409213 128.565645,28.1325803 127.08775,26.524298 C125.609855,24.9160157 122.435407,23.4220523 122.435407,23.4220523 C122.435407,23.4220523 121.655461,25.0151898 121.801396,26.2800267 C121.947331,27.5453521 122.085944,27.7949973 122.085944,27.7949973 C122.085944,27.7949973 124.134889,29.6030936 125.687948,30.4629286 C127.241006,31.3232522 128.027785,32.0409213 128.027785,32.0409213"/>
      <path fill="#C58F16" d="M126.155769,28.5083184 C126.155769,28.5083184 125.111285,31.0961287 125.441713,32.1582203 C125.772141,33.2208005 126.076212,33.5373762 126.076212,33.5373762 L125.082977,35.6288271 C125.082977,35.6288271 121.364324,33.3605237 121.85484,30.5338161 C122.345357,27.7075971 123.528942,26.4476456 123.528942,26.4476456 L126.155769,28.5083184 Z"/>
      <path fill="#C58F16" d="M130.992068,36.0394472 C130.992068,36.0394472 131.416694,32.3641411 129.998345,30.8867882 C128.579995,29.4094353 125.572957,28.0732712 125.572957,28.0732712 C125.572957,28.0732712 124.875008,29.5823794 125.037537,30.7656296 C125.200066,31.9488798 125.334776,32.180449 125.334776,32.180449 C125.334776,32.180449 127.29245,33.8331887 128.76644,34.6080173 C130.239942,35.3828459 130.992068,36.0394472 130.992068,36.0394472"/>
      <path fill="#86640C" d="M127.325151,31.5785157 C127.325151,31.5785157 125.692047,33.8741775 125.766723,34.9953828 C125.841887,36.1165881 126.065914,36.499117 126.065914,36.499117 L124.599733,38.3204038 C124.599733,38.3204038 121.479461,35.2171811 122.624976,32.556578 C123.770491,29.8959749 125.228863,28.9364772 125.228863,28.9364772 L127.325151,31.5785157 Z"/>
      <path fill="#86640C" d="M131.131121,41.959851 C131.131121,41.959851 132.630491,37.8487648 131.404932,35.7582909 C130.17986,33.667817 127.087897,31.3022937 127.087897,31.3022937 C127.087897,31.3022937 125.869658,32.8460884 125.731045,34.252114 C125.592431,35.6581397 125.684189,35.9610361 125.684189,35.9610361 C125.684189,35.9610361 127.481774,38.4022836 128.964062,39.6998528 C130.44635,40.9969335 131.131121,41.959851 131.131121,41.959851"/>
      <path fill="#C58F16" d="M127.985664,34.8754944 C127.985664,34.8754944 126.495079,36.9869756 126.567315,38.0153578 C126.640038,39.0437401 126.846982,39.3940251 126.846982,39.3940251 L125.507701,41.0692378 C125.507701,41.0692378 122.634884,38.2327593 123.676927,35.788092 C124.71897,33.3434247 126.053858,32.4586741 126.053858,32.4586741 L127.985664,34.8754944 Z"/>
      <path fill="#C58F16" d="M131.622126,44.535008 C131.622126,44.535008 132.983859,40.7585735 131.852986,38.8444635 C130.721625,36.9308421 127.877604,34.7709951 127.877604,34.7709951 C127.877604,34.7709951 126.76479,36.1916771 126.642283,37.4819181 C126.520264,38.7721592 126.605189,39.05014 126.605189,39.05014 C126.605189,39.05014 128.262697,41.2837568 129.62687,42.4689612 C130.991043,43.6541656 131.622126,44.535008 131.622126,44.535008"/>
      <path fill="#86640C" d="M129.361844,40.4408254 C129.361844,40.4408254 127.309972,41.9631242 127.060565,42.9514459 C126.811158,43.9402562 126.897547,44.3330445 126.897547,44.3330445 L125.122414,45.4923561 C125.122414,45.4923561 123.299937,41.9396742 125.033096,39.9654734 C126.766743,37.9917612 128.292957,37.5735687 128.292957,37.5735687 L129.361844,40.4408254 Z"/>
      <path fill="#86640C" d="M130.515266,47.5688577 C130.515266,47.5688577 132.461227,44.1094874 131.671519,42.0580969 C130.881812,40.0062179 128.461929,37.4335524 128.461929,37.4335524 C128.461929,37.4335524 127.144123,38.6363444 126.813696,39.8747999 C126.483268,41.1127669 126.52085,41.3975873 126.52085,41.3975873 C126.52085,41.3975873 127.771301,43.8476285 128.907543,45.2267843 C130.043785,46.6064287 130.515266,47.5688577 130.515266,47.5688577"/>
      <path fill="#C58F16" d="M129.807556,46.5516142 C129.807556,46.5516142 127.369614,46.124628 127.021616,47.0587214 C126.673618,47.9928149 126.715592,48.383649 126.715592,48.383649 L124.865783,49.3206738 C124.865783,49.3206738 123.473789,45.6717489 125.370454,43.9383997 C127.26663,42.205539 128.795285,41.9627334 128.795285,41.9627334 L129.807556,46.5516142 Z"/>
      <path fill="#C58F16" d="M128.358701,52.0605674 C128.358701,52.0605674 131.069965,49.2836911 130.841057,47.1458286 C130.612149,45.0079661 128.974653,41.9653226 128.974653,41.9653226 C128.974653,41.9653226 127.426475,42.7689753 126.801738,43.855494 C126.177488,44.9420128 126.140882,45.2204821 126.140882,45.2204821 C126.140882,45.2204821 126.70461,47.8512841 127.43038,49.4414904 C128.156149,51.0316966 128.358701,52.0605674 128.358701,52.0605674"/>
      <path fill="#86640C" d="M125.445569,55.2318929 C125.445569,55.2318929 127.201179,53.7584484 127.24657,52.2537371 C127.291962,50.7490258 126.836586,48.2882367 126.836586,48.2882367 C126.836586,48.2882367 125.68619,48.6976354 125.149307,49.3913659 C124.611934,50.0850964 124.560198,50.2751395 124.560198,50.2751395 C124.560198,50.2751395 124.700276,52.1535859 125.051691,53.3260882 C125.403106,54.499079 125.445569,55.2318929 125.445569,55.2318929"/>
      <path fill="#86640C" d="M129.453554,49.3733387 C129.453554,49.3733387 126.756444,50.0338483 126.09022,50.9190875 C125.424484,51.8043268 125.345904,52.2347328 125.345904,52.2347328 L123.078789,52.6480399 C123.078789,52.6480399 122.747385,48.3185752 125.315643,47.0718144 C127.883412,45.8245651 129.589727,46.0488061 129.589727,46.0488061 L129.453554,49.3733387 Z"/>
      <path fill="#C58F16" d="M126.295651,61.9924923 C126.295651,61.9924923 129.617987,58.5897929 129.337831,55.9697389 C129.057187,53.3496848 127.050217,49.6221046 127.050217,49.6221046 C127.050217,49.6221046 125.153065,50.606518 124.387761,51.9377966 C123.622457,53.2690753 123.578042,53.6105665 123.578042,53.6105665 C123.578042,53.6105665 124.26867,56.8339708 125.157945,58.7832558 C126.047221,60.7320523 126.295651,61.9924923 126.295651,61.9924923"/>
      <path fill="#C58F16" d="M128.161958 51.7088167C128.161958 51.7088167 126.004172 52.9687681 125.656174 53.9028616 125.308175 54.8369551 125.35015 55.2282777 125.35015 55.2282777L123.500341 56.1648139C123.500341 56.1648139 122.108835 52.5158891 124.005012 50.7830284 125.901188 49.0496792 127.429843 48.8068735 127.429843 48.8068735L128.161958 51.7088167zM126.690456 25.5335824C126.690456 25.5335824 125.099816 21.8846576 122.984981 21.3428638 118.47906 20.1884376 117.239835 21.1313248 117.239835 21.1313248 117.239835 21.1313248 117.574655 22.9281846 118.365339 23.9262772 119.156022 24.9243698 119.404941 25.0631159 119.404941 25.0631159 119.404941 25.0631159 122.098146 25.5174605 123.871328 25.4285457 125.644021 25.3391424 126.690456 25.5335824 126.690456 25.5335824"/>
      <path fill="#F2CCB0" d="M121.339041,54.1546565 C121.339041,54.1546565 128.377102,51.238057 127.57568,60.7832027 C126.777676,70.3307912 122.657823,70.9883696 120.481491,67.9989773 C118.30223,65.0115391 121.339041,54.1546565 121.339041,54.1546565"/>
      <path fill="#86640C" d="M129.125127,54.6837481 C129.125127,54.6837481 131.440073,52.3128508 131.244355,50.4876555 C131.049124,48.6619718 129.650786,46.0648792 129.650786,46.0648792 C129.650786,46.0648792 128.329075,46.750793 127.796096,47.6785355 C127.262628,48.6057894 127.231391,48.8437096 127.231391,48.8437096 C127.231391,48.8437096 127.713123,51.0895401 128.332491,52.4476885 C128.952348,53.8053485 129.125127,54.6837481 129.125127,54.6837481"/>
      <path fill="#AA7E12" d="M77.5996432 43.0936118C76.261338 43.0911691 75.0279692 42.9563313 73.8082665 42.8258905L70.2501901 42.4184459C69.0856401 42.2855623 67.9508626 42.2166778 66.8351202 42.2616237 65.7125447 42.3095009 64.6231583 42.4721856 63.4195622 43.0936118 63.853462 41.7877374 65.1527211 40.8614606 66.4588134 40.4271462 67.7873571 39.9825724 69.1817911 39.8980545 70.4927641 40.0499913 71.8120343 40.1931343 73.0854254 40.5253433 74.2841409 41.0217026 75.4750471 41.5366265 76.6215383 42.1668465 77.5996432 43.0936118M93.2683083 43.0936118C94.6066135 43.0911691 95.8399824 42.9563313 97.0596851 42.8258905L100.617761 42.4184459C101.782311 42.2855623 102.917089 42.2166778 104.032831 42.2616237 105.155407 42.3095009 106.244793 42.4721856 107.448389 43.0936118 107.01449 41.7877374 105.71523 40.8614606 104.409138 40.4271462 103.080594 39.9825724 101.68616 39.8980545 100.375187 40.0499913 99.0559172 40.1931343 97.7825261 40.5253433 96.5838107 41.0217026 95.3929045 41.5366265 94.2464132 42.1668465 93.2683083 43.0936118"/>
      <path fill="#FFFFFF" d="M74.487327,55.94155 C74.7704113,54.2746425 72.8639852,52.7797021 70.2195878,52.5999184 C67.5829995,52.4167149 65.2187579,53.6185298 64.9278644,55.2854372 C64.6398994,56.9474592 66.5463254,58.4360486 69.1804733,58.6158323 C71.8248707,58.7990357 74.199362,57.6016178 74.487327,55.94155"/>
      <path fill="#AA7E12" d="M69.8638777,55.7688013 C69.9849207,54.6329397 69.168369,53.6143283 68.0350558,53.4917041 C66.9051591,53.3671258 65.8919127,54.1859232 65.7674533,55.3217848 C65.64397,56.4542266 66.4610097,57.4684411 67.5899302,57.5910653 C68.7227553,57.7156436 69.7403944,56.900266 69.8638777,55.7688013"/>
      <path fill="#FFFFFF" d="M69.7201881 54.6658675C69.7201881 55.1197236 69.3526666 55.4875962 68.8992437 55.4875962 68.4458208 55.4875962 68.0782994 55.1197236 68.0782994 54.6658675 68.0782994 54.2120114 68.4458208 53.8441388 68.8992437 53.8441388 69.3526666 53.8441388 69.7201881 54.2120114 69.7201881 54.6658675M106.084753 55.94155C106.367837 54.2746425 104.461411 52.7797021 101.817014 52.5999184 99.1804254 52.4167149 96.8161838 53.6185298 96.5252903 55.2854372 96.2373253 56.9474592 98.1437514 58.4360486 100.777899 58.6158323 103.422297 58.7990357 105.796788 57.6016178 106.084753 55.94155"/>
      <path fill="#AA7E12" d="M101.461304,55.7688013 C101.582347,54.6329397 100.765795,53.6143283 99.6324817,53.4917041 C98.5025851,53.3671258 97.4893386,54.1859232 97.3648792,55.3217848 C97.2413959,56.4542266 98.0584356,57.4684411 99.1873561,57.5910653 C100.320181,57.7156436 101.33782,56.900266 101.461304,55.7688013"/>
      <path fill="#FFFFFF" d="M101.317614,54.6658675 C101.317614,55.1197236 100.950093,55.4875962 100.49667,55.4875962 C100.043247,55.4875962 99.6757253,55.1197236 99.6757253,54.6658675 C99.6757253,54.2120114 100.043247,53.8441388 100.49667,53.8441388 C100.950093,53.8441388 101.317614,54.2120114 101.317614,54.6658675"/>
      <path fill="#575756" d="M79.0652876 389.667115C79.0652876 389.667115 75.1382256 446.81732 73.7237804 455.199734 72.8593973 460.342622 72.1687693 486.636475 72.1687693 486.636475L56.0764052 486.887097 50.7275769 405.646856C50.7275769 405.646856 49.7631382 371.56368 52.1786278 345.533641 53.2509315 333.999149 76.8655277 325.605987 77.027569 342.752367 77.1544688 355.819905 81.5251922 357.805343 79.0652876 389.667115M100.706445 389.667115C100.706445 389.667115 104.633507 446.81732 106.047952 455.199734 106.912335 460.342622 107.602963 486.636475 107.602963 486.636475L123.695327 486.887097 129.044155 405.646856C129.044155 405.646856 130.008594 371.56368 127.593105 345.533641 126.520801 333.999149 102.906205 325.605987 102.744163 342.752367 102.617264 355.819905 98.2465402 357.805343 100.706445 389.667115"/>
      <path fill="#683127" d="M74.2608108 468.265513C74.2608108 468.265513 72.4817727 471.662839 63.4753005 471.587115 54.4712687 471.503085 50.6877011 469.645158 51.0474134 470.053579 51.6941145 471.724395 51.0308188 479.614847 51.8605485 485.428016 51.8605485 485.428016 41.6221717 509.684645 19.897407 516.702072 15.0649634 518.267362 11.5000541 525.692233 30.418868 522.921219 44.982089 520.791173 48.6919571 517.432931 52.8508553 514.61746 60.8021065 509.233721 60.8021065 510.710096 60.8021065 510.710096L60.9865994 514.769886 74.4453037 514.954555 74.876275 486.610289 74.2608108 468.265513zM104.617107 468.265513C104.617107 468.265513 106.396146 471.662839 115.402618 471.587115 124.40665 471.503085 128.190217 469.645158 127.830505 470.053579 127.183804 471.724395 127.8471 479.614847 127.01737 485.428016 127.01737 485.428016 137.255747 509.684645 158.980511 516.702072 163.812955 518.267362 167.377864 525.692233 148.45905 522.921219 133.895829 520.791173 130.185961 517.432931 126.027063 514.61746 118.075812 509.233721 118.075812 510.710096 118.075812 510.710096L117.891319 514.769886 104.432615 514.954555 104.001643 486.610289 104.617107 468.265513z"/>
      <path fill="#3C3C3B" d="M127.696772,216.43679 C124.209955,199.248395 131.972321,193.502157 135.93306,185.353266 C139.517004,179.615821 143.421127,173.154357 144.316259,166.134488 C145.514974,156.735905 144.256713,148.142929 139.312988,137.9148 C134.369263,127.686672 115.748176,121.141667 115.748176,121.141667 L115.748176,121.143621 C106.893983,117.209876 100.325941,116.349063 100.325941,116.349063 C100.325941,116.349063 92.8949787,115.778446 85.4566957,115.989008 C78.0189008,115.778446 70.587939,116.349063 70.587939,116.349063 C70.587939,116.349063 64.019896,117.209876 55.1652156,121.143621 L55.1657037,121.141667 C55.1657037,121.141667 36.5441281,127.686672 31.6004032,137.9148 C26.6566782,148.142929 34.5230041,152.333647 35.7212315,161.73223 C36.6168515,168.752099 31.3968754,179.615821 34.9808197,185.353266 C38.9410709,193.502157 46.7039246,199.248395 43.2171075,216.43679 C38.7746369,238.312752 38.1132935,240.634306 17.9362188,341.177843 C17.9362188,341.177843 42.8471456,361.43966 62.7987291,360.708312 C70.0110328,360.44743 77.7846242,361.508056 86.3596369,360.565169 C94.4885479,360.168472 104.798672,357.042777 115.356251,356.149721 C135.250241,354.466691 154.613204,351.237913 154.613204,351.237913 C134.435642,250.694376 132.139243,238.312752 127.696772,216.43679"/>
    </g>
    <g fill="#FFF9CF" transform="translate(151.342 128.21)">
      <path d="M107.782245 184.34601C106.159392 184.34601 104.843538 183.028899 104.843538 181.404495 104.843538 179.779602 106.159392 178.462491 107.782245 178.462491 109.405587 178.462491 110.720953 179.779602 110.720953 181.404495 110.720953 183.028899 109.405587 184.34601 107.782245 184.34601M107.782245 219.878692C106.159392 219.878692 104.843538 218.561581 104.843538 216.937176 104.843538 215.312284 106.159392 213.995173 107.782245 213.995173 109.405587 213.995173 110.720953 215.312284 110.720953 216.937176 110.720953 218.561581 109.405587 219.878692 107.782245 219.878692M86.8345957 25.1740358C85.211742 25.1740358 83.8958882 23.8569249 83.8958882 22.2325207 83.8958882 20.607628 85.211742 19.290517 86.8345957 19.290517 88.4574494 19.290517 89.7733032 20.607628 89.7733032 22.2325207 89.7733032 23.8569249 88.4574494 25.1740358 86.8345957 25.1740358M86.8345957 60.7067666C85.211742 60.7067666 83.8958882 59.3896557 83.8958882 57.7652515 83.8958882 56.1403588 85.211742 54.8232478 86.8345957 54.8232478 88.4574494 54.8232478 89.7733032 56.1403588 89.7733032 57.7652515 89.7733032 59.3896557 88.4574494 60.7067666 86.8345957 60.7067666M86.8345957 96.2395463C85.211742 96.2395463 83.8958882 94.9224354 83.8958882 93.2980312 83.8958882 91.6731384 85.211742 90.3560275 86.8345957 90.3560275 88.4574494 90.3560275 89.7733032 91.6731384 89.7733032 93.2980312 89.7733032 94.9224354 88.4574494 96.2395463 86.8345957 96.2395463M86.8345957 131.772228C85.211742 131.772228 83.8958882 130.455117 83.8958882 128.830713 83.8958882 127.20582 85.211742 125.888709 86.8345957 125.888709 88.4574494 125.888709 89.7733032 127.20582 89.7733032 128.830713 89.7733032 130.455117 88.4574494 131.772228 86.8345957 131.772228M86.8345957 167.304959C85.211742 167.304959 83.8958882 165.987848 83.8958882 164.363444 83.8958882 162.738551 85.211742 161.42144 86.8345957 161.42144 88.4574494 161.42144 89.7733032 162.738551 89.7733032 164.363444 89.7733032 165.987848 88.4574494 167.304959 86.8345957 167.304959M86.8345957 202.83769C85.211742 202.83769 83.8958882 201.520579 83.8958882 199.896175 83.8958882 198.271282 85.211742 196.954171 86.8345957 196.954171 88.4574494 196.954171 89.7733032 198.271282 89.7733032 199.896175 89.7733032 201.520579 88.4574494 202.83769 86.8345957 202.83769M65.8869949 6.68235564C64.2641412 6.68235564 62.9482874 5.36524473 62.9482874 3.74084051 62.9482874 2.11594775 64.2641412.798836847 65.8869949.798836847 67.5098486.798836847 68.8257024 2.11594775 68.8257024 3.74084051 68.8257024 5.36524473 67.5098486 6.68235564 65.8869949 6.68235564M65.8869949 42.2150864C64.2641412 42.2150864 62.9482874 40.8979755 62.9482874 39.2735713 62.9482874 37.6486786 64.2641412 36.3315676 65.8869949 36.3315676 67.5098486 36.3315676 68.8257024 37.6486786 68.8257024 39.2735713 68.8257024 40.8979755 67.5098486 42.2150864 65.8869949 42.2150864M65.8869949 77.7478172C64.2641412 77.7478172 62.9482874 76.4307063 62.9482874 74.8063021 62.9482874 73.1814093 64.2641412 71.8642984 65.8869949 71.8642984 67.5098486 71.8642984 68.8257024 73.1814093 68.8257024 74.8063021 68.8257024 76.4307063 67.5098486 77.7478172 65.8869949 77.7478172M65.8869949 113.280548C64.2641412 113.280548 62.9482874 111.963437 62.9482874 110.339033 62.9482874 108.71414 64.2641412 107.397029 65.8869949 107.397029 67.5098486 107.397029 68.8257024 108.71414 68.8257024 110.339033 68.8257024 111.963437 67.5098486 113.280548 65.8869949 113.280548M65.8869949 148.813279C64.2641412 148.813279 62.9482874 147.496168 62.9482874 145.871764 62.9482874 144.246871 64.2641412 142.92976 65.8869949 142.92976 67.5098486 142.92976 68.8257024 144.246871 68.8257024 145.871764 68.8257024 147.496168 67.5098486 148.813279 65.8869949 148.813279M65.8869949 184.34601C64.2641412 184.34601 62.9482874 183.028899 62.9482874 181.404495 62.9482874 179.779602 64.2641412 178.462491 65.8869949 178.462491 67.5098486 178.462491 68.8257024 179.779602 68.8257024 181.404495 68.8257024 183.028899 67.5098486 184.34601 65.8869949 184.34601M65.8869949 219.878692C64.2641412 219.878692 62.9482874 218.561581 62.9482874 216.937176 62.9482874 215.312284 64.2641412 213.995173 65.8869949 213.995173 67.5098486 213.995173 68.8257024 215.312284 68.8257024 216.937176 68.8257024 218.561581 67.5098486 219.878692 65.8869949 219.878692M44.9393453 25.1740358C43.3164916 25.1740358 42.0006378 23.8569249 42.0006378 22.2325207 42.0006378 20.607628 43.3164916 19.290517 44.9393453 19.290517 46.562199 19.290517 47.8780528 20.607628 47.8780528 22.2325207 47.8780528 23.8569249 46.562199 25.1740358 44.9393453 25.1740358M44.9393453 60.7067666C43.3164916 60.7067666 42.0006378 59.3896557 42.0006378 57.7652515 42.0006378 56.1403588 43.3164916 54.8232478 44.9393453 54.8232478 46.562199 54.8232478 47.8780528 56.1403588 47.8780528 57.7652515 47.8780528 59.3896557 46.562199 60.7067666 44.9393453 60.7067666M44.9393453 96.2395463C43.3164916 96.2395463 42.0006378 94.9224354 42.0006378 93.2980312 42.0006378 91.6731384 43.3164916 90.3560275 44.9393453 90.3560275 46.562199 90.3560275 47.8780528 91.6731384 47.8780528 93.2980312 47.8780528 94.9224354 46.562199 96.2395463 44.9393453 96.2395463M44.9393453 131.772228C43.3164916 131.772228 42.0006378 130.455117 42.0006378 128.830713 42.0006378 127.20582 43.3164916 125.888709 44.9393453 125.888709 46.562199 125.888709 47.8780528 127.20582 47.8780528 128.830713 47.8780528 130.455117 46.562199 131.772228 44.9393453 131.772228M44.9393453 167.304959C43.3164916 167.304959 42.0006378 165.987848 42.0006378 164.363444 42.0006378 162.738551 43.3164916 161.42144 44.9393453 161.42144 46.562199 161.42144 47.8780528 162.738551 47.8780528 164.363444 47.8780528 165.987848 46.562199 167.304959 44.9393453 167.304959M44.9393453 202.83769C43.3164916 202.83769 42.0006378 201.520579 42.0006378 199.896175 42.0006378 198.271282 43.3164916 196.954171 44.9393453 196.954171 46.562199 196.954171 47.8780528 198.271282 47.8780528 199.896175 47.8780528 201.520579 46.562199 202.83769 44.9393453 202.83769M23.9917445 6.68235564C22.3684027 6.68235564 21.053037 5.36524473 21.053037 3.74084051 21.053037 2.11594775 22.3684027.798836847 23.9917445.798836847 25.6145983.798836847 26.930452 2.11594775 26.930452 3.74084051 26.930452 5.36524473 25.6145983 6.68235564 23.9917445 6.68235564M23.9917445 42.2150864C22.3684027 42.2150864 21.053037 40.8979755 21.053037 39.2735713 21.053037 37.6486786 22.3684027 36.3315676 23.9917445 36.3315676 25.6145983 36.3315676 26.930452 37.6486786 26.930452 39.2735713 26.930452 40.8979755 25.6145983 42.2150864 23.9917445 42.2150864M23.9917445 77.7478172C22.3684027 77.7478172 21.053037 76.4307063 21.053037 74.8063021 21.053037 73.1814093 22.3684027 71.8642984 23.9917445 71.8642984 25.6145983 71.8642984 26.930452 73.1814093 26.930452 74.8063021 26.930452 76.4307063 25.6145983 77.7478172 23.9917445 77.7478172M23.9917445 113.280548C22.3684027 113.280548 21.053037 111.963437 21.053037 110.339033 21.053037 108.71414 22.3684027 107.397029 23.9917445 107.397029 25.6145983 107.397029 26.930452 108.71414 26.930452 110.339033 26.930452 111.963437 25.6145983 113.280548 23.9917445 113.280548M23.9917445 148.813279C22.3684027 148.813279 21.053037 147.496168 21.053037 145.871764 21.053037 144.246871 22.3684027 142.92976 23.9917445 142.92976 25.6145983 142.92976 26.930452 144.246871 26.930452 145.871764 26.930452 147.496168 25.6145983 148.813279 23.9917445 148.813279M23.9917445 184.34601C22.3684027 184.34601 21.053037 183.028899 21.053037 181.404495 21.053037 179.779602 22.3684027 178.462491 23.9917445 178.462491 25.6145983 178.462491 26.930452 179.779602 26.930452 181.404495 26.930452 183.028899 25.6145983 184.34601 23.9917445 184.34601M23.9917445 219.878692C22.3684027 219.878692 21.053037 218.561581 21.053037 216.937176 21.053037 215.312284 22.3684027 213.995173 23.9917445 213.995173 25.6145983 213.995173 26.930452 215.312284 26.930452 216.937176 26.930452 218.561581 25.6145983 219.878692 23.9917445 219.878692M3.04409491 25.1740358C1.42124118 25.1740358.10538744 23.8569249.10538744 22.2325207.10538744 20.607628 1.42124118 19.290517 3.04409491 19.290517 4.66694865 19.290517 5.98280238 20.607628 5.98280238 22.2325207 5.98280238 23.8569249 4.66694865 25.1740358 3.04409491 25.1740358M3.04409491 202.83769C1.42124118 202.83769.10538744 201.520579.10538744 199.896175.10538744 198.271282 1.42124118 196.954171 3.04409491 196.954171 4.66694865 196.954171 5.98280238 198.271282 5.98280238 199.896175 5.98280238 201.520579 4.66694865 202.83769 3.04409491 202.83769"/>
    </g>
    <g transform="translate(0 82.788)">
      <path fill="#F4CEB1" d="M241.334311,40.4715547 C238.281881,37.4162092 234.38264,35.5573045 224.037862,33.0032037 C219.376245,31.8521973 217.863209,32.6314227 217.653824,29.889233 C217.549864,28.5315731 217.013468,17.5769819 216.89877,13.1170763 L210.827589,13.1761899 L204.756896,13.1170763 C204.642198,17.5769819 204.105802,28.5315731 204.001842,29.889233 C203.792457,32.6314227 202.27942,31.8521973 197.617803,33.0032037 C187.273026,35.5573045 183.373784,37.4162092 180.321355,40.4715547 C174.681633,46.1166647 185.032268,66.8914511 209.486843,66.9832972 C209.935873,66.9852513 210.382463,66.9745034 210.827589,66.9583815 C211.273203,66.9745034 211.719792,66.9852513 212.168823,66.9832972 C236.62291,66.8914511 246.974032,46.1166647 241.334311,40.4715547"/>
      <path fill="#1D1D1B" d="M188.16601 64.6677517C188.16601 64.6677517 182.387675 59.5522219 181.492543 54.6325977 178.921845 40.496617 198.357532 32.6716298 198.357532 32.6716298 198.357532 32.6716298 187.413885 34.7112952 182.07433 35.6150991 178.247812 36.2629066 174.905465 37.3113191 172.22495 38.3665711L172.210796 38.3118544C172.210796 38.3118544 168.189047 39.9787618 164.373266 41.8532998 160.663398 43.6755638 156.972077 46.8022366 154.735224 51.466353 152.4071 56.321001 151.752589 61.3549442 153.057705 71.6167819 153.964063 78.74755 163.981341 125.278303 169.532721 135.201093 175.084101 145.123882 175.63758 144.302642 175.63758 144.302642L176.222783 124.375965C176.222783 124.375965 176.180809 112.934297 176.157869 104.718964L176.265734 96.5344098C177.520578 89.2419341 188.16601 64.6677517 188.16601 64.6677517M239.517251 66.1676753C239.517251 66.1676753 245.295587 61.0521455 246.190719 56.1325213 248.761417 41.9965405 230.874884 34.7646441 230.874884 34.7646441 230.874884 34.7646441 240.269377 36.2112188 245.608932 37.1150226 249.43545 37.7628302 252.777797 38.8112426 255.458312 39.8664947L255.472466 39.8117779C255.472466 39.8117779 259.494215 41.4786853 263.309995 43.3532234 267.019863 45.1754874 270.711185 48.3021601 272.948038 52.9662765 275.276162 57.8209246 275.930673 62.8548677 274.625557 73.1167055 273.719199 80.2474736 263.701921 126.778227 258.150541 136.701016 252.599161 146.623805 252.045682 145.802565 252.045682 145.802565L251.460479 125.8754C251.460479 125.8754 251.502453 114.434221 251.525393 106.218888L251.417528 98.0343334C250.162684 90.7418577 239.517251 66.1676753 239.517251 66.1676753"/>
      <path fill="#1D1D1B" d="M181.118091 57.9148713C182.856619 53.9523021 182.051781 46.4223947 175.423705 43.8878356 170.898261 42.1574176 172.593838 40.2232774 168.578922 40.723545 161.3715 41.6209978 145.20446 53.7940143 137.994108 62.4265624 129.139428 71.7665203 117.949302 83.6019538 115.628988 86.1980693 111.673617 90.6227998 102.579779 102.661956 100.206752 105.316696 99.1978986 106.445718 97.4979288 108.684709 95.7999113 111.306717 95.7999113 111.306717 92.24818 119.943662 100.093519 124.09432 106.918778 127.70465 114.016872 120.824505 114.016872 120.824505L114.844161 120.017921C114.844161 120.017921 126.155329 106.472588 136.923269 97.4101225 147.691697 88.3481454 178.05346 64.9005423 181.118091 57.9148713M247.909138 50.2050825C249.08833 45.8502136 254.497192 40.3267507 261.221419 42.725495 265.812753 44.3635784 268.217993 46.6011036 270.9971 49.6930898 275.98524 55.2439111 278.231367 70.9432282 278.303114 82.7229679 279.192877 96.1740119 280.29837 113.198745 280.436984 116.843273 280.673701 123.055093 280.03188 138.839416 280.17391 142.566508 280.234432 144.15134 280.121686 147.092855 279.764414 150.341175 279.764414 150.341175 277.011176 159.674293 268.320489 157.760672 260.760187 156.096207 259.660063 145.802126 259.660063 145.802126L259.534628 144.598845C259.534628 144.598845 259.424322 126.116301 256.881445 111.607073 254.338567 97.097846 245.830421 57.8825298 247.909138 50.2050825"/>
      <path fill="#F1CCB0" d="M242.038849,206.764281 C247.466257,196.884973 256.379019,151.841343 257.609459,145.453648 C258.839412,139.065465 277.946135,129.606303 276.362327,154.025617 C273.811152,172.24044 255.021679,206.15458 251.058987,215.044102 C251.058987,215.044102 247.554111,219.041846 242.9823,216.423258 C240.185623,214.821815 240.994854,208.879671 242.038849,206.764281"/>
      <path fill="#1D1E1C" d="M259.32046,140.437195 C259.32046,140.437195 261.917514,135.380779 270.020069,136.076952 C279.202736,136.86546 280.288218,144.067066 280.261862,144.093448 C280.290658,148.451736 279.948517,153.321041 278.781526,156.344631 C276.692072,161.757683 273.285299,169.498153 273.285299,169.498153 L251.90414,165.322579 C251.90414,165.322579 256.539401,146.807791 259.32046,140.437195"/>
      <path fill="#4B5C69" d="M227.470796,237.037265 C227.470796,237.037265 222.70229,247.739279 224.304645,251.348144 C226.045125,255.266744 232.245158,250.456065 234.017852,246.946375 C235.790545,243.436196 237.174729,242.471813 241.268225,230.672043 C245.361233,218.872273 240.933893,217.568353 239.143629,218.412066 C237.353365,219.256267 233.040723,224.355675 232.053344,226.275648 C230.976648,228.37003 227.470796,237.037265 227.470796,237.037265"/>
      <path fill="#F1CCB0" d="M251.320889,210.190577 C251.320889,210.190577 252.623565,217.348215 251.379458,221.14126 C250.135352,224.933817 249.136747,229.700038 248.635981,231.393327 C248.134727,233.086127 247.219096,233.45058 247.043876,233.388535 C246.869145,233.326979 245.621622,235.739891 244.436084,237.977905 C243.250059,240.215918 241.512507,243.735379 240.565639,244.187281 C239.618771,244.639183 238.826623,244.653351 238.826623,244.653351 C238.826623,244.653351 238.24386,246.022247 236.023601,248.681385 C233.80383,251.340034 232.421598,251.335637 231.294142,252.01862 C230.167173,252.702091 229.199318,252.17593 228.860593,251.465101 C228.521868,250.754271 229.856269,249.15234 230.813875,248.113698 C231.771968,247.075057 233.737452,242.356224 234.094724,240.513441 L234.451507,238.671147 C234.451507,238.671147 233.795045,240.562295 232.564116,242.095342 C231.3327,243.6279 228.055267,245.435019 227.867846,242.906811 C227.680913,240.379092 228.500881,238.529958 229.131476,236.193258 C229.761582,233.856559 230.654274,231.613171 230.692832,229.55885 C230.73139,227.505016 231.168706,224.66463 232.483584,221.783205 C233.798949,218.901781 236.780119,214.473142 237.94955,213.115482 C239.118981,211.757822 242.946964,206.334511 246.078949,206.657437 C249.210935,206.980364 250.787421,208.918412 251.320889,210.190577"/>
      <path fill="#4B5C69" d="M229.165494,251.923452 C229.165494,251.923452 230.747838,250.111447 232.474652,245.624671 C234.201466,241.137896 234.448432,238.68932 234.448432,238.68932 C234.448432,238.68932 232.641086,244.831278 232.232078,245.389682 C231.823558,245.947598 229.04494,248.421578 229.04494,248.421578 L228.106857,249.406968 L227.688576,250.785147 L229.165494,251.923452 Z"/>
      <path fill="#4B5C69" d="M229.511248,251.479659 C229.511248,251.479659 228.171478,253.512974 226.571564,253.161223 C224.97165,252.809472 223.528896,251.785487 224.062852,248.144867 C224.597295,244.504248 227.829337,246.486754 227.829337,246.486754 L229.210105,249.970551 L229.382884,251.461095 L229.511248,251.479659 Z"/>
      <path fill="#F1CCB0" d="M48.7868391,76.6503831 C57.5917358,83.6819771 100.423361,100.125833 106.503815,102.424426 C112.583782,104.723019 118.651059,125.176833 94.8788137,119.466258 C77.3788375,113.855346 47.1815561,89.5601219 39.102917,84.1412071 C39.102917,84.1412071 35.7625227,80.0052053 39.1170712,75.9400422 C41.168944,73.4533602 46.8818773,75.2609679 48.7868391,76.6503831"/>
      <path fill="#1D1E1C" d="M111.151766,104.964457 C111.151766,104.964457 115.688923,108.384744 113.627289,116.259074 C111.29038,125.182793 104.01609,125.030368 103.994615,125.000078 C99.6990553,124.287783 94.9627628,123.123586 92.1846324,121.458633 C87.2101587,118.478034 80.1681936,113.802682 80.1681936,113.802682 L87.9115243,93.4216605 C87.9115243,93.4216605 105.352443,101.13868 111.151766,104.964457"/>
      <g transform="translate(0 60.09)">
        <mask id="d" fill="white">
          <use xlink:href="#c"/>
        </mask>
        <path fill="#F1CCB0" d="M39.9990739,12.7067982 C39.9990739,12.7067982 24.3952742,4.93555069 22.4703013,4.3981538 C20.5453283,3.86075692 6.47408824,1.20552777 4.12302464,0.795640513 C1.77196105,0.386241797 -0.579102544,-0.0236454629 0.127631955,1.71605481 C0.834366455,3.45526654 8.70459698,6.17742603 11.7370151,7.311822 C14.7694332,8.44670651 17.0531423,10.1233848 17.0531423,10.1233848 C17.0531423,10.1233848 10.6276176,14.4567578 11.7946081,15.8720658 C12.9611105,17.2878623 14.3921502,18.3455571 14.3921502,18.3455571 C14.3921502,18.3455571 12.2446145,21.4057881 13.6756542,22.4634829 C15.1062059,23.5211776 17.8579801,22.7883637 17.8579801,22.7883637 C17.8579801,22.7883637 17.8150294,24.1953665 20.3276463,24.8353573 C22.8402631,25.4753481 24.6124682,24.5720328 24.6124682,24.5720328 L27.0406479,23.3790117 C27.0406479,23.3790117 31.672004,24.4327982 34.8840342,24.3570741 C37.210694,24.3023573 38.9165207,23.8856304 38.9165207,23.8856304 L40.7121534,22.5294361 L43.2882202,14.8568742 L39.9990739,12.7067982 Z" mask="url(#d)"/>
      </g>
      <path fill="#BA7E72" d="M199.436864,0.176803575 C199.436864,0.176803575 199.549121,0.184131714 199.759482,0.197322365 C199.965939,0.212467186 200.268058,0.223215124 200.639972,0.240314115 C201.35354,0.270603758 202.372155,0.313595509 203.594786,0.365381027 C203.893977,0.368800825 204.200977,0.37906022 204.51481,0.396647754 C204.833524,0.397136297 205.15663,0.411792576 205.487546,0.426937397 C205.822854,0.425960312 206.161091,0.442570761 206.506161,0.457227039 C206.855136,0.455761412 207.206551,0.469929148 207.563334,0.487028139 C207.922559,0.488493767 208.286176,0.493867736 208.652233,0.511943813 C209.021218,0.514386526 209.393133,0.521226123 209.766999,0.537836572 C210.141842,0.545653254 210.521077,0.544187626 210.9008,0.560798075 L211.043319,0.566172044 L211.114578,0.568614757 L211.150695,0.570080385 L211.168266,0.570568928 L211.177052,0.57105747 C211.223907,0.57105747 211.123851,0.571546013 211.137517,0.571546013 L211.443053,0.57105747 L212.055101,0.573500183 C212.483632,0.588156462 212.813083,0.562263703 213.187926,0.567149129 C213.545686,0.570080385 213.936635,0.554447021 214.314894,0.549073052 C215.073365,0.524157379 215.830371,0.509989643 216.565902,0.469929148 C216.935376,0.464555179 217.299481,0.447456187 217.656265,0.425960312 C218.015001,0.416189459 218.367392,0.405930064 218.710509,0.384922731 C219.404554,0.360007058 220.061017,0.336557012 220.667207,0.314572594 C221.890327,0.275489184 222.93481,0.25985582 223.677662,0.262787076 C224.422466,0.270115215 224.862223,0.284282951 224.862223,0.284282951 C224.862223,0.284282951 224.5357,0.580828323 223.91926,1.02149377 C223.301355,1.45678524 222.389629,2.02496031 221.238745,2.58385307 C220.664279,2.86623071 220.02978,3.14323437 219.344521,3.40362759 C218.661214,3.66841769 217.925683,3.9092692 217.152082,4.12422796 C216.377993,4.33283566 215.566322,4.52678708 214.726342,4.65820504 C214.304645,4.72660101 213.890756,4.80427929 213.436357,4.84140852 C212.99904,4.88635445 212.515357,4.93569725 212.127336,4.94839936 L211.515776,4.9718494 L211.210241,4.98162026 L210.836862,4.97673483 C210.404427,4.96794106 209.973455,4.95865875 209.546389,4.92739203 C209.118834,4.89026279 208.695672,4.84336269 208.278854,4.79353135 C207.862037,4.72806664 207.452053,4.64989982 207.051342,4.56929028 C205.445571,4.22828753 203.993056,3.67281457 202.828018,3.03868625 C201.660052,2.40455793 200.782002,1.69910238 200.228524,1.13923254 C199.673581,0.576919982 199.436864,0.176803575 199.436864,0.176803575"/>
      <path fill="#FFFFFF" d="M199.485086,0.142996425 C199.485086,0.142996425 206.86968,0.318383226 210.870442,0.294444638 C214.996639,0.269040422 224.920207,0.31154363 224.866518,0.219209074 C224.866518,0.219209074 218.970068,1.91542906 210.778684,1.9491385 C204.666504,1.97454271 199.485086,0.142996425 199.485086,0.142996425"/>
    </g>
  </g>
</svg>
