<svg xmlns="http://www.w3.org/2000/svg" width="335" height="191" viewBox="0 0 335 191">
  <g fill="none" fill-rule="evenodd" transform="scale(-1 1) rotate(-82 -90.317 276.72)">
    <polygon fill="#38416C" points="3.57 306.229 82.97 139.576 141.919 167.535 62.519 334.188"/>
    <path fill="#38416C" d="M2.65262985 315.835107L3.57076333 306.228716 62.519964 334.188271 55.6339629 340.964824C53.659347 342.903671 50.0245446 343.51858 47.5216876 342.332684L6.70876751 322.975586C4.20591047 321.783415 2.38850925 318.58965 2.65262985 315.835107M131.689374 88.424661L127.916223 96.349463C126.72768 98.8467482 127.790451 101.833451 130.293308 103.019348L140.449374 107.83823C142.958519 109.030401 145.951886 107.963722 147.140429 105.466436L155.133221 88.6881936C156.328052 86.1909084 155.045181 84.1391188 152.271914 84.1077458L138.86465 83.9571558C136.091384 83.9257829 132.877917 85.9273758 131.689374 88.424661"/>
    <path fill="#38416C" d="M131.689374,88.424661 L127.916223,96.349463 C126.72768,98.8467482 127.790451,101.833451 130.293308,103.019348 L140.449374,107.83823 C142.958519,109.030401 145.951886,107.963722 147.140429,105.466436 L155.133221,88.6881936 C156.328052,86.1909084 155.045181,84.1391188 152.271914,84.1077458 L138.86465,83.9571558 C136.091384,83.9257829 132.877917,85.9273758 131.689374,88.424661"/>
    <path fill="#38416C" d="M145.995906 127.865453C141.820285 125.882684 144.901692 122.381465 147.285066 117.38062L147.643515 116.62767C150.026889 111.626825 152.429129 107.799327 147.423415 105.427534L127.771585 96.1034993C122.759583 93.7317058 121.306919 98.0046988 118.923545 103.005544L118.565096 103.758494C116.181722 108.759339 115.401937 113.352336 111.232605 111.375841 107.056984 109.393072 101.221177 111.55153 98.202656 116.194723L82.9717019 139.573831 141.920903 167.533386 150.479668 140.985613C152.177586 135.721235 150.171527 129.841948 145.995906 127.865453M61.8864121 8.68900079L41.6497439 16.6639995C36.4931038 18.6969654 34.8580715 46.5686762 36.1975402 51.9397218L42.9389039 79.002011 103.64262 55.0770147 90.0278323 30.7190721C87.3300292 25.8876409 67.0430523 6.65603495 61.8864121 8.68900079"/>
    <path d="M147.850934 100.606076C149.429369 99.2444909 150.221731 98.5731102 150.221731 98.5731102L152.592528 96.5338698 154.957036 94.5009039 157.327833 92.4616635 161.560051 88.816129 164.704343 86.1180571 167.854925 83.4137105C167.854925 83.4137105 168.89883 82.5101702 170.999218 80.709364 162.660553 79.3038567 156.403411 78.2434517 152.234078 77.5406981 147.995572 76.8316699 145.681372 77.5469727 145.731681 77.4277555 145.731681 77.4277555 145.480138 77.7289357 145.454983 77.6097185 145.454983 77.6097185 141.178745 78.0614887 137.487345 80.2764176 133.915429 82.6482111 131.475458 86.1682538 131.475458 86.1682538L131.299377 86.4192372C131.299377 86.4192372 130.771136 87.316503 129.972486 88.6592644 129.708365 89.2177025 129.400224 89.8577103 129.066929 90.5541894L129.180124 90.3345788C129.318473 90.0333987 129.46311 89.725944 129.46311 89.725944L129.469399 89.7196694 129.532285 89.6882965C129.532285 89.6882965 129.890734 89.5377064 130.569901 89.2490755 131.135874 89.0231904 130.947216 89.0608379 130.66423 89.1424075 130.450418 89.2051534 130.198875 89.2804484 129.915888 89.3557434 128.897138 89.6820219 126.979119 90.3722264 125.72769 91.3008651 122.79721 93.2710851 120.891768 96.0507267 120.005078 97.6444715 118.055616 101.170789 117.477066 102.770808 117.382737 102.877476L117.313563 103.009242 117.024288 103.624152 116.955114 103.781017 114.854726 108.537153C114.760397 108.72539 114.678646 108.819509 114.949055 108.449308 115.169155 108.097932 115.452142 107.790477 115.753994 107.545768 115.942651 107.407727 116.948825 106.441441 117.602838 106.171634 120.564762 104.609262 123.275142 105.142602 123.130505 105.173975 123.155659 105.023385 125.237181 105.569274 125.174295 105.707314L125.274912 105.77006C124.608322 105.500253 123.948021 105.23672 123.948021 105.23672 123.948021 105.23672 123.086484 104.954364 122.231237 104.665733 119.634051 103.96298 116.911094 103.900234 116.911094 103.900234 116.911094 103.900234 115.313793 103.931607 112.949285 104.257885 110.710548 104.703381 107.905839 105.638294 105.503599 107.062625 100.554483 109.79207 97.5170957 114.592128 97.5170957 114.592128L97.3598811 114.805464 81.8522292 138.617518C81.8144977 138.686538 81.7704776 138.743009 81.7327461 138.805755L81.688726 138.887325 1.17596549 307.887023C1.15709974 307.930945 1.13194539 307.974867 1.11307964 308.025064 1.10679105 308.075261 1.10050247 308.131732 1.09421388 308.181929L.452778158 314.883186C.289274934 316.65262.125771711 318.415778-.27897692e-13 319.74599.0377315132 321.477776.0628858553 322.638575.0628858553 322.638575.0188657566 322.651124.389892303 322.889558.251543421 322.914656.251543421 322.914656.4779325 327.055883 2.47141411 330.726516 4.6472647 334.265382 7.96134928 336.743844 7.96134928 336.743844L8.20031553 336.925807C8.20031553 336.925807 9.30081799 337.728954 11.4578028 338.852105 12.8287145 339.504662 14.7844646 340.427026 17.1238184 341.543902 20.9409898 343.350983 26.0284555 345.766698 31.103344 348.169865 36.1908097 350.58558 41.2719868 352.995021 45.0891582 354.808377 47.4410892 355.925253 49.4031279 356.847617 50.7740395 357.506449 53.0190646 358.460186 54.3396675 358.805288 54.3396675 358.805288 54.3270904 358.84921 54.6792511 358.579403 54.6540968 358.717444L58.5152883 359.508042C58.5152883 359.508042 59.2950729 359.470394 60.4584612 359.413923 61.6407153 359.413923 63.1939959 359.319804 64.665525 358.742542 66.1999398 358.403715 67.6211602 357.788805 68.6084681 357.136248 69.6335075 356.57781 70.3189633 356.207609 70.3189633 356.207609L70.5705068 356.031921C70.5705068 356.031921 71.4823517 355.329167 72.8595519 354.262488 73.8028397 353.333849 75.073134 352.085206 76.3371397 350.842838 78.7393794 348.47732 81.1479076 346.105526 81.1479076 346.105526L81.2296592 346.030231C81.2611022 345.967485 81.2925451 345.911014 81.3176994 345.848268L161.83046 176.84857 161.937366 176.553664 170.647057 149.541572 170.716231 149.26549C170.716231 149.26549 171.238184 147.408213 171.56519 145.525837 171.766425 143.637187 171.810445 141.723438 171.810445 141.723438 171.810445 141.723438 171.948794 136.446511 169.206971 131.288801 167.911522 128.703672 165.798557 126.256583 163.855384 124.656564 161.754997 123.106741 160.163985 122.322418 160.163985 122.322418L160.107387 122.291045 160.05079 122.259672 160.044502 122.253398C160.572743 122.560852 161.113561 122.868307 161.648091 123.182036L161.641802 123.175762 161.629225 123.169487C161.591494 123.144389 161.560051 123.125565 161.560051 123.125565 161.560051 123.125565 161.371393 123.000073 161.082118 122.805561 161.012944 122.893405 159.47224 121.475349 162.232929 123.815769 163.0756 124.694212 163.69817 125.792264 164.031465 126.771099 164.339606 127.480128 164.521975 128.088763 164.616303 128.684848 164.798672 129.826823 164.62888 130.62997 164.666612 130.542126 164.666612 130.491929 164.735786 131.345273 164.389914 132.186067L164.396203 132.21744C164.521975 131.953907 164.666612 131.677826 164.798672 131.401744 165.823712 129.4127 166.848751 127.417382 166.848751 127.417382L166.924214 127.266792 167.219778 126.651882 167.288952 126.513841C167.288952 126.513841 168.075025 125.001666 169.307588 122.153004 169.640883 121.280837 169.917581 120.709849 170.225722 119.636895 170.533862 118.494921 170.772829 117.52236 170.936332 116.493328 171.194164 113.751334 170.923755 111.91288 170.923755 111.91288 170.760251 111.090909 170.546439 110.256389 170.27603 109.440693 170.131393 109.03912 169.980467 108.637546 169.835829 108.235973 169.747789 108.04146 169.659749 107.846948 169.584286 107.646161 169.527689 107.545768 169.3013 106.943408 169.540266 107.727731 169.65346 108.116755 169.754078 108.493231 169.867272 108.882255 169.741501 109.145788 169.603152 109.440693 169.452226 109.735599 169.326454 110.01168 169.194394 110.287762 169.062333 110.576393 169.144085 110.388156 169.238414 110.193643 169.339031 109.992857 170.206856 108.160678 171.137566 106.209281 172.068277 104.25161 178.306554 93.3338309 175.621328 88.922797 175.948334 88.6843627L175.910603 88.4898506C175.973489 88.5274981 175.269167 86.3753151 175.193704 86.331393 175.193704 86.331393 174.998758 85.7917786 174.376188 84.649804 173.734752 83.5392023 172.464458 81.8952607 170.999218 80.709364 168.89883 82.5101702 167.854925 83.4137105 167.854925 83.4137105L164.704343 86.1180571 161.560051 88.816129 157.327833 92.4616635 154.957036 94.5009039 152.592528 96.5338698 150.221731 98.5731102C150.221731 98.5731102 149.429369 99.2444909 147.850934 100.606076L148.31629 99.6397898C145.486426 105.569274 142.662851 111.511306 142.662851 111.511306L142.543368 111.749741 142.499348 111.837585 142.405019 112.044646C141.807604 113.305838 141.203899 114.560755 140.600195 115.821947 141.191322 116.104303 141.782449 116.380385 142.373576 116.662742 142.66914 116.800782 142.964703 116.945098 143.260267 117.083139 143.411193 117.152159 143.55583 117.22118 143.706756 117.2902 143.524387 117.302749 144.291595 117.396868 145.046225 117.490987 145.756835 117.566282 146.461157 117.654126 147.15919 117.74197 149.228135 118.036876 148.27227 117.773343 148.423196 117.704323 148.366598 117.597655 148.31629 117.497261 148.259692 117.390593 148.171652 117.170983 148.089901 116.957647 148.00186 116.738037 147.857223 116.286266 147.769183 115.815672 147.731451 115.357628 147.731451 115.357628 147.454753 114.56703 147.700008 113.393682 147.712585 113.136424 147.700008 113.054855 147.788048 112.860342 147.857223 112.734851 147.662277 113.111326 147.643411 113.230543 146.869915 114.849386 146.115285 116.474504 146.115285 116.474504L146.04611 116.612545 145.756835 117.227454 145.687661 117.352946C145.687661 117.352946 144.819836 119.04081 143.945723 120.722399 143.631293 121.374956 143.310576 122.021238 143.008723 122.636147 142.656563 123.552237 142.323268 124.393031 142.040281 125.127158 141.361114 127.486402 141.254208 129.306032 141.254208 129.306032 141.254208 129.211913 141.178745 130.47938 141.455443 132.305284 141.606369 133.233923 141.813892 134.250406 142.228939 135.367282 142.8012 136.703769 143.687891 138.184571 144.782105 139.439489 147.951552 142.645802 147.322693 141.597946 147.800626 142.087364 148.089901 142.275601 148.284847 142.394818 148.284847 142.394818 148.284847 142.394818 148.31629 142.419917 148.347733 142.438741 148.901128 142.758744 149.460812 143.085023 149.976476 143.379928L149.963899 143.379928 149.945033 143.373654C149.894725 143.568166 148.385464 142.256778 148.398041 142.043442 148.291135 141.761085 148.354021 142.112462 148.372887 142.074815L148.322578 142.350896 148.328867 142.382269 140.015357 168.170818 61.8356615 332.263789 58.6850801 335.350886 23.638793 318.729508 24.0538396 314.343572 102.233535 150.2506 117.017999 127.549148C117.036865 127.511501 117.049442 127.517775 117.049442 127.517775 117.074597 127.549148 117.162637 127.335812 117.338717 127.247968 117.627992 127.116202 116.854496 127.411107 116.83563 127.285616 116.83563 127.285616 115.791725 127.398558 114.886169 126.877767L116.395429 127.379734 116.420584 127.386009 116.445738 127.392283 116.458315 127.398558 116.464604 127.398558 116.470893 127.398558 116.470893 127.404833C116.049557 127.229144 115.634511 127.05973 115.213175 126.896591 115.338947 126.946788 115.464719 126.996985 115.464719 126.996985 115.408122 127.135025 120.168581 128.527984 120.187447 128.377393 119.986212 128.226803 124.205853 129.255836 128.871983 126.683255 129.915888 126.118543 131.494323 125.007941 132.016276 124.393031 132.676577 123.715376 133.343167 122.949877 133.972026 122.127906 134.940468 120.753772 135.481287 119.661994 135.978085 118.676884L138.141358 113.788981 138.197956 113.663489 138.48723 113.054855 138.556405 112.904265C138.506096 113.036031 139.814122 110.168545 140.235457 109.465791 140.499578 108.926177 140.185149 109.842267 138.738774 110.752082 138.185378 111.097184 137.097453 111.724642 136.53148 111.793663 136.380554 111.83131 136.235917 111.862683 136.122722 111.894056 136.059836 111.900331 136.003239 111.91288 135.946642 111.919155 135.858602 111.894056 136.669829 112.634457 136.921373 112.885441 138.424345 114.328596 139.222995 115.10037 139.222995 115.10037 140.531021 115.859595 141.424 116.185873 142.549657 116.750586 143.147072 115.495669 143.731911 114.247026 144.329326 112.998383L144.436232 112.785047 144.587158 112.465044 150.22802 100.631174C150.22802 100.631174 149.435658 100.6249 147.850934 100.606076M86.3045478 39.4853343C87.499379 38.8139536 88.1030832 38.4814005 88.1030832 38.4814005L89.9079073 37.4774668 91.7127313 36.473533 93.5175554 35.4633247 96.8316399 33.6185964 100.145724 31.7801427 103.459809 29.9354145C103.459809 29.9354145 104.5666 29.320505 106.773894 28.0906862 104.912472 25.0349628 103.874856 24.062402 102.730333 22.6882677 101.610965 21.4145267 100.585925 20.3415725 99.5734632 19.2999913 97.5611158 17.2293779 95.6556744 15.4662193 93.8634276 13.8285523 90.2663566 10.5845914 87.0780438 8.01828574 84.1601401 5.96649613 83.4683957 5.45825467 82.7263426 4.97511155 82.022021 4.52961595 81.3114108 4.07157117 80.1354454 3.29352251 79.1732918 2.88567443 77.2175417 1.8691915 75.5636437 1.11624119 74.1612891.783688133 71.4194658-.0947539 69.9416482.143680366 69.960514.0181886472L67.9167237.313094187C67.9167237.313094187 67.8412606.325643359 67.7657976.331917945 67.6588917-.220245619 67.608583.206426226 67.6022944.0809345067 67.608583.237799156 65.0428401.275446671 61.2885545 1.98213405 59.2950729 2.77273188 56.6412898 3.81431315 53.9875067 4.862169 51.3400122 5.90375027 48.6988063 6.94533154 46.7179019 7.72965478 42.8126903 9.04731783 40.8946717 10.7477306 40.8003429 10.6285135 40.8003429 10.6285135 40.737457 10.6724356 40.6682826 10.7100831 40.9701347 11.1806771 40.6431283 10.9108699 40.7248799 11.0112632 40.7248799 11.0112632 37.3793524 12.6803031 35.2978306 17.7187956 34.2979455 20.0780399 33.1471343 23.6859269 32.8704365 25.3298684 32.4365241 27.3440105 32.0717862 29.4146238 31.7762227 31.4287659 30.6191229 39.3974901 30.5436599 47.3285667 30.5436599 47.3285667 30.5436599 47.3285667 30.5247941 55.5796473 31.2794244 57.5875148L31.3360217 57.8698711 41.2468325 97.6507461C41.2656982 97.7134919 41.2782754 97.7825124 41.2971411 97.8578074L41.3914699 97.8201599 126.746441 64.17583C126.79675 64.1570063 126.853347 64.1319079 126.909944 64.1130842 126.88479 64.0691621 126.865924 64.0252399 126.84077 63.9875924 126.84077 63.9875924 120.149715 52.021957 106.773894 28.0906862 104.5666 29.320505 103.459809 29.9354145 103.459809 29.9354145L100.145724 31.7801427 96.8316399 33.6185964 93.5175554 35.4633247 91.7127313 36.473533 89.9079073 37.4774668 88.1030832 38.4814005C88.1030832 38.4814005 87.499379 38.8139536 86.3045478 39.4853343L93.3980722 52.1725471 57.5845777 66.2903655 54.0881241 52.2227438C54.0692583 52.1788217 54.0881241 52.1976454 54.0881241 52.1976454 54.2076072 54.2745334 53.8680236 47.6548452 53.9812182 47.6485706 53.9812182 47.6485706 54.0629698 41.0916283 54.9811032 34.7354727 55.3584184 31.6797494 56.3142834 28.10951 56.0501628 29.1950133L69.1115549 24.0435783C69.1115549 24.0435783 69.6272189 24.3949551 70.6522584 25.0851595 72.570277 26.4279209 75.1548856 28.4734359 78.123098 31.1652333 79.594627 32.5079947 81.2107935 34.0076208 82.795517 35.6452877 83.5815902 36.4421601 84.4053949 37.308053 85.1034279 38.1112 85.7888837 38.8202282 86.6126884 40.0249487 86.3045478 39.4853343"/>
    <polygon fill="#EAE183" points="10.771 309.701 90.171 143.048 149.12 171.008 69.72 337.661"/>
    <path fill="#353535" d="M9.85358466,319.307397 L10.7717181,309.701006 L69.7209189,337.660561 L62.8349177,344.437114 C60.8603019,346.375961 57.2254994,346.99087 54.7226424,345.804973 L13.9097223,326.447876 C11.4068653,325.255704 9.58946407,322.06194 9.85358466,319.307397"/>
    <path fill="#7AC2EB" d="M138.890329,91.8969508 L135.117177,99.8217528 C133.928635,102.319038 134.991406,105.305741 137.494263,106.491638 L147.650328,111.31052 C150.159474,112.502691 153.152841,111.436011 154.341383,108.938726 L162.334176,92.1604834 C163.529007,89.6631982 162.246135,87.6114085 159.472869,87.5800356 L146.065605,87.4294456 C143.292339,87.3980726 140.078871,89.3996655 138.890329,91.8969508"/>
    <path fill="#EAE183" d="M138.890329,91.8969508 L135.117177,99.8217528 C133.928635,102.319038 134.991406,105.305741 137.494263,106.491638 L147.650328,111.31052 C150.159474,112.502691 153.152841,111.436011 154.341383,108.938726 L162.334176,92.1604834 C163.529007,89.6631982 162.246135,87.6114085 159.472869,87.5800356 L146.065605,87.4294456 C143.292339,87.3980726 140.078871,89.3996655 138.890329,91.8969508"/>
    <path fill="#353535" d="M153.196861 131.337743C149.02124 129.354974 152.102647 125.853755 154.486021 120.85291L154.84447 120.09996C157.227844 115.099115 159.630084 111.271617 154.62437 108.899824L134.97254 99.575789C129.960537 97.2039955 128.507874 101.476989 126.1245 106.477834L125.766051 107.230784C123.382677 112.231629 122.602892 116.824626 118.43356 114.848131 114.257939 112.865362 108.422132 115.02382 105.403611 119.667013L90.1726567 143.046121 149.121857 171.005676 157.680622 144.457902C159.37854 139.193525 157.372482 133.314238 153.196861 131.337743M66.5803993 10.2746268L46.343731 18.2496256C41.1870909 20.2825914 39.5520587 48.1543022 40.8915274 53.5253478L47.6328911 80.587637 108.336607 56.6626408 94.7218195 32.3046981C92.0240163 27.4732669 71.7370394 8.241661 66.5803993 10.2746268"/>
  </g>
</svg>
