<svg xmlns="http://www.w3.org/2000/svg" width="242" height="55" viewBox="0 0 242 55">
  <g fill="none" fill-rule="evenodd">
    <path fill="#E63037" d="M4.48173611 45.1443778C1.92423611 47.7260167.000152777778 48.6659056.000152777778 48.6659056.000152777778 48.6659056 3.04501389 48.7646 7.31423611 48.7875167 6.27351389 47.6230444 5.32568056 46.3769889 4.48173611 45.1443778M16.487625 45.8480111C15.4194028 46.9189833 14.2549306 47.8985944 12.9908472 48.7666778 15.1132361 48.7385667 17.3242361 48.6829556 19.4817639 48.5870111 18.418125 47.7870667 17.4174306 46.8529833 16.487625 45.8480111M14.6754667 43.7012083C12.8619944 41.3585139 11.4106056 38.8911528 10.3937167 36.9658472 8.95485556 39.6562639 7.4448 41.7859861 6.03435556 43.4482083 7.05491111 45.0071528 8.24718889 46.6207917 9.5898 48.0914306 11.5007444 46.8572917 13.1880222 45.3670972 14.6754667 43.7012083M28.5967611 13.9342917C28.2187889 18.9612917 26.3900389 34.407125 17.9047611 44.2539583 19.2052056 45.7328472 20.6553722 47.0953194 22.2329556 48.1540694 34.4597611 39.4182361 36.9695944 20.1110972 37.4658167 13.9342917L28.5967611 13.9342917zM16.1216306 41.9475333C23.1659083 32.7243389 25.0866306 19.5387 25.5987417 13.9342L16.7183806 13.9342C15.9037694 22.6957 13.9463806 29.3806444 11.6461583 34.4302556 12.5282972 36.2483111 14.0621861 39.1309222 16.1216306 41.9475333"/>
    <path fill="#E63037" d="M40.4353889 13.9342917C40.1808611 18.3816528 38.4395 38.2675139 27.4150556 48.0709583 29.4421111 47.8301806 31.1917222 47.5142361 32.45275 47.1020417 47.0448611 42.3289583 49.3447778 13.9342917 49.3447778 13.9342917L40.4353889 13.9342917zM24.4668417 8.64915833C24.4668417 10.4956306 22.9702306 11.9928528 21.1231472 11.9928528 19.2763694 11.9928528 17.7791472 10.4956306 17.7791472 8.64915833 17.7791472 6.80238056 19.2763694 5.30546389 21.1231472 5.30546389 22.9702306 5.30546389 24.4668417 6.80238056 24.4668417 8.64915833"/>
    <path fill="#E63037" d="M40.5180417 14.0827611C40.1153194 18.5655667 37.7322917 38.5907611 26.7160972 48.1210389 28.686625 47.9459556 30.3913194 47.6859278 31.6266806 47.3125389 45.9202639 42.9819 49.1429583 14.3822056 49.1429583 14.3822056L40.5180417 14.0827611zM36.3448556 8.64915833C36.3448556 10.4956306 34.8479389 11.9928528 33.0011611 11.9928528 31.1546889 11.9928528 29.6574667 10.4956306 29.6574667 8.64915833 29.6574667 6.80238056 31.1546889 5.30546389 33.0011611 5.30546389 34.8479389 5.30546389 36.3448556 6.80238056 36.3448556 8.64915833M48.2264444 8.64915833C48.2264444 10.4956306 46.7298333 11.9928528 44.8830556 11.9928528 43.0362778 11.9928528 41.53875 10.4956306 41.53875 8.64915833 41.53875 6.80238056 43.0362778 5.30546389 44.8830556 5.30546389 46.7298333 5.30546389 48.2264444 6.80238056 48.2264444 8.64915833"/>
    <path fill="#4B5C69" d="M106.05,8.05 C104.2,6.875 102.525,6.2 100.4,6.2 C95.275,6.2 91.125,10.15 91.125,15.25 C91.125,20.525 94.95,24.3 100.225,24.3 C102.475,24.3 104.575,23.575 106.375,22.175 L104.075,19.275 C103.075,20.225 101.725,20.8 100.4,20.8 C97.2,20.8 95.425,18.475 95.425,15.25 C95.425,12.175 97.525,9.7 100.425,9.7 C101.8,9.7 103.05,10.3 104.1,11.175 L106.05,8.05 Z M124.05,24 L119.4,24 L118.375,20.925 L112.6,20.925 L111.5,24 L107.025,24 L114.3,6.5 L117.525,6.5 L124.05,24 Z M115.575,12.65 L113.775,17.7 L117.275,17.7 L115.6,12.65 L115.575,12.65 Z M125.725,24 L125.725,6.5 L131.425,6.5 C134.3,6.5 137.975,7.975 137.975,11.825 C137.975,14.45 136.25,15.95 134.35,16.7 C135.9,18.85 138.45,22.4 139.625,24 L134.575,24 L129.95,17.175 L129.775,17.175 L129.775,24 L125.725,24 Z M129.775,9.85 L129.775,13.825 L130.85,13.825 C132.475,13.825 133.675,13.25 133.675,11.9 C133.675,10.675 132.725,9.85 131.325,9.85 L129.775,9.85 Z M152.775,24 L152.775,20.65 L145.325,20.65 L145.325,16.675 L152.775,16.675 L152.775,13.325 L145.325,13.325 L145.325,9.85 L152.775,9.85 L152.775,6.5 L141.275,6.5 L141.275,24 L152.775,24 Z M171.5,9.85 L171.5,6.5 L159.35,6.5 L159.35,9.85 L163.4,9.85 L163.4,24 L167.45,24 L167.45,9.85 L171.5,9.85 Z M185.875,15.25 C185.875,12.15 183.8,9.7 180.95,9.7 C178.1,9.7 176.025,12.15 176.025,15.25 C176.025,18.35 178.1,20.8 180.95,20.8 C183.8,20.8 185.875,18.35 185.875,15.25 Z M190.175,15.25 C190.175,20.25 186.175,24.3 180.95,24.3 C175.725,24.3 171.725,20.25 171.725,15.25 C171.725,10.25 175.725,6.2 180.95,6.2 C186.175,6.2 190.175,10.25 190.175,15.25 Z M106.05,33.05 C104.2,31.875 102.525,31.2 100.4,31.2 C95.275,31.2 91.125,35.15 91.125,40.25 C91.125,45.525 94.95,49.3 100.225,49.3 C102.475,49.3 104.575,48.575 106.375,47.175 L104.075,44.275 C103.075,45.225 101.725,45.8 100.4,45.8 C97.2,45.8 95.425,43.475 95.425,40.25 C95.425,37.175 97.525,34.7 100.425,34.7 C101.8,34.7 103.05,35.3 104.1,36.175 L106.05,33.05 Z M120.525,40.25 C120.525,37.15 118.45,34.7 115.6,34.7 C112.75,34.7 110.675,37.15 110.675,40.25 C110.675,43.35 112.75,45.8 115.6,45.8 C118.45,45.8 120.525,43.35 120.525,40.25 Z M124.825,40.25 C124.825,45.25 120.825,49.3 115.6,49.3 C110.375,49.3 106.375,45.25 106.375,40.25 C106.375,35.25 110.375,31.2 115.6,31.2 C120.825,31.2 124.825,35.25 124.825,40.25 Z M134.625,43.3 L134.625,40 L127.325,40 L127.325,43.3 L134.625,43.3 Z M151.65,40.25 C151.65,37.15 149.575,34.7 146.725,34.7 C143.875,34.7 141.8,37.15 141.8,40.25 C141.8,43.35 143.875,45.8 146.725,45.8 C149.575,45.8 151.65,43.35 151.65,40.25 Z M155.95,40.25 C155.95,45.25 151.95,49.3 146.725,49.3 C141.5,49.3 137.5,45.25 137.5,40.25 C137.5,35.25 141.5,31.2 146.725,31.2 C151.95,31.2 155.95,35.25 155.95,40.25 Z M158.35,31.5 L164.075,31.5 C167.1,31.5 170.775,32.975 170.775,37 C170.775,41.075 167.125,42.55 164.075,42.55 L162.4,42.55 L162.4,49 L158.35,49 L158.35,31.5 Z M162.4,34.85 L162.4,39.2 L163.5,39.2 C165.225,39.2 166.475,38.65 166.475,37.075 C166.475,35.7 165.475,34.85 163.975,34.85 L162.4,34.85 Z M184,49 L184,45.65 L176.55,45.65 L176.55,41.675 L184,41.675 L184,38.325 L176.55,38.325 L176.55,34.85 L184,34.85 L184,31.5 L172.5,31.5 L172.5,49 L184,49 Z M186.5,49 L186.5,31.5 L192.2,31.5 C195.075,31.5 198.75,32.975 198.75,36.825 C198.75,39.45 197.025,40.95 195.125,41.7 C196.675,43.85 199.225,47.4 200.4,49 L195.35,49 L190.725,42.175 L190.55,42.175 L190.55,49 L186.5,49 Z M190.55,34.85 L190.55,38.825 L191.625,38.825 C193.25,38.825 194.45,38.25 194.45,36.9 C194.45,35.675 193.5,34.85 192.1,34.85 L190.55,34.85 Z M218.075,49 L213.425,49 L212.4,45.925 L206.625,45.925 L205.525,49 L201.05,49 L208.325,31.5 L211.55,31.5 L218.075,49 Z M209.6,37.65 L207.8,42.7 L211.3,42.7 L209.625,37.65 L209.6,37.65 Z M229.1,34.85 L225.05,34.85 L225.05,49 L221,49 L221,34.85 L216.95,34.85 L216.95,31.5 L229.1,31.5 L229.1,34.85 Z M241.975,49 L241.975,45.65 L234.525,45.65 L234.525,41.675 L241.975,41.675 L241.975,38.325 L234.525,38.325 L234.525,34.85 L241.975,34.85 L241.975,31.5 L230.475,31.5 L230.475,49 L241.975,49 Z"/>
    <rect width="1" height="55" x="70" fill="#C4D0D8"/>
  </g>
</svg>
