<svg xmlns="http://www.w3.org/2000/svg" width="111" height="142" viewBox="0 0 111 142" xmlns:xlink="http://www.w3.org/1999/xlink">
  <defs>
    <rect id="a" width="155" height="155"/>
    <path id="c" d="M1.01200298,2.8732 C0.949351113,2.09118595 0.897156314,1.32252622 0.857160771,0.5732 L2.9758,0.5732 L2.9758,2.8732 L1.01200298,2.8732 L1.01200298,2.8732 Z"/>
    <path id="e" d="M0.9758,1.57816445 C0.940575138,1.37671511 0.905320222,1.17338272 0.870073928,0.9683 L0.9758,0.9683 L0.9758,1.57816445 L0.9758,1.57816445 Z"/>
  </defs>
  <g fill="none" fill-rule="evenodd" transform="translate(-23 -13)">
    <mask id="b" fill="white">
      <use xlink:href="#a"/>
    </mask>
    <g transform="translate(20 12)" mask="url(#b)">
      <g transform="translate(2 104.051)">
        <path fill="#F2CCB0" d="M21.7539,9.9296 C21.7539,9.9296 25.0459,23.5746 21.8859,38.6016 C18.7189,53.6306 18.5719,58.3186 18.4729,66.8386 C18.2809,83.5826 19.4509,85.7026 19.4509,85.7026 L4.9089,86.7726 C4.9089,86.7726 1.6209,75.5886 3.9399,61.6946 C5.0639,54.9646 6.6479,28.3956 9.2199,21.1486 C11.8069,13.9076 13.1459,12.9296 20.4489,9.3476"/>
        <path fill="#F2CCB0" d="M14.7651,7.0394 C14.7651,7.0394 25.1841,-1.1236 27.4011,12.4954 C29.6181,26.1144 17.2071,40.3434 17.2071,40.3434 L14.1141,25.3564 L14.7651,7.0394 Z"/>
        <path fill="#E3E3E3" d="M0.3155,44.078 L20.6885,49.993 C20.6885,49.993 23.5655,34.208 24.8805,30.593 C26.1945,26.979 25.8665,28.622 26.8515,26.322 C27.8375,24.021 29.8095,4.634 29.8095,4.634 L16.3355,4.634 C13.9285,4.634 11.7355,6.021 10.7035,8.196 L4.8255,28.598 L0.3155,44.078 Z"/>
        <path fill="#F2CCB0" d="M88.9255,9.2316 C88.9255,9.2316 85.3795,22.8126 88.2595,37.8966 C91.1465,52.9816 91.2055,57.6716 91.1465,66.1926 C91.0275,82.9366 89.8175,85.0346 89.8175,85.0346 L104.3375,86.3746 C104.3375,86.3746 109.0395,74.5966 104.3375,61.3176 C102.0855,54.9506 104.6465,26.9026 102.2105,19.6106 C99.7585,12.3216 97.4755,12.3916 90.2405,8.6736"/>
        <polygon fill="#CECECD" points="20.688 49.993 23.851 44.986 2.117 38.543 .305 44.056"/>
        <path fill="#E3E3E3" d="M112.0958,41.6229 L91.7228,47.5379 C91.7228,47.5379 83.8368,33.0799 82.5228,29.4649 C81.2078,25.8509 81.5368,27.4939 80.5508,25.1929 C79.5648,22.8929 79.5438,1.1839 79.5438,1.1839 L83.0548,0.1989 C97.4308,0.6089 98.1658,10.1579 99.9138,13.8399 L105.9098,26.4749 L112.0958,41.6229 Z"/>
      </g>
      <g transform="translate(8 86.051)">
        <path fill="#1C0C3C" d="M2.7596,1.9332 C2.7596,2.5682 2.2446,3.0832 1.6096,3.0832 C0.9746,3.0832 0.4596,2.5682 0.4596,1.9332 C0.4596,1.2982 0.9746,0.7832 1.6096,0.7832 C2.2446,0.7832 2.7596,1.2982 2.7596,1.9332" transform="translate(34)"/>
        <path fill="#1C0C3C" d="M2.6515,1.9332 C2.6515,2.5682 2.1365,3.0832 1.5015,3.0832 C0.8665,3.0832 0.3515,2.5682 0.3515,1.9332 C0.3515,1.2982 0.8665,0.7832 1.5015,0.7832 C2.1365,0.7832 2.6515,1.2982 2.6515,1.9332" transform="translate(48)"/>
        <path fill="#1C0C3C" d="M2.9892,2.1307 C2.9892,2.7657 2.4742,3.2807 1.8392,3.2807 C1.2042,3.2807 0.6892,2.7657 0.6892,2.1307 C0.6892,1.4957 1.2042,0.9807 1.8392,0.9807 C2.4742,0.9807 2.9892,1.4957 2.9892,2.1307" transform="translate(41 8)"/>
        <path fill="#1C0C3C" d="M2.7596,1.3282 C2.7596,1.9632 2.2446,2.4782 1.6096,2.4782 C0.9746,2.4782 0.4596,1.9632 0.4596,1.3282 C0.4596,0.6932 0.9746,0.1782 1.6096,0.1782 C2.2446,0.1782 2.7596,0.6932 2.7596,1.3282" transform="translate(34 17)"/>
        <path fill="#1C0C3C" d="M2.6515,1.3282 C2.6515,1.9632 2.1365,2.4782 1.5015,2.4782 C0.8665,2.4782 0.3515,1.9632 0.3515,1.3282 C0.3515,0.6932 0.8665,0.1782 1.5015,0.1782 C2.1365,0.1782 2.6515,0.6932 2.6515,1.3282" transform="translate(48 17)"/>
        <path fill="#1C0C3C" d="M2.5434,1.3282 C2.5434,1.9632 2.0284,2.4782 1.3934,2.4782 C0.7584,2.4782 0.2434,1.9632 0.2434,1.3282 C0.2434,0.6932 0.7584,0.1782 1.3934,0.1782 C2.0284,0.1782 2.5434,0.6932 2.5434,1.3282" transform="translate(62 17)"/>
        <path fill="#1C0C3C" d="M3.2054,1.5257 C3.2054,2.1607 2.6904,2.6757 2.0554,2.6757 C1.4204,2.6757 0.9054,2.1607 0.9054,1.5257 C0.9054,0.8907 1.4204,0.3757 2.0554,0.3757 C2.6904,0.3757 3.2054,0.8907 3.2054,1.5257" transform="translate(13 25)"/>
        <path fill="#1C0C3C" d="M3.0973,1.5257 C3.0973,2.1607 2.5823,2.6757 1.9473,2.6757 C1.3123,2.6757 0.7973,2.1607 0.7973,1.5257 C0.7973,0.8907 1.3123,0.3757 1.9473,0.3757 C2.5823,0.3757 3.0973,0.8907 3.0973,1.5257" transform="translate(27 25)"/>
        <path fill="#1C0C3C" d="M2.9892,1.5257 C2.9892,2.1607 2.4742,2.6757 1.8392,2.6757 C1.2042,2.6757 0.6892,2.1607 0.6892,1.5257 C0.6892,0.8907 1.2042,0.3757 1.8392,0.3757 C2.4742,0.3757 2.9892,0.8907 2.9892,1.5257" transform="translate(41 25)"/>
        <path fill="#1C0C3C" d="M2.8811,1.5257 C2.8811,2.1607 2.3661,2.6757 1.7311,2.6757 C1.0961,2.6757 0.5811,2.1607 0.5811,1.5257 C0.5811,0.8907 1.0961,0.3757 1.7311,0.3757 C2.3661,0.3757 2.8811,0.8907 2.8811,1.5257" transform="translate(55 25)"/>
        <path fill="#1C0C3C" d="M2.773,1.5257 C2.773,2.1607 2.258,2.6757 1.623,2.6757 C0.988,2.6757 0.473,2.1607 0.473,1.5257 C0.473,0.8907 0.988,0.3757 1.623,0.3757 C2.258,0.3757 2.773,0.8907 2.773,1.5257" transform="translate(69 25)"/>
        <path fill="#1C0C3C" d="M2.9758,1.7232 C2.9758,2.3582 2.4608,2.8732 1.8258,2.8732 C1.1908,2.8732 0.6758,2.3582 0.6758,1.7232 C0.6758,1.0882 1.1908,0.5732 1.8258,0.5732 C2.4608,0.5732 2.9758,1.0882 2.9758,1.7232" transform="translate(6 33)"/>
        <path fill="#1C0C3C" d="M2.8677,1.7232 C2.8677,2.3582 2.3527,2.8732 1.7177,2.8732 C1.0827,2.8732 0.5677,2.3582 0.5677,1.7232 C0.5677,1.0882 1.0827,0.5732 1.7177,0.5732 C2.3527,0.5732 2.8677,1.0882 2.8677,1.7232" transform="translate(20 33)"/>
        <path fill="#1C0C3C" d="M2.7596,1.7232 C2.7596,2.3582 2.2446,2.8732 1.6096,2.8732 C0.9746,2.8732 0.4596,2.3582 0.4596,1.7232 C0.4596,1.0882 0.9746,0.5732 1.6096,0.5732 C2.2446,0.5732 2.7596,1.0882 2.7596,1.7232" transform="translate(34 33)"/>
        <path fill="#1C0C3C" d="M2.6515,1.7232 C2.6515,2.3582 2.1365,2.8732 1.5015,2.8732 C0.8665,2.8732 0.3515,2.3582 0.3515,1.7232 C0.3515,1.0882 0.8665,0.5732 1.5015,0.5732 C2.1365,0.5732 2.6515,1.0882 2.6515,1.7232" transform="translate(48 33)"/>
        <path fill="#1C0C3C" d="M2.5434,1.7232 C2.5434,2.3582 2.0284,2.8732 1.3934,2.8732 C0.7584,2.8732 0.2434,2.3582 0.2434,1.7232 C0.2434,1.0882 0.7584,0.5732 1.3934,0.5732 C2.0284,0.5732 2.5434,1.0882 2.5434,1.7232" transform="translate(62 33)"/>
        <path fill="#1C0C3C" d="M2.3135,1.9208 C2.3135,2.5558 1.7985,3.0708 1.1635,3.0708 C0.5285,3.0708 0.0135,2.5558 0.0135,1.9208 C0.0135,1.2858 0.5285,0.7708 1.1635,0.7708 C1.7985,0.7708 2.3135,1.2858 2.3135,1.9208" transform="translate(0 41)"/>
        <path fill="#1C0C3C" d="M3.2054,1.9208 C3.2054,2.5558 2.6904,3.0708 2.0554,3.0708 C1.4204,3.0708 0.9054,2.5558 0.9054,1.9208 C0.9054,1.2858 1.4204,0.7708 2.0554,0.7708 C2.6904,0.7708 3.2054,1.2858 3.2054,1.9208" transform="translate(13 41)"/>
        <path fill="#1C0C3C" d="M3.0973,1.9208 C3.0973,2.5558 2.5823,3.0708 1.9473,3.0708 C1.3123,3.0708 0.7973,2.5558 0.7973,1.9208 C0.7973,1.2858 1.3123,0.7708 1.9473,0.7708 C2.5823,0.7708 3.0973,1.2858 3.0973,1.9208" transform="translate(27 41)"/>
        <path fill="#1C0C3C" d="M2.9892,1.9208 C2.9892,2.5558 2.4742,3.0708 1.8392,3.0708 C1.2042,3.0708 0.6892,2.5558 0.6892,1.9208 C0.6892,1.2858 1.2042,0.7708 1.8392,0.7708 C2.4742,0.7708 2.9892,1.2858 2.9892,1.9208" transform="translate(41 41)"/>
        <path fill="#1C0C3C" d="M2.8811,1.9208 C2.8811,2.5558 2.3661,3.0708 1.7311,3.0708 C1.0961,3.0708 0.5811,2.5558 0.5811,1.9208 C0.5811,1.2858 1.0961,0.7708 1.7311,0.7708 C2.3661,0.7708 2.8811,1.2858 2.8811,1.9208" transform="translate(55 41)"/>
        <path fill="#1C0C3C" d="M2.773,1.9208 C2.773,2.5558 2.258,3.0708 1.623,3.0708 C0.988,3.0708 0.473,2.5558 0.473,1.9208 C0.473,1.2858 0.988,0.7708 1.623,0.7708 C2.258,0.7708 2.773,1.2858 2.773,1.9208" transform="translate(69 41)"/>
        <path fill="#1C0C3C" d="M2.9758,2.1183 C2.9758,2.7533 2.4608,3.2683 1.8258,3.2683 C1.1908,3.2683 0.6758,2.7533 0.6758,2.1183 C0.6758,1.4833 1.1908,0.9683 1.8258,0.9683 C2.4608,0.9683 2.9758,1.4833 2.9758,2.1183" transform="translate(6 49)"/>
        <path fill="#1C0C3C" d="M2.8677,2.1183 C2.8677,2.7533 2.3527,3.2683 1.7177,3.2683 C1.0827,3.2683 0.5677,2.7533 0.5677,2.1183 C0.5677,1.4833 1.0827,0.9683 1.7177,0.9683 C2.3527,0.9683 2.8677,1.4833 2.8677,2.1183" transform="translate(20 49)"/>
        <path fill="#1C0C3C" d="M2.7596,2.1183 C2.7596,2.7533 2.2446,3.2683 1.6096,3.2683 C0.9746,3.2683 0.4596,2.7533 0.4596,2.1183 C0.4596,1.4833 0.9746,0.9683 1.6096,0.9683 C2.2446,0.9683 2.7596,1.4833 2.7596,2.1183" transform="translate(34 49)"/>
        <path fill="#1C0C3C" d="M2.6515,2.1183 C2.6515,2.7533 2.1365,3.2683 1.5015,3.2683 C0.8665,3.2683 0.3515,2.7533 0.3515,2.1183 C0.3515,1.4833 0.8665,0.9683 1.5015,0.9683 C2.1365,0.9683 2.6515,1.4833 2.6515,2.1183" transform="translate(48 49)"/>
        <path fill="#1C0C3C" d="M2.5434,2.1183 C2.5434,2.7533 2.0284,3.2683 1.3934,3.2683 C0.7584,3.2683 0.2434,2.7533 0.2434,2.1183 C0.2434,1.4833 0.7584,0.9683 1.3934,0.9683 C2.0284,0.9683 2.5434,1.4833 2.5434,2.1183" transform="translate(62 49)"/>
        <path fill="#1C0C3C" d="M78.4353 51.1183C78.4353 51.7533 77.9203 52.2683 77.2853 52.2683 76.6503 52.2683 76.1353 51.7533 76.1353 51.1183 76.1353 50.4833 76.6503 49.9683 77.2853 49.9683 77.9203 49.9683 78.4353 50.4833 78.4353 51.1183M92.3272 51.1183C92.3272 51.7533 91.8122 52.2683 91.1772 52.2683 90.5422 52.2683 90.0272 51.7533 90.0272 51.1183 90.0272 50.4833 90.5422 49.9683 91.1772 49.9683 91.8122 49.9683 92.3272 50.4833 92.3272 51.1183"/>
      </g>
      <g transform="translate(0 12.051)">
        <path fill="#CECECD" d="M113.9448,134.5075 C113.7568,134.0485 112.2608,133.6665 111.8938,131.8475 C111.4768,129.7685 111.7058,127.8205 111.7058,127.8205 L113.6868,127.4995 L113.9448,134.5075 Z"/>
        <path fill="#BABAB9" d="M113.9448,134.5075 C113.7568,134.0485 112.2608,133.6665 111.8938,131.8475 C111.4768,129.7685 111.7058,127.8205 111.7058,127.8205 L113.6868,127.4995 L113.9448,134.5075 Z"/>
        <path fill="#9C9C9C" d="M56.075,82.3496 C56.075,82.3496 64.163,82.7076 65.786,83.8276 C67.409,84.9466 67.983,92.1676 67.983,92.1676 L62.439,94.2596 L56.075,82.3496 Z"/>
        <path fill="#F2CCB0" d="M84.2037,41.6187 C84.2037,64.0127 71.6037,82.1677 56.0607,82.1677 C40.5177,82.1677 28.9547,66.7517 27.9177,41.6187 C26.8797,16.4847 44.0077,4.3257 56.0607,1.0697 C68.1137,-2.1863 84.2037,19.2247 84.2037,41.6187"/>
        <path fill="#9C9C9C" d="M54.7939,81.966 C54.7939,81.966 46.7059,82.324 45.0829,83.444 C43.4599,84.563 42.8859,91.784 42.8859,91.784 L48.4299,93.876 L54.7939,81.966 Z"/>
        <path fill="#E3E3E3" d="M26.7394,214.3265 C20.3514,186.3205 39.0184,172.7795 30.2274,153.8235 C27.0834,147.0435 22.1974,145.6255 18.8514,133.7475 C17.7214,129.7345 11.5354,98.2105 16.9694,96.4075 C22.4124,94.6205 37.3844,90.1685 48.3724,92.3665 C57.2444,94.1405 64.3064,90.9925 64.3064,90.9925 C64.3064,90.9925 74.6764,88.7185 87.2914,92.2505 C97.7334,95.1745 100.2604,107.2435 96.4774,126.8885 C92.2194,148.9965 86.2934,146.0285 83.2614,157.8385 C79.9154,170.8665 95.0754,188.2435 89.0794,212.3105"/>
      </g>
      <g transform="translate(8 87.051)">
        <path fill="#1C0C3C" d="M16.2054 25.5257C16.2054 26.1607 15.6904 26.6757 15.0554 26.6757 14.4204 26.6757 13.9054 26.1607 13.9054 25.5257 13.9054 24.8907 14.4204 24.3757 15.0554 24.3757 15.6904 24.3757 16.2054 24.8907 16.2054 25.5257M30.0973 25.5257C30.0973 26.1607 29.5823 26.6757 28.9473 26.6757 28.3123 26.6757 27.7973 26.1607 27.7973 25.5257 27.7973 24.8907 28.3123 24.3757 28.9473 24.3757 29.5823 24.3757 30.0973 24.8907 30.0973 25.5257M71.773 25.5257C71.773 26.1607 71.258 26.6757 70.623 26.6757 69.988 26.6757 69.473 26.1607 69.473 25.5257 69.473 24.8907 69.988 24.3757 70.623 24.3757 71.258 24.3757 71.773 24.8907 71.773 25.5257"/>
        <g transform="translate(6 32)">
          <mask id="d" fill="white">
            <use xlink:href="#c"/>
          </mask>
          <path fill="#1C0C3C" d="M2.9758,1.7232 C2.9758,2.3582 2.4608,2.8732 1.8258,2.8732 C1.1908,2.8732 0.6758,2.3582 0.6758,1.7232 C0.6758,1.0882 1.1908,0.5732 1.8258,0.5732 C2.4608,0.5732 2.9758,1.0882 2.9758,1.7232" mask="url(#d)"/>
        </g>
        <path fill="#1C0C3C" d="M22.8677 33.7232C22.8677 34.3582 22.3527 34.8732 21.7177 34.8732 21.0827 34.8732 20.5677 34.3582 20.5677 33.7232 20.5677 33.0882 21.0827 32.5732 21.7177 32.5732 22.3527 32.5732 22.8677 33.0882 22.8677 33.7232M36.7596 33.7232C36.7596 34.3582 36.2446 34.8732 35.6096 34.8732 34.9746 34.8732 34.4596 34.3582 34.4596 33.7232 34.4596 33.0882 34.9746 32.5732 35.6096 32.5732 36.2446 32.5732 36.7596 33.0882 36.7596 33.7232M50.6515 33.7232C50.6515 34.3582 50.1365 34.8732 49.5015 34.8732 48.8665 34.8732 48.3515 34.3582 48.3515 33.7232 48.3515 33.0882 48.8665 32.5732 49.5015 32.5732 50.1365 32.5732 50.6515 33.0882 50.6515 33.7232M64.5434 33.7232C64.5434 34.3582 64.0284 34.8732 63.3934 34.8732 62.7584 34.8732 62.2434 34.3582 62.2434 33.7232 62.2434 33.0882 62.7584 32.5732 63.3934 32.5732 64.0284 32.5732 64.5434 33.0882 64.5434 33.7232"/>
        <path fill="#1C0C3C" d="M2.3135,1.9208 C2.3135,2.5558 1.7985,3.0708 1.1635,3.0708 C0.5285,3.0708 0.0135,2.5558 0.0135,1.9208 C0.0135,1.2858 0.5285,0.7708 1.1635,0.7708 C1.7985,0.7708 2.3135,1.2858 2.3135,1.9208" transform="translate(0 40)"/>
        <path fill="#1C0C3C" d="M16.2054 41.9208C16.2054 42.5558 15.6904 43.0708 15.0554 43.0708 14.4204 43.0708 13.9054 42.5558 13.9054 41.9208 13.9054 41.2858 14.4204 40.7708 15.0554 40.7708 15.6904 40.7708 16.2054 41.2858 16.2054 41.9208M30.0973 41.9208C30.0973 42.5558 29.5823 43.0708 28.9473 43.0708 28.3123 43.0708 27.7973 42.5558 27.7973 41.9208 27.7973 41.2858 28.3123 40.7708 28.9473 40.7708 29.5823 40.7708 30.0973 41.2858 30.0973 41.9208M43.9892 41.9208C43.9892 42.5558 43.4742 43.0708 42.8392 43.0708 42.2042 43.0708 41.6892 42.5558 41.6892 41.9208 41.6892 41.2858 42.2042 40.7708 42.8392 40.7708 43.4742 40.7708 43.9892 41.2858 43.9892 41.9208M57.8811 41.9208C57.8811 42.5558 57.3661 43.0708 56.7311 43.0708 56.0961 43.0708 55.5811 42.5558 55.5811 41.9208 55.5811 41.2858 56.0961 40.7708 56.7311 40.7708 57.3661 40.7708 57.8811 41.2858 57.8811 41.9208M71.773 41.9208C71.773 42.5558 71.258 43.0708 70.623 43.0708 69.988 43.0708 69.473 42.5558 69.473 41.9208 69.473 41.2858 69.988 40.7708 70.623 40.7708 71.258 40.7708 71.773 41.2858 71.773 41.9208"/>
        <g transform="translate(8 48)">
          <mask id="f" fill="white">
            <use xlink:href="#e"/>
          </mask>
          <path fill="#1C0C3C" d="M0.9758,2.1183 C0.9758,2.7533 0.4608,3.2683 -0.1742,3.2683 C-0.8092,3.2683 -1.3242,2.7533 -1.3242,2.1183 C-1.3242,1.4833 -0.8092,0.9683 -0.1742,0.9683 C0.4608,0.9683 0.9758,1.4833 0.9758,2.1183" mask="url(#f)"/>
        </g>
        <path fill="#1C0C3C" d="M22.8677 50.1183C22.8677 50.7533 22.3527 51.2683 21.7177 51.2683 21.0827 51.2683 20.5677 50.7533 20.5677 50.1183 20.5677 49.4833 21.0827 48.9683 21.7177 48.9683 22.3527 48.9683 22.8677 49.4833 22.8677 50.1183M36.7596 50.1183C36.7596 50.7533 36.2446 51.2683 35.6096 51.2683 34.9746 51.2683 34.4596 50.7533 34.4596 50.1183 34.4596 49.4833 34.9746 48.9683 35.6096 48.9683 36.2446 48.9683 36.7596 49.4833 36.7596 50.1183M50.6515 50.1183C50.6515 50.7533 50.1365 51.2683 49.5015 51.2683 48.8665 51.2683 48.3515 50.7533 48.3515 50.1183 48.3515 49.4833 48.8665 48.9683 49.5015 48.9683 50.1365 48.9683 50.6515 49.4833 50.6515 50.1183M64.5434 50.1183C64.5434 50.7533 64.0284 51.2683 63.3934 51.2683 62.7584 51.2683 62.2434 50.7533 62.2434 50.1183 62.2434 49.4833 62.7584 48.9683 63.3934 48.9683 64.0284 48.9683 64.5434 49.4833 64.5434 50.1183M78.4353 50.1183C78.4353 50.7533 77.9203 51.2683 77.2853 51.2683 76.6503 51.2683 76.1353 50.7533 76.1353 50.1183 76.1353 49.4833 76.6503 48.9683 77.2853 48.9683 77.9203 48.9683 78.4353 49.4833 78.4353 50.1183"/>
        <path fill="#1C0C3C" d="M2.3272,2.1183 C2.3272,2.7533 1.8122,3.2683 1.1772,3.2683 C0.5422,3.2683 0.0272,2.7533 0.0272,2.1183 C0.0272,1.4833 0.5422,0.9683 1.1772,0.9683 C1.8122,0.9683 2.3272,1.4833 2.3272,2.1183" transform="translate(90 48)"/>
      </g>
      <g transform="translate(21 .051)">
        <path fill="#F2CCB0" d="M34.5063,120.4709 C31.0543,117.3069 25.8763,103.0179 25.8763,103.0179 C25.8763,103.0179 19.7833,103.0209 26.5073,102.0609 C26.6333,102.0409 29.0453,101.7009 29.0453,101.7009 C29.1463,100.7079 29.4823,96.1629 29.7123,93.0099 L39.5393,93.3069 C39.2963,95.8059 39.4213,101.6049 39.4213,101.6049 C39.4213,101.6049 47.3893,102.4279 50.4853,103.8089 C53.5503,105.1749 44.7253,103.5059 42.0823,105.2239 C40.3473,106.3509 41.0893,111.0099 38.6293,112.8949 C35.7533,115.1009 37.4973,120.1779 34.2093,120.4469 L35.1773,120.2789"/>
        <path fill="#FEFEFE" d="M27.0935 54.5396C27.3315 53.1366 25.7255 51.8776 23.4975 51.7266 21.2755 51.5726 19.2835 52.5846 19.0385 53.9876 18.7965 55.3866 20.4025 56.6396 22.6215 56.7906 24.8505 56.9446 26.8505 55.9376 27.0935 54.5396M51.818 54.5396C52.056 53.1366 50.45 51.8776 48.222 51.7266 46 51.5726 44.008 52.5846 43.763 53.9876 43.521 55.3866 45.127 56.6396 47.346 56.7906 49.575 56.9446 51.575 55.9376 51.818 54.5396"/>
        <path fill="#C78218" d="M24.657 54.3253C24.757 53.3853 24.081 52.5413 23.142 52.4403 22.205 52.3373 21.366 53.0153 21.263 53.9553 21.16 54.8923 21.837 55.7323 22.772 55.8343 23.712 55.9373 24.555 55.2623 24.657 54.3253M49.4034 54.3253C49.5034 53.3853 48.8274 52.5413 47.8884 52.4403 46.9514 52.3373 46.1124 53.0153 46.0094 53.9553 45.9064 54.8923 46.5834 55.7323 47.5184 55.8343 48.4584 55.9373 49.3014 55.2623 49.4034 54.3253M41.7653 45.6667C42.5763 44.8997 43.5263 44.3777 44.5123 43.9517 45.5063 43.5407 46.5613 43.2657 47.6543 43.1467 48.7403 43.0207 49.8963 43.0907 50.9973 43.4597 52.0793 43.8187 53.1563 44.5857 53.5153 45.6667 52.5183 45.1527 51.6153 45.0177 50.6853 44.9777 49.7613 44.9407 48.8203 44.9977 47.8553 45.1077L44.9073 45.4447C43.8963 45.5527 42.8743 45.6647 41.7653 45.6667M29.4695 45.6667C28.3605 45.6647 27.3385 45.5527 26.3275 45.4447L23.3795 45.1077C22.4145 44.9977 21.4735 44.9407 20.5495 44.9777 19.6195 45.0177 18.7165 45.1527 17.7195 45.6667 18.0785 44.5857 19.1555 43.8187 20.2375 43.4597 21.3385 43.0907 22.4945 43.0207 23.5805 43.1467 24.6735 43.2657 25.7285 43.5407 26.7225 43.9517 27.7085 44.3777 28.6585 44.8997 29.4695 45.6667"/>
        <path fill="#C78218" d="M55.9871,17.5381 C55.9871,17.5381 52.6811,25.4741 49.3101,28.4131 C46.4711,30.8871 39.8361,34.9581 32.9971,33.3031 C28.6381,32.2481 28.8041,31.0911 28.8041,31.0911 C28.8041,31.0911 34.1301,31.9201 39.0991,30.2611 C44.0681,28.6021 44.0301,27.8601 44.0301,27.8601 C44.0301,27.8601 34.5141,25.8981 28.1471,28.2941 C21.7811,30.6901 23.2211,32.4681 19.1831,32.1001 L15.1461,31.7311 C15.1461,31.7311 11.5741,34.4961 11.1081,37.4451 C10.6421,40.3941 10.5131,43.6781 9.4261,45.1531 C8.3391,46.6271 7.2541,48.0071 7.5651,53.1681 C7.8751,58.3291 8.1631,59.7721 8.0081,60.8781 C7.8531,61.9841 8.2971,65.0021 8.2971,65.0021 L7.8311,66.6611 C7.8311,66.6611 7.5251,65.2741 7.3691,60.8501 C7.2141,56.4261 6.7601,61.2231 5.0521,59.7481 C3.3441,58.2741 2.1011,53.8501 1.9461,52.3751 C1.7911,50.9011 0.8591,48.1361 0.8591,47.2141 C0.8591,46.2931 -0.1599,41.4441 2.2571,35.6021 C5.5421,27.6591 4.7411,24.7271 4.7411,24.7271 C4.7411,24.7271 5.9841,17.1691 7.2261,15.1421 C8.4681,13.1141 10.9531,7.5841 17.6301,4.6351 C24.3081,1.6861 29.1221,0.9491 29.1221,0.9491 C29.1221,0.9491 43.0981,0.9491 45.7381,2.4231 C48.3781,3.8981 50.0861,6.2941 50.0861,6.2941 C50.0861,6.2941 52.4151,9.6121 55.5211,8.8751 C58.6271,8.1371 58.9381,12.7461 58.4721,14.0361 C58.0061,15.3261 55.9871,17.5381 55.9871,17.5381"/>
        <path fill="#C78218" d="M58.0059,12.5613 C58.0059,12.5613 60.8009,13.1143 62.8199,15.8793 C64.8389,18.6443 69.3309,23.5563 69.9519,29.4543 C70.5729,35.3533 70.5729,41.6203 70.1069,43.6473 C69.6409,45.6753 69.1869,56.4303 68.4099,58.8273 C67.6339,61.2233 66.7019,63.2503 66.7019,63.2503 C66.7019,63.2503 65.3049,60.4863 64.9939,59.7483 C64.6829,59.0113 64.2179,60.6703 64.2179,60.6703 C64.2179,60.6703 64.9529,58.5693 63.7099,60.0443 C62.4679,61.5183 64.0109,62.5183 63.6999,63.2563 C63.3889,63.9933 61.5429,67.7773 61.5429,67.7773 C61.5429,67.7773 61.6469,58.2513 62.8899,54.9343 C64.1319,51.6163 55.4669,48.9603 55.3919,45.3643 C55.3179,41.8213 52.8809,39.1043 52.2599,36.7083 C51.6389,34.3113 51.0179,30.8093 51.0179,30.8093 C51.0179,30.8093 50.7069,35.4173 49.3099,37.9983 L47.9119,40.5783 C47.9119,40.5783 48.8439,34.4963 49.1539,32.2843 C49.4649,30.0723 46.2899,32.9383 46.2899,32.9383 L44.1279,35.7283 C44.1279,35.7283 46.3589,26.9383 49.6199,23.4363 C52.8809,19.9343 58.0059,12.5613 58.0059,12.5613"/>
        <path fill="#F2CCB0" d="M7.8599 54.3265C7.8599 54.3265 1.8659 51.9115 2.5479 59.8145 3.2279 67.7185 6.7369 68.2625 8.5899 65.7875 10.4459 63.3145 7.8599 54.3265 7.8599 54.3265M64.0028 54.3265C64.0028 54.3265 69.8348 51.9115 69.1708 59.8145 68.5098 67.7185 65.0958 68.2625 63.2928 65.7875 61.4868 63.3145 64.0028 54.3265 64.0028 54.3265"/>
        <path fill="#C78218" d="M4.12 53.507C4.12 53.507 6.5 56.323 7.095 59.572 7.69 62.82 9.474 66.503 9.673 67.369 9.871 68.235 9.651 60.907 9.255 57.658 8.858 54.409 10.069 52.857 9.871 49.608 9.673 46.359 9.673 44.843 9.673 44.843L9.673 43.977 4.12 53.507zM61.0755 68.3164C60.6845 69.0694 61.2535 68.4364 63.5055 65.7554 64.3405 64.7604 65.1635 59.6144 65.5505 58.4524 65.9375 57.2904 66.5185 55.8384 67.0995 55.0644 67.6795 54.2894 68.1645 53.8054 67.8735 53.0314 67.5835 52.2564 67.1955 51.8694 67.0995 51.5794 67.0025 51.2884 67.2925 51.2884 66.7115 50.9014 66.1315 50.5144 64.0985 51.5794 64.0985 51.5794L63.7105 52.5474C63.7105 52.5474 61.9685 56.1294 61.5815 59.2264 61.1935 62.3244 61.0755 68.3164 61.0755 68.3164M58.9687 10.9128C58.9687 10.9128 60.1337 9.2178 59.1987 7.5038L58.2647 5.7898C58.2647 5.7898 60.4457 7.3478 60.6017 9.3728 60.7577 11.3988 60.4457 11.8658 61.3807 9.8408L62.3157 7.8148C62.3157 7.8148 62.0137 11.1678 60.3387 12.8098 58.6647 14.4518 60.2897 11.8658 62.7827 11.5548 65.2757 11.2428 66.0307 11.8618 66.0307 11.8618 66.0307 11.8618 60.6617 12.4488 60.9717 14.9528 61.2807 17.4578 63.8737 16.5408 63.8737 16.5408 63.8737 16.5408 62.0037 16.3848 60.6017 16.5408 59.1987 16.6958 53.9017 14.5148 53.7457 14.0478 53.5897 13.5798 52.9667 12.4898 53.4347 12.0218 53.9017 11.5548 58.9687 10.9128 58.9687 10.9128"/>
        <path fill="#1C0C3C" d="M7.2047 65.5519C7.2047 66.2249 6.6597 66.7699 5.9867 66.7699 5.3137 66.7699 4.7687 66.2249 4.7687 65.5519 4.7687 64.8789 5.3137 64.3339 5.9867 64.3339 6.6597 64.3339 7.2047 64.8789 7.2047 65.5519M67.181 65.719C67.181 66.392 66.636 66.937 65.963 66.937 65.29 66.937 64.745 66.392 64.745 65.719 64.745 65.046 65.29 64.501 65.963 64.501 66.636 64.501 67.181 65.046 67.181 65.719"/>
      </g>
      <g transform="translate(8 87.051)">
        <path fill="#1C0C3C" d="M2.7596,1.3282 C2.7596,1.9632 2.2446,2.4782 1.6096,2.4782 C0.9746,2.4782 0.4596,1.9632 0.4596,1.3282 C0.4596,0.6932 0.9746,0.1782 1.6096,0.1782 C2.2446,0.1782 2.7596,0.6932 2.7596,1.3282" transform="translate(34 16)"/>
        <path fill="#1C0C3C" d="M2.5434,1.3282 C2.5434,1.9632 2.0284,2.4782 1.3934,2.4782 C0.7584,2.4782 0.2434,1.9632 0.2434,1.3282 C0.2434,0.6932 0.7584,0.1782 1.3934,0.1782 C2.0284,0.1782 2.5434,0.6932 2.5434,1.3282" transform="translate(62 16)"/>
        <path fill="#1C0C3C" d="M16.2054,25.5257 C16.2054,26.1607 15.6904,26.6757 15.0554,26.6757 C14.4204,26.6757 13.9054,26.1607 13.9054,25.5257 C13.9054,24.8907 14.4204,24.3757 15.0554,24.3757 C15.6904,24.3757 16.2054,24.8907 16.2054,25.5257"/>
        <path fill="#1C0C3C" d="M3.0973,1.5257 C3.0973,2.1607 2.5823,2.6757 1.9473,2.6757 C1.3123,2.6757 0.7973,2.1607 0.7973,1.5257 C0.7973,0.8907 1.3123,0.3757 1.9473,0.3757 C2.5823,0.3757 3.0973,0.8907 3.0973,1.5257" transform="translate(27 24)"/>
        <path fill="#1C0C3C" d="M2.9892,1.5257 C2.9892,2.1607 2.4742,2.6757 1.8392,2.6757 C1.2042,2.6757 0.6892,2.1607 0.6892,1.5257 C0.6892,0.8907 1.2042,0.3757 1.8392,0.3757 C2.4742,0.3757 2.9892,0.8907 2.9892,1.5257" transform="translate(41 24)"/>
        <path fill="#1C0C3C" d="M2.8811,1.5257 C2.8811,2.1607 2.3661,2.6757 1.7311,2.6757 C1.0961,2.6757 0.5811,2.1607 0.5811,1.5257 C0.5811,0.8907 1.0961,0.3757 1.7311,0.3757 C2.3661,0.3757 2.8811,0.8907 2.8811,1.5257" transform="translate(55 24)"/>
        <g fill="#1C0C3C" transform="translate(69 24)">
          <path d="M2.3 1.15C2.3 1.785 1.785 2.3 1.15 2.3.515 2.3 0 1.785 0 1.15 0 .515.515 0 1.15 0 1.785 0 2.3.515 2.3 1.15M18.3 1.15C18.3 1.785 17.785 2.3 17.15 2.3 16.515 2.3 16 1.785 16 1.15 16 .515 16.515 0 17.15 0 17.785 0 18.3.515 18.3 1.15"/>
        </g>
        <path fill="#1C0C3C" d="M8.9758 33.7232C8.9758 34.3582 8.4608 34.8732 7.8258 34.8732 7.1908 34.8732 6.6758 34.3582 6.6758 33.7232 6.6758 33.0882 7.1908 32.5732 7.8258 32.5732 8.4608 32.5732 8.9758 33.0882 8.9758 33.7232M22.8677 33.7232C22.8677 34.3582 22.3527 34.8732 21.7177 34.8732 21.0827 34.8732 20.5677 34.3582 20.5677 33.7232 20.5677 33.0882 21.0827 32.5732 21.7177 32.5732 22.3527 32.5732 22.8677 33.0882 22.8677 33.7232"/>
        <path fill="#1C0C3C" d="M2.7596,1.7232 C2.7596,2.3582 2.2446,2.8732 1.6096,2.8732 C0.9746,2.8732 0.4596,2.3582 0.4596,1.7232 C0.4596,1.0882 0.9746,0.5732 1.6096,0.5732 C2.2446,0.5732 2.7596,1.0882 2.7596,1.7232" transform="translate(34 32)"/>
        <path fill="#1C0C3C" d="M2.6515,1.7232 C2.6515,2.3582 2.1365,2.8732 1.5015,2.8732 C0.8665,2.8732 0.3515,2.3582 0.3515,1.7232 C0.3515,1.0882 0.8665,0.5732 1.5015,0.5732 C2.1365,0.5732 2.6515,1.0882 2.6515,1.7232" transform="translate(48 32)"/>
        <g fill="#1C0C3C" transform="translate(62 33)">
          <path d="M2.3 1.15C2.3 1.785 1.785 2.3 1.15 2.3.515 2.3 0 1.785 0 1.15 0 .515.515 0 1.15 0 1.785 0 2.3.515 2.3 1.15M18.3 1.15C18.3 1.785 17.785 2.3 17.15 2.3 16.515 2.3 16 1.785 16 1.15 16 .515 16.515 0 17.15 0 17.785 0 18.3.515 18.3 1.15M33.3 1.15C33.3 1.785 32.785 2.3 32.15 2.3 31.515 2.3 31 1.785 31 1.15 31 .515 31.515 0 32.15 0 32.785 0 33.3.515 33.3 1.15"/>
        </g>
        <path fill="#1C0C3C" d="M2.3135 41.9208C2.3135 42.5558 1.7985 43.0708 1.1635 43.0708.5285 43.0708.0135 42.5558.0135 41.9208.0135 41.2858.5285 40.7708 1.1635 40.7708 1.7985 40.7708 2.3135 41.2858 2.3135 41.9208M16.2054 41.9208C16.2054 42.5558 15.6904 43.0708 15.0554 43.0708 14.4204 43.0708 13.9054 42.5558 13.9054 41.9208 13.9054 41.2858 14.4204 40.7708 15.0554 40.7708 15.6904 40.7708 16.2054 41.2858 16.2054 41.9208"/>
        <path fill="#1C0C3C" d="M3.0973,1.9208 C3.0973,2.5558 2.5823,3.0708 1.9473,3.0708 C1.3123,3.0708 0.7973,2.5558 0.7973,1.9208 C0.7973,1.2858 1.3123,0.7708 1.9473,0.7708 C2.5823,0.7708 3.0973,1.2858 3.0973,1.9208" transform="translate(27 40)"/>
        <path fill="#1C0C3C" d="M2.9892,1.9208 C2.9892,2.5558 2.4742,3.0708 1.8392,3.0708 C1.2042,3.0708 0.6892,2.5558 0.6892,1.9208 C0.6892,1.2858 1.2042,0.7708 1.8392,0.7708 C2.4742,0.7708 2.9892,1.2858 2.9892,1.9208" transform="translate(41 40)"/>
        <path fill="#1C0C3C" d="M2.8811,1.9208 C2.8811,2.5558 2.3661,3.0708 1.7311,3.0708 C1.0961,3.0708 0.5811,2.5558 0.5811,1.9208 C0.5811,1.2858 1.0961,0.7708 1.7311,0.7708 C2.3661,0.7708 2.8811,1.2858 2.8811,1.9208" transform="translate(55 40)"/>
        <g fill="#1C0C3C" transform="translate(69 41)">
          <path d="M2.3 1.15C2.3 1.785 1.785 2.3 1.15 2.3.515 2.3 0 1.785 0 1.15 0 .515.515 0 1.15 0 1.785 0 2.3.515 2.3 1.15M17.15 2.3C16.515 2.3 16 1.785 16 1.15 16 .515 16.515 0 17.15 0 17.785 0 18.3.515 18.3 1.15 18.3 1.785 17.785 2.3 17.15 2.3zM29.15 4.3C28.515 4.3 28 3.785 28 3.15 28 2.515 28.515 2 29.15 2 29.785 2 30.3 2.515 30.3 3.15 30.3 3.785 29.785 4.3 29.15 4.3z"/>
        </g>
        <path fill="#1C0C3C" d="M8.9758,50.1183 C8.9758,50.7533 8.4608,51.2683 7.8258,51.2683 C7.1908,51.2683 6.6758,50.7533 6.6758,50.1183 C6.6758,49.4833 7.1908,48.9683 7.8258,48.9683 C8.4608,48.9683 8.9758,49.4833 8.9758,50.1183"/>
        <path fill="#1C0C3C" d="M2.7596,2.1183 C2.7596,2.7533 2.2446,3.2683 1.6096,3.2683 C0.9746,3.2683 0.4596,2.7533 0.4596,2.1183 C0.4596,1.4833 0.9746,0.9683 1.6096,0.9683 C2.2446,0.9683 2.7596,1.4833 2.7596,2.1183" transform="translate(34 48)"/>
        <path fill="#1C0C3C" d="M2.6515,2.1183 C2.6515,2.7533 2.1365,3.2683 1.5015,3.2683 C0.8665,3.2683 0.3515,2.7533 0.3515,2.1183 C0.3515,1.4833 0.8665,0.9683 1.5015,0.9683 C2.1365,0.9683 2.6515,1.4833 2.6515,2.1183" transform="translate(48 48)"/>
        <path fill="#1C0C3C" d="M2.5434,2.1183 C2.5434,2.7533 2.0284,3.2683 1.3934,3.2683 C0.7584,3.2683 0.2434,2.7533 0.2434,2.1183 C0.2434,1.4833 0.7584,0.9683 1.3934,0.9683 C2.0284,0.9683 2.5434,1.4833 2.5434,2.1183" transform="translate(62 48)"/>
        <path fill="#1C0C3C" d="M2.4353,2.1183 C2.4353,2.7533 1.9203,3.2683 1.2853,3.2683 C0.6503,3.2683 0.1353,2.7533 0.1353,2.1183 C0.1353,1.4833 0.6503,0.9683 1.2853,0.9683 C1.9203,0.9683 2.4353,1.4833 2.4353,2.1183" transform="translate(76 48)"/>
        <path fill="#1C0C3C" d="M2.3272,2.1183 C2.3272,2.7533 1.8122,3.2683 1.1772,3.2683 C0.5422,3.2683 0.0272,2.7533 0.0272,2.1183 C0.0272,1.4833 0.5422,0.9683 1.1772,0.9683 C1.8122,0.9683 2.3272,1.4833 2.3272,2.1183" transform="translate(90 48)"/>
      </g>
      <g transform="translate(24 52.051)">
        <path fill="#CECECD" d="M31.2097,68.4474 L25.1367,48.7834 L22.4657,53.8754 C22.4657,53.8754 30.0907,68.4494 31.2097,68.4474"/>
        <path fill="#BABAB9" d="M25.137,48.7839 C25.137,48.7839 22.441,59.5459 20.653,64.0079 C20.463,64.4799 12.097,51.8549 12.097,51.8549 C12.097,51.8549 17.115,44.9839 21.504,43.2249 C21.308,47.4599 25.137,48.7839 25.137,48.7839"/>
        <path fill="#CECECD" d="M31.6592,68.831 L37.7322,49.167 L40.4032,54.259 C40.4032,54.259 32.7782,68.833 31.6592,68.831"/>
        <path fill="#CECECD" d="M34.0248,156.9017 C33.4468,154.7697 31.3018,147.5417 30.9888,144.8617 C29.8038,134.7257 29.9788,125.2217 33.6888,116.6257 C34.4588,114.8437 35.3088,112.8747 36.2308,110.6217 C39.9698,101.4827 37.0168,95.2617 34.6448,90.2647 C33.5028,87.8617 32.4258,85.5907 32.2208,83.3357 C31.5788,76.2337 32.2168,69.7217 32.1778,68.5667 L30.3558,67.7037 C30.3698,69.0047 29.7908,76.1627 30.4538,83.4957 C30.6858,86.0667 31.8318,88.4737 33.0418,91.0257 C35.3808,95.9507 38.0328,101.5357 34.5888,109.9487 C33.6728,112.1917 32.8248,114.1507 32.0628,115.9207 C28.3378,124.5477 27.9858,134.4617 29.2238,145.0657 C29.5298,147.6797 31.6538,154.8507 32.2078,156.9407"/>
        <path fill="#BABAB9" d="M37.7319,49.1675 C37.7319,49.1675 40.4279,59.9295 42.2159,64.3915 C42.4059,64.8635 50.7719,52.2385 50.7719,52.2385 C50.7719,52.2385 45.7539,45.3675 41.3649,43.6085 C41.5609,47.8435 37.7319,49.1675 37.7319,49.1675"/>
        <path fill="#FEFEFE" d="M21.3144 1.2059C21.3144 1.4979 21.0784 1.7339 20.7864 1.7339 20.4944 1.7339 20.2584 1.4979 20.2584 1.2059 20.2584.9139 20.4944.6779 20.7864.6779 21.0784.6779 21.3144.9139 21.3144 1.2059M46.1642 1.2059C46.1642 1.4979 45.9282 1.7339 45.6362 1.7339 45.3442 1.7339 45.1082 1.4979 45.1082 1.2059 45.1082.9139 45.3442.6779 45.6362.6779 45.9282.6779 46.1642.9139 46.1642 1.2059"/>
        <path fill="#DA9284" d="M22.123,23.3774 C23.578,24.6084 25.246,25.4924 26.962,26.1404 C28.691,26.7594 30.516,27.0824 32.339,27.0474 C34.156,27.0224 35.967,26.5684 37.726,25.9644 C39.476,25.3284 41.195,24.5444 42.843,23.5944 C41.408,24.8494 39.768,25.8794 38.012,26.6784 C36.253,27.4614 34.346,28.0204 32.364,28.0714 C30.393,28.1484 28.423,27.7244 26.637,26.9334 C24.866,26.1164 23.263,24.9174 22.123,23.3774"/>
      </g>
    </g>
  </g>
</svg>
