<svg xmlns="http://www.w3.org/2000/svg" width="112" height="144" viewBox="0 0 112 144" xmlns:xlink="http://www.w3.org/1999/xlink">
  <defs>
    <rect id="a" width="155" height="155"/>
  </defs>
  <g fill="none" fill-rule="evenodd" transform="translate(-23 -11)">
    <mask id="b" fill="white">
      <use xlink:href="#a"/>
    </mask>
    <g transform="translate(12 11)" mask="url(#b)">
      <path fill="#6E5C3B" d="M34.6008,49.6445 C34.6008,49.6445 35.6568,33.1785 38.4518,27.0455 C41.2468,20.9135 45.2058,19.5865 50.8678,13.6365 C56.5298,7.6865 57.2578,5.7685 64.3008,5.7685 C71.3428,5.7685 69.5738,7.4365 75.3058,9.5225 C81.0378,11.6085 87.8248,17.0935 90.1718,26.3595 C92.5198,35.6255 94.0358,49.8535 94.0358,49.8535 L96.6498,52.5585 C96.6498,52.5585 95.3818,27.3955 94.5498,22.3125 C93.5928,16.4675 86.1258,7.7525 83.5488,5.6585 C80.9818,3.5725 77.6308,1.1195 66.3178,0.4435 C61.2838,0.1425 52.4728,2.0555 47.4318,5.8215 C39.9668,11.3995 41.0228,11.1985 38.5178,16.2095 C36.5538,20.1365 35.1488,21.6155 33.5448,30.0855 C32.5738,35.2125 32.4008,55.9165 32.4008,55.9165 L34.6008,49.6445 Z"/>
      <polyline stroke="#6E5C3B" stroke-width=".983" points="92.317 22.809 92.022 22.179 92.16 21.419 92.368 20.591 93.466 19.366 92.623 18.878 90.981 18.807 92.035 17.475 91.606 16.843 90.516 16.579 89.936 16.058 89.681 15.35 88.9 14.962 90.061 13.338 87.993 13.795 88.052 12.859 87.07 12.642 87.213 11.627 87.264 10.657 86.038 10.656 85.573 10.088 85.427 9.257 85.159 8.512 85.427 7.266 84.362 7.218 83.447 7.088 83.572 5.811 81.861 6.772 81.797 5.666 81.448 4.878 81.153 3.919 79.79 4.807 79.353 4.075 79.162 2.659 78.206 2.973 77.718 2.064 76.993 1.774 75.707 3.535 75.142 2.817 74.632 1.717 73.831 1.873 73.088 1.76 72.206 2.527 71.597 1.599 70.805 1.905 69.98 2.617 69.391 1.153 68.582 1.753 67.954 .33 67.058 2.236 66.388 .96 65.629 1.032 64.892 1.947 64.186 2.256 63.312 .306 62.708 1.959 61.952 1.83 61.289 2.407 60.602 2.725 59.877 2.811 59.172 3.002 58.09 1.574 57.462 2.185 56.9 2.981 56.231 3.33 55.397 3.137 54.797 3.691 53.581 2.522 53.219 3.711 52.691 4.385 51.641 3.866 50.95 4.194 50.252 4.508 49.234 4.266 49.456 6.126 48.236 5.62 47.849 6.392 47.044 6.552 46.294 6.778 46.693 8.569 45.263 7.879 45.327 9.218 44.065 8.756 44.264 10.234 43.392 10.297 43.157 11.056 42.816 11.59 42.623 12.233 40.553 11.879 40.583 12.735 41.343 13.983 40.587 14.414 40.121 14.998 40.554 16.095 38.703 15.879 38.258 16.472 38.291 17.364 38.984 18.627 37.935 18.885 37.858 19.68 38.081 20.584 35.995 20.473 35.725 21.203 36.319 22.218 36.349 23.006 35.514 23.541 36.066 24.458 34.943 24.946 35.803 25.913 35.76 26.663 34.693 27.198 34.432 27.912 34.269 28.644 33.529 29.269 33.434 30.021"/>
      <polyline stroke="#6E5C3B" stroke-width=".983" points="36.398 24.975 37.894 24.516 36.021 23.355 36.975 22.804 36.916 22.009 36.804 21.185 37.968 20.769 37.114 19.676 38.521 19.4 37.834 18.316 38.494 17.777 38.818 17.099 39.498 16.603 40.08 16.076 40.587 15.522 40.868 14.84 41.03 14.074 40.745 12.984 41.308 12.45 41.987 12.015 43.41 12.194 43.09 10.989 43.171 10.069 44.745 10.501 44.816 9.562 45.331 9.041 45.091 7.689 46.925 8.649 47.346 8.043 47.567 7.151 48.139 6.699 49.038 6.686 49.772 6.512 50.259 6.001 50.751 5.467 51.25 4.899 52.114 5.077 52.491 4.15 53.143 3.819 53.97 4.015 54.556 3.459 55.172 2.925 56.11 3.723 56.593 2.502 57.337 2.455 58.005 1.957 58.919 3.104 59.662 3.215 60.168 1.224 61.072 2.784 61.65 1.003 62.448 1.591 63.252 2.533 63.97 2.346 64.695 2.671 65.484 1.398 66.221 1.731 66.944 2.066 67.584 2.96 68.304 3.087 69.163 2.407 69.832 2.9 70.747 2.164 71.51 2.242 72.041 3.242 73.044 2.402 73.653 3.045 74.125 4.062 74.852 4.227 75.656 4.192 76.336 4.508 77.409 3.89 77.827 4.846 78.108 5.992 79.452 5.002 80.147 5.343 80.372 6.453 81.338 6.355 82.176 6.521 82.017 7.9 82.64 8.258 83.781 8.157 84.357 8.656 84.824 9.25 84.437 10.437 85.78 10.412 85.275 11.589 84.928 12.606 85.136 13.285 86.81 13.209 87.704 13.569 87.676 14.391 88.076 14.995 88.027 15.82 87.517 16.882 87.481 17.72 89.515 17.431 88.78 18.666 88.854 19.516 90.371 19.462 91.095 19.898 90.076 21.434 90.521 22.024 91.852 22.151 91.2 23.307 91.404 24.007 92.495 24.385 92.917 25.044 93.792 25.581 93.288 26.519 92.815 27.419 93.917 27.935 94.018 28.694 94.766 29.317 93.802 30.292 94.638 30.908"/>
      <path fill="#F1DDC0" d="M94.1327,27.4765 C92.1377,20.3695 89.3947,16.1305 83.9087,12.2655 C80.7987,10.0745 71.5567,5.3985 64.9577,5.0515 L64.9577,5.0155 C64.8327,5.0185 64.7077,5.0285 64.5827,5.0335 C64.4587,5.0285 64.3327,5.0185 64.2087,5.0155 L64.2087,5.0515 C58.1627,5.2285 50.6187,9.7715 46.0057,13.1385 C41.1207,16.7025 37.4547,21.5365 35.2967,28.0535 C33.1377,34.5705 33.7867,60.4765 33.7867,60.4765 L59.7587,67.1575 L64.5877,66.7015 L69.4157,67.1575 L95.3877,60.4765 C95.3877,60.4765 95.9877,34.0865 94.1327,27.4765"/>
      <path fill="#F1DDC0" d="M32.6587,55.7793 C32.6347,56.0043 32.6087,56.2233 32.5857,56.4503 C31.6817,82.6093 38.5147,87.2653 47.5237,94.5323 C57.5847,102.6503 66.6977,101.9413 74.2817,98.3793 C81.1787,95.1343 97.3287,88.1543 96.2087,55.7793 L32.6587,55.7793 Z"/>
      <path fill="#78ACCA" d="M31.9215,245.9631 C31.9215,245.9631 58.0475,248.8901 68.3245,249.2651 C78.6035,249.6371 99.9325,246.9331 99.9325,246.9331 L108.0805,242.7991 L106.6335,115.8331 C106.6335,115.8331 74.2635,107.9761 63.2735,107.2331 C52.2975,106.4761 27.9925,114.9741 24.6445,116.4771 C21.2965,117.9801 27.5425,182.2651 27.5425,182.2651 L28.3735,198.8531 L31.9215,245.9631 Z"/>
      <path fill="#F1DDC0" d="M54.8612,88.7786 L56.0912,103.5846 L53.1672,105.9426 C53.1672,105.9426 48.5032,121.6206 57.0022,124.0906 C65.5042,126.5566 73.1082,118.4516 75.6282,115.9336 C78.1412,113.4116 74.6882,105.3126 73.1492,103.9986 C72.5102,103.4536 74.9582,86.7836 74.9582,86.7836 L54.8612,88.7786 Z"/>
      <path fill="#5A8FAD" d="M66.888,134.0394 C66.888,134.6954 66.357,135.2214 65.708,135.2214 C65.05,135.2214 64.521,134.6954 64.521,134.0394 C64.521,133.3884 65.05,132.8584 65.708,132.8584 C66.357,132.8584 66.888,133.3884 66.888,134.0394"/>
      <path fill="#78ACCA" d="M2.7108 174.214C3.9958 171.182 16.0428 117.245 27.2588 115.284 31.4308 114.554 37.8818 120.239 44.2398 124.008 50.2858 127.725 48.0038 121.979 35.0508 139.103 31.9808 143.049 23.8668 179.93 20.9098 189.837 20.9098 189.837 22.4768 202.229 22.8328 207.776 23.1898 213.319 27.0028 239.987 27.0028 239.987L6.5338 239.316C6.5338 239.316.8478 198.722.5848 197.089-1.1562 186.419 1.4228 177.25 2.7108 174.214M129.8962 167.2133C128.6112 164.1813 116.5642 117.2453 105.3482 115.2843 101.1762 114.5543 94.7252 120.2393 88.3672 124.0083 82.3212 127.7253 84.6032 121.9793 97.5562 139.1033 100.6262 143.0493 107.7402 177.9293 110.6972 187.8363 110.6972 187.8363 110.1302 195.2283 109.7742 200.7753 109.4172 206.3183 103.6042 240.9873 103.6042 240.9873L124.0732 240.3163C124.0732 240.3163 129.0652 203.4123 131.0222 195.0883 133.4962 184.5653 131.1842 170.2493 129.8962 167.2133"/>
      <path fill="#FEFEFE" d="M56.979 50.7972C57.26 49.2052 55.365 47.7772 52.737 47.6062 50.115 47.4312 47.765 48.5792 47.476 50.1702 47.19 51.7582 49.085 53.1792 51.703 53.3512 54.332 53.5262 56.693 52.3832 56.979 50.7972M82.248 50.7972C82.529 49.2052 80.634 47.7772 78.006 47.6062 75.384 47.4312 73.034 48.5792 72.745 50.1702 72.459 51.7582 74.354 53.1792 76.972 53.3512 79.601 53.5262 81.962 52.3832 82.248 50.7972"/>
      <path fill="#A58758" d="M54.1876 50.7234C54.3096 49.5774 53.4846 48.5484 52.3396 48.4254 51.1986 48.2994 50.1746 49.1254 50.0486 50.2724 49.9246 51.4154 50.7496 52.4394 51.8896 52.5624 53.0346 52.6884 54.0626 51.8654 54.1876 50.7234M79.7381 50.5649C79.8601 49.4189 79.0351 48.3899 77.8901 48.2669 76.7491 48.1409 75.7251 48.9669 75.5991 50.1139 75.4751 51.2569 76.3001 52.2809 77.4401 52.4039 78.5851 52.5299 79.6131 51.7069 79.7381 50.5649"/>
      <path fill="#F1DDC0" d="M101.2204,59.5764 C101.8854,53.7004 100.5724,47.8624 98.2834,46.5474 C95.9984,45.2304 93.6044,48.9274 92.9374,54.8094 C92.2734,60.6874 93.5874,66.5234 95.8714,67.8424 C98.1614,69.1614 100.5554,65.4584 101.2204,59.5764"/>
      <path fill="#B4915D" d="M70.1834 40.1898C70.8964 38.9428 71.9784 37.9888 73.1904 37.2248 74.4154 36.4808 75.8404 35.9768 77.3524 35.8698 78.8614 35.7288 80.4474 36.1468 81.7174 36.9288 83.0284 37.6828 83.9334 38.9108 84.4924 40.1898 83.1844 39.5808 82.1104 38.9208 80.9284 38.6438 79.7864 38.3198 78.6664 38.1608 77.5064 38.2648 76.3514 38.3458 75.1724 38.5898 73.9644 38.9398 72.7494 39.2858 71.5214 39.7248 70.1834 40.1898M59.2627 40.1898C57.9357 39.6808 56.7157 39.2158 55.5077 38.8568 54.3047 38.4948 53.1297 38.2568 51.9787 38.1968 51.3997 38.1448 50.8367 38.2098 50.2587 38.2438 49.7017 38.3668 49.1107 38.4178 48.5487 38.6368 47.3637 38.9398 46.2717 39.5928 44.9537 40.1898 45.2557 39.5598 45.6087 38.9188 46.0757 38.3688 46.5737 37.8528 47.0777 37.2948 47.7397 36.9318 48.3507 36.4828 49.0897 36.2568 49.8147 36.0098 50.1907 35.9368 50.5707 35.8798 50.9517 35.8188 51.3337 35.7648 51.7157 35.8048 52.0977 35.7998 53.6247 35.8798 55.0737 36.3878 56.2997 37.1498 57.5137 37.9318 58.5837 38.9178 59.2627 40.1898"/>
      <path fill="#6E5C3B" d="M52.2394 9.0235C52.2394 9.0235 57.5334 6.2635 60.5824 8.2745 62.8334 9.7595 69.1374 9.5835 70.9124 8.4295 73.4614 6.7735 74.6664 7.6535 77.2484 8.5825 79.8314 9.5115 74.1224 5.0225 74.1224 5.0225 74.1224 5.0225 60.6444 2.3225 56.8604 5.0225 54.9804 6.3625 52.2394 9.0235 52.2394 9.0235M33.4243 50.2264C33.4243 50.2264 36.0553 44.2664 36.4343 39.7654 36.8123 35.2644 36.6833 26.7294 36.4503 24.8084 36.2183 22.8864 33.5503 32.8834 33.1723 35.6634 32.7943 38.4444 33.4243 50.2264 33.4243 50.2264"/>
      <path fill="#6E5C3B" d="M36.6835 29.4243C36.6835 29.4243 35.9095 23.6543 39.7465 18.1473 42.8485 13.6963 42.7285 14.1673 42.7285 14.1673 40.8985 16.3223 36.2265 18.0433 34.9725 25.6163 34.2645 29.8893 34.2335 32.9333 34.2335 32.9333L36.6835 29.4243zM95.5574 47.3338C95.5574 47.3338 92.2624 43.4228 92.1374 38.4488 91.9784 32.0808 93.7814 25.7498 92.8864 23.3618 91.3894 19.3718 89.8054 17.8838 89.8054 17.8838L92.7254 20.5778C92.7254 20.5778 94.6724 21.6928 94.9384 28.7528 95.2034 35.8138 96.1764 46.6838 96.1764 46.6838L95.5574 47.3338z"/>
      <path fill="#F1DDC0" d="M26.709,59.5764 C26.044,53.7004 27.357,47.8624 29.646,46.5474 C31.931,45.2304 34.325,48.9274 34.992,54.8094 C35.656,60.6874 34.342,66.5234 32.058,67.8424 C29.768,69.1614 27.374,65.4584 26.709,59.5764"/>
      <path fill="#FEFEFE" d="M53.9951 49.5952C53.9951 50.0102 53.6581 50.3472 53.2431 50.3472 52.8281 50.3472 52.4911 50.0102 52.4911 49.5952 52.4911 49.1802 52.8281 48.8432 53.2431 48.8432 53.6581 48.8432 53.9951 49.1802 53.9951 49.5952M79.6989 49.5952C79.6989 50.0102 79.3619 50.3472 78.9469 50.3472 78.5319 50.3472 78.1949 50.0102 78.1949 49.5952 78.1949 49.1802 78.5319 48.8432 78.9469 48.8432 79.3619 48.8432 79.6989 49.1802 79.6989 49.5952"/>
      <polygon fill="#F1DDC0" points="53.33 119.101 61.902 133.444 69.618 115.144 75.534 111.334 68.551 111.002 52.925 116.321"/>
      <polygon fill="#78ACCA" points="58.34 115.347 61.902 133.445 58.632 133.631 51.004 119.674 55.807 114.814"/>
      <path fill="#5A8FAD" d="M59.875,123.7984 C56.838,124.2474 47.498,129.7064 47.498,129.7064 L49.734,123.4684 L53.546,115.3784 L58.34,115.3464"/>
      <path fill="#6E9DB9" d="M47.2569,130.0876 C47.2569,130.0876 53.3699,115.9576 58.3399,115.3466 C52.1409,109.8036 54.5579,105.1866 56.0909,103.5846 C56.0909,103.5846 48.4109,101.6726 47.1799,129.4636 L47.2569,130.0876 Z"/>
      <path stroke="#5A8FAD" stroke-width=".997" d="M61.4392,246.5844 L59.6372,221.0324 C59.8662,213.3634 65.3932,190.7984 65.3932,177.4994 C65.3932,164.1994 62.0612,132.9764 62.0612,132.9764 C62.0612,132.9764 66.3272,122.6944 67.5432,119.6554 C68.7582,116.6164 69.3882,115.9964 69.3882,115.9964"/>
      <path fill="#5A8FAD" d="M66.1418,123.6066 C69.1788,124.0556 79.3428,129.6696 79.3428,129.6696 L78.5688,124.6566 L75.2888,116.3396 L68.9378,115.7486"/>
      <path fill="#6E9DB9" d="M79.5833,130.0507 C79.5833,130.0507 73.9073,116.3597 68.9373,115.7487 C75.1363,110.2057 74.6043,105.5387 73.0713,103.9367 C73.0713,103.9367 79.4613,103.4997 79.6603,129.4267 L79.5833,130.0507 Z"/>
      <path fill="#52829D" d="M71.2798,120.543 C71.2798,121.199 70.7488,121.725 70.0998,121.725 C69.4418,121.725 68.9128,121.199 68.9128,120.543 C68.9128,119.892 69.4418,119.362 70.0998,119.362 C70.7488,119.362 71.2798,119.892 71.2798,120.543"/>
      <path fill="#BA7E71" d="M51.7351,76.3715 C54.4541,77.2625 56.5711,77.8665 58.5641,78.2565 C60.5201,78.6475 62.3421,78.8245 64.1411,78.8665 C65.9071,78.8765 67.9391,78.5415 70.1321,78.1075 C72.3411,77.6675 74.6491,77.0915 77.3431,76.6395 C76.8351,77.9355 76.0791,79.0435 75.2331,80.0665 C74.3761,81.0765 73.4121,82.0075 72.3211,82.7935 C70.1591,84.3795 67.5201,85.5655 64.4591,85.8025 C61.4481,86.0295 58.4121,85.2115 56.0371,83.4895 C54.8521,82.6435 53.8561,81.5765 53.0981,80.3825 C52.3571,79.1825 51.7911,77.8545 51.7351,76.3715"/>
      <path fill="#FEFEFE" d="M51.7837,76.2872 C51.7837,76.2872 59.1917,78.7232 63.2217,78.6622 C67.3777,78.6002 77.4317,76.7042 77.3777,76.4742 C77.3777,76.4742 71.4097,80.7032 63.1587,80.7872 C57.0027,80.8492 51.7837,76.2872 51.7837,76.2872"/>
    </g>
  </g>
</svg>
