<svg xmlns="http://www.w3.org/2000/svg" width="105" height="140" viewBox="0 0 105 140" xmlns:xlink="http://www.w3.org/1999/xlink">
  <defs>
    <rect id="a" width="155" height="155"/>
    <path id="c" d="M0.2856,1.13952037 C1.9009069,0.761722762 2.837,0.639 2.837,0.639 C2.837,0.639 3.66599044,0.57535949 5.0156,0.504249235 L5.0156,1.6657 L0.2856,1.6657 L0.2856,1.13952037 L0.2856,1.13952037 Z"/>
  </defs>
  <g fill="none" fill-rule="evenodd" transform="translate(-26 -15)">
    <mask id="b" fill="white">
      <use xlink:href="#a"/>
    </mask>
    <g transform="translate(21 14)" mask="url(#b)">
      <g transform="translate(0 .68)">
        <path fill="#AA7D12" d="M27.3148 46.9616C27.3148 46.9616 24.2708 31.4766 28.7218 24.1236 33.1728 16.7706 36.5438 16.8286 36.5438 16.8286 36.5438 16.8286 39.9678 17.2606 38.9408 19.4236 37.9138 21.5866 32.0928 30.6696 31.7498 38.4546 31.4078 46.2406 28.3258 50.1336 28.3258 50.1336L27.3148 46.9616zM32.183 50.8013C32.183 50.8013 28.756 63.8703 30.983 69.4433 33.211 75.0163 33.908 75.0533 33.908 75.0533 33.908 75.0533 31.28 71.1173 33.457 61.5763 35.635 52.0353 36.215 57.6833 36.215 57.6833 36.215 57.6833 34.477 65.4983 36.293 69.5803 38.109 73.6633 37.744 72.5833 37.744 72.5833 37.744 72.5833 36.459 64.2123 39.482 58.5643 42.506 52.9153 36.991 52.1963 36.991 52.1963L32.183 50.8013zM66.8557 71.8116L67.1087 77.0326 68.5647 90.2086 71.1917 107.7996C71.1917 107.7996 71.3627 107.6336 71.6757 107.3606 72.9377 107.0636 79.6257 107.2946 85.7267 112.5466 86.3517 113.0836 86.9527 113.7526 87.5457 114.5256 88.9277 118.1096 88.1167 128.5486 90.6237 132.5876 93.2847 136.8736 96.8447 139.4816 96.8447 139.4816 96.8447 139.4816 91.3677 131.0796 92.4487 123.0136 92.4647 122.8986 92.4787 122.7906 92.4937 122.6766 94.3127 125.9046 96.3667 129.4166 98.9677 132.6736 103.4947 138.3416 112.5577 100.5416 93.9497 96.3526 72.3857 91.4986 69.7447 70.6906 69.7447 70.6906L66.8557 71.8116z"/>
        <path fill="#AA7D12" d="M81.7374,90.6429 C81.7374,90.6429 74.4424,85.8849 77.9314,78.2729 C80.6814,72.2729 84.3594,72.2709 91.8874,64.6329 C99.4154,56.9949 104.3754,38.4349 86.2354,18.7319 C73.3084,4.6899 70.3274,30.3049 70.3274,30.3049 L58.1944,69.9879 C58.1944,69.9879 48.4044,85.5029 54.7594,93.9889 C56.4134,96.1969 59.2334,99.1889 62.8674,101.9719 C62.3884,98.1679 81.7374,90.6429 81.7374,90.6429"/>
        <path fill="#F2CCB0" d="M85.77,42.9744 C85.77,64.5914 73.013,82.1164 57.276,82.1164 C41.539,82.1164 29.832,67.2354 28.782,42.9744 C27.732,18.7134 45.354,11.6074 57.558,8.4644 C69.761,5.3214 85.77,21.3574 85.77,42.9744"/>
        <path fill="#AA7D12" d="M86.0562,48.213 C86.0562,48.213 92.1632,34.433 88.1412,25.964 C84.1192,17.495 82.2772,15.783 82.2772,15.783 C82.2772,15.783 78.0062,15.42 78.8452,17.845 C79.6832,20.27 85.0452,30.807 83.9592,38.753 C82.8742,46.698 85.8902,51.352 85.8902,51.352 L86.0562,48.213 Z"/>
        <path fill="#F2CCB0" d="M32.9476,42.4339 C32.9476,42.4339 27.1616,40.1029 27.8206,47.7309 C28.4766,55.3609 31.8636,55.8869 33.6526,53.4979 C35.4436,51.1099 32.9476,42.4339 32.9476,42.4339"/>
        <path fill="#AA7D12" d="M34.2164,6.9954 C30.1654,8.7044 29.0344,16.6104 31.9414,19.1044 C34.8484,21.5984 38.1704,19.6024 42.7394,19.6024 C47.3074,19.6024 68.4884,20.1014 72.6414,20.6004 C76.7944,21.0994 85.2574,19.6024 85.5944,16.3604 C85.9314,13.1184 72.9814,-4.5266 55.1514,1.6034 C41.0494,6.4514 38.2674,5.2864 34.2164,6.9954"/>
        <path fill="#C58F16" d="M43.2458,14.2104 C43.2458,14.2104 45.2328,15.5174 46.1758,15.4194 C47.1188,15.3204 47.4348,15.1194 47.4348,15.1194 L49.0158,16.3004 C49.0158,16.3004 46.4968,19.0304 44.2168,18.1464 C41.9378,17.2634 41.0838,16.0624 41.0838,16.0624 L43.2458,14.2104 Z"/>
        <path fill="#86640C" d="M45.4727 11.9032C45.4727 11.9032 42.7057 11.1822 41.2337 12.1212 39.7607 13.0602 37.4767 14.8122 37.4767 14.8122 37.4767 14.8122 39.0517 15.9382 40.0677 16.0002L41.0837 16.0622C41.0837 16.0622 43.0087 14.6282 43.9037 13.5252 44.7977 12.4222 45.4727 11.9032 45.4727 11.9032M47.3068 13.1263C47.3068 13.1263 49.2938 14.4333 50.2368 14.3353 51.1798 14.2363 51.4958 14.0353 51.4958 14.0353L53.0768 15.2163C53.0768 15.2163 50.5578 17.9463 48.2778 17.0623 45.9988 16.1793 45.1448 14.9783 45.1448 14.9783L47.3068 13.1263z"/>
        <path fill="#C58F16" d="M49.3486 11.5072C49.3486 11.5072 46.3486 10.5362 44.8766 11.4752 43.4036 12.4132 41.7836 14.7052 41.7836 14.7052 41.7836 14.7052 42.9276 15.5422 43.9436 15.6042 44.9596 15.6662 45.1756 15.5922 45.1756 15.5922 45.1756 15.5922 46.8846 14.2322 47.7796 13.1292 48.6736 12.0262 49.3486 11.5072 49.3486 11.5072M53.1613 12.7391C53.1613 12.7391 55.1483 14.0461 56.0913 13.9481 57.0343 13.8491 57.3503 13.6481 57.3503 13.6481L58.9313 14.8291C58.9313 14.8291 56.4123 17.5591 54.1323 16.6751 51.8533 15.7921 50.9993 14.5911 50.9993 14.5911L53.1613 12.7391z"/>
        <path fill="#86640C" d="M55.0295,11.3954 C55.0295,11.3954 52.1415,10.1304 50.5825,10.9184 C49.0245,11.7054 47.1835,13.8244 47.1835,13.8244 C47.1835,13.8244 48.2385,14.7714 49.2435,14.9344 C50.2485,15.0974 50.4705,15.0454 50.4705,15.0454 C50.4705,15.0454 52.3065,13.8614 53.3065,12.8534 C54.3065,11.8444 55.0295,11.3954 55.0295,11.3954"/>
        <path fill="#C58F16" d="M61.1366,11.4305 C61.1366,11.4305 58.3866,9.8885 56.7586,10.5185 C55.1296,11.1495 53.0906,13.0765 53.0906,13.0765 C53.0906,13.0765 54.0476,14.1225 55.0306,14.3835 C56.0146,14.6445 56.2406,14.6145 56.2406,14.6145 C56.2406,14.6145 58.1846,13.6165 59.2786,12.7115 C60.3726,11.8065 61.1366,11.4305 61.1366,11.4305"/>
        <path fill="#86640C" d="M57.0125,12.5291 C57.0125,12.5291 58.9995,13.8361 59.9425,13.7381 C60.8855,13.6391 61.2015,13.4381 61.2015,13.4381 L62.7825,14.6191 C62.7825,14.6191 60.2635,17.3491 57.9835,16.4651 C55.7045,15.5821 54.8505,14.3811 54.8505,14.3811 L57.0125,12.5291 Z"/>
        <path fill="#C58F16" d="M61.8789,12.9081 C61.8789,12.9081 63.8659,14.2151 64.8089,14.1171 C65.7519,14.0181 66.0679,13.8171 66.0679,13.8171 L67.6489,14.9981 C67.6489,14.9981 65.1299,17.7281 62.8499,16.8441 C60.5709,15.9611 59.7169,14.7601 59.7169,14.7601 L61.8789,12.9081 Z"/>
        <path fill="#86640C" d="M64.5909 10.9097C64.5909 10.9097 61.7869 9.4667 60.1829 10.1557 58.5779 10.8447 56.6089 12.8437 56.6089 12.8437 56.6089 12.8437 57.6029 13.8547 58.5949 14.0797 59.5879 14.3057 59.8129 14.2677 59.8129 14.2677 59.8129 14.2677 61.7199 13.2007 62.7799 12.2567 63.8409 11.3127 64.5909 10.9097 64.5909 10.9097M67.3889 13.1912C67.3889 13.1912 69.0559 14.8872 69.9989 14.9902 70.9409 15.0922 71.2919 14.9622 71.2919 14.9622L72.5889 16.4502C72.5889 16.4502 69.5509 18.5882 67.5089 17.2442 65.4669 15.9002 64.8849 14.5462 64.8849 14.5462L67.3889 13.1912z"/>
        <path fill="#86640C" d="M75.1909,11.9312 C75.1909,11.9312 72.4629,10.3502 70.8259,10.9572 C69.1889,11.5652 67.1219,13.4632 67.1219,13.4632 C67.1219,13.4632 68.0639,14.5222 69.0439,14.7972 C70.0239,15.0722 70.2509,15.0452 70.2509,15.0452 C70.2509,15.0452 72.2089,14.0752 73.3149,13.1862 C74.4219,12.2962 75.1909,11.9312 75.1909,11.9312"/>
        <path fill="#C58F16" d="M69.687 11.4003C69.687 11.4003 66.926 9.8783 65.302 10.5203 63.678 11.1623 61.653 13.1043 61.653 13.1043 61.653 13.1043 62.617 14.1433 63.603 14.3973 64.589 14.6513 64.814 14.6193 64.814 14.6193 64.814 14.6193 66.751 13.6083 67.838 12.6953 68.926 11.7823 69.687 11.4003 69.687 11.4003M71.685 12.4914C71.685 12.4914 72.683 14.6504 73.536 15.0644 74.389 15.4784 74.763 15.4744 74.763 15.4744L75.483 17.3114C75.483 17.3114 71.903 18.3014 70.433 16.3474 68.963 14.3944 68.871 12.9234 68.871 12.9234L71.685 12.4914z"/>
        <path fill="#C58F16" d="M79.1879,13.8759 C79.1879,13.8759 77.1519,11.4679 75.4059,11.4889 C73.6599,11.5089 71.0749,12.5999 71.0749,12.5999 C71.0749,12.5999 71.6049,13.9149 72.4349,14.5039 C73.2649,15.0929 73.4869,15.1439 73.4869,15.1439 C73.4869,15.1439 75.6569,14.8899 76.9989,14.4249 C78.3409,13.9609 79.1879,13.8759 79.1879,13.8759"/>
        <path fill="#86640C" d="M76.1768,14.7459 C76.1768,14.7459 76.9788,16.9849 77.7918,17.4729 C78.6048,17.9609 78.9778,17.9899 78.9778,17.9899 L79.5318,19.8849 C79.5318,19.8849 75.8768,20.5519 74.5868,18.4759 C73.2968,16.3989 73.3358,14.9259 73.3358,14.9259 L76.1768,14.7459 Z"/>
        <path fill="#C58F16" d="M80.1377,16.4992 C80.1377,16.4992 81.5157,18.4372 82.4307,18.6882 C83.3447,18.9382 83.7117,18.8652 83.7117,18.8652 L84.7577,20.5392 C84.7577,20.5392 81.4197,22.1702 79.6157,20.5202 C77.8117,18.8702 77.4517,17.4412 77.4517,17.4412 L80.1377,16.4992 Z"/>
        <path fill="#86640C" d="M82.8873 17.0346C82.8873 17.0346 80.5303 14.0366 78.7843 13.9916 77.0393 13.9466 74.4143 14.9396 74.4143 14.9396 74.4143 14.9396 74.8953 16.2736 75.7033 16.8936 76.5103 17.5126 76.7303 17.5726 76.7303 17.5726 76.7303 17.5726 78.9083 17.3996 80.2673 16.9856 81.6253 16.5716 82.8873 17.0346 82.8873 17.0346M84.0018 19.1263C84.0018 19.1263 83.9058 21.5023 84.4758 22.2603 85.0468 23.0173 85.3818 23.1843 85.3818 23.1843L85.1848 25.1483C85.1848 25.1483 81.5468 24.3963 81.1288 21.9873 80.7118 19.5783 81.3008 18.2283 81.3008 18.2283L84.0018 19.1263z"/>
        <path fill="#86640C" d="M88.9792,25.7135 C88.9792,25.7135 89.4092,22.5895 88.2272,21.3045 C87.0452,20.0195 84.5052,18.8255 84.5052,18.8255 C84.5052,18.8255 83.8822,20.0985 83.9992,21.1095 C84.1152,22.1205 84.2262,22.3205 84.2262,22.3205 C84.2262,22.3205 85.8652,23.7655 87.1072,24.4525 C88.3502,25.1395 88.9792,25.7135 88.9792,25.7135"/>
        <path fill="#C58F16" d="M87.4818,22.8904 C87.4818,22.8904 86.6468,24.9584 86.9108,25.8074 C87.1748,26.6564 87.4178,26.9094 87.4178,26.9094 L86.6238,28.5804 C86.6238,28.5804 83.6488,26.7674 84.0418,24.5094 C84.4338,22.2504 85.3808,21.2434 85.3808,21.2434 L87.4818,22.8904 Z"/>
        <path fill="#C58F16" d="M91.3504,28.9089 C91.3504,28.9089 91.6904,25.9719 90.5554,24.7909 C89.4214,23.6099 87.0154,22.5429 87.0154,22.5429 C87.0154,22.5429 86.4574,23.7489 86.5874,24.6949 C86.7174,25.6399 86.8254,25.8249 86.8254,25.8249 C86.8254,25.8249 88.3914,27.1459 89.5704,27.7649 C90.7484,28.3839 91.3504,28.9089 91.3504,28.9089"/>
        <path fill="#86640C" d="M88.4172,25.344 C88.4172,25.344 87.1102,27.179 87.1712,28.075 C87.2312,28.971 87.4102,29.276 87.4102,29.276 L86.2372,30.732 C86.2372,30.732 83.7412,28.252 84.6572,26.125 C85.5742,23.999 86.7402,23.233 86.7402,23.233 L88.4172,25.344 Z"/>
        <path fill="#86640C" d="M91.4616,33.6402 C91.4616,33.6402 92.6606,30.3552 91.6806,28.6842 C90.7006,27.0132 88.2276,25.1232 88.2276,25.1232 C88.2276,25.1232 87.2526,26.3572 87.1416,27.4802 C87.0316,28.6042 87.1046,28.8462 87.1046,28.8462 C87.1046,28.8462 88.5426,30.7972 89.7286,31.8342 C90.9136,32.8712 91.4616,33.6402 91.4616,33.6402"/>
        <path fill="#C58F16" d="M88.9455,27.9787 C88.9455,27.9787 87.7535,29.6667 87.8115,30.4877 C87.8695,31.3097 88.0345,31.5897 88.0345,31.5897 L86.9635,32.9287 C86.9635,32.9287 84.6655,30.6617 85.4995,28.7077 C86.3325,26.7547 87.4005,26.0477 87.4005,26.0477 L88.9455,27.9787 Z"/>
        <path fill="#C58F16" d="M91.8544,35.6981 C91.8544,35.6981 92.9434,32.6801 92.0394,31.1511 C91.1344,29.6211 88.8594,27.8951 88.8594,27.8951 C88.8594,27.8951 87.9684,29.0301 87.8714,30.0611 C87.7734,31.0931 87.8414,31.3151 87.8414,31.3151 C87.8414,31.3151 89.1674,33.1001 90.2584,34.0471 C91.3494,34.9941 91.8544,35.6981 91.8544,35.6981"/>
        <path fill="#86640C" d="M90.0463,32.4263 C90.0463,32.4263 88.4053,33.6433 88.2053,34.4333 C88.0063,35.2223 88.0753,35.5363 88.0753,35.5363 L86.6553,36.4633 C86.6553,36.4633 85.1973,33.6243 86.5833,32.0463 C87.9703,30.4693 89.1913,30.1343 89.1913,30.1343 L90.0463,32.4263 Z"/>
        <path fill="#86640C" d="M90.8896,38.1226 C90.8896,38.1226 92.4466,35.3576 91.8146,33.7186 C91.1826,32.0786 89.2466,30.0226 89.2466,30.0226 C89.2466,30.0226 87.8756,31.9686 87.9286,31.9736 C87.8036,31.9626 87.6846,33.1916 87.6946,33.1906 C87.6946,33.1906 88.6946,35.1486 89.6036,36.2506 C90.5126,37.3536 90.8896,38.1226 90.8896,38.1226"/>
        <path fill="#C58F16" d="M90.4029,37.3097 C90.4029,37.3097 88.4529,36.9687 88.1739,37.7147 C87.8959,38.4617 87.9299,38.7737 87.9299,38.7737 L86.4499,39.5227 C86.4499,39.5227 85.3369,36.6067 86.8539,35.2217 C88.3699,33.8367 89.5929,33.6427 89.5929,33.6427 L90.4029,37.3097 Z"/>
        <path fill="#C58F16" d="M89.0952,41.6952 C89.0952,41.6952 91.2642,39.4762 91.0812,37.7672 C90.8982,36.0592 89.5882,33.6282 89.5882,33.6282 C89.5882,33.6282 89.7772,34.2702 89.2772,35.1382 C88.7782,36.0062 87.3212,36.2292 87.3212,36.2292 C87.3212,36.2292 87.7722,38.3312 88.3522,39.6022 C88.9332,40.8732 89.0952,41.6952 89.0952,41.6952"/>
        <path fill="#86640C" d="M85.962,44.2465 C85.962,44.2465 87.366,43.0695 87.403,41.8665 C87.439,40.6635 87.075,38.6975 87.075,38.6975 C87.075,38.6975 86.154,39.0245 85.725,39.5795 C85.295,40.1335 85.254,40.2855 85.254,40.2855 C85.254,40.2855 85.366,41.7865 85.647,42.7235 C85.928,43.6605 85.962,44.2465 85.962,44.2465"/>
        <path fill="#86640C" d="M90.1197,39.5647 C90.1197,39.5647 87.9617,40.0927 87.4297,40.7997 C86.8967,41.5077 86.8337,41.8517 86.8337,41.8517 L85.0207,42.1817 C85.0207,42.1817 84.7557,38.7217 86.8097,37.7257 C88.8637,36.7287 90.2287,36.9077 90.2287,36.9077 L90.1197,39.5647 Z"/>
        <path fill="#C58F16" d="M87.5937,49.6492 C87.5937,49.6492 90.2517,46.9302 90.0267,44.8362 C89.8027,42.7422 88.1977,39.7632 88.1977,39.7632 C88.1977,39.7632 86.6797,40.5502 86.0677,41.6142 C85.4557,42.6782 85.4197,42.9502 85.4197,42.9502 C85.4197,42.9502 85.9727,45.5272 86.6837,47.0842 C87.3947,48.6422 87.5937,49.6492 87.5937,49.6492"/>
        <path fill="#C58F16" d="M89.0866 41.4311C89.0866 41.4311 87.3606 42.4381 87.0826 43.1841 86.8036 43.9311 86.8376 44.2431 86.8376 44.2431L85.3576 44.9921C85.3576 44.9921 84.2446 42.0761 85.7616 40.6911 87.2786 39.3061 88.5006 39.1121 88.5006 39.1121L89.0866 41.4311zM87.9095 20.5132C87.9095 20.5132 86.6375 17.5972 84.9455 17.1642 81.3405 16.2412 80.3495 16.9952 80.3495 16.9952 80.3495 16.9952 80.6175 18.4312 81.2505 19.2292 81.8825 20.0262 82.0815 20.1372 82.0815 20.1372 82.0815 20.1372 84.2365 20.5002 85.6545 20.4292 87.0725 20.3582 87.9095 20.5132 87.9095 20.5132"/>
        <path fill="#F2CCB0" d="M85.0563,43.3856 C85.0563,43.3856 90.6863,41.0546 90.0453,48.6826 C89.4073,56.3126 86.1113,56.8386 84.3703,54.4496 C82.6273,52.0616 85.0563,43.3856 85.0563,43.3856"/>
        <path fill="#86640C" d="M89.857,43.8085 C89.857,43.8085 91.709,41.9135 91.552,40.4555 C91.396,38.9965 90.278,36.9205 90.278,36.9205 C90.278,36.9205 89.22,37.4685 88.794,38.2105 C88.367,38.9515 88.342,39.1415 88.342,39.1415 C88.342,39.1415 88.727,40.9365 89.223,42.0215 C89.719,43.1065 89.857,43.8085 89.857,43.8085"/>
        <path fill="#AA7D12" d="M47.214 36.001C46.143 35.999 45.157 35.891 44.181 35.787L41.335 35.461C40.404 35.355 39.496 35.3 38.603 35.336 37.705 35.374 36.834 35.505 35.871 36.001 36.218 34.957 37.257 34.217 38.302 33.87 39.365 33.515 40.481 33.447 41.529 33.569 42.585 33.683 43.603 33.948 44.562 34.345 45.514 34.757 46.432 35.26 47.214 36.001M59.7475 36.001C60.8185 35.999 61.8045 35.891 62.7805 35.787L65.6265 35.461C66.5575 35.355 67.4655 35.3 68.3585 35.336 69.2565 35.374 70.1275 35.505 71.0905 36.001 70.7435 34.957 69.7045 34.217 68.6595 33.87 67.5965 33.515 66.4805 33.447 65.4325 33.569 64.3765 33.683 63.3585 33.948 62.3995 34.345 61.4475 34.757 60.5295 35.26 59.7475 36.001"/>
        <path fill="#FEFEFE" d="M44.7244,44.8137 C44.9504,43.4817 43.4264,42.2867 41.3104,42.1427 C39.2014,41.9967 37.3104,42.9577 37.0774,44.2897 C36.8474,45.6177 38.3724,46.8067 40.4794,46.9507 C42.5944,47.0967 44.4944,46.1407 44.7244,44.8137"/>
        <path fill="#AA7D12" d="M42.5685,44.6756 C42.6655,43.7676 42.0125,42.9536 41.1055,42.8556 C40.2015,42.7566 39.3915,43.4106 39.2915,44.3186 C39.1935,45.2236 39.8465,46.0336 40.7495,46.1316 C41.6555,46.2316 42.4695,45.5796 42.5685,44.6756"/>
        <path fill="#FEFEFE" d="M42.4535 43.7942C42.4535 44.1572 42.1595 44.4512 41.7965 44.4512 41.4345 44.4512 41.1405 44.1572 41.1405 43.7942 41.1405 43.4312 41.4345 43.1372 41.7965 43.1372 42.1595 43.1372 42.4535 43.4312 42.4535 43.7942M69.9996 44.8137C70.2256 43.4817 68.7016 42.2867 66.5856 42.1427 64.4766 41.9967 62.5856 42.9577 62.3526 44.2897 62.1226 45.6177 63.6476 46.8067 65.7546 46.9507 67.8696 47.0967 69.7696 46.1407 69.9996 44.8137"/>
        <path fill="#AA7D12" d="M67.8436,44.6756 C67.9406,43.7676 67.2876,42.9536 66.3806,42.8556 C65.4766,42.7566 64.6666,43.4106 64.5666,44.3186 C64.4686,45.2236 65.1216,46.0336 66.0246,46.1316 C66.9306,46.2316 67.7446,45.5796 67.8436,44.6756"/>
        <path fill="#FEFEFE" d="M67.7287,43.7942 C67.7287,44.1572 67.4347,44.4512 67.0717,44.4512 C66.7097,44.4512 66.4157,44.1572 66.4157,43.7942 C66.4157,43.4312 66.7097,43.1372 67.0717,43.1372 C67.4347,43.1372 67.7287,43.4312 67.7287,43.7942"/>
        <path fill="#3C3B3B" d="M90.7931,173.1058 C87.9871,159.2868 94.2341,154.6678 97.4211,148.1158 C100.3051,143.5028 103.4471,138.3088 104.1671,132.6648 C105.1321,125.1088 104.1191,118.2008 100.1411,109.9778 C96.1631,101.7538 81.1781,96.4928 81.1781,96.4928 L81.1781,96.4938 C74.0521,93.3318 68.7671,92.6388 68.7671,92.6388 C68.7671,92.6388 62.7871,92.1808 56.8011,92.3498 C50.8161,92.1808 44.8361,92.6388 44.8361,92.6388 C44.8361,92.6388 39.5501,93.3318 32.4251,96.4938 L32.4251,96.4928 C32.4251,96.4928 17.4401,101.7538 13.4621,109.9778 C9.4831,118.2008 8.4711,125.1088 9.4351,132.6648 C10.1561,138.3088 13.2981,143.5028 16.1821,148.1158 C19.3691,154.6678 25.6161,159.2868 22.8101,173.1058 C19.2351,190.6928 18.7031,192.5598 2.4661,273.3928 C2.4661,273.3928 22.5121,289.6818 38.5681,289.0938 C44.3721,288.8848 50.6271,289.7368 57.5281,288.9788 C64.0701,288.6598 72.3661,286.1468 80.8621,285.4288 C96.8721,284.0768 112.4531,281.4808 112.4531,281.4808 C96.2161,200.6478 94.3681,190.6928 90.7931,173.1058"/>
      </g>
      <g transform="translate(8 92.68)">
        <path fill="#FFFACF" d="M87.222 15.366C85.916 15.366 84.857 14.307 84.857 13.001 84.857 11.695 85.916 10.636 87.222 10.636 88.528 10.636 89.587 11.695 89.587 13.001 89.587 14.307 88.528 15.366 87.222 15.366M87.222 43.9329C85.916 43.9329 84.857 42.8739 84.857 41.5679 84.857 40.2619 85.916 39.2029 87.222 39.2029 88.528 39.2029 89.587 40.2619 89.587 41.5679 89.587 42.8739 88.528 43.9329 87.222 43.9329M70.3649 30.2326C69.0589 30.2326 67.9999 29.1736 67.9999 27.8676 67.9999 26.5616 69.0589 25.5026 70.3649 25.5026 71.6709 25.5026 72.7299 26.5616 72.7299 27.8676 72.7299 29.1736 71.6709 30.2326 70.3649 30.2326M53.5078 15.366C52.2018 15.366 51.1428 14.307 51.1428 13.001 51.1428 11.695 52.2018 10.636 53.5078 10.636 54.8138 10.636 55.8728 11.695 55.8728 13.001 55.8728 14.307 54.8138 15.366 53.5078 15.366M53.5078 43.9329C52.2018 43.9329 51.1428 42.8739 51.1428 41.5679 51.1428 40.2619 52.2018 39.2029 53.5078 39.2029 54.8138 39.2029 55.8728 40.2619 55.8728 41.5679 55.8728 42.8739 54.8138 43.9329 53.5078 43.9329"/>
        <g transform="translate(34)">
          <mask id="d" fill="white">
            <use xlink:href="#c"/>
          </mask>
          <path fill="#FFFACF" d="M2.6506,1.6657 C1.3446,1.6657 0.2856,0.6067 0.2856,-0.6993 C0.2856,-2.0053 1.3446,-3.0643 2.6506,-3.0643 C3.9566,-3.0643 5.0156,-2.0053 5.0156,-0.6993 C5.0156,0.6067 3.9566,1.6657 2.6506,1.6657" mask="url(#d)"/>
        </g>
        <path fill="#FFFACF" d="M36.6506 30.2326C35.3446 30.2326 34.2856 29.1736 34.2856 27.8676 34.2856 26.5616 35.3446 25.5026 36.6506 25.5026 37.9566 25.5026 39.0156 26.5616 39.0156 27.8676 39.0156 29.1736 37.9566 30.2326 36.6506 30.2326M19.7935 15.366C18.4875 15.366 17.4285 14.307 17.4285 13.001 17.4285 11.695 18.4875 10.636 19.7935 10.636 21.0995 10.636 22.1585 11.695 22.1585 13.001 22.1585 14.307 21.0995 15.366 19.7935 15.366M19.7935 43.9329C18.4875 43.9329 17.4285 42.8739 17.4285 41.5679 17.4285 40.2619 18.4875 39.2029 19.7935 39.2029 21.0995 39.2029 22.1585 40.2619 22.1585 41.5679 22.1585 42.8739 21.0995 43.9329 19.7935 43.9329M2.9364 30.2326C1.6304 30.2326.5714 29.1736.5714 27.8676.5714 26.5616 1.6304 25.5026 2.9364 25.5026 4.2424 25.5026 5.3014 26.5616 5.3014 27.8676 5.3014 29.1736 4.2424 30.2326 2.9364 30.2326"/>
      </g>
      <g transform="translate(5 62.68)">
        <path fill="#F3CDB0" d="M75.9061,36.0148 C73.4501,33.5588 70.3121,32.0638 61.9871,30.0108 C58.2361,29.0848 57.0181,29.7118 56.8501,27.5068 C56.7661,26.4158 56.3341,17.6088 56.2421,14.0228 L51.3571,14.0708 L46.4711,14.0228 C46.3791,17.6088 45.9471,26.4158 45.8641,27.5068 C45.6951,29.7118 44.4781,29.0848 40.7261,30.0108 C32.4011,32.0638 29.2631,33.5588 26.8071,36.0148 C22.2691,40.5528 30.5981,57.2558 50.2771,57.3288 C50.6391,57.3308 50.9981,57.3218 51.3571,57.3088 C51.7151,57.3218 52.0741,57.3308 52.4361,57.3288 C72.1151,57.2558 80.4441,40.5528 75.9061,36.0148"/>
        <path fill="#1D1C1B" d="M29.7035 56.6734C29.7035 56.6734 25.0535 52.5604 24.3335 48.6054 22.2645 37.2414 36.6585 31.4264 36.6585 31.4264 36.6585 31.4264 29.0985 32.5894 24.8015 33.3164 21.7225 33.8374 19.0325 34.6804 16.8755 35.5284L16.8635 35.4844C16.8635 35.4844 13.6275 36.8244 10.5565 38.3314 7.5715 39.7964 4.6005 42.3104 2.8005 46.0604.9275 49.9634.4005 54.0104 1.4505 62.2604 2.1805 67.9934 10.2415 105.4014 14.7085 113.3794 19.1765 121.3564 19.6215 120.6964 19.6215 120.6964L20.0925 104.6764C20.0925 104.6764 20.0585 95.4774 20.0405 88.8734L20.1265 82.2934C21.1365 76.4304 29.7035 56.6734 29.7035 56.6734M74.4439 56.6734C74.4439 56.6734 79.0939 52.5604 79.8139 48.6054 81.8829 37.2414 67.4889 31.4264 67.4889 31.4264 67.4889 31.4264 75.0489 32.5894 79.3459 33.3164 82.4249 33.8374 85.1149 34.6804 87.2719 35.5284L87.2839 35.4844C87.2839 35.4844 90.5199 36.8244 93.5909 38.3314 96.5759 39.7964 99.5469 42.3104 101.3469 46.0604 103.2199 49.9634 103.7469 54.0104 102.6969 62.2604 101.9669 67.9934 93.9059 105.4014 89.4389 113.3794 84.9709 121.3564 84.5259 120.6964 84.5259 120.6964L84.0549 104.6764C84.0549 104.6764 84.0889 95.4774 84.1069 88.8734L84.0209 82.2934C83.0109 76.4304 74.4439 56.6734 74.4439 56.6734"/>
        <path fill="#1D1C1B" d="M21.9041 43.2713C20.5601 39.9023 15.7261 35.9903 10.5721 38.5283 7.0531 40.2603 5.3361 42.2693 3.4001 44.9953-.0749 49.8893-.4209 62.6353.6081 72.0503 1.1391 82.8743 1.8271 96.5733 2.0521 99.4973 2.4361 104.4793 4.4061 117.0263 4.6371 120.0163 4.7351 121.2873 5.0971 123.6263 5.6821 126.1873 5.6821 126.1873 8.7451 133.3863 15.5151 131.0553 21.4061 129.0273 21.3351 120.7053 21.3351 120.7053L21.3241 119.7323C21.3241 119.7323 19.7061 104.9613 20.3991 93.1383 21.0931 81.3163 24.2741 49.2103 21.9041 43.2713M82.3655 43.2713C83.7095 39.9023 88.5435 35.9903 93.6975 38.5283 97.2165 40.2603 98.9335 42.2693 100.8695 44.9953 104.3445 49.8893 104.6905 62.6353 103.6615 72.0503 103.1305 82.8743 102.4425 96.5733 102.2175 99.4973 101.8335 104.4793 99.8635 117.0263 99.6325 120.0163 99.5345 121.2873 99.1725 123.6263 98.5875 126.1873 98.5875 126.1873 95.5245 133.3863 88.7545 131.0553 82.8635 129.0273 82.9355 120.7053 82.9355 120.7053L82.9455 119.7323C82.9455 119.7323 84.5635 104.9613 83.8705 93.1383 83.1765 81.3163 79.9955 49.2103 82.3655 43.2713"/>
        <path fill="#BA7E71" d="M38.3635,0.8752 C40.7655,1.6672 42.6465,2.1882 44.4055,2.5412 C45.2795,2.7142 46.1095,2.8212 46.9205,2.9312 C47.7265,2.9812 48.5745,3.1002 49.3425,3.0732 C50.8985,3.1032 52.6995,2.7772 54.6375,2.4072 C56.5855,2.0122 58.6405,1.5222 61.0175,1.1122 C60.0625,3.3552 58.4785,5.1362 56.5725,6.5532 C55.6095,7.2552 54.5605,7.8692 53.3915,8.3252 C52.8205,8.5622 52.1955,8.7412 51.5795,8.9092 C50.9315,9.0172 50.3025,9.1912 49.6155,9.2022 C48.2555,9.3112 46.9725,9.1652 45.6875,8.8362 C44.4145,8.4972 43.2235,7.9042 42.1695,7.1702 C41.1215,6.4222 40.2435,5.4742 39.5715,4.4212 C38.9115,3.3632 38.4175,2.1822 38.3635,0.8752"/>
        <path fill="#FEFEFE" d="M38.4065,0.8007 C38.4065,0.8007 44.9595,2.9557 48.5245,2.9017 C52.2005,2.8467 61.0955,1.1697 61.0475,0.9667 C61.0475,0.9667 55.7675,4.7077 48.4685,4.7817 C43.0235,4.8367 38.4065,0.8007 38.4065,0.8007"/>
      </g>
    </g>
  </g>
</svg>
