<svg xmlns="http://www.w3.org/2000/svg" width="113" height="144" viewBox="0 0 113 144" xmlns:xlink="http://www.w3.org/1999/xlink">
  <defs>
    <rect id="a" width="155" height="155"/>
    <polygon id="c" points=".603 .459 73.503 .459 73.503 124.291 .603 124.291 .603 .459"/>
    <polygon id="e" points="119.322 374.037 119.322 .459 0 .459 0 418 119.322 418 119.322 374.037 71.986 374.037 71.986 418 119.322 418 119.322 374.037"/>
    <path id="f" d="M0.6121,1.07921696 C1.58775468,0.876227522 2.65606726,0.656345356 3.291,0.533 C4.18402834,0.359515642 7.12569457,0.614692063 9.1271,0.820798683 L9.1271,19.9715534 L0.6121,19.9715534 L0.6121,1.07921696 L0.6121,1.07921696 Z"/>
    <path id="h" d="M0.5231,0.91159909 L7.101,0.34 L9.0381,0.730314467 L9.0381,13.4062975 C8.55771226,15.772754 8.09471818,18.0600855 7.74189784,19.8165534 L0.5231,19.8165534 L0.5231,0.91159909 L0.5231,0.91159909 Z"/>
    <polygon id="j" points="0 418 119.322 418 119.322 .459 0 .459"/>
  </defs>
  <g fill="none" fill-rule="evenodd" transform="translate(-19 -11)">
    <mask id="b" fill="white">
      <use xlink:href="#a"/>
    </mask>
    <g transform="translate(18 10)" mask="url(#b)">
      <g transform="translate(0 .541)">
        <path fill="#A87D0F" d="M86.2086,71.6511 C86.2086,71.6511 83.1646,85.0901 84.8296,96.7521 C84.9136,97.3391 85.0096,97.9221 85.1186,98.4981 C87.3866,110.5191 90.1346,116.5391 90.1346,116.5391 C90.1346,116.5391 86.4386,110.3671 84.8996,104.1061 C83.3606,97.8461 84.6386,115.2301 88.0406,119.8111 L91.4436,124.3911 C91.4436,124.3911 85.8156,121.6431 83.0676,111.9581 C80.3196,102.2741 79.9266,121.1191 80.4506,122.8201 C80.9736,124.5221 78.8796,111.9581 78.0946,107.3781 C77.3096,102.7981 75.2156,118.2401 74.8226,122.9511 L74.4306,127.6631 C74.4306,127.6631 72.9906,118.6331 74.1686,108.5561 C75.3466,98.4791 79.2726,91.5431 79.2726,91.5431"/>
        <path fill="#9D6810" d="M24.634 62.7763C24.634 62.7763 26.661 69.8213 25.614 79.2443 24.567 88.6663 21.655 92.4923 21.655 92.4923L27.58 89.0563 29.019 86.7013 30.197 89.5803 31.898 89.5803 33.73 83.8223C33.73 83.8223 32.291 79.5033 32.16 78.9793 32.029 78.4563 32.422 78.8493 32.029 77.6713 31.637 76.4933 25.157 62.6453 25.157 62.6453M88.5211 57.6296C88.5211 57.6296 87.6071 73.6986 88.0261 80.2686 88.4451 86.8386 90.7911 93.6056 90.7911 93.6056L87.0381 89.8396 86.0601 89.9796 84.9421 90.2586 81.0281 90.3986 82.1461 78.5176 88.5211 57.6296z"/>
        <path fill="#604103" d="M89.9162,45.2671 L79.4632,101.0911 L36.3872,94.3221 C36.3872,94.3221 30.8492,57.6891 30.8492,56.4951 C30.8492,55.3001 27.4642,48.1331 27.4642,48.1331 L57.0022,54.1061 L89.9162,45.2671 Z"/>
        <path fill="#F2CCB0" d="M30.7353,38.1895 C30.7353,58.9605 36.4253,76.5875 57.3653,75.7985 C76.2863,75.0855 83.0143,61.5005 83.9963,38.1895 C84.9773,14.8785 68.8173,4.7415 57.1023,5.0305 C46.2013,5.3005 30.7353,17.4185 30.7353,38.1895"/>
        <g transform="translate(17)">
          <mask id="d" fill="white">
            <use xlink:href="#c"/>
          </mask>
          <path fill="#A87D0F" d="M37.6138,10.4189 C34.0008,11.3179 19.3258,11.6649 15.1528,34.8899 C11.2388,56.6699 26.2778,72.9609 27.3438,82.7119 C28.4128,92.4999 26.0848,112.7059 22.2508,118.0909 C18.4178,123.4759 22.2508,115.0619 22.8898,108.3309 C23.5288,101.5999 23.5288,106.3119 20.3348,113.3789 C17.1398,120.4469 15.2238,120.4469 15.2238,120.4469 C15.2238,120.4469 19.3758,99.2439 18.4178,93.5219 C17.4598,87.7999 12.2938,108.8179 10.3768,111.8469 C8.4608,114.8759 11.9738,100.4039 12.6128,89.6339 C13.2518,78.8639 7.3878,69.1049 1.6378,51.6029 C-4.1122,34.1019 15.6178,10.0459 23.6328,5.0249 C33.2238,-0.9831 41.8108,0.0529 49.8868,1.8779 C54.3468,2.8849 60.7528,4.6849 70.2848,21.8029 C77.8198,35.3349 69.9488,67.2899 68.5518,76.1239 C67.2738,84.2009 65.6958,98.2339 67.0218,119.6459 C67.4138,125.9649 61.9818,99.5929 59.3068,109.0039 C56.6318,118.4149 58.2088,119.6999 56.4198,123.7609 C53.8758,129.5349 56.5888,86.3769 58.5068,79.0059 C60.9968,69.4369 72.5398,48.8139 62.7258,25.6649 C56.7008,11.4519 46.0888,10.9119 46.0888,10.9119 C46.0888,10.9119 41.2268,9.5199 37.6138,10.4189" mask="url(#d)"/>
        </g>
        <path fill="#F2CCB0" d="M81.6577 43.8264C81.2327 47.8994 81.6027 51.2744 82.4827 51.3664 83.3627 51.4584 84.4207 48.2314 84.8447 44.1584 85.2697 40.0864 84.9007 36.7104 84.0207 36.6184 83.1397 36.5264 82.0827 39.7534 81.6577 43.8264M27.731 44.3166C28.082 48.3966 29.74 51.5846 31.435 51.4396 33.13 51.2936 34.22 47.8686 33.869 43.7886 33.518 39.7086 31.859 36.5206 30.164 36.6656 28.469 36.8116 27.38 40.2366 27.731 44.3166"/>
        <path fill="#865A21" d="M78.1696 32.9C77.0926 32.569 76.0136 32.285 74.9406 32.077 73.8696 31.864 72.8076 31.711 71.7686 31.616 71.2476 31.576 70.7216 31.615 70.2116 31.673 69.7026 31.71 69.2206 31.701 68.7336 31.579 67.7466 31.327 66.7946 31.072 65.4906 30.392L65.4786 30.386C65.3696 30.329 65.3276 30.195 65.3846 30.087 65.3896 30.077 65.3966 30.067 65.4026 30.058 65.8336 29.477 66.3716 29.001 66.9556 28.726 67.5396 28.392 68.1616 28.225 68.7906 28.122 70.0636 27.9 71.2666 28.504 72.3836 28.919 73.5186 29.332 74.5886 29.855 75.5866 30.474 76.5796 31.106 77.5216 31.786 78.3546 32.608 78.4246 32.677 78.4256 32.789 78.3566 32.858 78.3086 32.907 78.2396 32.922 78.1796 32.903L78.1696 32.9zM40.4577 32.7948C41.2767 31.9578 42.2067 31.2628 43.1887 30.6138 44.1767 29.9778 45.2377 29.4358 46.3647 29.0048 47.4757 28.5708 48.6677 27.9458 49.9437 28.1458 50.5757 28.2388 51.1997 28.3948 51.7887 28.7188 52.3777 28.9838 52.9247 29.4498 53.3647 30.0238 53.4387 30.1208 53.4207 30.2598 53.3237 30.3338 53.3147 30.3408 53.3057 30.3468 53.2957 30.3518L53.2827 30.3598C51.9897 31.0618 51.0427 31.3328 50.0597 31.6018 49.5757 31.7318 49.0937 31.7488 48.5837 31.7208 48.0737 31.6718 47.5467 31.6418 47.0257 31.6908 45.9897 31.8028 44.9297 31.9738 43.8627 32.2058 42.7927 32.4318 41.7187 32.7338 40.6477 33.0838L40.6387 33.0868C40.5457 33.1168 40.4467 33.0658 40.4157 32.9728 40.3947 32.9088 40.4137 32.8408 40.4577 32.7948"/>
        <path fill="#FEFEFE" d="M68.6867,41.8276 C68.4627,40.5116 69.9697,39.3316 72.0587,39.1896 C74.1427,39.0446 76.0107,39.9936 76.2407,41.3096 C76.4687,42.6216 74.9617,43.7966 72.8807,43.9386 C70.7907,44.0836 68.9147,43.1386 68.6867,41.8276"/>
        <path fill="#8FC2EA" d="M70.8165,41.6913 C70.7205,40.7943 71.3665,39.9903 72.2615,39.8933 C73.1545,39.7953 73.9555,40.4413 74.0535,41.3383 C74.1515,42.2323 73.5055,43.0333 72.6135,43.1303 C71.7185,43.2283 70.9145,42.5843 70.8165,41.6913"/>
        <path fill="#FEFEFE" d="M70.9301 40.8205C70.9301 41.1785 71.2201 41.4695 71.5791 41.4695 71.9371 41.4695 72.2271 41.1785 72.2271 40.8205 72.2271 40.4625 71.9371 40.1715 71.5791 40.1715 71.2201 40.1715 70.9301 40.4625 70.9301 40.8205M43.7182 41.8276C43.4942 40.5116 45.0012 39.3316 47.0902 39.1896 49.1742 39.0446 51.0422 39.9936 51.2722 41.3096 51.5002 42.6216 49.9932 43.7966 47.9122 43.9386 45.8222 44.0836 43.9462 43.1386 43.7182 41.8276"/>
        <path fill="#8FC2EA" d="M45.8479,41.6913 C45.7519,40.7943 46.3979,39.9903 47.2929,39.8933 C48.1859,39.7953 48.9869,40.4413 49.0849,41.3383 C49.1829,42.2323 48.5369,43.0333 47.6449,43.1303 C46.7499,43.2283 45.9459,42.5843 45.8479,41.6913"/>
        <path fill="#FEFEFE" d="M45.9615,40.8205 C45.9615,41.1785 46.2515,41.4695 46.6105,41.4695 C46.9685,41.4695 47.2585,41.1785 47.2585,40.8205 C47.2585,40.4625 46.9685,40.1715 46.6105,40.1715 C46.2515,40.1715 45.9615,40.4625 45.9615,40.8205"/>
        <path fill="#F2CCB0" d="M15.6866,106.8293 C15.6866,106.8293 20.1316,119.5443 18.5476,134.1943 C16.9566,148.8463 17.2636,153.3373 17.9816,161.4823 C19.3946,177.4883 20.7146,179.4013 20.7146,179.4013 L6.9306,181.8093 C6.9306,181.8093 1.5196,170.9093 4.9866,157.8443 C6.6466,151.5793 5.4286,123.9093 7.1936,116.7453 C8.9726,109.5833 7.7536,110.5153 14.3856,106.3973"/>
        <path fill="#2D2D2B" d="M79.9796 106.6554L93.4806 125.0654C93.4806 125.0654 105.0006 125.8764 109.3116 123.7344L106.4736 112.3834C106.4736 112.3834 103.0916 92.4974 95.1216 88.4194 86.7706 84.1454 66.9076 83.5654 60.9846 82.9734 53.3126 82.2064 79.9796 104.7634 79.9796 104.7634L79.9796 106.6554zM37.6845 106.6554L24.1835 125.0654C24.1835 125.0654 9.6535 124.5554 5.3425 122.4144L5.5265 119.7004C5.5265 119.7004 10.3275 93.0834 18.2985 89.0054 26.6495 84.7314 44.8125 83.7334 50.7355 83.1404 58.4075 82.3734 37.6845 104.7634 37.6845 104.7634L37.6845 106.6554z"/>
        <path fill="#2D2D2B" d="M20.332,290.9664 C20.332,290.9664 25.423,299.1594 41.289,298.5784 C57.147,298.0064 76.983,294.3994 85.015,294.5544 C93.026,294.7104 100.379,291.4864 100.379,291.4864 C112.334,211.9584 84.386,171.2804 85.613,160.3874 C86.694,150.7924 97.014,149.5914 98.202,127.3524 C98.401,123.6334 99.53,90.7654 94.426,89.1774 C89.307,87.6004 74.824,86.8404 68.915,84.6594 C63.003,82.4674 47.483,83.6604 47.483,83.6604 C47.483,83.6604 37.144,84.7704 26.667,91.3384 C18.551,96.4254 20.484,95.9984 19.511,100.0474 C18.52,104.0894 22,104.7094 19.327,122.4504 C14.743,152.8754 29.56,144.0724 29.56,161.7304 C29.56,179.4644 8.897,203.6424 20.332,290.9664"/>
        <path fill="#F3CDB0" d="M56.6766,133.5342 C56.6766,133.5342 51.7066,126.1312 47.7196,117.1912 C41.6286,103.5342 35.4066,86.1552 39.1526,85.3442 C40.9046,84.9652 38.5226,85.3892 45.5526,83.8812 C49.2856,83.0802 50.4356,83.6912 50.6026,81.5132 C50.6846,80.4342 50.1656,72.6772 50.2566,69.1342 L61.5586,69.2442 C59.8456,76.9522 60.9846,82.9732 60.9846,82.9732 C60.9846,82.9732 67.3146,84.0342 70.7636,85.0292 C73.4806,85.8132 69.3446,103.0502 64.7246,116.7552 C61.6116,125.9912 56.6766,133.5342 56.6766,133.5342"/>
        <path fill="#2D2D2B" d="M6.986 112.6134C6.986 112.6134 2.797 136.1194 1.904 140.9764 1.01 145.8334 1.133 158.0564.597 160.9714.061 163.8854-.577 172.8064.975 177.1094 2.526 181.4114 5.075 187.5714 5.075 187.5714L22.014 184.6634C22.014 184.6634 18.761 172.5064 18.501 167.0334 18.196 160.5924 18.018 139.0694 18.715 129.8244 19.412 120.5794 19.676 120.9624 19.676 120.9624L6.986 112.6134zM90.9652 183.9447L108.0262 188.4677C108.0262 188.4677 114.3872 172.5137 114.3272 165.9657 114.2662 159.4167 114.1562 147.9137 113.0952 141.0777 110.2822 122.9527 108.4132 117.6687 104.8962 105.7617 101.3802 93.8547 93.8472 106.0297 93.8472 106.0297L89.7612 128.4647 95.3532 163.4367 90.9652 183.9447z"/>
        <path fill="#2D2D2B" d="M16.7589,122.6432 C16.2439,131.0292 15.2869,146.2842 14.7429,152.8752 C13.9739,162.2022 17.7099,167.6232 17.7099,167.6232 L21.0329,152.1392 C21.0329,152.1392 24.0489,135.4012 24.8079,131.2802 C25.0619,129.8982 26.7389,126.7352 28.8529,123.1422 L16.7589,122.6432 Z"/>
      </g>
      <g transform="translate(44 83.541)">
        <mask id="g" fill="white">
          <use xlink:href="#f"/>
        </mask>
        <path stroke="#E3E3E3" stroke-width=".662" d="M0.6121,0.2707 C0.6121,0.2707 0.7641,11.5107 4.7631,15.9167 C8.8201,20.3857 9.1271,19.9607 9.1271,19.9607" mask="url(#g)"/>
        <g transform="translate(12)">
          <mask id="i" fill="white">
            <use xlink:href="#h"/>
          </mask>
          <path stroke="#E3E3E3" stroke-width=".662" d="M9.0381,0.1157 C9.0381,0.1157 8.8861,11.3557 4.8871,15.7617 C0.8301,20.2307 0.5231,19.8057 0.5231,19.8057" mask="url(#i)"/>
        </g>
      </g>
      <g transform="translate(0 .541)">
        <path fill="#1D1C1B" d="M56.6766 133.5342C56.6766 133.5342 58.7816 138.3182 66.1916 148.1722 73.2526 157.5622 73.3646 157.4742 73.3646 157.4742L57.2686 132.5662 56.6766 133.5342zM52.0806 142.1811C53.4636 143.2191 54.6326 144.3721 55.7556 145.5491 56.8696 146.7301 57.9146 147.9471 58.9246 149.1711 59.9426 150.3901 60.8976 151.6281 61.9096 152.7871 62.9906 154.0241 64.0146 155.3261 64.8506 156.8431 63.2366 156.2161 61.8096 155.3741 60.4406 154.4661 58.9976 153.4811 57.7996 152.2581 56.7366 150.9771 55.6756 149.6871 54.7516 148.3081 53.9546 146.8531 53.1686 145.3921 52.4826 143.8661 52.0806 142.1811M38.7624 144.218C40.0714 145.657 41.3744 147.022 42.7064 148.354 44.0474 149.672 45.3864 150.977 46.8144 152.181 48.2144 153.416 49.6654 154.594 51.1664 155.723 52.6524 156.884 54.2234 157.922 55.7804 159.109 53.8954 158.639 52.0574 157.928 50.3634 156.962 49.4854 156.524 48.6944 155.951 47.8734 155.419 47.0874 154.84 46.3074 154.247 45.5704 153.605 44.1014 152.315 42.7534 150.886 41.5934 149.315 40.4294 147.755 39.4044 146.068 38.7624 144.218M27.8226 108.4277C28.8336 109.9517 29.8176 111.4107 30.9266 112.7837 31.4646 113.4817 32.0476 114.1407 32.6466 114.7917 33.2386 115.4547 33.8916 116.0517 34.5306 116.7187 33.6866 116.3637 32.8776 115.8937 32.1716 115.3027 31.4466 114.7297 30.8026 114.0597 30.2276 113.3397 29.6606 112.6137 29.1466 111.8447 28.7396 111.0187 28.3286 110.1987 27.9896 109.3347 27.8226 108.4277"/>
        <path fill="#1D1C1B" d="M27.9759 109.2929C28.5059 111.0439 29.0279 112.7239 29.6939 114.3579 30.0089 115.1819 30.3769 115.9809 30.7629 116.7759 31.1389 117.5819 31.5919 118.3419 32.0119 119.1649 31.3069 118.5809 30.6669 117.8989 30.1609 117.1289 29.6319 116.3719 29.2079 115.5449 28.8639 114.6899 28.5309 113.8299 28.2599 112.9459 28.1079 112.0379 27.9499 111.1349 27.8749 110.2099 27.9759 109.2929M28.9473 119.0558C28.4123 118.3138 27.9653 117.4918 27.6683 116.6198 27.3463 115.7538 27.1443 114.8478 27.0253 113.9338 26.9163 113.0178 26.8773 112.0938 26.9583 111.1768 27.0323 110.2628 27.1923 109.3488 27.5213 108.4868 27.5963 110.3148 27.6793 112.0718 27.9113 113.8208 28.0083 114.6968 28.1633 115.5638 28.3373 116.4308 28.4983 117.3048 28.7463 118.1538 28.9473 119.0558"/>
        <mask id="k" fill="white">
          <use xlink:href="#j"/>
        </mask>
        <polygon fill="#FEFEFE" points="86.82 137.622 86.531 137.784 83.526 132.439 83.814 132.278" mask="url(#k)"/>
        <polygon fill="#FEFEFE" points="86.052 134.571 87.682 133.136 87.464 132.888 85.722 134.422 86.652 132.296 86.35 132.163 85.42 134.289 85.364 131.969 85.034 131.977 85.093 134.426 83.817 132.335 83.535 132.507 84.743 134.488 82.811 133.203 82.629 133.477 84.562 134.763 82.266 134.415 82.216 134.742 84.511 135.09 82.285 135.744 82.378 136.06 84.527 135.429" mask="url(#k)"/>
        <path fill="#FEFEFE" d="M82.3162,135.4451 C82.6072,135.9621 82.4232,136.6161 81.9062,136.9071 C81.3902,137.1981 80.7352,137.0141 80.4442,136.4981 C80.1542,135.9811 80.3372,135.3261 80.8542,135.0351 C81.3712,134.7451 82.0252,134.9281 82.3162,135.4451" mask="url(#k)"/>
        <path fill="#FEFEFE" d="M82.3287,133.8315 C82.6197,134.3485 82.4357,135.0025 81.9187,135.2935 C81.4027,135.5845 80.7477,135.4005 80.4567,134.8845 C80.1667,134.3675 80.3497,133.7125 80.8667,133.4215 C81.3837,133.1315 82.0377,133.3145 82.3287,133.8315" mask="url(#k)"/>
        <path fill="#FEFEFE" d="M82.8671,132.4338 C83.1581,132.9508 82.9741,133.6048 82.4571,133.8958 C81.9411,134.1868 81.2861,134.0028 80.9951,133.4868 C80.7051,132.9698 80.8881,132.3148 81.4051,132.0238 C81.9221,131.7338 82.5761,131.9168 82.8671,132.4338" mask="url(#k)"/>
        <path fill="#FEFEFE" d="M84.1344,131.2264 C84.4254,131.7434 84.2414,132.3974 83.7244,132.6884 C83.2084,132.9794 82.5534,132.7954 82.2624,132.2784 C81.9724,131.7624 82.1554,131.1074 82.6724,130.8164 C83.1894,130.5264 83.8434,130.7094 84.1344,131.2264" mask="url(#k)"/>
        <path fill="#FEFEFE" d="M86.0324,130.6538 C86.3234,131.1708 86.1394,131.8248 85.6224,132.1158 C85.1064,132.4068 84.4514,132.2228 84.1604,131.7058 C83.8704,131.1898 84.0534,130.5348 84.5704,130.2438 C85.0874,129.9538 85.7414,130.1368 86.0324,130.6538" mask="url(#k)"/>
        <path fill="#FEFEFE" d="M87.7319,130.9215 C88.0229,131.4385 87.8389,132.0925 87.3219,132.3835 C86.8059,132.6745 86.1509,132.4905 85.8599,131.9745 C85.5699,131.4575 85.7529,130.8025 86.2699,130.5115 C86.7869,130.2215 87.4409,130.4045 87.7319,130.9215" mask="url(#k)"/>
        <path fill="#FEFEFE" d="M89.1209,131.8755 C89.4119,132.3925 89.2279,133.0465 88.7109,133.3375 C88.1949,133.6285 87.5399,133.4445 87.2489,132.9285 C86.9589,132.4115 87.1419,131.7565 87.6589,131.4655 C88.1759,131.1755 88.8299,131.3585 89.1209,131.8755" mask="url(#k)"/>
        <polygon fill="#FEFEFE" points="77.112 134.202 76.782 134.221 76.438 128.099 76.767 128.08" mask="url(#k)"/>
        <polygon fill="#FEFEFE" points="77.766 131.125 79.861 130.554 79.775 130.236 77.535 130.845 79.307 129.345 79.093 129.094 77.322 130.593 78.294 128.486 77.994 128.347 76.968 130.572 76.744 128.132 76.415 128.162 76.628 130.474 75.459 128.469 75.174 128.635 76.343 130.641 74.436 129.317 74.247 129.589 76.154 130.911 73.867 130.518 73.812 130.844 76.019 131.224" mask="url(#k)"/>
        <path fill="#FEFEFE" d="M74.0275,130.2646 C74.0605,130.8566 73.6085,131.3636 73.0165,131.3966 C72.4245,131.4306 71.9175,130.9776 71.8835,130.3856 C71.8505,129.7936 72.3035,129.2866 72.8955,129.2536 C73.4875,129.2196 73.9945,129.6726 74.0275,130.2646" mask="url(#k)"/>
        <path fill="#FEFEFE" d="M74.7491,128.8213 C74.7821,129.4133 74.3301,129.9203 73.7381,129.9533 C73.1461,129.9873 72.6391,129.5343 72.6051,128.9423 C72.5721,128.3503 73.0251,127.8433 73.6171,127.8103 C74.2091,127.7763 74.7161,128.2293 74.7491,128.8213" mask="url(#k)"/>
        <path fill="#FEFEFE" d="M75.8479,127.8034 C75.8809,128.3954 75.4289,128.9024 74.8369,128.9354 C74.2449,128.9694 73.7379,128.5164 73.7039,127.9244 C73.6709,127.3324 74.1239,126.8254 74.7159,126.7924 C75.3079,126.7584 75.8149,127.2114 75.8479,127.8034" mask="url(#k)"/>
        <path fill="#FEFEFE" d="M77.5174,127.2773 C77.5504,127.8693 77.0984,128.3763 76.5064,128.4093 C75.9144,128.4433 75.4074,127.9903 75.3734,127.3983 C75.3404,126.8063 75.7934,126.2993 76.3854,126.2663 C76.9774,126.2323 77.4844,126.6853 77.5174,127.2773" mask="url(#k)"/>
        <path fill="#FEFEFE" d="M79.4737,127.5988 C79.5067,128.1908 79.0547,128.6978 78.4627,128.7308 C77.8707,128.7648 77.3637,128.3118 77.3297,127.7198 C77.2967,127.1278 77.7497,126.6208 78.3417,126.5878 C78.9337,126.5538 79.4407,127.0068 79.4737,127.5988" mask="url(#k)"/>
        <path fill="#FEFEFE" d="M80.8817,128.5875 C80.9147,129.1795 80.4627,129.6865 79.8707,129.7195 C79.2787,129.7535 78.7717,129.3005 78.7377,128.7085 C78.7047,128.1165 79.1577,127.6095 79.7497,127.5765 C80.3417,127.5425 80.8487,127.9955 80.8817,128.5875" mask="url(#k)"/>
        <path fill="#FEFEFE" d="M81.7088,130.0556 C81.7418,130.6476 81.2898,131.1546 80.6978,131.1876 C80.1058,131.2216 79.5988,130.7686 79.5648,130.1766 C79.5318,129.5846 79.9848,129.0776 80.5768,129.0446 C81.1688,129.0106 81.6758,129.4636 81.7088,130.0556" mask="url(#k)"/>
        <polygon fill="#FEFEFE" points="80.435 124.423 80.466 124.094 86.571 124.661 86.54 124.989" mask="url(#k)"/>
        <polygon fill="#FEFEFE" points="83.381 125.526 83.635 127.683 83.963 127.645 83.691 125.339 84.911 127.314 85.192 127.14 83.973 125.166 85.912 126.439 86.094 126.163 84.046 124.819 86.491 124.959 86.51 124.63 84.194 124.497 86.349 123.638 86.227 123.332 84.07 124.191 85.662 122.501 85.422 122.274 83.83 123.964 84.558 121.76 84.245 121.657 83.543 123.784" mask="url(#k)"/>
        <path fill="#FEFEFE" d="M84.7857,121.9562 C84.1957,121.9012 83.7607,121.3782 83.8157,120.7882 C83.8707,120.1972 84.3937,119.7632 84.9837,119.8182 C85.5747,119.8732 86.0087,120.3962 85.9537,120.9862 C85.8987,121.5772 85.3757,122.0112 84.7857,121.9562" mask="url(#k)"/>
        <path fill="#FEFEFE" d="M86.1059,122.8839 C85.5159,122.8289 85.0809,122.3059 85.1359,121.7159 C85.1909,121.1249 85.7139,120.6909 86.3039,120.7459 C86.8949,120.8009 87.3289,121.3239 87.2739,121.9139 C87.2189,122.5049 86.6959,122.9389 86.1059,122.8839" mask="url(#k)"/>
        <path fill="#FEFEFE" d="M86.9495,124.1216 C86.3595,124.0666 85.9245,123.5436 85.9795,122.9536 C86.0345,122.3626 86.5575,121.9286 87.1475,121.9836 C87.7385,122.0386 88.1725,122.5616 88.1175,123.1516 C88.0625,123.7426 87.5395,124.1766 86.9495,124.1216" mask="url(#k)"/>
        <path fill="#FEFEFE" d="M87.2222,125.8506 C86.6322,125.7956 86.1972,125.2726 86.2522,124.6826 C86.3072,124.0916 86.8302,123.6576 87.4202,123.7126 C88.0112,123.7676 88.4452,124.2906 88.3902,124.8806 C88.3352,125.4716 87.8122,125.9056 87.2222,125.8506" mask="url(#k)"/>
        <path fill="#FEFEFE" d="M86.614,127.7375 C86.024,127.6825 85.589,127.1595 85.644,126.5695 C85.699,125.9785 86.222,125.5445 86.812,125.5995 C87.403,125.6545 87.837,126.1775 87.782,126.7675 C87.727,127.3585 87.204,127.7925 86.614,127.7375" mask="url(#k)"/>
        <path fill="#FEFEFE" d="M85.4275,128.9833 C84.8375,128.9283 84.4025,128.4053 84.4575,127.8153 C84.5125,127.2243 85.0355,126.7903 85.6255,126.8453 C86.2165,126.9003 86.6505,127.4233 86.5955,128.0133 C86.5405,128.6043 86.0175,129.0383 85.4275,128.9833" mask="url(#k)"/>
        <path fill="#FEFEFE" d="M83.8529 129.5835C83.2629 129.5285 82.8279 129.0055 82.8829 128.4155 82.9379 127.8245 83.4609 127.3905 84.0509 127.4455 84.6419 127.5005 85.0759 128.0235 85.0209 128.6135 84.9659 129.2045 84.4429 129.6385 83.8529 129.5835M50.1484 144.0573C50.6184 144.2073 50.8774 144.7093 50.7274 145.1783 50.5784 145.6483 50.0764 145.9073 49.6064 145.7583 49.1364 145.6083 48.8774 145.1063 49.0274 144.6363 49.1764 144.1673 49.6784 143.9073 50.1484 144.0573" mask="url(#k)"/>
        <path fill="#FEFEFE" d="M51.3338,143.257 C51.8038,143.407 52.0628,143.909 51.9128,144.378 C51.7638,144.848 51.2618,145.107 50.7918,144.958 C50.3218,144.808 50.0628,144.306 50.2128,143.836 C50.3618,143.367 50.8638,143.107 51.3338,143.257" mask="url(#k)"/>
        <path fill="#FEFEFE" d="M52.7192,143.0501 C53.1892,143.2001 53.4482,143.7021 53.2982,144.1711 C53.1492,144.6411 52.6472,144.9001 52.1772,144.7511 C51.7072,144.6011 51.4482,144.0991 51.5982,143.6291 C51.7472,143.1601 52.2492,142.9001 52.7192,143.0501" mask="url(#k)"/>
        <polygon fill="#FEFEFE" points="43.213 143.44 43.045 143.223 47.08 140.108 47.247 140.325" mask="url(#k)"/>
        <polygon fill="#FEFEFE" points="45.63 142.441 47.007 143.609 47.184 143.4 45.713 142.152 47.574 142.661 47.646 142.396 45.786 141.887 47.687 141.562 47.641 141.291 45.633 141.634 47.2 140.334 47.025 140.123 45.541 141.355 46.366 139.611 46.118 139.493 45.293 141.238 45.303 139.309 45.028 139.307 45.018 141.236 44.212 139.484 43.963 139.598 44.741 141.29" mask="url(#k)"/>
        <path fill="#FEFEFE" d="M44.4613,139.4739 C44.0713,139.7749 43.5103,139.7029 43.2093,139.3129 C42.9083,138.9229 42.9803,138.3619 43.3703,138.0609 C43.7603,137.7599 44.3213,137.8319 44.6223,138.2219 C44.9233,138.6119 44.8513,139.1729 44.4613,139.4739" mask="url(#k)"/>
        <path fill="#FEFEFE" d="M45.7901,139.2899 C45.4001,139.5909 44.8391,139.5189 44.5381,139.1289 C44.2371,138.7389 44.3091,138.1779 44.6991,137.8769 C45.0891,137.5759 45.6501,137.6479 45.9511,138.0379 C46.2521,138.4279 46.1801,138.9889 45.7901,139.2899" mask="url(#k)"/>
        <path fill="#FEFEFE" d="M47.0045,139.5646 C46.6145,139.8656 46.0535,139.7936 45.7525,139.4036 C45.4515,139.0136 45.5235,138.4526 45.9135,138.1516 C46.3035,137.8506 46.8645,137.9226 47.1655,138.3126 C47.4665,138.7026 47.3945,139.2636 47.0045,139.5646" mask="url(#k)"/>
        <path fill="#FEFEFE" d="M48.1501,140.4617 C47.7601,140.7627 47.1991,140.6907 46.8981,140.3007 C46.5971,139.9107 46.6691,139.3497 47.0591,139.0487 C47.4491,138.7477 48.0101,138.8197 48.3111,139.2097 C48.6121,139.5997 48.5401,140.1607 48.1501,140.4617" mask="url(#k)"/>
        <path fill="#FEFEFE" d="M48.8496,141.954 C48.4596,142.255 47.8986,142.183 47.5976,141.793 C47.2966,141.403 47.3686,140.842 47.7586,140.541 C48.1486,140.24 48.7096,140.312 49.0106,140.702 C49.3116,141.092 49.2396,141.653 48.8496,141.954" mask="url(#k)"/>
        <path fill="#FEFEFE" d="M48.8339,143.3841 C48.4439,143.6851 47.8829,143.6131 47.5819,143.2231 C47.2809,142.8331 47.3529,142.2721 47.7429,141.9711 C48.1329,141.6701 48.6939,141.7421 48.9949,142.1321 C49.2959,142.5221 49.2239,143.0831 48.8339,143.3841" mask="url(#k)"/>
        <path fill="#FEFEFE" d="M48.2163,144.6414 C47.8263,144.9424 47.2653,144.8704 46.9643,144.4804 C46.6633,144.0904 46.7353,143.5294 47.1253,143.2284 C47.5153,142.9274 48.0763,142.9994 48.3773,143.3894 C48.6783,143.7794 48.6063,144.3404 48.2163,144.6414" mask="url(#k)"/>
        <polygon fill="#FEFEFE" points="29.22 132.302 29.137 132.563 24.28 131.016 24.363 130.755" mask="url(#k)"/>
        <polygon fill="#FEFEFE" points="27.024 130.882 27.202 129.085 26.929 129.058 26.739 130.978 26.1 129.158 25.841 129.249 26.48 131.069 25.131 129.69 24.935 129.882 26.358 131.338 24.398 130.788 24.324 131.053 26.181 131.573 24.278 131.886 24.322 132.157 26.227 131.843 24.633 132.932 24.788 133.159 26.381 132.071 25.397 133.73 25.633 133.87 26.582 132.268" mask="url(#k)"/>
        <path fill="#FEFEFE" d="M25.2475,133.5302 C25.7175,133.6802 25.9765,134.1822 25.8265,134.6512 C25.6775,135.1212 25.1755,135.3802 24.7055,135.2312 C24.2355,135.0812 23.9765,134.5792 24.1265,134.1092 C24.2755,133.6402 24.7775,133.3802 25.2475,133.5302" mask="url(#k)"/>
        <path fill="#FEFEFE" d="M24.3407,132.5417 C24.8107,132.6917 25.0697,133.1937 24.9197,133.6627 C24.7707,134.1327 24.2687,134.3917 23.7987,134.2427 C23.3287,134.0927 23.0697,133.5907 23.2197,133.1207 C23.3687,132.6517 23.8707,132.3917 24.3407,132.5417" mask="url(#k)"/>
        <path fill="#FEFEFE" d="M23.8761,131.3865 C24.3461,131.5365 24.6051,132.0385 24.4551,132.5075 C24.3061,132.9775 23.8041,133.2365 23.3341,133.0875 C22.8641,132.9375 22.6051,132.4355 22.7551,131.9655 C22.9041,131.4965 23.4061,131.2365 23.8761,131.3865" mask="url(#k)"/>
        <path fill="#FEFEFE" d="M23.9626,129.934 C24.4326,130.084 24.6916,130.586 24.5416,131.055 C24.3926,131.525 23.8906,131.784 23.4206,131.635 C22.9506,131.485 22.6916,130.983 22.8416,130.513 C22.9906,130.044 23.4926,129.784 23.9626,129.934" mask="url(#k)"/>
        <path fill="#FEFEFE" d="M24.7925,128.5101 C25.2625,128.6601 25.5215,129.1621 25.3715,129.6311 C25.2225,130.1011 24.7205,130.3601 24.2505,130.2111 C23.7805,130.0611 23.5215,129.5591 23.6715,129.0891 C23.8205,128.6201 24.3225,128.3601 24.7925,128.5101" mask="url(#k)"/>
        <path fill="#FEFEFE" d="M25.9779,127.7099 C26.4479,127.8599 26.7069,128.3619 26.5569,128.8309 C26.4079,129.3009 25.9059,129.5599 25.4359,129.4109 C24.9659,129.2609 24.7069,128.7589 24.8569,128.2889 C25.0059,127.8199 25.5079,127.5599 25.9779,127.7099" mask="url(#k)"/>
        <path fill="#FEFEFE" d="M27.3633,127.503 C27.8333,127.653 28.0923,128.155 27.9423,128.624 C27.7933,129.094 27.2913,129.353 26.8213,129.204 C26.3513,129.054 26.0923,128.552 26.2423,128.082 C26.3913,127.613 26.8933,127.353 27.3633,127.503" mask="url(#k)"/>
        <polygon fill="#FEFEFE" points="21.378 135.723 21.188 135.921 17.509 132.394 17.699 132.195" mask="url(#k)"/>
        <polygon fill="#FEFEFE" points="20.032 133.481 20.983 131.946 20.75 131.802 19.734 133.442 19.961 131.526 19.689 131.494 19.461 133.409 18.858 131.577 18.597 131.663 19.234 133.597 17.715 132.241 17.532 132.445 18.971 133.73 17.124 133.173 17.045 133.436 18.893 133.993 16.983 134.269 17.022 134.541 18.931 134.265 17.318 135.322 17.468 135.551 19.025 134.531" mask="url(#k)"/>
        <path fill="#FEFEFE" d="M17.2705,135.0764 C17.6265,135.4174 17.6385,135.9824 17.2975,136.3384 C16.9555,136.6944 16.3905,136.7064 16.0355,136.3644 C15.6795,136.0234 15.6675,135.4584 16.0085,135.1034 C16.3495,134.7474 16.9145,134.7354 17.2705,135.0764" mask="url(#k)"/>
        <path fill="#FEFEFE" d="M16.8916,133.7897 C17.2476,134.1307 17.2596,134.6957 16.9186,135.0517 C16.5766,135.4077 16.0116,135.4197 15.6566,135.0777 C15.3006,134.7367 15.2886,134.1717 15.6296,133.8167 C15.9706,133.4607 16.5356,133.4487 16.8916,133.7897" mask="url(#k)"/>
        <path fill="#FEFEFE" d="M16.983,132.5479 C17.339,132.8889 17.351,133.4539 17.01,133.8099 C16.668,134.1659 16.103,134.1779 15.748,133.8359 C15.392,133.4949 15.38,132.9299 15.721,132.5749 C16.062,132.2189 16.627,132.2069 16.983,132.5479" mask="url(#k)"/>
        <path fill="#FEFEFE" d="M17.7003,131.2819 C18.0563,131.6229 18.0683,132.1879 17.7273,132.5439 C17.3853,132.8999 16.8203,132.9119 16.4653,132.5699 C16.1093,132.2289 16.0973,131.6639 16.4383,131.3089 C16.7793,130.9529 17.3443,130.9409 17.7003,131.2819" mask="url(#k)"/>
        <path fill="#FEFEFE" d="M19.0723,130.3689 C19.4283,130.7099 19.4403,131.2749 19.0993,131.6309 C18.7573,131.9869 18.1923,131.9989 17.8373,131.6569 C17.4813,131.3159 17.4693,130.7509 17.8103,130.3959 C18.1513,130.0399 18.7163,130.0279 19.0723,130.3689" mask="url(#k)"/>
        <path fill="#FEFEFE" d="M20.4889,130.1722 C20.8449,130.5132 20.8569,131.0782 20.5159,131.4342 C20.1739,131.7902 19.6089,131.8022 19.2539,131.4602 C18.8979,131.1192 18.8859,130.5542 19.2269,130.1992 C19.5679,129.8432 20.1329,129.8312 20.4889,130.1722" mask="url(#k)"/>
        <path fill="#FEFEFE" d="M21.8239,130.5965 C22.1799,130.9375 22.1919,131.5025 21.8509,131.8585 C21.5089,132.2145 20.9439,132.2265 20.5889,131.8845 C20.2329,131.5435 20.2209,130.9785 20.5619,130.6235 C20.9029,130.2675 21.4679,130.2555 21.8239,130.5965" mask="url(#k)"/>
        <polygon fill="#FEFEFE" points="17.857 127.893 17.689 127.676 21.724 124.561 21.891 124.778" mask="url(#k)"/>
        <polygon fill="#FEFEFE" points="20.274 126.894 21.651 128.062 21.828 127.853 20.357 126.605 22.218 127.114 22.29 126.849 20.43 126.34 22.331 126.015 22.285 125.744 20.277 126.087 21.844 124.787 21.669 124.576 20.185 125.808 21.01 124.064 20.762 123.946 19.937 125.691 19.947 123.762 19.672 123.76 19.662 125.689 18.856 123.937 18.607 124.051 19.385 125.743" mask="url(#k)"/>
        <path fill="#FEFEFE" d="M19.1054,123.9267 C18.7154,124.2277 18.1544,124.1557 17.8534,123.7657 C17.5524,123.3757 17.6244,122.8147 18.0144,122.5137 C18.4044,122.2127 18.9654,122.2847 19.2664,122.6747 C19.5674,123.0647 19.4954,123.6257 19.1054,123.9267" mask="url(#k)"/>
        <path fill="#FEFEFE" d="M20.4342,123.7428 C20.0442,124.0438 19.4832,123.9718 19.1822,123.5818 C18.8812,123.1918 18.9532,122.6308 19.3432,122.3298 C19.7332,122.0288 20.2942,122.1008 20.5952,122.4908 C20.8962,122.8808 20.8242,123.4418 20.4342,123.7428" mask="url(#k)"/>
        <path fill="#FEFEFE" d="M21.6486,124.0175 C21.2586,124.3185 20.6976,124.2465 20.3966,123.8565 C20.0956,123.4665 20.1676,122.9055 20.5576,122.6045 C20.9476,122.3035 21.5086,122.3755 21.8096,122.7655 C22.1106,123.1555 22.0386,123.7165 21.6486,124.0175" mask="url(#k)"/>
        <path fill="#FEFEFE" d="M22.7942,124.9145 C22.4042,125.2155 21.8432,125.1435 21.5422,124.7535 C21.2412,124.3635 21.3132,123.8025 21.7032,123.5015 C22.0932,123.2005 22.6542,123.2725 22.9552,123.6625 C23.2562,124.0525 23.1842,124.6135 22.7942,124.9145" mask="url(#k)"/>
        <path fill="#FEFEFE" d="M23.4937,126.4068 C23.1037,126.7078 22.5427,126.6358 22.2417,126.2458 C21.9407,125.8558 22.0127,125.2948 22.4027,124.9938 C22.7927,124.6928 23.3537,124.7648 23.6547,125.1548 C23.9557,125.5448 23.8837,126.1058 23.4937,126.4068" mask="url(#k)"/>
        <path fill="#FEFEFE" d="M23.478,127.8369 C23.088,128.1379 22.527,128.0659 22.226,127.6759 C21.925,127.2859 21.997,126.7249 22.387,126.4239 C22.777,126.1229 23.338,126.1949 23.639,126.5849 C23.94,126.9749 23.868,127.5359 23.478,127.8369" mask="url(#k)"/>
        <path fill="#FEFEFE" d="M22.8604,129.0942 C22.4704,129.3952 21.9094,129.3232 21.6084,128.9332 C21.3074,128.5432 21.3794,127.9822 21.7694,127.6812 C22.1594,127.3802 22.7204,127.4522 23.0214,127.8422 C23.3224,128.2322 23.2504,128.7932 22.8604,129.0942" mask="url(#k)"/>
        <polygon fill="#FEFEFE" points="90.017 101.075 89.934 101.336 85.077 99.789 85.16 99.528" mask="url(#k)"/>
        <polygon fill="#FEFEFE" points="87.821 99.654 87.999 97.857 87.726 97.83 87.536 99.75 86.897 97.93 86.638 98.021 87.277 99.841 85.928 98.462 85.732 98.654 87.155 100.11 85.195 99.56 85.121 99.825 86.978 100.345 85.075 100.658 85.119 100.929 87.024 100.615 85.43 101.704 85.585 101.931 87.178 100.843 86.195 102.502 86.43 102.642 87.379 101.04" mask="url(#k)"/>
        <path fill="#FEFEFE" d="M86.0443,102.3028 C86.5143,102.4528 86.7733,102.9548 86.6233,103.4238 C86.4743,103.8938 85.9723,104.1528 85.5023,104.0038 C85.0323,103.8538 84.7733,103.3518 84.9233,102.8818 C85.0723,102.4128 85.5743,102.1528 86.0443,102.3028" mask="url(#k)"/>
        <path fill="#FEFEFE" d="M85.1374,101.3143 C85.6074,101.4643 85.8664,101.9663 85.7164,102.4353 C85.5674,102.9053 85.0654,103.1643 84.5954,103.0153 C84.1254,102.8653 83.8664,102.3633 84.0164,101.8933 C84.1654,101.4243 84.6674,101.1643 85.1374,101.3143" mask="url(#k)"/>
        <path fill="#FEFEFE" d="M84.6729,100.1591 C85.1429,100.3091 85.4019,100.8111 85.2519,101.2801 C85.1029,101.7501 84.6009,102.0091 84.1309,101.8601 C83.6609,101.7101 83.4019,101.2081 83.5519,100.7381 C83.7009,100.2691 84.2029,100.0091 84.6729,100.1591" mask="url(#k)"/>
        <path fill="#FEFEFE" d="M84.7594,98.7066 C85.2294,98.8566 85.4884,99.3586 85.3384,99.8276 C85.1894,100.2976 84.6874,100.5566 84.2174,100.4076 C83.7474,100.2576 83.4884,99.7556 83.6384,99.2856 C83.7874,98.8166 84.2894,98.5566 84.7594,98.7066" mask="url(#k)"/>
        <path fill="#FEFEFE" d="M85.5893,97.2827 C86.0593,97.4327 86.3183,97.9347 86.1683,98.4037 C86.0193,98.8737 85.5173,99.1327 85.0473,98.9837 C84.5773,98.8337 84.3183,98.3317 84.4683,97.8617 C84.6173,97.3927 85.1193,97.1327 85.5893,97.2827" mask="url(#k)"/>
        <path fill="#FEFEFE" d="M86.7746,96.4825 C87.2446,96.6325 87.5036,97.1345 87.3536,97.6035 C87.2046,98.0735 86.7026,98.3325 86.2326,98.1835 C85.7626,98.0335 85.5036,97.5315 85.6536,97.0615 C85.8026,96.5925 86.3046,96.3325 86.7746,96.4825" mask="url(#k)"/>
        <path fill="#FEFEFE" d="M88.16,96.2756 C88.63,96.4256 88.889,96.9276 88.739,97.3966 C88.59,97.8666 88.088,98.1256 87.618,97.9766 C87.148,97.8266 86.889,97.3246 87.039,96.8546 C87.188,96.3856 87.69,96.1256 88.16,96.2756" mask="url(#k)"/>
        <polygon fill="#FEFEFE" points="82.175 104.495 81.985 104.693 78.306 101.166 78.496 100.967" mask="url(#k)"/>
        <polygon fill="#FEFEFE" points="80.829 102.253 81.78 100.718 81.547 100.574 80.531 102.214 80.758 100.298 80.486 100.266 80.258 102.181 79.655 100.349 79.394 100.435 80.031 102.369 78.512 101.013 78.329 101.217 79.768 102.502 77.921 101.945 77.842 102.208 79.69 102.765 77.78 103.041 77.819 103.313 79.728 103.037 78.115 104.094 78.265 104.323 79.822 103.303" mask="url(#k)"/>
        <path fill="#FEFEFE" d="M78.0673,103.8491 C78.4233,104.1901 78.4353,104.7551 78.0943,105.1111 C77.7523,105.4671 77.1873,105.4791 76.8323,105.1371 C76.4763,104.7961 76.4643,104.2311 76.8053,103.8761 C77.1463,103.5201 77.7113,103.5081 78.0673,103.8491" mask="url(#k)"/>
        <path fill="#FEFEFE" d="M77.6883,102.5623 C78.0443,102.9033 78.0563,103.4683 77.7153,103.8243 C77.3733,104.1803 76.8083,104.1923 76.4533,103.8503 C76.0973,103.5093 76.0853,102.9443 76.4263,102.5893 C76.7673,102.2333 77.3323,102.2213 77.6883,102.5623" mask="url(#k)"/>
        <path fill="#FEFEFE" d="M77.7798,101.3206 C78.1358,101.6616 78.1478,102.2266 77.8068,102.5826 C77.4648,102.9386 76.8998,102.9506 76.5448,102.6086 C76.1888,102.2676 76.1768,101.7026 76.5178,101.3476 C76.8588,100.9916 77.4238,100.9796 77.7798,101.3206" mask="url(#k)"/>
        <path fill="#FEFEFE" d="M78.497,100.0545 C78.853,100.3955 78.865,100.9605 78.524,101.3165 C78.182,101.6725 77.617,101.6845 77.262,101.3425 C76.906,101.0015 76.894,100.4365 77.235,100.0815 C77.576,99.7255 78.141,99.7135 78.497,100.0545" mask="url(#k)"/>
        <path fill="#FEFEFE" d="M79.869,99.1415 C80.225,99.4825 80.237,100.0475 79.896,100.4035 C79.554,100.7595 78.989,100.7715 78.634,100.4295 C78.278,100.0885 78.266,99.5235 78.607,99.1685 C78.948,98.8125 79.513,98.8005 79.869,99.1415" mask="url(#k)"/>
        <path fill="#FEFEFE" d="M81.2856,98.9449 C81.6416,99.2859 81.6536,99.8509 81.3126,100.2069 C80.9706,100.5629 80.4056,100.5749 80.0506,100.2329 C79.6946,99.8919 79.6826,99.3269 80.0236,98.9719 C80.3646,98.6159 80.9296,98.6039 81.2856,98.9449" mask="url(#k)"/>
        <path fill="#FEFEFE" d="M82.6207,99.3691 C82.9767,99.7101 82.9887,100.2751 82.6477,100.6311 C82.3057,100.9871 81.7407,100.9991 81.3857,100.6571 C81.0297,100.3161 81.0177,99.7511 81.3587,99.3961 C81.6997,99.0401 82.2647,99.0281 82.6207,99.3691" mask="url(#k)"/>
        <polygon fill="#FEFEFE" points="78.654 96.665 78.486 96.448 82.521 93.334 82.688 93.55" mask="url(#k)"/>
        <polygon fill="#FEFEFE" points="81.071 95.667 82.448 96.835 82.625 96.626 81.154 95.378 83.015 95.887 83.087 95.622 81.227 95.113 83.128 94.788 83.082 94.517 81.074 94.86 82.641 93.56 82.466 93.349 80.982 94.581 81.807 92.837 81.559 92.719 80.734 94.464 80.744 92.535 80.469 92.533 80.459 94.462 79.653 92.71 79.404 92.824 80.182 94.516" mask="url(#k)"/>
        <path fill="#FEFEFE" d="M79.9021,92.6994 C79.5121,93.0004 78.9511,92.9284 78.6501,92.5384 C78.3491,92.1484 78.4211,91.5874 78.8111,91.2864 C79.2011,90.9854 79.7621,91.0574 80.0631,91.4474 C80.3641,91.8374 80.2921,92.3984 79.9021,92.6994" mask="url(#k)"/>
        <path fill="#FEFEFE" d="M81.2309,92.5154 C80.8409,92.8164 80.2799,92.7444 79.9789,92.3544 C79.6779,91.9644 79.7499,91.4034 80.1399,91.1024 C80.5299,90.8014 81.0909,90.8734 81.3919,91.2634 C81.6929,91.6534 81.6209,92.2144 81.2309,92.5154" mask="url(#k)"/>
        <path fill="#FEFEFE" d="M82.4453,92.7901 C82.0553,93.0911 81.4943,93.0191 81.1933,92.6291 C80.8923,92.2391 80.9643,91.6781 81.3543,91.3771 C81.7443,91.0761 82.3053,91.1481 82.6063,91.5381 C82.9073,91.9281 82.8353,92.4891 82.4453,92.7901" mask="url(#k)"/>
        <path fill="#FEFEFE" d="M83.591,93.6872 C83.201,93.9882 82.64,93.9162 82.339,93.5262 C82.038,93.1362 82.11,92.5752 82.5,92.2742 C82.89,91.9732 83.451,92.0452 83.752,92.4352 C84.053,92.8252 83.981,93.3862 83.591,93.6872" mask="url(#k)"/>
        <path fill="#FEFEFE" d="M84.2904,95.1795 C83.9004,95.4805 83.3394,95.4085 83.0384,95.0185 C82.7374,94.6285 82.8094,94.0675 83.1994,93.7665 C83.5894,93.4655 84.1504,93.5375 84.4514,93.9275 C84.7524,94.3175 84.6804,94.8785 84.2904,95.1795" mask="url(#k)"/>
        <path fill="#FEFEFE" d="M84.2747,96.6096 C83.8847,96.9106 83.3237,96.8386 83.0227,96.4486 C82.7217,96.0586 82.7937,95.4976 83.1837,95.1966 C83.5737,94.8956 84.1347,94.9676 84.4357,95.3576 C84.7367,95.7476 84.6647,96.3086 84.2747,96.6096" mask="url(#k)"/>
        <path fill="#FEFEFE" d="M83.6572,97.8669 C83.2672,98.1679 82.7062,98.0959 82.4052,97.7059 C82.1042,97.3159 82.1762,96.7549 82.5662,96.4539 C82.9562,96.1529 83.5172,96.2249 83.8182,96.6149 C84.1192,97.0049 84.0472,97.5659 83.6572,97.8669" mask="url(#k)"/>
        <polygon fill="#FEFEFE" points="110.285 142.836 110.2 143.101 105.272 141.531 105.357 141.266" mask="url(#k)"/>
        <polygon fill="#FEFEFE" points="108.057 141.395 108.238 139.572 107.961 139.544 107.768 141.493 107.119 139.646 106.856 139.738 107.505 141.585 106.136 140.185 105.937 140.38 107.382 141.857 105.392 141.3 105.317 141.568 107.202 142.096 105.27 142.414 105.315 142.689 107.248 142.371 105.631 143.476 105.788 143.706 107.404 142.601 106.407 144.285 106.646 144.427 107.609 142.801" mask="url(#k)"/>
        <path fill="#FEFEFE" d="M106.2542,144.0823 C106.7312,144.2343 106.9942,144.7433 106.8422,145.2203 C106.6902,145.6963 106.1812,145.9603 105.7042,145.8083 C105.2282,145.6563 104.9642,145.1473 105.1162,144.6703 C105.2682,144.1933 105.7772,143.9303 106.2542,144.0823" mask="url(#k)"/>
        <path fill="#FEFEFE" d="M105.334,143.0793 C105.811,143.2313 106.074,143.7403 105.922,144.2173 C105.77,144.6933 105.261,144.9573 104.784,144.8053 C104.308,144.6533 104.044,144.1443 104.196,143.6673 C104.348,143.1903 104.857,142.9273 105.334,143.0793" mask="url(#k)"/>
        <path fill="#FEFEFE" d="M104.8626,141.9071 C105.3396,142.0591 105.6026,142.5681 105.4506,143.0451 C105.2986,143.5211 104.7896,143.7851 104.3126,143.6331 C103.8366,143.4811 103.5726,142.9721 103.7246,142.4951 C103.8766,142.0181 104.3856,141.7551 104.8626,141.9071" mask="url(#k)"/>
        <path fill="#FEFEFE" d="M104.9504,140.4332 C105.4274,140.5852 105.6904,141.0942 105.5384,141.5712 C105.3864,142.0472 104.8774,142.3112 104.4004,142.1592 C103.9244,142.0072 103.6604,141.4982 103.8124,141.0212 C103.9644,140.5442 104.4734,140.2812 104.9504,140.4332" mask="url(#k)"/>
        <path fill="#FEFEFE" d="M105.7925,138.9884 C106.2695,139.1404 106.5325,139.6494 106.3805,140.1264 C106.2285,140.6024 105.7195,140.8664 105.2425,140.7144 C104.7665,140.5624 104.5025,140.0534 104.6545,139.5764 C104.8065,139.0994 105.3155,138.8364 105.7925,138.9884" mask="url(#k)"/>
        <path fill="#FEFEFE" d="M106.9953,138.1764 C107.4723,138.3284 107.7353,138.8374 107.5833,139.3144 C107.4313,139.7904 106.9223,140.0544 106.4453,139.9024 C105.9693,139.7504 105.7053,139.2414 105.8573,138.7644 C106.0093,138.2874 106.5183,138.0244 106.9953,138.1764" mask="url(#k)"/>
        <path fill="#FEFEFE" d="M108.4011,137.9664 C108.8781,138.1184 109.1411,138.6274 108.9891,139.1044 C108.8371,139.5804 108.3281,139.8444 107.8511,139.6924 C107.3751,139.5404 107.1111,139.0314 107.2631,138.5544 C107.4151,138.0774 107.9241,137.8144 108.4011,137.9664" mask="url(#k)"/>
        <polygon fill="#FEFEFE" points="102.328 146.307 102.135 146.508 98.402 142.928 98.595 142.728" mask="url(#k)"/>
        <polygon fill="#FEFEFE" points="100.962 144.032 101.927 142.475 101.691 142.328 100.659 143.992 100.89 142.048 100.613 142.015 100.383 143.959 99.77 142.1 99.506 142.187 100.152 144.15 98.611 142.773 98.425 142.981 99.885 144.285 98.011 143.72 97.931 143.986 99.806 144.552 97.868 144.832 97.907 145.108 99.845 144.828 98.208 145.9 98.36 146.133 99.941 145.097" mask="url(#k)"/>
        <path fill="#FEFEFE" d="M97.7752,144.3456 C98.1362,144.6916 98.1482,145.2646 97.8022,145.6256 C97.4562,145.9876 96.8822,145.9996 96.5212,145.6526 C96.1602,145.3066 96.1482,144.7336 96.4952,144.3726 C96.8412,144.0116 97.4142,143.9996 97.7752,144.3456" mask="url(#k)"/>
        <path fill="#FEFEFE" d="M97.868,143.0856 C98.229,143.4316 98.241,144.0046 97.895,144.3656 C97.549,144.7276 96.975,144.7396 96.614,144.3926 C96.253,144.0466 96.241,143.4736 96.588,143.1126 C96.934,142.7516 97.507,142.7396 97.868,143.0856" mask="url(#k)"/>
        <path fill="#FEFEFE" d="M98.5958,141.801 C98.9568,142.147 98.9688,142.72 98.6228,143.081 C98.2768,143.443 97.7028,143.455 97.3418,143.108 C96.9808,142.762 96.9688,142.189 97.3158,141.828 C97.6618,141.467 98.2348,141.455 98.5958,141.801" mask="url(#k)"/>
        <path fill="#FEFEFE" d="M99.988,140.8745 C100.349,141.2205 100.361,141.7935 100.015,142.1545 C99.669,142.5165 99.095,142.5285 98.734,142.1815 C98.373,141.8355 98.361,141.2625 98.708,140.9015 C99.054,140.5405 99.627,140.5285 99.988,140.8745" mask="url(#k)"/>
        <path fill="#FEFEFE" d="M101.4255,140.675 C101.7865,141.021 101.7985,141.594 101.4525,141.955 C101.1065,142.317 100.5335,142.329 100.1715,141.982 C99.8105,141.636 99.7985,141.063 100.1455,140.702 C100.4915,140.341 101.0645,140.329 101.4255,140.675" mask="url(#k)"/>
        <path fill="#FEFEFE" d="M102.7802,141.1054 C103.1412,141.4514 103.1532,142.0244 102.8072,142.3854 C102.4612,142.7474 101.8882,142.7594 101.5262,142.4124 C101.1652,142.0664 101.1532,141.4934 101.5002,141.1324 C101.8462,140.7714 102.4192,140.7594 102.7802,141.1054" mask="url(#k)"/>
        <polygon fill="#FEFEFE" points="98.755 138.362 98.585 138.142 102.678 134.98 102.849 135.201" mask="url(#k)"/>
        <polygon fill="#FEFEFE" points="101.207 137.349 102.604 138.534 102.784 138.322 101.291 137.056 103.179 137.572 103.253 137.303 101.365 136.787 103.295 136.457 103.247 136.182 101.211 136.53 102.801 135.211 102.623 134.996 101.117 136.247 101.953 134.477 101.702 134.358 100.865 136.129 100.875 134.17 100.596 134.168 100.586 136.126 99.768 134.348 99.515 134.464 100.305 136.181" mask="url(#k)"/>
        <path fill="#FEFEFE" d="M100.0216,134.3375 C99.6256,134.6435 99.0566,134.5705 98.7516,134.1745 C98.4456,133.7785 98.5186,133.2095 98.9146,132.9035 C99.3106,132.5985 99.8796,132.6715 100.1846,133.0675 C100.4906,133.4635 100.4176,134.0315 100.0216,134.3375" mask="url(#k)"/>
        <path fill="#FEFEFE" d="M101.3699,134.1509 C100.9739,134.4569 100.4049,134.3839 100.0999,133.9879 C99.7939,133.5919 99.8669,133.0229 100.2629,132.7169 C100.6589,132.4119 101.2279,132.4849 101.5329,132.8809 C101.8389,133.2769 101.7659,133.8449 101.3699,134.1509" mask="url(#k)"/>
        <path fill="#FEFEFE" d="M102.6022,134.4296 C102.2062,134.7356 101.6372,134.6626 101.3322,134.2666 C101.0262,133.8706 101.0992,133.3016 101.4952,132.9956 C101.8912,132.6906 102.4602,132.7636 102.7652,133.1596 C103.0712,133.5556 102.9982,134.1236 102.6022,134.4296" mask="url(#k)"/>
        <path fill="#FEFEFE" d="M103.7648,135.3399 C103.3688,135.6459 102.7998,135.5729 102.4948,135.1769 C102.1888,134.7809 102.2618,134.2119 102.6578,133.9059 C103.0538,133.6009 103.6228,133.6739 103.9278,134.0699 C104.2338,134.4659 104.1608,135.0339 103.7648,135.3399" mask="url(#k)"/>
        <path fill="#FEFEFE" d="M104.4745,136.8541 C104.0785,137.1601 103.5095,137.0871 103.2045,136.6911 C102.8985,136.2951 102.9715,135.7261 103.3675,135.4201 C103.7635,135.1151 104.3325,135.1881 104.6375,135.5841 C104.9435,135.9801 104.8705,136.5481 104.4745,136.8541" mask="url(#k)"/>
        <path fill="#FEFEFE" d="M104.4586,138.3053 C104.0626,138.6113 103.4936,138.5383 103.1886,138.1423 C102.8826,137.7463 102.9556,137.1773 103.3516,136.8713 C103.7476,136.5663 104.3166,136.6393 104.6216,137.0353 C104.9276,137.4313 104.8546,137.9993 104.4586,138.3053" mask="url(#k)"/>
        <path fill="#FEFEFE" d="M103.8319,139.5811 C103.4359,139.8871 102.8669,139.8141 102.5619,139.4181 C102.2559,139.0221 102.3289,138.4531 102.7249,138.1471 C103.1209,137.8421 103.6899,137.9151 103.9949,138.3111 C104.3009,138.7071 104.2279,139.2751 103.8319,139.5811" mask="url(#k)"/>
        <polygon fill="#FEFEFE" points="26.183 103.837 25.927 103.738 27.771 98.986 28.027 99.085" mask="url(#k)"/>
        <polygon fill="#FEFEFE" points="27.736 101.733 29.518 102.021 29.562 101.751 27.657 101.443 29.514 100.917 29.439 100.652 27.583 101.178 29.043 99.917 28.863 99.71 27.322 101.041 27.991 99.117 27.732 99.027 27.098 100.849 26.903 98.93 26.63 98.957 26.826 100.878 25.837 99.22 25.601 99.361 26.589 101.018 24.993 99.934 24.84 100.161 26.38 101.207" mask="url(#k)"/>
        <path fill="#FEFEFE" d="M25.202,99.7967 C25.024,100.2567 24.507,100.4847 24.047,100.3057 C23.588,100.1277 23.36,99.6107 23.538,99.1507 C23.716,98.6917 24.233,98.4637 24.693,98.6417 C25.152,98.8197 25.38,99.3367 25.202,99.7967" mask="url(#k)"/>
        <path fill="#FEFEFE" d="M26.2444,98.9525 C26.0664,99.4125 25.5494,99.6405 25.0894,99.4615 C24.6304,99.2835 24.4024,98.7665 24.5804,98.3065 C24.7584,97.8475 25.2754,97.6195 25.7354,97.7975 C26.1944,97.9755 26.4224,98.4925 26.2444,98.9525" mask="url(#k)"/>
        <path fill="#FEFEFE" d="M27.4261,98.56 C27.2481,99.02 26.7311,99.248 26.2711,99.069 C25.8121,98.891 25.5841,98.374 25.7621,97.914 C25.9401,97.455 26.4571,97.227 26.9171,97.405 C27.3761,97.583 27.6041,98.1 27.4261,98.56" mask="url(#k)"/>
        <path fill="#FEFEFE" d="M28.8705,98.7359 C28.6925,99.1959 28.1755,99.4239 27.7155,99.2449 C27.2565,99.0669 27.0285,98.5499 27.2065,98.0899 C27.3845,97.6309 27.9015,97.4029 28.3615,97.5809 C28.8205,97.7589 29.0485,98.2759 28.8705,98.7359" mask="url(#k)"/>
        <path fill="#FEFEFE" d="M30.2405,99.652 C30.0625,100.112 29.5455,100.34 29.0855,100.161 C28.6265,99.983 28.3985,99.466 28.5765,99.006 C28.7545,98.547 29.2715,98.319 29.7315,98.497 C30.1905,98.675 30.4185,99.192 30.2405,99.652" mask="url(#k)"/>
        <path fill="#FEFEFE" d="M30.9662,100.8844 C30.7882,101.3444 30.2712,101.5724 29.8112,101.3934 C29.3522,101.2154 29.1242,100.6984 29.3022,100.2384 C29.4802,99.7794 29.9972,99.5514 30.4572,99.7294 C30.9162,99.9074 31.1442,100.4244 30.9662,100.8844" mask="url(#k)"/>
        <path fill="#FEFEFE" d="M31.0873,102.2799 C30.9093,102.7399 30.3923,102.9679 29.9323,102.7889 C29.4733,102.6109 29.2453,102.0939 29.4233,101.6339 C29.6013,101.1749 30.1183,100.9469 30.5783,101.1249 C31.0373,101.3029 31.2653,101.8199 31.0873,102.2799" mask="url(#k)"/>
        <polygon fill="#FEFEFE" points="23.252 95.799 23.066 95.597 26.814 92.142 27 92.344" mask="url(#k)"/>
        <polygon fill="#FEFEFE" points="25.573 94.594 27.046 95.637 27.205 95.414 25.63 94.299 27.529 94.644 27.578 94.374 25.68 94.028 27.546 93.539 27.476 93.274 25.506 93.79 26.954 92.358 26.761 92.163 25.39 93.519 26.059 91.71 25.802 91.615 25.132 93.425 24.974 91.502 24.7 91.524 24.858 93.447 23.903 91.771 23.665 91.907 24.587 93.525" mask="url(#k)"/>
        <path fill="#FEFEFE" d="M24.1502,91.7396 C23.7882,92.0736 23.2232,92.0506 22.8892,91.6886 C22.5552,91.3256 22.5782,90.7616 22.9402,90.4276 C23.3032,90.0936 23.8672,90.1156 24.2012,90.4786 C24.5352,90.8406 24.5122,91.4056 24.1502,91.7396" mask="url(#k)"/>
        <path fill="#FEFEFE" d="M25.4579,91.4406 C25.0959,91.7746 24.5309,91.7516 24.1969,91.3896 C23.8629,91.0266 23.8859,90.4626 24.2479,90.1286 C24.6109,89.7946 25.1749,89.8166 25.5089,90.1796 C25.8429,90.5416 25.8199,91.1066 25.4579,91.4406" mask="url(#k)"/>
        <path fill="#FEFEFE" d="M26.6916,91.6085 C26.3296,91.9425 25.7646,91.9195 25.4306,91.5575 C25.0966,91.1945 25.1196,90.6305 25.4816,90.2965 C25.8446,89.9615 26.4086,89.9845 26.7426,90.3475 C27.0766,90.7095 27.0536,91.2745 26.6916,91.6085" mask="url(#k)"/>
        <path fill="#FEFEFE" d="M27.9111,92.4024 C27.5491,92.7364 26.9841,92.7134 26.6501,92.3514 C26.3161,91.9884 26.3391,91.4244 26.7011,91.0904 C27.0641,90.7554 27.6281,90.7784 27.9621,91.1414 C28.2961,91.5034 28.2731,92.0684 27.9111,92.4024" mask="url(#k)"/>
        <path fill="#FEFEFE" d="M28.7378,93.8281 C28.3758,94.1621 27.8108,94.1391 27.4768,93.7771 C27.1428,93.4141 27.1658,92.8501 27.5278,92.5161 C27.8908,92.1821 28.4548,92.2041 28.7888,92.5671 C29.1228,92.9291 29.0998,93.4941 28.7378,93.8281" mask="url(#k)"/>
        <path fill="#FEFEFE" d="M28.8467,95.2541 C28.4847,95.5881 27.9197,95.5651 27.5857,95.2031 C27.2517,94.8401 27.2747,94.2761 27.6367,93.9421 C27.9997,93.6081 28.5637,93.6301 28.8977,93.9931 C29.2317,94.3551 29.2087,94.9201 28.8467,95.2541" mask="url(#k)"/>
        <path fill="#FEFEFE" d="M28.341,96.5604 C27.979,96.8944 27.414,96.8714 27.08,96.5094 C26.746,96.1464 26.769,95.5824 27.131,95.2484 C27.494,94.9144 28.058,94.9364 28.392,95.2994 C28.726,95.6614 28.703,96.2264 28.341,96.5604" mask="url(#k)"/>
        <polygon fill="#FEFEFE" points="31.284 92.768 31.511 92.614 34.372 96.833 34.145 96.987" mask="url(#k)"/>
        <polygon fill="#FEFEFE" points="32.132 95.242 30.882 96.543 31.079 96.734 32.416 95.343 31.793 97.168 32.053 97.257 32.675 95.431 32.883 97.35 33.156 97.32 32.937 95.294 34.139 96.939 34.36 96.776 33.222 95.219 34.912 96.15 35.044 95.91 33.353 94.978 35.279 95.108 35.298 94.834 33.372 94.704 35.171 94.008 35.072 93.752 33.336 94.425" mask="url(#k)"/>
        <path fill="#FEFEFE" d="M35.1657,94.2581 C34.8887,93.8501 34.9957,93.2951 35.4037,93.0181 C35.8117,92.7421 36.3667,92.8481 36.6427,93.2561 C36.9197,93.6641 36.8137,94.2191 36.4057,94.4961 C35.9977,94.7721 35.4427,94.6661 35.1657,94.2581" mask="url(#k)"/>
        <path fill="#FEFEFE" d="M35.2673,95.5957 C34.9903,95.1877 35.0973,94.6327 35.5053,94.3557 C35.9133,94.0797 36.4683,94.1857 36.7443,94.5937 C37.0213,95.0017 36.9153,95.5567 36.5073,95.8337 C36.0993,96.1097 35.5443,96.0037 35.2673,95.5957" mask="url(#k)"/>
        <path fill="#FEFEFE" d="M34.9184,96.7909 C34.6414,96.3829 34.7484,95.8279 35.1564,95.5509 C35.5644,95.2749 36.1194,95.3809 36.3954,95.7889 C36.6724,96.1969 36.5664,96.7519 36.1584,97.0289 C35.7504,97.3049 35.1954,97.1989 34.9184,96.7909" mask="url(#k)"/>
        <path fill="#FEFEFE" d="M33.9524,97.8791 C33.6754,97.4711 33.7824,96.9161 34.1904,96.6391 C34.5984,96.3631 35.1534,96.4691 35.4294,96.8771 C35.7064,97.2851 35.6004,97.8401 35.1924,98.1171 C34.7844,98.3931 34.2294,98.2871 33.9524,97.8791" mask="url(#k)"/>
        <path fill="#FEFEFE" d="M32.4198,98.4852 C32.1428,98.0772 32.2498,97.5222 32.6578,97.2452 C33.0658,96.9692 33.6208,97.0752 33.8968,97.4832 C34.1738,97.8912 34.0678,98.4462 33.6598,98.7232 C33.2518,98.9992 32.6968,98.8932 32.4198,98.4852" mask="url(#k)"/>
        <path fill="#FEFEFE" d="M30.9934,98.3814 C30.7164,97.9734 30.8234,97.4184 31.2314,97.1414 C31.6394,96.8654 32.1944,96.9714 32.4704,97.3794 C32.7474,97.7874 32.6414,98.3424 32.2334,98.6194 C31.8254,98.8954 31.2704,98.7894 30.9934,98.3814" mask="url(#k)"/>
        <path fill="#FEFEFE" d="M29.7766,97.6876 C29.4996,97.2796 29.6066,96.7246 30.0146,96.4476 C30.4226,96.1716 30.9776,96.2776 31.2536,96.6856 C31.5306,97.0936 31.4246,97.6486 31.0166,97.9256 C30.6086,98.2016 30.0536,98.0956 29.7766,97.6876" mask="url(#k)"/>
        <path fill="#E3E3E3" d="M55.0363,101.6918 C55.6613,102.9738 55.3053,104.4328 54.2433,104.9508 C53.1803,105.4688 51.8123,104.8488 51.1873,103.5668 C50.5633,102.2848 50.9183,100.8258 51.9813,100.3078 C53.0443,99.7898 54.4113,100.4098 55.0363,101.6918" mask="url(#k)"/>
        <path fill="#E3E3E3" d="M54.7742,106.7571 C54.1372,107.7001 52.9872,108.0371 52.2062,107.5091 C51.4242,106.9811 51.3062,105.7881 51.9432,104.8451 C52.5802,103.9021 53.7302,103.5661 54.5122,104.0941 C55.2932,104.6221 55.4112,105.8141 54.7742,106.7571" mask="url(#k)"/>
        <path fill="#E3E3E3" d="M54.5945,101.6918 C53.9695,102.9738 54.3255,104.4328 55.3875,104.9508 C56.4505,105.4688 57.8185,104.8488 58.4435,103.5668 C59.0675,102.2848 58.7125,100.8258 57.6495,100.3078 C56.5865,99.7898 55.2195,100.4098 54.5945,101.6918" mask="url(#k)"/>
        <path fill="#E3E3E3" d="M54.8566,106.7571 C55.4936,107.7001 56.6436,108.0371 57.4246,107.5091 C58.2066,106.9811 58.3246,105.7881 57.6876,104.8451 C57.0506,103.9021 55.9006,103.5661 55.1186,104.0941 C54.3376,104.6221 54.2196,105.8141 54.8566,106.7571" mask="url(#k)"/>
        <path fill="#DA9284" d="M48.4552,60.2739 C49.9102,61.5049 51.5782,62.3889 53.2942,63.0369 C55.0232,63.6559 56.8482,63.9789 58.6712,63.9439 C60.4882,63.9189 62.2992,63.4649 64.0582,62.8609 C65.8082,62.2249 67.5272,61.4409 69.1752,60.4909 C67.7402,61.7459 66.1002,62.7759 64.3442,63.5749 C62.5852,64.3579 60.6782,64.9169 58.6962,64.9679 C56.7252,65.0449 54.7552,64.6209 52.9692,63.8299 C51.1982,63.0129 49.5952,61.8139 48.4552,60.2739" mask="url(#k)"/>
      </g>
    </g>
  </g>
</svg>
