<svg xmlns="http://www.w3.org/2000/svg" width="17" height="17" viewBox="0 0 17 17">
  <g fill="#4B5C69" fill-rule="evenodd">
    <path d="M16.2916667,11.841775 C15.8999583,11.841775 15.5833333,12.1591083 15.5833333,12.5501083 L15.5833333,13.90515 C15.5833333,14.64465 14.9592917,15.5831917 14.25875,15.5831917 L2.74054167,15.5831917 C2.04,15.5831917 1.41666667,14.64465 1.41666667,13.90515 L1.41666667,12.5501083 C1.41666667,12.1591083 1.09933333,11.841775 0.708333333,11.841775 C0.316625,11.841775 0,12.1591083 0,12.5501083 L0,13.90515 C0,15.3664417 1.17158333,16.9998583 2.74054167,16.9998583 L14.25875,16.9998583 C15.8277083,16.9998583 17,15.3664417 17,13.90515 L17,12.5501083 C17,12.1591083 16.6826667,11.841775 16.2916667,11.841775"/>
    <path d="M7.64433333,12.9734083 C7.902875,13.2376167 8.35833333,13.2624083 8.646625,12.9734083 L13.6049583,8.01578333 C13.8819167,7.738825 13.8819167,7.29115833 13.6049583,7.0142 C13.328,6.73724167 12.879625,6.73724167 12.603375,7.0142 L8.85416667,10.7634083 L8.85416667,0.708616667 C8.85416667,0.317616667 8.53683333,0.000283333333 8.14583333,0.000283333333 C7.754125,0.000283333333 7.4375,0.317616667 7.4375,0.708616667 L7.4375,10.7634083 L3.68829167,7.0142 C3.41133333,6.73724167 2.96295833,6.73724167 2.68670833,7.0142 C2.40975,7.29115833 2.40975,7.738825 2.68670833,8.01578333 L7.64433333,12.9734083 Z" transform="rotate(-90 8.146 6.59)"/>
  </g>
</svg>
