<svg xmlns="http://www.w3.org/2000/svg" width="30" height="30" viewBox="0 0 30 30">
  <path fill="#FFFFFF" fill-rule="evenodd" d="M15,0 C6.72363281,0 0,6.72363281 0,15 C0,23.1738281 6.53320313,29.8242188 14.6630859,30 L14.6630859,18.1201172 L11.25,18.1201172 L11.25,14.3701172 L14.6630859,14.3701172 L14.6630859,10.6201172 C14.6630859,7.64648438 16.4794922,5.63964844 20.0830078,5.63964844 C21.6650391,5.63964844 22.7783203,5.88867188 22.7783203,5.88867188 L22.7783203,9.375 L20.390625,9.375 C19.2919922,9.375 18.75,9.99023438 18.75,11.0742188 L18.75,14.3701172 L22.5,14.3701172 L21.9580078,18.1201172 L18.75,18.1201172 L18.75,29.53125 C25.2246094,27.8613281 30,21.9873047 30,15 C30,6.72363281 23.2763672,0 15,0 Z"/>
</svg>
