<svg xmlns="http://www.w3.org/2000/svg" width="30" height="30" viewBox="0 0 30 30">
  <path fill="#FFFFFF" fill-rule="evenodd" d="M165,30 C156.715729,30 150,23.2842712 150,15 C150,6.71572875 156.715729,0 165,0 C173.284271,0 180,6.71572875 180,15 C180,23.2842712 173.284271,30 165,30 Z M161.516535,14.0316813 C161.513153,14.8163375 161.516535,15.60095 161.519963,16.3855625 C162.875925,16.4284375 164.235225,16.4086188 165.591188,16.4284375 C164.993098,19.3460813 160.901488,20.2922188 158.736737,18.3867313 C156.510788,16.7152625 156.616137,13.049275 158.930433,11.4965 C160.548055,10.2437188 162.848731,10.5536 164.466308,11.63825 C165.101829,11.067925 165.696492,10.4580063 166.270816,9.82503125 C164.92509,8.78325625 163.27351,8.041475 161.516535,8.12061875 C157.849749,8.001925 154.47858,11.1173625 154.417427,14.6745875 C154.182918,17.5823 156.153973,20.4340125 158.937243,21.4626188 C161.710276,22.4977875 165.264949,21.792275 167.035498,19.3757438 C168.204529,17.84935 168.455996,15.8844938 168.320071,14.0382875 C166.049925,14.0217938 163.783253,14.025075 161.516535,14.0316813 Z M174.776847,14.0217937 C174.770037,13.3657187 174.766655,12.7063625 174.763273,12.0503312 L172.741257,12.0503312 C172.734447,12.7064063 172.727682,13.3624375 172.724255,14.0217937 C172.044582,14.025075 171.368292,14.0284 170.692047,14.0350063 L170.692047,15.9965812 C171.368292,16.0031875 172.047965,16.0097938 172.724255,16.0163563 C172.731065,16.6724313 172.731065,17.3284625 172.737875,17.9845375 L174.763273,17.9845375 C174.766655,17.3284625 174.770037,16.6724313 174.776847,16.013075 C175.45652,16.0064688 176.13281,16.0031875 176.809055,15.9965813 L176.809055,14.0350063 C176.13281,14.0284 175.453137,14.0284 174.776847,14.0217937 Z" transform="translate(-150)"/>
</svg>
