<svg xmlns="http://www.w3.org/2000/svg" width="30" height="30" viewBox="0 0 30 30">
  <path fill="#FFFFFF" fill-rule="evenodd" d="M115,0 C123.305664,0 130,6.69433594 130,15 C130,23.3056641 123.305664,30 115,30 C106.694336,30 100,23.3056641 100,15 C100,6.69433594 106.694336,0 115,0 Z M108.745117,10.0048828 C110.283203,10.0048828 111.25,9.0234375 111.25,7.80761719 C111.220703,6.5625 110.283203,5.625 108.745117,5.625 C107.250977,5.625 106.254883,6.5625 106.254883,7.80761719 C106.254883,9.0234375 107.22168,10.0048828 108.71582,10.0048828 L108.745117,10.0048828 Z M110.620117,22.5 L110.620117,11.8798828 L106.870117,11.8798828 L106.870117,22.5 L110.620117,22.5 Z M124.375,22.5 L124.375,16.875 C124.375,13.4326172 122.675781,11.25 119.995117,11.25 C118.47168,11.25 117.358398,12.1582031 116.875,13.5058594 L116.743164,11.8798828 L113.022461,11.8798828 C113.051758,12.2900391 113.125,14.3701172 113.125,14.3701172 L113.125,22.5 L116.875,22.5 L116.875,16.875 C116.875,15.3515625 117.563477,14.3701172 118.720703,14.3701172 C119.863281,14.3701172 120.625,14.9707031 120.625,16.875 L120.625,22.5 L124.375,22.5 Z" transform="translate(-100)"/>
</svg>
