<svg xmlns="http://www.w3.org/2000/svg" width="30" height="30" viewBox="0 0 30 30">
  <path fill="#FFFFFF" fill-rule="evenodd" d="M65,0 C73.3056641,0 80,6.69433594 80,15 C80,23.3056641 73.3056641,30 65,30 C56.6943359,30 50,23.3056641 50,15 C50,6.69433594 56.6943359,0 65,0 Z M74.1259766,11.7041016 C74.9609375,11.1181641 75.6640625,10.3417969 76.25,9.50683594 C75.4882812,9.82910156 74.6533203,10.0634766 73.7890625,10.1806641 C74.6826172,9.65332031 75.3125,8.81835938 75.6201172,7.80761719 C74.7851562,8.30566406 73.9208984,8.64257812 72.9541016,8.84765625 C72.1923828,8.02734375 71.0791016,7.5 69.8632812,7.5 C67.5048828,7.5 65.6298828,9.40429688 65.6298828,11.7773438 C65.6298828,12.0849609 65.6591797,12.4365234 65.7324219,12.7441406 C62.1875,12.5683594 59.0234375,10.8691406 56.9140625,8.26171875 C56.5625,8.92089844 56.3574219,9.65332031 56.3574219,10.4150391 C56.3574219,11.9091797 57.0898438,13.1982422 58.2324219,13.9599609 C57.5292969,13.9599609 56.8701172,13.7548828 56.3134766,13.4326172 L56.3134766,13.4765625 C56.3134766,15.5566406 57.7783203,17.2558594 59.7265625,17.6806641 C59.375,17.7832031 58.9941406,17.8125 58.6132812,17.8125 C58.3349609,17.8125 58.0566406,17.7832031 57.8076172,17.7392578 C58.3349609,19.4384766 59.9316406,20.5957031 61.7773438,20.625 C60.3125,21.7675781 58.5107422,22.5732422 56.4892578,22.5732422 C56.1523438,22.5732422 55.8007812,22.5292969 55.4931641,22.5 C57.3681641,23.7158203 59.6240234,24.375 62.0117188,24.375 C69.8632812,24.375 74.1259766,17.8857422 74.1259766,12.2607422 L74.1259766,11.7041016 Z" transform="translate(-50)"/>
</svg>
