<svg xmlns="http://www.w3.org/2000/svg" width="215" height="50" viewBox="0 0 215 50">
  <g fill="none" fill-rule="evenodd">
    <path fill="#68757E" d="M78.1518182,25.2448252 L77.8290909,25.2448252 C77.6276923,25.2448252 77.4532168,25.2483217 77.304965,25.2553147 C77.1567133,25.2626573 76.9829371,25.2825874 76.7836364,25.3165035 C76.5843357,25.3497203 76.421049,25.3965734 76.2941259,25.4563636 C76.1672028,25.5165035 76.0588112,25.6039161 75.9686014,25.7186014 C75.8787413,25.8332867 75.8336364,25.97 75.8336364,26.1287413 C75.8336364,26.3507692 75.9455245,26.5486713 76.1696503,26.7213986 C76.3937762,26.8944755 76.6609091,26.9808392 76.9713986,26.9808392 C77.4266434,26.9808392 77.82,26.8028671 78.1518182,26.4462238 L78.1518182,25.2448252 Z M77.0032168,22.228042 C77.3913287,22.228042 77.7206993,22.2731469 77.9902797,22.363007 C78.2605594,22.4528671 78.4686014,22.5846853 78.6147552,22.7574126 C78.7612587,22.9301399 78.8661538,23.1224476 78.9297902,23.3343357 C78.9934266,23.5458741 79.0248951,23.7892308 79.0248951,24.0644056 L79.0248951,27.5577622 L78.4112587,27.5577622 L78.2102098,27.0811888 C77.7829371,27.4696503 77.2927273,27.6633566 76.7388811,27.6633566 C76.2444755,27.6633566 75.8266434,27.5144056 75.4843357,27.2161538 C75.142028,26.9182517 74.971049,26.57 74.971049,26.171049 C74.971049,25.9591608 75.0098601,25.768951 75.0874825,25.5993706 C75.1651049,25.4301399 75.276993,25.2888811 75.4234965,25.1759441 C75.57,25.063007 75.7364336,24.9672028 75.9234965,24.8874825 C76.1105594,24.8081119 76.3283916,24.7472727 76.5773427,24.704965 C76.8259441,24.6626573 77.0755944,24.6325874 77.3262937,24.6151049 C77.5766434,24.5972727 77.8518182,24.5885315 78.1518182,24.5885315 L78.1518182,24.1755944 C78.1518182,24.056014 78.1472727,23.9518182 78.1385315,23.8633566 C78.1297902,23.7752448 78.1007692,23.6696503 78.0511189,23.5458741 C78.0018182,23.4224476 77.9346853,23.3206993 77.8500699,23.2416783 C77.7654545,23.161958 77.6385315,23.0934266 77.468951,23.035035 C77.2997203,22.976993 77.0986713,22.947972 76.8658042,22.947972 C76.506014,22.947972 76.0399301,23.0273427 75.4686014,23.1860839 L75.3042657,22.5507692 C75.8829371,22.3357343 76.4493706,22.228042 77.0032168,22.228042 Z"/>
    <polygon fill="#68757E" points="80.494 27.558 81.362 27.558 81.362 19.56 80.494 19.56"/>
    <path fill="#68757E" d="M84.8955594 22.9796154C84.5850699 22.9796154 84.3179371 23.0652797 84.0938112 23.2362587 83.8696853 23.4075874 83.7063986 23.6198252 83.6043007 23.874021 83.5018531 24.1282168 83.4508042 24.4016434 83.4508042 24.6943007L86.1815734 24.6943007C86.1815734 23.5512937 85.7529021 22.9796154 84.8955594 22.9796154M85.0808741 22.2278671C85.3347203 22.2278671 85.5633916 22.258986 85.7661888 22.3208741 85.968986 22.3824126 86.1375175 22.4610839 86.2717832 22.5561888 86.4056993 22.6516434 86.5210839 22.7757692 86.6182867 22.9292657 86.7154895 23.0827622 86.7892657 23.231014 86.8403147 23.3736713 86.8917133 23.517028 86.9312238 23.6887063 86.9595455 23.8901049 86.9878671 24.0911538 87.0053497 24.2656294 87.0126923 24.4138811 87.0196853 24.5621329 87.0231818 24.7366084 87.0231818 24.9376573L87.0231818 25.3505944 83.4294755 25.3505944C83.4294755 25.5411538 83.4728322 25.731014 83.5591958 25.9198252 83.6455594 26.1082867 83.7672378 26.2813636 83.9245804 26.4383566 84.0812238 26.5953497 84.2878671 26.7233217 84.5434615 26.8219231 84.7994056 26.9208741 85.0826224 26.9701748 85.3931119 26.9701748 85.7598951 26.9701748 86.1567483 26.9065385 86.584021 26.7796154L86.7375175 27.3722727C86.1693357 27.5663287 85.6116434 27.6635315 85.0647902 27.6635315 84.6801748 27.6635315 84.3389161 27.6121329 84.041014 27.510035 83.7427622 27.4079371 83.5029021 27.2747203 83.3210839 27.1103846 83.1392657 26.9463986 82.9903147 26.7498951 82.8738811 26.5201748 82.7574476 26.2911538 82.677028 26.0624825 82.632972 25.8352098 82.5889161 25.6072378 82.5668881 25.3666783 82.5668881 25.1124825 82.5668881 24.7208741 82.6144406 24.3628322 82.7095455 24.038007 82.805 23.7135315 82.9336713 23.4408042 83.0962587 23.2205245 83.2581469 22.9998951 83.448007 22.8138811 83.6647902 22.6621329 83.8822727 22.5103846 84.1095455 22.3998951 84.348007 22.3313636 84.5857692 22.2624825 84.8301748 22.2278671 85.0808741 22.2278671M90.2917483 22.228042C90.3658741 22.228042 90.4354545 22.2290909 90.5008392 22.2304895 90.5662238 22.2325874 90.6295105 22.2367832 90.6913986 22.2441259 90.7529371 22.2511189 90.8060839 22.2563636 90.8501399 22.2598601 90.8941958 22.2633566 90.9452448 22.2703497 91.0036364 22.2808392 91.0616783 22.2916783 91.103986 22.2997203 91.1305594 22.3046154 91.1571329 22.3102098 91.2011888 22.3206993 91.2627273 22.3364336 91.3246154 22.3525175 91.3627273 22.3623077 91.3767133 22.3658042 91.3906993 22.3693007 91.4323077 22.3815385 91.5011888 22.4028671 91.5697203 22.4238462 91.6095804 22.4364336 91.6200699 22.4395804L91.398042 23.1014685C90.924965 22.971049 90.5088811 22.9053147 90.1487413 22.9053147 89.9406993 22.9053147 89.7564336 22.9266434 89.5959441 22.968951 89.4351049 23.0112587 89.3116783 23.0626573 89.2253147 23.1224476 89.138951 23.1825874 89.0683217 23.2521678 89.0137762 23.3315385 88.9588811 23.4109091 88.9235664 23.4808392 88.9078322 23.5406294 88.8917483 23.6007692 88.8840559 23.6588112 88.8840559 23.7154545 88.8840559 23.8602098 88.9588811 23.9888811 89.1088811 24.1014685 89.2588811 24.2147552 89.4459441 24.3063636 89.6700699 24.376993 89.8938462 24.4476224 90.1365035 24.5311888 90.3976923 24.6283916 90.6585315 24.7252448 90.9011888 24.8276923 91.1253147 24.9353846 91.3494406 25.0427273 91.5365035 25.1937762 91.6861538 25.3878322 91.8361538 25.5818881 91.9113287 25.806014 91.9113287 26.0598601 91.9113287 26.2046154 91.8927972 26.3448252 91.8557343 26.4808392 91.8186713 26.6165035 91.748042 26.7584615 91.6438462 26.9067133 91.54 27.054965 91.4057343 27.1829371 91.2417483 27.2902797 91.0777622 27.397972 90.8581818 27.4871329 90.5826573 27.5577622 90.3074825 27.628042 89.9917483 27.6637063 89.6354545 27.6637063 89.0955944 27.6637063 88.5029371 27.5311888 87.8571329 27.2665035L88.1004895 26.6102098C88.4637762 26.7444755 88.7613287 26.8399301 88.9924476 26.8962238 89.2235664 26.9525175 89.4501399 26.9808392 89.6725175 26.9808392 90.5333566 26.9808392 90.9637762 26.7074126 90.9637762 26.1605594 90.9637762 26.0406294 90.9214685 25.9346853 90.8368531 25.8427273 90.7522378 25.7511189 90.6393007 25.6762937 90.498042 25.6179021 90.3567832 25.5598601 90.1973427 25.4997203 90.0193706 25.4378322 89.841049 25.3762937 89.6592308 25.318951 89.4739161 25.2661538 89.288951 25.213007 89.1071329 25.1434266 88.9288112 25.0567133 88.7508392 24.9703497 88.591049 24.8752448 88.4497902 24.771049 88.3088811 24.6672028 88.1959441 24.5322378 88.1113287 24.3661538 88.0263636 24.2004196 87.9840559 24.0137063 87.9840559 23.8053147 87.9840559 23.6783916 88.0043357 23.5486713 88.0448951 23.4161538 88.0854545 23.283986 88.1613287 23.1444755 88.2728671 22.9983217 88.3837063 22.8518182 88.5221678 22.7231469 88.6882517 22.6116084 88.853986 22.5007692 89.0753147 22.4088112 89.3522378 22.3364336 89.6291608 22.2644056 89.9424476 22.228042 90.2917483 22.228042M100.168846 19.984021C100.959056 19.984021 101.709056 20.1235315 102.418147 20.4022028L102.613951 20.4815734 102.195769 21.6245804 101.99472 21.556049C101.310105 21.3266783 100.690874 21.211993 100.137028 21.211993 99.6996154 21.211993 99.2947203 21.2833217 98.9223427 21.425979 98.5503147 21.5693357 98.2415734 21.7605944 97.9964685 22.0004545 97.751014 22.2406643 97.5604545 22.5158392 97.4247902 22.825979 97.2887762 23.1368182 97.2209441 23.4612937 97.2209441 23.8001049 97.2209441 24.1494056 97.294021 24.4819231 97.4405245 24.7976573 97.587028 25.1133916 97.7915734 25.3903147 98.0545105 25.6284266 98.3174476 25.8668881 98.6478671 26.0553497 99.0468182 26.1948601 99.4454196 26.3343706 99.8810839 26.403951 100.354161 26.403951 100.932832 26.403951 101.511154 26.3015035 102.090175 26.096958L102.285979 26.0280769 102.719895 27.0864685 102.524091 27.1714336C101.758357 27.4994056 100.950315 27.6633916 100.099965 27.6633916 99.4401748 27.6633916 98.8412238 27.563042 98.3034615 27.361993 97.7653497 27.1605944 97.3216434 26.8847203 96.971993 26.5336713 96.6226923 26.1822727 96.3538112 25.7738811 96.165 25.3081469 95.9761888 24.8424126 95.8817832 24.3417133 95.8817832 23.8053497 95.8817832 23.261993 95.978986 22.7574476 96.173042 22.2917133 96.3670979 21.825979 96.644021 21.4217832 97.0038112 21.0794755 97.363951 20.7375175 97.8153497 20.4693357 98.3587063 20.2752797 98.9020629 20.0812238 99.5055594 19.984021 100.168846 19.984021M106.020385 23.403007C105.748706 23.403007 105.492762 23.4540559 105.252902 23.5565035 105.013042 23.658951 104.810944 23.8246853 104.646958 24.0540559 104.482972 24.2834266 104.400804 24.5533566 104.400804 24.8638462 104.400804 25.3225874 104.559545 25.7079021 104.877028 26.0201399 105.19486 26.3323776 105.607448 26.4886713 106.11549 26.4886713 106.577727 26.4886713 106.964091 26.3526573 107.27458 26.080979 107.58507 25.8093007 107.740315 25.4495105 107.740315 25.0012587 107.740315 24.7439161 107.689266 24.51 107.586818 24.3002098 107.484371 24.0900699 107.350455 23.9215385 107.18472 23.7946154 107.018636 23.6676923 106.83542 23.5704895 106.634371 23.5037063 106.433322 23.4365734 106.228427 23.403007 106.020385 23.403007M106.105 22.2281818C106.980175 22.2281818 107.68507 22.4582517 108.219336 22.9187413 108.753951 23.3792308 109.021084 24.0222378 109.021084 24.8477622 109.021084 25.7159441 108.748706 26.4023077 108.203601 26.9065035 107.658497 27.4113986 106.92528 27.6634965 106.00465 27.6634965 105.129476 27.6634965 104.429825 27.4260839 103.906049 26.9516084 103.381923 26.4771329 103.120035 25.8253846 103.120035 24.996014 103.120035 24.1456643 103.387517 23.4718881 103.921783 22.9743357 104.456399 22.4767832 105.184021 22.2281818 106.105 22.2281818"/>
    <polygon fill="#68757E" points="109.522 24.657 112.014 24.657 112.014 23.488 109.522 23.488"/>
    <path fill="#68757E" d="M115.686643 23.403007C115.414965 23.403007 115.159021 23.4540559 114.919161 23.5565035 114.679301 23.658951 114.477203 23.8246853 114.313217 24.0540559 114.149231 24.2834266 114.067063 24.5533566 114.067063 24.8638462 114.067063 25.3225874 114.225804 25.7079021 114.543287 26.0201399 114.861119 26.3323776 115.273706 26.4886713 115.781748 26.4886713 116.243986 26.4886713 116.63035 26.3526573 116.940839 26.080979 117.251329 25.8093007 117.406573 25.4495105 117.406573 25.0012587 117.406573 24.7439161 117.355524 24.51 117.253077 24.3002098 117.150629 24.0900699 117.016713 23.9215385 116.850979 23.7946154 116.684895 23.6676923 116.501678 23.5704895 116.300629 23.5037063 116.09958 23.4365734 115.894685 23.403007 115.686643 23.403007M115.771259 22.2281818C116.646434 22.2281818 117.351329 22.4582517 117.885594 22.9187413 118.42021 23.3792308 118.687692 24.0222378 118.687692 24.8477622 118.687692 25.7159441 118.414965 26.4023077 117.86986 26.9065035 117.324755 27.4113986 116.591538 27.6634965 115.670909 27.6634965 114.795734 27.6634965 114.096084 27.4260839 113.572308 26.9516084 113.048182 26.4771329 112.786294 25.8253846 112.786294 24.996014 112.786294 24.1456643 113.053776 23.4718881 113.588042 22.9743357 114.122657 22.4767832 114.85028 22.2281818 115.771259 22.2281818M122.189126 23.3818182C121.839825 23.3818182 121.490524 23.4437063 121.141224 23.5671329L121.141224 26.3881119C121.508007 26.4937063 121.862902 26.5468531 122.20521 26.5468531 122.363951 26.5468531 122.517448 26.5346154 122.66535 26.5097902 122.813601 26.4853147 122.968846 26.4384615 123.131084 26.3692308 123.293322 26.3006993 123.43458 26.2115385 123.55451 26.1020979 123.674441 25.993007 123.773042 25.8454545 123.851014 25.6601399 123.928636 25.4751748 123.967448 25.2625874 123.967448 25.0223776 123.967448 24.758042 123.927937 24.5241259 123.848217 24.3213287 123.769196 24.1185315 123.669196 23.9594406 123.549266 23.8451049 123.429336 23.7304196 123.286329 23.636014 123.120594 23.5618881 122.95486 23.4877622 122.797867 23.4391608 122.649615 23.4160839 122.501364 23.3933566 122.347867 23.3818182 122.189126 23.3818182M122.533182 22.227972C122.797867 22.227972 123.053462 22.2545455 123.300664 22.3073427 123.547517 22.3604895 123.790874 22.451049 124.031084 22.5800699 124.270944 22.7087413 124.478986 22.8713287 124.655559 23.0667832 124.831783 23.2629371 124.97479 23.5167832 125.084231 23.829021 125.193671 24.1412587 125.248217 24.4951049 125.248217 24.8902098 125.248217 25.7548951 124.987028 26.4328671 124.465 26.9251748 123.942622 27.4174825 123.238776 27.6636364 122.353112 27.6636364 121.940524 27.6636364 121.536329 27.6034965 121.141224 27.4835664L121.141224 30.3678322 119.786329 30.3678322 119.786329 22.3286713 120.749615 22.3286713 120.871294 22.5772727C121.411154 22.3444056 121.965 22.227972 122.533182 22.227972M128.887483 23.4136014C128.481538 23.4136014 128.156713 23.515 127.913706 23.7181469 127.67 23.9209441 127.524895 24.1740909 127.479441 24.4775874L130.12035 24.4775874C130.092028 24.0964685 129.972448 23.8237413 129.760559 23.6597552 129.549021 23.4957692 129.257762 23.4136014 128.887483 23.4136014M129.104266 22.2279371C129.407762 22.2279371 129.68049 22.2608042 129.922098 22.3258392 130.163706 22.3912238 130.363357 22.4740909 130.52 22.5747902 130.676993 22.6751399 130.813007 22.8059091 130.927692 22.9663986 131.042028 23.1268881 131.129441 23.2803846 131.18958 23.4268881 131.24972 23.5733916 131.296224 23.7489161 131.32979 23.9534615 131.363357 24.158007 131.383636 24.3310839 131.390629 24.471993 131.397972 24.6132517 131.401119 24.7810839 131.401119 24.9747902L131.401119 25.5677972 127.468951 25.5677972C127.542727 25.828986 127.752867 26.0555594 128.098671 26.2478671 128.444126 26.4401748 128.89972 26.5363287 129.464056 26.5363287 129.862657 26.5363287 130.268601 26.4761888 130.681538 26.3562587L130.898671 26.2926224 131.157762 27.2982168 130.967203 27.3618531C130.378042 27.5629021 129.75007 27.6636014 129.083287 27.6636014 128.617552 27.6636014 128.204615 27.6122028 127.844825 27.5101049 127.484685 27.4076573 127.196224 27.2754895 126.979441 27.1132517 126.762308 26.951014 126.583986 26.7552098 126.444825 26.5254895 126.305315 26.2964685 126.209161 26.0670979 126.156364 25.8377273 126.103217 25.6083566 126.076993 25.3632517 126.076993 25.1020629 126.076993 24.713951 126.132587 24.3583566 126.243776 24.0356294 126.354965 23.7125524 126.506364 23.4408741 126.698671 23.2205944 126.891329 22.999965 127.116853 22.813951 127.376294 22.6622028 127.635734 22.5104545 127.90986 22.399965 128.199021 22.3314336 128.488531 22.2625524 128.79028 22.2279371 129.104266 22.2279371M133.521713 22.6091259C134.072063 22.3549301 134.659476 22.228007 135.283951 22.228007 135.682552 22.228007 136.046189 22.3038811 136.374161 22.4556294L136.559476 22.5402448 136.146888 23.6252098 135.940245 23.5458392C135.693392 23.4507343 135.42486 23.4031818 135.135699 23.4031818 134.673462 23.4031818 134.228706 23.486049 133.802133 23.6517832L133.802133 27.5577273 132.500035 27.5577273 132.500035 22.3287063 133.367867 22.3287063 133.521713 22.6091259zM140.283217 26.2080769L140.283217 25.4619231 140.156294 25.4619231C139.443357 25.4619231 138.913287 25.5042308 138.565734 25.5888462 138.218182 25.6734615 138.044755 25.8164685 138.044755 26.0175175 138.044755 26.1444406 138.15035 26.2647203 138.362238 26.3773077 138.573776 26.4905944 138.833217 26.5468881 139.13986 26.5468881 139.574126 26.5468881 139.954895 26.433951 140.283217 26.2080769M139.176923 22.228007C139.558042 22.228007 139.892657 22.2622727 140.18007 22.3315035 140.467483 22.400035 140.699301 22.4909441 140.875874 22.6038811 141.052098 22.7168182 141.195105 22.8577273 141.304895 23.0273077 141.413986 23.1965385 141.489161 23.3685664 141.529371 23.543042 141.57028 23.7178671 141.59021 23.912972 141.59021 24.128007L141.59021 27.5577273 140.616434 27.5577273 140.468182 27.2136713C139.999301 27.5136713 139.464336 27.6636713 138.864685 27.6636713 138.211888 27.6636713 137.682867 27.5101748 137.276923 27.2031818 136.871329 26.8961888 136.668531 26.5329021 136.668531 26.112972 136.668531 25.8517832 136.734615 25.6241608 136.866783 25.4301049 136.998951 25.236049 137.172727 25.0808042 137.388462 24.9643706 137.603497 24.8479371 137.873077 24.7524825 138.197902 24.6783566 138.522727 24.6042308 138.848252 24.5535315 139.174476 24.5252098 139.500699 24.4968881 139.87028 24.4811538 140.283217 24.4773077L140.283217 24.2975874C140.283217 24.1633217 140.271678 24.0521329 140.248601 23.964021 140.225874 23.8759091 140.175175 23.7825524 140.098252 23.6836014 140.02028 23.5846503 139.890559 23.5098252 139.708741 23.4584266 139.527273 23.4073776 139.295105 23.3818531 139.012937 23.3818531 138.617483 23.3818531 138.093706 23.4594755 137.440909 23.6147203L137.229371 23.6727622 136.959441 22.6304545 137.144406 22.5668182C137.797552 22.3409441 138.474825 22.228007 139.176923 22.228007M146.436224 27.4624126C145.918042 27.5963287 145.483427 27.6634615 145.134476 27.6634615 144.799161 27.6634615 144.510699 27.6298951 144.269441 27.5631119 144.027483 27.495979 143.837622 27.4103147 143.70021 27.3064685 143.562448 27.2022727 143.454056 27.068007 143.374685 26.904021 143.295664 26.740035 143.242867 26.5802448 143.218392 26.425 143.193916 26.2697552 143.181329 26.0882867 143.181329 25.8798951L143.181329 23.4452797 142.371538 23.4452797 142.371538 22.3284965 143.181329 22.3284965 143.181329 20.8309441 144.483427 20.8309441 144.483427 22.3284965 146.404755 22.3284965 146.404755 23.4452797 144.483427 23.4452797 144.483427 25.790035C144.483427 25.8781469 144.498462 25.9627622 144.528182 26.0438811 144.558252 26.1253497 144.606853 26.2064685 144.673986 26.2875874 144.740769 26.3687063 144.841818 26.433042 144.975385 26.4805944 145.10965 26.5281469 145.268392 26.5519231 145.452308 26.5519231 145.547063 26.5519231 145.804406 26.516958 146.224685 26.4463287L146.430979 26.4092657 146.637622 27.4096154 146.436224 27.4624126zM147.381818 27.5576923L148.683916 27.5576923 148.683916 22.3286713 147.381818 22.3286713 147.381818 27.5576923zM147.302098 21.4713287L148.762937 21.4713287 148.762937 20.0370629 147.302098 20.0370629 147.302098 21.4713287z"/>
    <polygon fill="#68757E" points="155.054 22.329 152.995 27.558 151.592 27.558 149.438 22.329 150.941 22.329 152.328 26.182 153.688 22.329"/>
    <path fill="#68757E" d="M158.174091 23.4136014C157.768497 23.4136014 157.444021 23.515 157.200315 23.7181469 156.957308 23.9209441 156.812203 24.1740909 156.766748 24.4775874L159.407308 24.4775874C159.378986 24.0964685 159.259406 23.8237413 159.047517 23.6597552 158.835979 23.4957692 158.54507 23.4136014 158.174091 23.4136014M158.391224 22.2279371C158.694371 22.2279371 158.967448 22.2608042 159.209056 22.3258392 159.450315 22.3912238 159.649965 22.4740909 159.806958 22.5747902 159.963951 22.6751399 160.099965 22.8059091 160.21465 22.9663986 160.329336 23.1268881 160.416399 23.2803846 160.476538 23.4268881 160.536329 23.5733916 160.583531 23.7489161 160.616748 23.9534615 160.650315 24.158007 160.670594 24.3310839 160.677587 24.471993 160.68458 24.6132517 160.688077 24.7810839 160.688077 24.9747902L160.688077 25.5677972 156.755559 25.5677972C156.830035 25.828986 157.039825 26.0555594 157.385629 26.2478671 157.731434 26.4401748 158.186329 26.5363287 158.751014 26.5363287 159.149965 26.5363287 159.555559 26.4761888 159.968497 26.3562587L160.18528 26.2926224 160.44472 27.2982168 160.254161 27.3618531C159.665 27.5629021 159.037028 27.6636014 158.370245 27.6636014 157.90451 27.6636014 157.491573 27.6122028 157.131783 27.5101049 156.771643 27.4076573 156.483182 27.2754895 156.266399 27.1132517 156.049266 26.951014 155.871294 26.7552098 155.731783 26.5254895 155.592273 26.2964685 155.496469 26.0670979 155.442972 25.8377273 155.390524 25.6083566 155.363951 25.3632517 155.363951 25.1020629 155.363951 24.713951 155.419545 24.3583566 155.530385 24.0356294 155.641923 23.7125524 155.793322 23.4408741 155.985629 23.2205944 156.177937 22.999965 156.404161 22.813951 156.663252 22.6622028 156.922692 22.5104545 157.196818 22.399965 157.486329 22.3314336 157.77514 22.2625524 158.077238 22.2279371 158.391224 22.2279371M168.474441 19.984021C169.159056 19.984021 169.840175 20.1182867 170.517797 20.3861189L170.242622 21.1326224C169.557657 20.8962587 168.959755 20.7777273 168.448217 20.7777273 168.02479 20.7777273 167.632483 20.8616434 167.270594 21.0294755 166.908706 21.196958 166.608706 21.4210839 166.370944 21.7015035 166.132832 21.9819231 165.946469 22.3029021 165.812552 22.6647902 165.678287 23.0263287 165.611154 23.405 165.611154 23.8001049 165.611154 24.2091958 165.682832 24.5983566 165.82549 24.9668881 165.968846 25.3357692 166.168846 25.6584965 166.426538 25.9354196 166.683881 26.2123427 167.004161 26.4322727 167.387378 26.5945105 167.769545 26.7567483 168.189126 26.8378671 168.643671 26.8378671 169.187378 26.8378671 169.753462 26.7319231 170.342972 26.5203846L170.618147 27.1871678C169.880734 27.5046503 169.146818 27.6633916 168.416399 27.6633916 167.96465 27.6633916 167.541224 27.598007 167.146119 27.4675874 166.750664 27.3371678 166.405909 27.1546503 166.111503 26.9196853 165.816748 26.6850699 165.563951 26.4074476 165.352063 26.0864685 165.140524 25.7654895 164.980734 25.4116434 164.872692 25.0249301 164.765699 24.6389161 164.711503 24.2322727 164.711503 23.8053497 164.711503 23.0819231 164.862552 22.4326224 165.164301 21.8574476 165.465699 21.2826224 165.903811 20.8263287 166.479336 20.4896154 167.05451 20.1525524 167.719545 19.984021 168.474441 19.984021M173.410524 22.9796154C173.099685 22.9796154 172.832902 23.0652797 172.608776 23.2362587 172.384301 23.4075874 172.221364 23.6198252 172.119266 23.874021 172.016818 24.1282168 171.96542 24.4016434 171.96542 24.6943007L174.696538 24.6943007C174.696538 23.5512937 174.267517 22.9796154 173.410524 22.9796154M173.59549 22.2278671C173.849685 22.2278671 174.078007 22.258986 174.281154 22.3208741 174.483951 22.3824126 174.652133 22.4610839 174.786748 22.5561888 174.920315 22.6516434 175.035699 22.7757692 175.132902 22.9292657 175.230105 23.0827622 175.304231 23.231014 175.35528 23.3736713 175.406678 23.517028 175.446189 23.6887063 175.474161 23.8901049 175.502483 24.0911538 175.519965 24.2656294 175.527657 24.4138811 175.534301 24.5621329 175.537797 24.7366084 175.537797 24.9376573L175.537797 25.3505944 171.944441 25.3505944C171.944441 25.5411538 171.987448 25.731014 172.074161 25.9198252 172.160524 26.1082867 172.282203 26.2813636 172.439545 26.4383566 172.596189 26.5953497 172.802832 26.7233217 173.058077 26.8219231 173.314371 26.9208741 173.597238 26.9701748 173.907727 26.9701748 174.27486 26.9701748 174.671713 26.9065385 175.098636 26.7796154L175.252483 27.3722727C174.684301 27.5663287 174.126608 27.6635315 173.579755 27.6635315 173.19514 27.6635315 172.853881 27.6121329 172.555629 27.510035 172.257378 27.4079371 172.017517 27.2747203 171.835699 27.1103846 171.654231 26.9463986 171.50528 26.7498951 171.388497 26.5201748 171.272413 26.2911538 171.191643 26.0624825 171.147937 25.8352098 171.103531 25.6072378 171.081853 25.3666783 171.081853 25.1124825 171.081853 24.7208741 171.129406 24.3628322 171.22451 24.038007 171.319615 23.7135315 171.448636 23.4408042 171.610874 23.2205245 171.772762 22.9998951 171.962622 22.8138811 172.179755 22.6621329 172.397238 22.5103846 172.62451 22.3998951 172.862972 22.3313636 173.100385 22.2624825 173.34514 22.2278671 173.59549 22.2278671M176.636608 22.3286014L177.24535 22.3286014 177.435909 22.773007C178.109685 22.4062238 178.723671 22.2226573 179.277867 22.2226573 179.563531 22.2226573 179.812133 22.2677622 180.023671 22.3576224 180.235559 22.4478322 180.399895 22.5607692 180.516329 22.6964336 180.632762 22.8320979 180.72507 23.0034266 180.794301 23.2100699 180.863182 23.416014 180.906888 23.6128671 180.926818 23.7999301 180.945699 23.986993 180.95514 24.2006294 180.95514 24.4404895L180.95514 27.5576224 180.087308 27.5576224 180.087308 24.3820979C180.087308 23.464965 179.692203 23.0058741 178.901643 23.0058741 178.492902 23.0058741 178.027168 23.1418881 177.504441 23.4135664L177.504441 27.5576224 176.636608 27.5576224 176.636608 22.3286014zM185.097168 27.4676923C184.585629 27.5981119 184.187028 27.6634965 183.901364 27.6634965 183.61535 27.6634965 183.373392 27.6176923 183.176189 27.5257343 182.978287 27.4341259 182.828636 27.3037063 182.726189 27.1341259 182.623741 26.9648951 182.550664 26.782028 182.506608 26.5865734 182.462552 26.3904196 182.440524 26.1655944 182.440524 25.9117483L182.440524 23.0113986 181.736678 23.0113986 181.736678 22.3285315 182.440524 22.3285315 182.440524 20.830979 183.308706 20.830979 183.308706 22.3285315 184.901364 22.3285315 184.901364 23.0113986 183.308706 23.0113986 183.308706 25.9012587C183.308706 26.6243357 183.594021 26.9862238 184.165699 26.9862238 184.268147 26.9862238 184.537727 26.9491608 184.97549 26.875035L185.097168 27.4676923zM186.651503 22.7202797C187.092413 22.391958 187.579126 22.227972 188.112343 22.227972 188.479126 22.227972 188.812343 22.2968531 189.112343 22.4346154L188.847657 23.1276224C188.572483 23.022028 188.286818 22.9688811 187.990315 22.9688811 187.549056 22.9688811 187.13472 23.0905594 186.746259 23.3342657L186.746259 27.5576923 185.878427 27.5576923 185.878427 22.3286713 186.487168 22.3286713 186.651503 22.7202797zM191.64014 22.9796154C191.329301 22.9796154 191.062517 23.0652797 190.838392 23.2362587 190.614266 23.4075874 190.451329 23.6198252 190.348881 23.874021 190.246434 24.1282168 190.195035 24.4016434 190.195035 24.6943007L192.926154 24.6943007C192.926154 23.5512937 192.497483 22.9796154 191.64014 22.9796154M191.825105 22.2278671C192.079301 22.2278671 192.307972 22.258986 192.510769 22.3208741 192.713566 22.3824126 192.882098 22.4610839 193.016364 22.5561888 193.14993 22.6516434 193.265664 22.7757692 193.362867 22.9292657 193.46007 23.0827622 193.533846 23.231014 193.585245 23.3736713 193.636294 23.517028 193.675804 23.6887063 193.704126 23.8901049 193.732448 24.0911538 193.74993 24.2656294 193.757273 24.4138811 193.763916 24.5621329 193.767762 24.7366084 193.767762 24.9376573L193.767762 25.3505944 190.174056 25.3505944C190.174056 25.5411538 190.217413 25.731014 190.303776 25.9198252 190.39049 26.1082867 190.512168 26.2813636 190.669161 26.4383566 190.826154 26.5953497 191.032448 26.7233217 191.288042 26.8219231 191.543986 26.9208741 191.827203 26.9701748 192.137692 26.9701748 192.504825 26.9701748 192.901678 26.9065385 193.328252 26.7796154L193.482098 27.3722727C192.913916 27.5663287 192.356573 27.6635315 191.809371 27.6635315 191.425105 27.6635315 191.083497 27.6121329 190.785594 27.510035 190.487343 27.4079371 190.247483 27.2747203 190.065664 27.1103846 189.883846 26.9463986 189.734895 26.7498951 189.618462 26.5201748 189.502028 26.2911538 189.421608 26.0624825 189.377552 25.8352098 189.333147 25.6072378 189.311469 25.3666783 189.311469 25.1124825 189.311469 24.7208741 189.359371 24.3628322 189.454126 24.038007 189.54993 23.7135315 189.678252 23.4408042 189.840839 23.2205245 190.002727 22.9998951 190.192587 22.8138811 190.40972 22.6621329 190.626853 22.5103846 190.854126 22.3998951 191.092587 22.3313636 191.33035 22.2624825 191.574755 22.2278671 191.825105 22.2278671M67.8031469 32.0435315C68.4877622 32.0435315 69.1685315 32.1777972 69.8461538 32.4456294L69.570979 33.1921329C68.8863636 32.9557692 68.2881119 32.8372378 67.7765734 32.8372378 67.3531469 32.8372378 66.9608392 32.9211538 66.5993007 33.088986 66.2374126 33.2564685 65.9374126 33.4805944 65.6993007 33.761014 65.4611888 34.0414336 65.2751748 34.3624126 65.1409091 34.7243007 65.0066434 35.0858392 64.9398601 35.4645105 64.9398601 35.8596154 64.9398601 36.2690559 65.0115385 36.6578671 65.1541958 37.0263986 65.2972028 37.3952797 65.4972028 37.718007 65.7548951 37.9949301 66.0122378 38.2718531 66.3325175 38.4917832 66.7157343 38.654021 67.0982517 38.8162587 67.5174825 38.8973776 67.9723776 38.8973776 68.5157343 38.8973776 69.0821678 38.7914336 69.6713287 38.5798951L69.9465035 39.2466783C69.2090909 39.5641608 68.4751748 39.7229021 67.7447552 39.7229021 67.2933566 39.7229021 66.8699301 39.6575175 66.4748252 39.5270979 66.0793706 39.3966783 65.7346154 39.2141608 65.4398601 38.9791958 65.1454545 38.7445804 64.8923077 38.466958 64.6804196 38.145979 64.4688811 37.825 64.3090909 37.4711538 64.2013986 37.0844406 64.0940559 36.6984266 64.0402098 36.2917832 64.0402098 35.8648601 64.0402098 35.1414336 64.1909091 34.4921329 64.4926573 33.916958 64.7944056 33.3421329 65.2325175 32.8858392 65.808042 32.5491259 66.3828671 32.2120629 67.0479021 32.0435315 67.8031469 32.0435315M73.5541259 37.3043357L73.2313986 37.3043357C73.03 37.3043357 72.8555245 37.3078322 72.7072727 37.3148252 72.559021 37.3221678 72.3852448 37.3420979 72.1859441 37.376014 71.9866434 37.4092308 71.8233566 37.4560839 71.6964336 37.5158741 71.5695105 37.576014 71.4611189 37.6634266 71.3709091 37.7781119 71.281049 37.8927972 71.2359441 38.0295105 71.2359441 38.1882517 71.2359441 38.4106294 71.3478322 38.6081818 71.571958 38.7809091 71.7960839 38.953986 72.0632168 39.0403497 72.3740559 39.0403497 72.828951 39.0403497 73.2223077 38.8623776 73.5541259 38.5057343L73.5541259 37.3043357zM72.4055245 34.2875524C72.7936364 34.2875524 73.123007 34.3326573 73.3925874 34.4225175 73.6628671 34.5123776 73.8709091 34.6441958 74.0170629 34.8169231 74.1635664 34.9896503 74.2684615 35.181958 74.3320979 35.3938462 74.3957343 35.6053846 74.4275524 35.8487413 74.4275524 36.1239161L74.4275524 39.6172727 73.8135664 39.6172727 73.6125175 39.141049C73.1852448 39.5291608 72.6946853 39.7228671 72.1411888 39.7228671 71.6467832 39.7228671 71.228951 39.5739161 70.8866434 39.2756643 70.5443357 38.9777622 70.3733566 38.6295105 70.3733566 38.2305594 70.3733566 38.019021 70.4121678 37.8284615 70.4897902 37.6588811 70.5674126 37.4896503 70.6793007 37.3483916 70.8258042 37.2354545 70.9723077 37.1225175 71.1387413 37.0267133 71.3258042 36.946993 71.5128671 36.8676224 71.7306993 36.8067832 71.9796503 36.7644755 72.2282517 36.7221678 72.4779021 36.6920979 72.7286014 36.6746154 72.978951 36.6567832 73.2541259 36.648042 73.5541259 36.648042L73.5541259 36.2351049C73.5541259 36.1155245 73.5495804 36.0113287 73.5408392 35.9228671 73.5320979 35.8347552 73.5030769 35.7291608 73.4534266 35.6053846 73.4041259 35.481958 73.336993 35.3805594 73.2523776 35.3011888 73.1677622 35.2218182 73.0408392 35.1529371 72.8712587 35.0945455 72.702028 35.0365035 72.500979 35.0074825 72.2681119 35.0074825 71.907972 35.0074825 71.4422378 35.0868531 70.8709091 35.2455944L70.7065734 34.6102797C71.2852448 34.3952448 71.8516783 34.2875524 72.4055245 34.2875524L72.4055245 34.2875524zM75.7906294 34.3881469L76.3993706 34.3881469 76.5899301 34.8325524C77.2637063 34.4657692 77.8776923 34.2822028 78.4315385 34.2822028 78.7175524 34.2822028 78.9661538 34.3273077 79.178042 34.4171678 79.3895804 34.5073776 79.5535664 34.6203147 79.67 34.755979 79.7864336 34.8916434 79.8790909 35.062972 79.947972 35.2696154 80.0168531 35.4755594 80.0609091 35.6724126 80.0804895 35.8594755 80.0997203 36.0465385 80.1095105 36.2601748 80.1095105 36.500035L80.1095105 39.6171678 79.2413287 39.6171678 79.2413287 36.4416434C79.2413287 35.5241608 78.8462238 35.0654196 78.056014 35.0654196 77.6465734 35.0654196 77.1808392 35.2014336 76.6584615 35.4731119L76.6584615 39.6171678 75.7906294 39.6171678 75.7906294 34.3881469zM83.6797902 35.0285315C83.2458741 35.0285315 82.8665035 35.1963636 82.542028 35.5313287 82.2172028 35.8666434 82.054965 36.3271329 82.054965 36.9127972 82.054965 37.494965 82.2137063 37.9855245 82.5311888 38.3841259 82.849021 38.7827273 83.2598601 38.982028 83.7644056 38.982028 84.2301399 38.982028 84.6182517 38.8058042 84.9287413 38.453007 85.2392308 38.1002098 85.3944755 37.6397203 85.3944755 37.0715385 85.3944755 36.7470629 85.3441259 36.4523077 85.2437762 36.1876224 85.1430769 35.9229371 85.0109091 35.7079021 84.8465734 35.5418182 84.6829371 35.3760839 84.5000699 35.2491608 84.299021 35.1606993 84.097972 35.0729371 83.8913287 35.0285315 83.6797902 35.0285315M83.7539161 34.2876224C84.476993 34.2876224 85.0724476 34.5187413 85.5402797 34.980979 86.0077622 35.4432168 86.2413287 36.0816783 86.2413287 36.8967133 86.2413287 37.7613986 86.0025175 38.4484615 85.5241958 38.9582517 85.0462238 39.468042 84.4276923 39.7229371 83.6693007 39.7229371 82.9458741 39.7229371 82.354965 39.4841259 81.8962238 39.0061538 81.4374825 38.5278322 81.2081119 37.8795804 81.2081119 37.0606993 81.2081119 36.2176923 81.442028 35.5446154 81.9095105 35.0418182 82.376993 34.539021 82.9916783 34.2876224 83.7539161 34.2876224"/>
    <polygon fill="#68757E" points="87.446 39.617 88.314 39.617 88.314 31.62 87.446 31.62"/>
    <path fill="#68757E" d="M92.3341608 32.7791958C92.1257692 32.7791958 91.946049 32.8082168 91.7943007 32.8666084 91.6425524 32.9246503 91.5289161 32.9917832 91.453042 33.0676573 91.3771678 33.1435315 91.317028 33.2351399 91.272972 33.3428322 91.2289161 33.4505245 91.2023427 33.5386364 91.1936014 33.6075175 91.1848601 33.676049 91.1803147 33.7477273 91.1803147 33.8218531L91.1803147 34.3882867 92.9320629 34.3882867 92.9320629 35.0708042 91.1803147 35.0708042 91.1803147 39.6173077 90.301993 39.6173077 90.301993 35.0708042 89.545 35.0708042 89.545 34.3882867 90.301993 34.3882867 90.301993 33.8589161C90.301993 33.4001748 90.3705245 33.0508741 90.5082867 32.811014 90.6456993 32.5676573 90.8484965 32.3805944 91.117028 32.2498252 91.3848601 32.1194056 91.6953497 32.054021 92.0484965 32.054021 92.4257692 32.054021 92.843951 32.1229021 93.3026923 32.2606643L93.1705245 32.9061189C92.8422028 32.8215035 92.5635315 32.7791958 92.3341608 32.7791958M96.4603147 37.3043357L96.1375874 37.3043357C95.9361888 37.3043357 95.7617133 37.3078322 95.6134615 37.3148252 95.4652098 37.3221678 95.2914336 37.3420979 95.0921329 37.376014 94.8928322 37.4092308 94.7295455 37.4560839 94.6026224 37.5158741 94.4756993 37.576014 94.3673077 37.6634266 94.2770979 37.7781119 94.1872378 37.8927972 94.1421329 38.0295105 94.1421329 38.1882517 94.1421329 38.4106294 94.254021 38.6081818 94.4781469 38.7809091 94.7022727 38.953986 94.9694056 39.0403497 95.2802448 39.0403497 95.7351399 39.0403497 96.1284965 38.8623776 96.4603147 38.5057343L96.4603147 37.3043357zM95.3117133 34.2875524C95.6998252 34.2875524 96.0291958 34.3326573 96.2987762 34.4225175 96.5687063 34.5123776 96.7770979 34.6441958 96.9232517 34.8169231 97.0697552 34.9896503 97.1746503 35.181958 97.2382867 35.3938462 97.3019231 35.6053846 97.3333916 35.8487413 97.3333916 36.1239161L97.3333916 39.6172727 96.7197552 39.6172727 96.5187063 39.141049C96.0914336 39.5291608 95.6012238 39.7228671 95.047028 39.7228671 94.552972 39.7228671 94.1351399 39.5739161 93.7928322 39.2756643 93.4505245 38.9777622 93.2795455 38.6295105 93.2795455 38.2305594 93.2795455 38.019021 93.3183566 37.8284615 93.395979 37.6588811 93.4732517 37.4896503 93.5854895 37.3483916 93.731993 37.2354545 93.8784965 37.1225175 94.0449301 37.0267133 94.231993 36.946993 94.4190559 36.8676224 94.6368881 36.8067832 94.8858392 36.7644755 95.1344406 36.7221678 95.3840909 36.6920979 95.6347902 36.6746154 95.8851399 36.6567832 96.1603147 36.648042 96.4603147 36.648042L96.4603147 36.2351049C96.4603147 36.1155245 96.4557692 36.0113287 96.447028 35.9228671 96.4382867 35.8347552 96.4089161 35.7291608 96.3596154 35.6053846 96.3103147 35.481958 96.2431818 35.3805594 96.1585664 35.3011888 96.073951 35.2218182 95.947028 35.1529371 95.7774476 35.0945455 95.6082168 35.0365035 95.4071678 35.0074825 95.1743007 35.0074825 94.8145105 35.0074825 94.3484266 35.0868531 93.7770979 35.2455944L93.6127622 34.6102797C94.1914336 34.3952448 94.7578671 34.2875524 95.3117133 34.2875524L95.3117133 34.2875524zM98.6968531 34.3881469L99.3055944 34.3881469 99.4961538 34.8325524C100.16993 34.4657692 100.783916 34.2822028 101.337762 34.2822028 101.623776 34.2822028 101.872378 34.3273077 102.084266 34.4171678 102.295804 34.5073776 102.45979 34.6203147 102.576224 34.755979 102.692657 34.8916434 102.785315 35.062972 102.854196 35.2696154 102.923077 35.4755594 102.967133 35.6724126 102.986713 35.8594755 103.005944 36.0465385 103.015734 36.2601748 103.015734 36.500035L103.015734 39.6171678 102.147552 39.6171678 102.147552 36.4416434C102.147552 35.5241608 101.752448 35.0654196 100.962238 35.0654196 100.552797 35.0654196 100.087063 35.2014336 99.5646853 35.4731119L99.5646853 39.6171678 98.6968531 39.6171678 98.6968531 34.3881469zM111.590524 32.0435315C112.380734 32.0435315 113.130734 32.183042 113.839825 32.4617133L114.035629 32.5410839 113.617448 33.6840909 113.416399 33.6155594C112.731783 33.3861888 112.112552 33.2715035 111.558706 33.2715035 111.121294 33.2715035 110.716399 33.3428322 110.344021 33.4854895 109.971993 33.6288462 109.663252 33.8201049 109.418147 34.059965 109.172692 34.3001748 108.982133 34.5753497 108.846469 34.8854895 108.710455 35.1963287 108.642622 35.5208042 108.642622 35.8596154 108.642622 36.2089161 108.715699 36.5414336 108.862203 36.8571678 109.008706 37.1729021 109.213252 37.4498252 109.476189 37.6879371 109.739126 37.9263986 110.069545 38.1148601 110.468497 38.2543706 110.867098 38.3938811 111.302762 38.4634615 111.775839 38.4634615 112.35451 38.4634615 112.932832 38.361014 113.511853 38.1564685L113.707657 38.0875874 114.141573 39.145979 113.945769 39.2309441C113.180035 39.5589161 112.371993 39.7229021 111.521643 39.7229021 110.861853 39.7229021 110.262902 39.6225524 109.72514 39.4215035 109.186678 39.2201049 108.743322 38.9442308 108.393671 38.5931818 108.044371 38.2417832 107.77549 37.8337413 107.586678 37.3676573 107.397867 36.9019231 107.303462 36.4012238 107.303462 35.8648601 107.303462 35.3215035 107.400664 34.816958 107.59472 34.3512238 107.788427 33.8854895 108.065699 33.4812937 108.42549 33.138986 108.785629 32.797028 109.237028 32.5288462 109.780385 32.3347902 110.323741 32.1407343 110.927238 32.0435315 111.590524 32.0435315"/>
    <polygon fill="#68757E" points="114.118 34.388 115.611 34.388 117.331 38.405 118.898 34.388 120.268 34.388 116.87 42.428 115.283 42.428 116.574 39.659"/>
    <path fill="#68757E" d="M123.563497,38.5745455 C123.93028,38.5745455 124.288322,38.513007 124.637622,38.3892308 L124.637622,35.5577622 C124.263497,35.4518182 123.902308,35.399021 123.552657,35.399021 C123.394266,35.399021 123.24042,35.4105594 123.092168,35.4332867 C122.943916,35.4563636 122.786224,35.5021678 122.618741,35.571049 C122.450909,35.6399301 122.306154,35.7290909 122.184825,35.8381818 C122.062797,35.9476224 121.961399,36.0993706 121.88028,36.2934266 C121.799161,36.4874825 121.758601,36.7098601 121.758601,36.9602098 C121.758601,37.2144056 121.798112,37.4402797 121.877832,37.6378322 C121.956853,37.8353846 122.058252,37.9916783 122.182028,38.1063636 C122.305455,38.2206993 122.450909,38.3151049 122.618741,38.3892308 C122.786224,38.4633566 122.945664,38.513007 123.097762,38.5374825 C123.24951,38.5623077 123.404406,38.5745455 123.563497,38.5745455 M120.477832,37.0874825 C120.477832,36.1913287 120.743217,35.4997203 121.274336,35.0126573 C121.805455,34.5255944 122.515594,34.2822378 123.404406,34.2822378 C123.817692,34.2822378 124.228182,34.3423776 124.637622,34.4623077 L124.637622,31.62 L125.93972,31.62 L125.93972,39.6172028 L124.976434,39.6172028 L124.87049,39.3738462 C124.358951,39.6067133 123.812098,39.7231469 123.22993,39.7231469 C122.954755,39.7231469 122.69007,39.6958741 122.435874,39.640979 C122.182028,39.5864336 121.934126,39.4937762 121.692168,39.363007 C121.450559,39.2325874 121.241469,39.0693007 121.065245,38.8734965 C120.888671,38.6776923 120.746713,38.4262937 120.639371,38.1193007 C120.531678,37.8123077 120.477832,37.4682517 120.477832,37.0874825"/>
    <polygon fill="#68757E" points="126.721 34.388 128.113 34.388 129.367 38.268 130.992 34.388 132.162 34.388 133.4 38.278 135.094 34.388 136.491 34.388 133.987 39.617 132.802 39.617 131.569 35.859 129.918 39.617 128.732 39.617"/>
    <path fill="#68757E" d="M139.579825 35.4731119C139.173881 35.4731119 138.849056 35.5745105 138.606049 35.7776573 138.361993 35.9804545 138.217238 36.2336014 138.171783 36.5370979L140.812692 36.5370979C140.784371 36.155979 140.664441 35.8832517 140.452902 35.7192657 140.241364 35.5552797 139.949755 35.4731119 139.579825 35.4731119M139.796608 34.2874476C140.100105 34.2874476 140.372483 34.3203147 140.614441 34.3853497 140.856049 34.4507343 141.055699 34.5336014 141.212343 34.6343007 141.369336 34.7346503 141.50535 34.8654196 141.620035 35.0259091 141.734371 35.1863986 141.821783 35.3398951 141.881923 35.4863986 141.942063 35.6325524 141.988566 35.8084266 142.022133 36.012972 142.055699 36.2175175 142.075979 36.3905944 142.082972 36.5315035 142.090315 36.6727622 142.093462 36.8405944 142.093462 37.0343007L142.093462 37.6273077 138.161294 37.6273077C138.23507 37.8884965 138.44521 38.1150699 138.791014 38.3073776 139.136469 38.4996853 139.592063 38.5958392 140.156399 38.5958392 140.555 38.5958392 140.960944 38.5356993 141.373881 38.4157692L141.591014 38.3521329 141.850105 39.3577273 141.659545 39.4213636C141.070385 39.6224126 140.442413 39.7231119 139.77528 39.7231119 139.309545 39.7231119 138.896958 39.6717133 138.536818 39.5696154 138.177028 39.4671678 137.888566 39.335 137.671783 39.1727622 137.45465 39.0105245 137.276329 38.8147203 137.137168 38.585 136.997657 38.355979 136.901503 38.1266084 136.848706 37.8972378 136.795559 37.6678671 136.769336 37.4227622 136.769336 37.1615734 136.769336 36.7734615 136.82493 36.4178671 136.935769 36.0951399 137.047308 35.7720629 137.198706 35.5003846 137.391014 35.2801049 137.583671 35.0594755 137.809196 34.8734615 138.068636 34.7217133 138.328077 34.569965 138.602203 34.4594755 138.891364 34.3909441 139.180874 34.3220629 139.482622 34.2874476 139.796608 34.2874476M143.192308 39.6171329L144.494406 39.6171329 144.494406 34.3881119 143.192308 34.3881119 143.192308 39.6171329zM143.113287 33.5307692L144.574126 33.5307692 144.574126 32.0965035 143.113287 32.0965035 143.113287 33.5307692zM149.340315 39.5219231C148.821783 39.6558392 148.387517 39.722972 148.038217 39.722972 147.702902 39.722972 147.41479 39.6894056 147.173182 39.6226224 146.931224 39.5554895 146.741364 39.4698252 146.604301 39.365979 146.466189 39.2617832 146.358147 39.1275175 146.278427 38.9635315 146.199406 38.7995455 146.146958 38.6397552 146.122483 38.4845105 146.097657 38.3292657 146.08507 38.1477972 146.08507 37.9394056L146.08507 35.5047902 145.275629 35.5047902 145.275629 34.388007 146.08507 34.388007 146.08507 32.8904545 147.387517 32.8904545 147.387517 34.388007 149.308497 34.388007 149.308497 35.5047902 147.387517 35.5047902 147.387517 37.8495455C147.387517 37.9376573 147.402552 38.0222727 147.432273 38.1033916 147.462343 38.1848601 147.510944 38.265979 147.578077 38.3470979 147.64486 38.4282168 147.74521 38.4925524 147.879476 38.5401049 148.013741 38.5876573 148.172133 38.6114336 148.356049 38.6114336 148.451154 38.6114336 148.708497 38.5764685 149.128427 38.5058392L149.33507 38.4687762 149.541364 39.4691259 149.340315 39.5219231zM153.016434 35.4995804C152.61049 35.4995804 152.151748 35.5967832 151.64021 35.7908392L151.64021 39.6170629 150.338462 39.6170629 150.338462 31.6202098 151.64021 31.6202098 151.64021 34.657972C152.275524 34.4146154 152.866434 34.2929371 153.413636 34.2929371 153.688811 34.2929371 153.935315 34.3237063 154.154545 34.3855944 154.373077 34.4471329 154.553147 34.5240559 154.694056 34.6156643 154.835315 34.7076224 154.956993 34.8247552 155.059441 34.9677622 155.161888 35.1107692 155.239161 35.2464336 155.292308 35.3754545 155.345105 35.5041259 155.386364 35.6548252 155.416434 35.8279021 155.446503 36.0006294 155.464336 36.1425874 155.46958 36.2537762 155.474825 36.364965 155.477273 36.4946853 155.477273 36.6429371L155.477273 39.6170629 154.186014 39.6170629 154.186014 36.5635664C154.186014 35.8541259 153.795804 35.4995804 153.016434 35.4995804M157.862343 34.6686364C158.412692 34.4144406 159.000455 34.2875175 159.62458 34.2875175 160.023531 34.2875175 160.386818 34.3637413 160.71514 34.5151399L160.900105 34.5997552 160.487517 35.6847203 160.280874 35.6053497C160.034021 35.5102448 159.765839 35.4623427 159.476329 35.4623427 159.014091 35.4623427 158.569336 35.5455594 158.142762 35.7112937L158.142762 39.6172378 156.841014 39.6172378 156.841014 34.3882168 157.709196 34.3882168 157.862343 34.6686364zM163.856608 35.4731119C163.451014 35.4731119 163.126189 35.5745105 162.882832 35.7776573 162.639126 35.9804545 162.494371 36.2336014 162.448916 36.5370979L165.089825 36.5370979C165.061154 36.155979 164.941923 35.8832517 164.730035 35.7192657 164.518497 35.5552797 164.227238 35.4731119 163.856608 35.4731119M164.073741 34.2874476C164.376888 34.2874476 164.649615 34.3203147 164.891224 34.3853497 165.132832 34.4507343 165.332483 34.5336014 165.489476 34.6343007 165.646469 34.7346503 165.782483 34.8654196 165.897168 35.0259091 166.011503 35.1863986 166.098566 35.3398951 166.158706 35.4863986 166.218846 35.6325524 166.265699 35.8084266 166.299266 36.012972 166.332832 36.2175175 166.352762 36.3905944 166.360105 36.5315035 166.367098 36.6727622 166.370245 36.8405944 166.370245 37.0343007L166.370245 37.6273077 162.438077 37.6273077C162.512203 37.8884965 162.722343 38.1150699 163.067797 38.3073776 163.413601 38.4996853 163.868846 38.5958392 164.433531 38.5958392 164.832133 38.5958392 165.238077 38.5356993 165.650664 38.4157692L165.867797 38.3521329 166.127238 39.3577273 165.936678 39.4213636C165.347517 39.6224126 164.719196 39.7231119 164.052762 39.7231119 163.587028 39.7231119 163.173741 39.6717133 162.813951 39.5696154 162.453811 39.4671678 162.165699 39.335 161.948566 39.1727622 161.731434 39.0105245 161.553462 38.8147203 161.413951 38.585 161.274441 38.355979 161.178636 38.1266084 161.12549 37.8972378 161.072692 37.6678671 161.046469 37.4227622 161.046469 37.1615734 161.046469 36.7734615 161.101713 36.4178671 161.212902 36.0951399 161.324441 35.7720629 161.475839 35.5003846 161.667797 35.2801049 161.860455 35.0594755 162.086678 34.8734615 162.34542 34.7217133 162.60486 34.569965 162.879336 34.4594755 163.168497 34.3909441 163.457657 34.3220629 163.759755 34.2874476 164.073741 34.2874476M170.290315 38.5745455C170.657098 38.5745455 171.01549 38.513007 171.364441 38.3892308L171.364441 35.5577622C170.990664 35.4518182 170.629126 35.399021 170.279825 35.399021 170.121084 35.399021 169.967238 35.4105594 169.818986 35.4332867 169.670734 35.4563636 169.513042 35.5021678 169.345909 35.571049 169.177727 35.6399301 169.032972 35.7290909 168.911643 35.8381818 168.789965 35.9476224 168.688217 36.0993706 168.607098 36.2934266 168.525979 36.4874825 168.48542 36.7098601 168.48542 36.9602098 168.48542 37.2144056 168.52493 37.4402797 168.605 37.6378322 168.684021 37.8353846 168.78507 37.9916783 168.908846 38.1063636 169.032273 38.2206993 169.177727 38.3151049 169.345909 38.3892308 169.513042 38.4633566 169.672832 38.513007 169.82458 38.5374825 169.975979 38.5623077 170.131573 38.5745455 170.290315 38.5745455M167.205 37.0874825C167.205 36.1913287 167.470385 35.4997203 168.001154 35.0126573 168.532622 34.5255944 169.242413 34.2822378 170.131573 34.2822378 170.544161 34.2822378 170.95535 34.3423776 171.364441 34.4623077L171.364441 31.62 172.666888 31.62 172.666888 39.6172028 171.703252 39.6172028 171.597308 39.3738462C171.085769 39.6067133 170.538916 39.7231469 169.957098 39.7231469 169.681923 39.7231469 169.416888 39.6958741 169.162692 39.640979 168.908846 39.5864336 168.660944 39.4937762 168.418986 39.363007 168.177727 39.2325874 167.968287 39.0693007 167.792063 38.8734965 167.615839 38.6776923 167.473881 38.4262937 167.366189 38.1193007 167.258497 37.8123077 167.205 37.4682517 167.205 37.0874825M176.718566 35.4625175C176.446888 35.4625175 176.191294 35.5139161 175.951434 35.616014 175.711224 35.7184615 175.509126 35.8841958 175.34514 36.1135664 175.181154 36.3429371 175.099336 36.6128671 175.099336 36.9233566 175.099336 37.3820979 175.257727 37.7674126 175.57521 38.0796503 175.893042 38.3918881 176.305979 38.5481818 176.814021 38.5481818 177.276259 38.5481818 177.662273 38.4125175 177.973112 38.1404895 178.283252 37.8688112 178.438846 37.509021 178.438846 37.0607692 178.438846 36.8034266 178.387448 36.5695105 178.285 36.3597203 178.182552 36.1495804 178.048986 35.981049 177.882902 35.8541259 177.716818 35.7272028 177.533951 35.6303497 177.332552 35.5632168 177.131853 35.4960839 176.926958 35.4625175 176.718566 35.4625175M176.803182 34.2876923C177.678357 34.2876923 178.383601 34.5177622 178.917517 34.9782517 179.452133 35.4387413 179.719615 36.0817483 179.719615 36.9072727 179.719615 37.7754545 179.446888 38.4618182 178.901783 38.9663636 178.356678 39.4709091 177.623811 39.723007 176.702832 39.723007 175.827657 39.723007 175.128007 39.4855944 174.604231 39.0111189 174.080455 38.5366434 173.818217 37.8848951 173.818217 37.0555245 173.818217 36.2055245 174.086049 35.5313986 174.619965 35.0338462 175.15458 34.5362937 175.882552 34.2876923 176.803182 34.2876923"/>
    <polygon fill="#68757E" points="180.924 39.617 182.226 39.617 182.226 31.62 180.924 31.62"/>
    <path fill="#68757E" d="M190.382902,32.0435315 C191.067517,32.0435315 191.748636,32.1777972 192.426259,32.4456294 L192.151084,33.1921329 C191.466119,32.9557692 190.868217,32.8372378 190.356678,32.8372378 C189.933252,32.8372378 189.540944,32.9211538 189.179056,33.088986 C188.817517,33.2564685 188.517168,33.4805944 188.279406,33.761014 C188.041294,34.0414336 187.85493,34.3624126 187.721014,34.7243007 C187.586748,35.0858392 187.519965,35.4645105 187.519965,35.8596154 C187.519965,36.2690559 187.591294,36.6578671 187.733951,37.0263986 C187.877308,37.3952797 188.077308,37.718007 188.335,37.9949301 C188.592343,38.2718531 188.912622,38.4917832 189.295839,38.654021 C189.678007,38.8162587 190.097587,38.8973776 190.552133,38.8973776 C191.095839,38.8973776 191.661923,38.7914336 192.251434,38.5798951 L192.526608,39.2466783 C191.789196,39.5641608 191.05528,39.7229021 190.32486,39.7229021 C189.873112,39.7229021 189.449685,39.6575175 189.05458,39.5270979 C188.659126,39.3966783 188.314371,39.2141608 188.019965,38.9791958 C187.72521,38.7445804 187.472413,38.466958 187.260524,38.145979 C187.048986,37.825 186.889196,37.4711538 186.781154,37.0844406 C186.674161,36.6984266 186.619965,36.2917832 186.619965,35.8648601 C186.619965,35.1414336 186.771014,34.4921329 187.072762,33.916958 C187.374161,33.3421329 187.812622,32.8858392 188.387797,32.5491259 C188.962972,32.2120629 189.628007,32.0435315 190.382902,32.0435315"/>
    <polygon fill="#68757E" points="192.567 34.388 193.52 34.388 195.192 38.823 196.748 34.388 197.648 34.388 194.63 42.428 193.705 42.428 194.753 39.877"/>
    <path fill="#68757E" d="M200.413497 35.0867483C200.11 35.0867483 199.702657 35.221014 199.191119 35.4888462L199.191119 39.6171678 198.323287 39.6171678 198.323287 34.3881469 198.931678 34.3881469 199.116643 34.8220629C199.748462 34.4657692 200.295315 34.2874476 200.757552 34.2874476 201.29042 34.2874476 201.708252 34.4818531 202.011748 34.8696154 202.703357 34.4853497 203.322587 34.2926923 203.86979 34.2926923 204.134126 34.2926923 204.366993 34.3290559 204.568392 34.4014336 204.769091 34.4738112 204.932378 34.5724126 205.057902 34.6979371 205.183077 34.8231119 205.285524 34.9801049 205.364545 35.1685664 205.443916 35.3573776 205.498811 35.557028 205.528531 35.7668182 205.558601 35.9766084 205.573636 36.214021 205.573636 36.4787063L205.573636 39.6171678 204.705455 39.6171678 204.705455 36.4203147C204.705455 36.357028 204.704056 36.2979371 204.700559 36.2433916 204.696713 36.1884965 204.687972 36.1126224 204.674336 36.0154196 204.66 35.9185664 204.638671 35.8322028 204.610699 35.7563287 204.582028 35.6804545 204.541119 35.5982867 204.486573 35.5101748 204.431329 35.4220629 204.365245 35.3486364 204.287622 35.2905944 204.21 35.2322028 204.111049 35.183951 203.991469 35.1451399 203.871189 35.1063287 203.737273 35.0867483 203.589021 35.0867483 203.264196 35.0867483 202.835874 35.2245105 202.303007 35.4996853 202.352308 35.7077273 202.376783 36.0465385 202.376783 36.5157692L202.376783 39.6171678 201.508951 39.6171678 201.508951 36.3993357C201.508951 36.3077273 201.505455 36.2203147 201.498811 36.1374476 201.491119 36.0545804 201.466643 35.9440909 201.424336 35.8066783 201.382028 35.6689161 201.325385 35.5517832 201.254755 35.4545804 201.184476 35.3573776 201.076084 35.2720629 200.92993 35.1979371 200.783077 35.1238112 200.611049 35.0867483 200.413497 35.0867483M207.730909 34.7797902C208.172168 34.4514685 208.658881 34.2874825 209.191748 34.2874825 209.558531 34.2874825 209.892098 34.3563636 210.192098 34.4941259L209.927063 35.1871329C209.651888 35.0815385 209.366573 35.0283916 209.07007 35.0283916 208.628811 35.0283916 208.214476 35.1504196 207.826014 35.3937762L207.826014 39.6172028 206.958182 39.6172028 206.958182 34.3881818 207.566923 34.3881818 207.730909 34.7797902zM214.111678 34.3881469L214.97951 34.3881469 214.97951 39.6171678 214.370769 39.6171678 214.185804 39.178007C213.519021 39.5412937 212.903287 39.7231119 212.338601 39.7231119 212.052937 39.7231119 211.803986 39.678007 211.592448 39.5881469 211.380559 39.4979371 211.216573 39.386049 211.10049 39.2521329 210.983706 39.1178671 210.89 38.9475874 210.81972 38.7412937 210.749091 38.5346503 210.704336 38.3381469 210.684406 38.1510839 210.665175 37.964021 210.655734 37.7507343 210.655734 37.5108741L210.655734 34.3881469 211.523916 34.3881469 211.523916 37.5741608C211.523916 38.4881469 211.92042 38.9451399 212.714476 38.9451399 213.123916 38.9451399 213.58965 38.8094755 214.111678 38.5374476L214.111678 34.3881469z"/>
    <path fill="#E63037" d="M5.1284965 45.830979C2.20192308 48.7851748.000174825175 49.8606993.000174825175 49.8606993.000174825175 49.8606993 3.48444056 49.9736364 8.36975524 49.9998601 7.17884615 48.6673427 6.09423077 47.2414685 5.1284965 45.830979M18.866958 46.6361538C17.6445804 47.8616783 16.3120629 48.9826573 14.8655594 49.976014 17.2942308 49.9438462 19.8243007 49.8802098 22.2931818 49.7704196 21.076049 48.855035 19.9309441 47.7861538 18.866958 46.6361538M16.7932867 44.1795455C14.7181119 41.4987762 13.0572727 38.6753497 11.8936364 36.4722028 10.2471329 39.5508741 8.51916084 41.9879371 6.90517483 43.890035 8.07300699 45.673951 9.43734266 47.5204545 10.9737063 49.2033217 13.1604196 47.7910839 15.0911888 46.0858392 16.7932867 44.1795455M32.7235664 10.116958C32.291049 15.8694056 30.1983916 33.5442308 20.4886014 44.8120629 21.9767133 46.5043706 23.6361538 48.0634615 25.4413986 49.275 39.4326573 39.2784965 42.3046853 17.1851399 42.8725175 10.116958L32.7235664 10.116958zM18.4481469 42.1727972C26.508986 31.6186014 28.7068881 16.5301399 29.2929021 10.1168531L19.131014 10.1168531C18.1988462 20.1427273 15.958986 27.7923776 13.3268182 33.5706993 14.3362587 35.6511189 16.0915035 38.9497203 18.4481469 42.1727972"/>
    <path fill="#E63037" d="M46.2706294,10.116958 C45.9793706,15.2061189 43.9867133,37.9617133 31.3713287,49.1798951 C33.6909091,48.9043706 35.693007,48.5428322 37.136014,48.0711538 C53.8339161,42.6092657 56.4657343,10.116958 56.4657343,10.116958 L46.2706294,10.116958 Z"/>
    <path fill="#E63037" d="M46.3652098 10.2868531C45.9043706 15.4165734 43.1774476 38.3316084 30.5715035 49.2372028 32.8263986 49.0368531 34.7770979 48.7393007 36.1907343 48.312028 52.547028 43.3564336 56.2347902 10.6295105 56.2347902 10.6295105L46.3652098 10.2868531zM27.9976573 4.06912587C27.9976573 6.18206294 26.2850699 7.89534965 24.1714336 7.89534965 22.0581469 7.89534965 20.3448601 6.18206294 20.3448601 4.06912587 20.3448601 1.95583916 22.0581469.242902098 24.1714336.242902098 26.2850699.242902098 27.9976573 1.95583916 27.9976573 4.06912587M41.5897902 4.06912587C41.5897902 6.18206294 39.8768531 7.89534965 37.7635664 7.89534965 35.6506294 7.89534965 33.9373427 6.18206294 33.9373427 4.06912587 33.9373427 1.95583916 35.6506294.242902098 37.7635664.242902098 39.8768531.242902098 41.5897902 1.95583916 41.5897902 4.06912587M55.186014 4.06912587C55.186014 6.18206294 53.4734266 7.89534965 51.3601399 7.89534965 49.2468531 7.89534965 47.5332168 6.18206294 47.5332168 4.06912587 47.5332168 1.95583916 49.2468531.242902098 51.3601399.242902098 53.4734266.242902098 55.186014 1.95583916 55.186014 4.06912587"/>
    <polygon fill="#68757E" points="64.144 20.037 65.097 20.037 66.986 26.356 68.892 20.037 69.797 20.037 71.755 26.356 73.592 20.037 74.544 20.037 72.226 27.558 71.268 27.558 69.294 21.275 67.447 27.558 66.489 27.558"/>
  </g>
</svg>
