<svg xmlns="http://www.w3.org/2000/svg" width="387" height="398" viewBox="0 0 387 398" xmlns:xlink="http://www.w3.org/1999/xlink">
  <defs>
    <polygon id="a" points="0 33.904 0 .705 14.862 .705 14.862 33.904 0 33.904"/>
    <polygon id="c" points="315.137 .16 315.137 389.576 .663 389.576 .663 .16"/>
  </defs>
  <g fill="none" fill-rule="evenodd">
    <g transform="rotate(5 -1111.345 3978.637)">
      <path fill="#46A68A" d="M45.9822103 18.7031471C45.980178 18.4618796 45.9781456 18.2226062 45.9679838 17.9913085 45.9659515 17.9155386 45.9679838 17.8337868 45.9639191 17.7580169L45.951725 17.7580169C45.4334751 6.87705574 37.6190788 5.72455518 37.6190788 5.72455518 37.6190788 5.72455518 29.7376149 5.15428674 26.782574 15.6563982L26.7683476 15.6544043C26.7439593 15.73815 26.7256682 15.8318654 26.7033123 15.9156111 26.6464064 16.1209875 26.59763 16.3323458 26.5447888 16.543704 26.39033 17.1817666 26.2460329 17.8437565 26.1281565 18.5655648 26.0509271 19.0480997 25.9676006 19.5645316 25.8842741 20.0949211 25.3965095 20.0410846 24.8721625 19.9852541 24.3640743 19.9274297 22.7036421 19.7459806 21.1366982 21.6541865 20.4294394 22.6052986 19.7201483 23.5564106 14.8994076 47.439891 14.1535342 55.3000245 13.4096931 63.1581641 10.1985758 95.8987508 10.6477257 96.2417094 11.0968757 96.5846681 13.1678431 98.345322 14.2957989 96.8937296 15.4278193 95.4421373 18.3787955 87.0894992 16.5049663 85.5581489 14.6270724 84.0307866 13.3466901 80.8005947 14.2551518 76.7827944 15.1615811 72.764994 22.0085775 27.6320354 23.3255421 25.7158537 23.9006979 24.8803905 24.5795037 24.4736256 25.2420507 24.2921766 22.9150068 39.8010854 19.3868425 66.3544589 18.399119 75.0321101 17.805672 80.2343142 16.8403045 91.8550291 16.059881 101.685181L16.0578487 101.685181C16.0314281 102.038109 16.0050075 102.363122 15.9785869 102.710069 15.3160399 111.078659 14.8059194 117.905928 14.8059194 117.905928L24.7075419 118.992629 34.6111968 120.079329C34.6111968 120.079329 34.6213585 120.011535 34.6274556 119.977638 34.6985879 119.515042 35.015635 117.429375 35.4749467 114.400572 35.7005378 112.911095 35.9586466 111.218235 36.2411437 109.341932L36.2391113 109.341932C37.81012 98.8856813 40.051805 83.685834 40.7590638 77.4846632 41.8504372 67.9017607 44.8359634 36.3774808 45.848075 22.0111028 45.876528 21.5684469 45.9070133 21.1437365 45.9354662 20.7369716 45.9822103 20.0191512 45.9903397 19.3511794 45.9822103 18.7031471M5.60505211 198.633208C5.60505211 198.633208 4.41815811 222.877593 4.41815811 231.004915 4.41815811 239.12825 5.59895505 263.631847 5.59895505 263.631847L6.6374873 263.74949 6.20866087 267.508077C6.12330206 268.269764 6.68219906 268.955682 7.46059015 269.041421 8.2369489 269.127161 8.93607824 268.582814 9.0234694 267.819133L9.45229583 264.056557 10.7834869 264.204109C10.7834869 264.204109 17.4536685 240.557909 19.2807536 232.631975 21.1078388 224.712023 25.4103295 200.804615 25.4103295 200.804615L34.6128227 120.079728 14.8055129 117.906327 5.60505211 198.633208z"/>
      <path fill="#46484C" d="M4.60449835 262.100559C4.51710718 262.864241 3.81797784 263.408588 3.04365145 263.322848 2.26526036 263.237108 1.704331 262.553185 1.78968982 261.789504L2.4095574 256.35999C2.49694857 255.596309 3.19811026 255.047974 3.97650136 255.133714 4.75082775 255.219453 5.3117571 255.90537 5.22436593 256.667058L4.60449835 262.100559zM23.495217 14.6002678C23.495217 14.6002678 21.6071613 14.3928975 19.9467291 14.2094545 18.2862969 14.0280054 16.719353 15.9342174 16.0100619 16.8873234 15.3028031 17.8384355 10.4820625 41.7219158 9.736189 49.5820494 8.99031555 57.440189 5.78123058 90.1807756 6.23038054 90.5237343 6.67953049 90.8666929 8.74846557 92.6273469 9.87845369 91.1757545 11.0084418 89.7241621 13.9614503 81.371524 12.0876211 79.8401738 10.2097272 78.3128114 8.92934496 75.0826196 9.83577428 71.0648192 10.744236 67.0470188 17.5912323 21.9120663 18.9061645 19.9978786 20.2251614 18.0836908 22.094926 18.3369219 23.0298082 18.7157715 24.5601698 16.4027947 23.495217 14.6002678 23.495217 14.6002678"/>
      <path fill="#4B5C69" d="M41.5164951,15.018797 C42.4290215,1.33434839 33.2001078,0.00638062591 33.2001078,0.00638062591 C33.2001078,0.00638062591 23.902094,-0.699476115 21.7112178,12.8473903 C19.5223739,26.3882748 15.1060714,59.4359291 13.980148,69.3139356 C12.8542246,79.1899481 10.3889807,112.187754 10.3889807,112.187754 L20.2906032,113.274454 L30.1942581,114.361154 C30.1942581,114.361154 35.2141693,81.6444951 36.3400927,71.7664887 C37.4660161,61.8884822 40.6039688,28.7012517 41.5164951,15.018797"/>
      <path fill="#E5E5E5" d="M11.2196033 101.365016C10.733871 107.614041 10.388371 112.188153 10.388371 112.188153L20.2899935 113.274853 30.1936484 114.361553C30.1936484 114.361553 30.888713 109.823333 31.8235953 103.624156L11.2196033 101.365016zM11.344593 99.7604878L32.058332 102.033586C32.2392114 100.823261 32.4302525 99.5610933 32.6212937 98.2710105L11.6413164 95.9680033C11.5396988 97.2700498 11.4380812 98.5421871 11.344593 99.7604878M21.7108113 12.8465927C21.645776 13.2493697 21.5807407 13.6700922 21.5096084 14.1087602L41.4286975 16.2941246C41.4591828 15.8514687 41.4876357 15.4267583 41.5160887 15.0179994 41.5851887 13.9492446 41.5892534 12.9642355 41.546574 12.0410387L22.3489701 9.93543211C22.101023 10.8267258 21.8835613 11.7878076 21.7108113 12.8465927"/>
      <polygon fill="#4B5C69" points="20.992 195.086 1.187 192.915 10.388 112.188 30.193 114.361"/>
      <path fill="#E5E5E5" d="M-5.1159077e-13,225.286741 C-5.1159077e-13,217.159418 1.186894,192.915034 1.186894,192.915034 L20.9921714,195.086441 C20.9921714,195.086441 16.6896806,218.993848 14.8605632,226.9138 C13.0355104,234.839734 -5.1159077e-13,233.410075 -5.1159077e-13,225.286741"/>
      <g transform="translate(0 224.582)">
        <mask id="b" fill="white">
          <use xlink:href="#a"/>
        </mask>
        <path fill="#4B5C69" d="M6.36512552,33.904222 L1.1805937,33.3319596 C1.1805937,33.3319596 -0.000203235273,8.82836221 -0.000203235273,0.705027853 C3.91614048,1.13173221 10.470478,1.85354052 14.8623923,2.33208746 C13.0353072,10.2580212 6.36512552,33.904222 6.36512552,33.904222" mask="url(#b)"/>
      </g>
    </g>
    <g transform="translate(2.674 12.559)">
      <mask id="d" fill="white">
        <use xlink:href="#c"/>
      </mask>
      <path fill="#46A68A" d="M305.163603,55.67917 L103.58526,-4.36562916 L2.56479499,324.300086 L204.143138,384.342252 C212.972401,386.969262 222.301687,382.060071 224.975601,373.370935 L316.319171,76.1924802 C318.990411,67.4928151 313.99554,58.3061793 305.163603,55.67917" mask="url(#d)"/>
    </g>
    <path fill="#4B5C69" d="M302.598808,60.0447991 L101.020465,0 L0,328.663082 L201.578343,388.707882 C210.404932,391.334891 219.736892,386.4257 222.41348,377.736564 L313.75705,80.5554771 C316.42829,71.8584442 311.430745,62.6718084 302.598808,60.0447991"/>
    <polygon fill="#EAE183" points="254.215 274.273 36.641 209.459 61.351 129.051 278.933 193.86"/>
    <polygon fill="#46484C" points="190.801 385.505 180.506 382.43 281.532 53.77 291.829 56.836"/>
  </g>
</svg>
