<svg xmlns="http://www.w3.org/2000/svg" width="331" height="367" viewBox="0 0 331 367">
  <g fill="none" fill-rule="evenodd">
    <circle cx="165.5" cy="201.5" r="165.5" fill="#00846A"/>
    <path fill="#B9B9B9" d="M96.6409784,257.110668 C96.8564018,256.264842 99.372618,255.230271 99.5642036,251.970445 C99.779627,248.244929 98.9002757,244.906606 98.9002757,244.906606 L95.3660955,244.835165 L96.6409784,257.110668 Z"/>
    <path fill="#F2CCB0" d="M110.219629,328.679903 C116.413052,316.753667 81.7943315,273.713555 75.7554126,254.695257 C75.7554126,254.695257 57.169845,249.663518 58.8623315,255.997953 C63.2396649,272.37558 73.8095387,319.568971 87.6778631,340.621133 C87.6778631,340.621133 103.202476,342.192835 110.219629,328.679903"/>
    <path fill="#F2CCB0" d="M125.261216,194.316504 C125.261216,194.316504 111.780477,215.027337 108.205685,241.816827 C104.641486,268.612492 102.132333,276.478057 97.2941351,290.674529 C87.781955,318.570914 84.592982,321.403858 84.592982,321.403858 L108.120928,331.709001 C108.120928,331.709001 120.149324,315.079125 124.454261,290.663063 C126.540514,278.837374 139.510946,233.818964 139.493288,220.286629 C139.448261,206.752529 137.79727,204.343821 127.770369,194.115411"/>
    <path fill="#F2CCB0" d="M120.457627,191.633234 C120.457627,191.633234 138.812762,177.266538 142.719519,201.235432 C146.625393,225.204327 124.760798,250.247482 124.760798,250.247482 L119.310762,223.870761 L120.457627,191.633234 Z"/>
    <path fill="#E3E3E2" d="M95.000582,256.821465 L130.893303,267.231564 C130.893303,267.231564 135.962816,239.449837 138.278618,233.088061 C140.59442,226.726284 140.015249,229.618322 141.751879,225.569999 C143.48851,221.521676 146.962654,187.400222 146.962654,187.400222 L123.224582,187.400222 C118.983213,187.400222 115.1206,189.840682 113.301861,193.668508 L102.946528,229.575986 L95.000582,256.821465 Z"/>
    <path fill="#F2CCB0" d="M244.827573,188.184309 C244.827573,188.184309 242.522366,212.781179 251.815591,238.163017 C261.122059,263.545738 262.557627,271.675017 264.875195,286.492409 C269.426456,315.609465 271.5,328.5 271.5,328.5 C271.5,328.5 276.281097,324.853118 279.5,322 C282.718903,319.146882 292.5,309 292.5,309 C292.5,309 293.025915,286.540918 285.459609,262.551738 C281.883933,251.212906 272.203123,216.116856 265.894041,204.141229 C259.56024,192.177949 260.59233,191.245688 246.956204,186.841924"/>
    <polygon fill="#CDCDCD" points="130.893 267.231 136.465 258.419 98.176 247.079 94.982 256.782"/>
    <path fill="#E3E3E2" d="M291.934142,252.500431 L256.041422,262.91053 C256.041422,262.91053 242.147494,237.464307 239.831692,231.10253 C237.516773,224.740754 238.095061,227.632791 236.358431,223.584468 C234.6218,219.536145 234.583836,181.328443 234.583836,181.328443 L240.771079,179.593574 C266.098341,180.315922 267.392647,197.121313 270.471259,203.60304 L281.035836,225.839711 L291.934142,252.500431 Z"/>
    <path fill="#CDCDCD" d="M291.66813,254.057316 C291.337049,253.250297 288.70076,252.576458 288.05449,249.375725 C287.320814,245.716359 287.723409,242.288955 287.723409,242.288955 L291.214328,241.723601 L291.66813,254.057316 Z"/>
    <polygon fill="#CDCDCD" points="257.077 263.981 251.505 255.169 289.206 243.975 292.4 253.677"/>
    <path fill="#B9B9B9" d="M291.66813,254.057316 C291.337049,253.250297 288.70076,252.576458 288.05449,249.375725 C287.320814,245.716359 287.723409,242.288955 287.723409,242.288955 L291.214328,241.723601 L291.66813,254.057316 Z"/>
    <polygon fill="#CDCDCD" points="257.077 263.981 251.505 255.169 289.206 243.975 292.4 253.677"/>
    <path fill="#9C9B9B" d="M189.713521 162.259078C189.713521 162.259078 203.96325 162.889699 206.822025 164.86006 209.681683 166.83042 210.693467 179.539861 210.693467 179.539861L200.92525 183.221277 189.713521 162.259078zM187.456519 161.584005C187.456519 161.584005 173.206789 162.214626 170.348014 164.184986 167.488357 166.155347 166.476573 178.864788 166.476573 178.864788L176.244789 182.546204 187.456519 161.584005z"/>
    <path fill="#E3E3E2" d="M136.130861,364.272061 C136.130861,364.272061 156.118443,313.778272 144.176187,288.053174 C138.63698,276.120764 130.027989,273.625621 124.133863,252.71987 C122.142079,245.656913 111.24289,190.17372 120.817755,187.001211 C130.407629,183.856043 156.783755,176.020466 176.143611,179.887981 C191.773286,183.011099 204.215755,177.470453 204.215755,177.470453 C204.215755,177.470453 222.484368,173.467994 244.710944,179.685124 C263.105809,184.83064 267.559953,206.073311 260.894187,240.647224 C253.393214,279.55787 242.952241,274.333857 237.609917,295.119658 C234.076056,308.866907 247.107541,345.504806 247.107541,345.504806 C247.107541,345.504806 226.5,359.044122 193.5,364.272061 C160.5,369.5 136.130861,364.272061 136.130861,364.272061 Z"/>
    <path fill="#1C0C3D" d="M60.141982 194.249209C60.141982 195.366687 59.2352613 196.27337 58.1157658 196.27337 56.9971532 196.27337 56.0895495 195.366687 56.0895495 194.249209 56.0895495 193.13173 56.9971532 192.225047 58.1157658 192.225047 59.2352613 192.225047 60.141982 193.13173 60.141982 194.249209M133.565877 194.249209C133.565877 195.366687 132.659157 196.27337 131.539661 196.27337 130.421049 196.27337 129.513445 195.366687 129.513445 194.249209 129.513445 193.13173 130.421049 192.225047 131.539661 192.225047 132.659157 192.225047 133.565877 193.13173 133.565877 194.249209M158.040539 194.249209C158.040539 195.366687 157.133818 196.27337 156.014323 196.27337 154.89571 196.27337 153.988106 195.366687 153.988106 194.249209 153.988106 193.13173 154.89571 192.225047 156.014323 192.225047 157.133818 192.225047 158.040539 193.13173 158.040539 194.249209M231.464434 194.249209C231.464434 195.366687 230.557714 196.27337 229.438218 196.27337 228.319605 196.27337 227.412002 195.366687 227.412002 194.249209 227.412002 193.13173 228.319605 192.225047 229.438218 192.225047 230.557714 192.225047 231.464434 193.13173 231.464434 194.249209M255.939007 194.249209C255.939007 195.366687 255.032286 196.27337 253.912791 196.27337 252.794178 196.27337 251.886575 195.366687 251.886575 194.249209 251.886575 193.13173 252.794178 192.225047 253.912791 192.225047 255.032286 192.225047 255.939007 193.13173 255.939007 194.249209M47.4050721 208.67685C47.4050721 209.794328 46.4983514 210.701011 45.3788559 210.701011 44.2602432 210.701011 43.3526396 209.794328 43.3526396 208.67685 43.3526396 207.559371 44.2602432 206.652688 45.3788559 206.652688 46.4983514 206.652688 47.4050721 207.559371 47.4050721 208.67685M71.8797333 208.67685C71.8797333 209.794328 70.9730126 210.701011 69.8535171 210.701011 68.7349045 210.701011 67.8273009 209.794328 67.8273009 208.67685 67.8273009 207.559371 68.7349045 206.652688 69.8535171 206.652688 70.9730126 206.652688 71.8797333 207.559371 71.8797333 208.67685M120.828968 208.67685C120.828968 209.794328 119.922247 210.701011 118.802751 210.701011 117.684139 210.701011 116.776535 209.794328 116.776535 208.67685 116.776535 207.559371 117.684139 206.652688 118.802751 206.652688 119.922247 206.652688 120.828968 207.559371 120.828968 208.67685M145.303629 208.67685C145.303629 209.794328 144.396908 210.701011 143.277413 210.701011 142.1588 210.701011 141.251196 209.794328 141.251196 208.67685 141.251196 207.559371 142.1588 206.652688 143.277413 206.652688 144.396908 206.652688 145.303629 207.559371 145.303629 208.67685M169.778202 208.67685C169.778202 209.794328 168.871481 210.701011 167.751986 210.701011 166.633373 210.701011 165.725769 209.794328 165.725769 208.67685 165.725769 207.559371 166.633373 206.652688 167.751986 206.652688 168.871481 206.652688 169.778202 207.559371 169.778202 208.67685M194.252863 208.67685C194.252863 209.794328 193.346142 210.701011 192.226647 210.701011 191.108034 210.701011 190.200431 209.794328 190.200431 208.67685 190.200431 207.559371 191.108034 206.652688 192.226647 206.652688 193.346142 206.652688 194.252863 207.559371 194.252863 208.67685M218.727524 208.67685C218.727524 209.794328 217.820804 210.701011 216.701308 210.701011 215.582695 210.701011 214.675092 209.794328 214.675092 208.67685 214.675092 207.559371 215.582695 206.652688 216.701308 206.652688 217.820804 206.652688 218.727524 207.559371 218.727524 208.67685M243.202097 208.67685C243.202097 209.794328 242.295377 210.701011 241.175881 210.701011 240.057268 210.701011 239.149665 209.794328 239.149665 208.67685 239.149665 207.559371 240.057268 206.652688 241.175881 206.652688 242.295377 206.652688 243.202097 207.559371 243.202097 208.67685M267.676759 208.67685C267.676759 209.794328 266.770038 210.701011 265.650542 210.701011 264.53193 210.701011 263.624326 209.794328 263.624326 208.67685 263.624326 207.559371 264.53193 206.652688 265.650542 206.652688 266.770038 206.652688 267.676759 207.559371 267.676759 208.67685M110.268452 224.868554C110.268452 225.986032 109.361732 226.892716 108.242236 226.892716 107.123623 226.892716 106.21602 225.986032 106.21602 224.868554 106.21602 223.751076 107.123623 222.844393 108.242236 222.844393 109.361732 222.844393 110.268452 223.751076 110.268452 224.868554M133.565877 223.104579C133.565877 224.222057 132.659157 225.12874 131.539661 225.12874 130.421049 225.12874 129.513445 224.222057 129.513445 223.104579 129.513445 221.987101 130.421049 221.080417 131.539661 221.080417 132.659157 221.080417 133.565877 221.987101 133.565877 223.104579M158.040539 223.104579C158.040539 224.222057 157.133818 225.12874 156.014323 225.12874 154.89571 225.12874 153.988106 224.222057 153.988106 223.104579 153.988106 221.987101 154.89571 221.080417 156.014323 221.080417 157.133818 221.080417 158.040539 221.987101 158.040539 223.104579M182.5152 223.104579C182.5152 224.222057 181.608479 225.12874 180.488984 225.12874 179.370371 225.12874 178.462768 224.222057 178.462768 223.104579 178.462768 221.987101 179.370371 221.080417 180.488984 221.080417 181.608479 221.080417 182.5152 221.987101 182.5152 223.104579M206.989773 223.104579C206.989773 224.222057 206.083052 225.12874 204.963557 225.12874 203.844944 225.12874 202.937341 224.222057 202.937341 223.104579 202.937341 221.987101 203.844944 221.080417 204.963557 221.080417 206.083052 221.080417 206.989773 221.987101 206.989773 223.104579M231.464434 223.104579C231.464434 224.222057 230.557714 225.12874 229.438218 225.12874 228.319605 225.12874 227.412002 224.222057 227.412002 223.104579 227.412002 221.987101 228.319605 221.080417 229.438218 221.080417 230.557714 221.080417 231.464434 221.987101 231.464434 223.104579M255.939007 223.104579C255.939007 224.222057 255.032286 225.12874 253.912791 225.12874 252.794178 225.12874 251.886575 224.222057 251.886575 223.104579 251.886575 221.987101 252.794178 221.080417 253.912791 221.080417 255.032286 221.080417 255.939007 221.987101 255.939007 223.104579M47.4050721 237.53222C47.4050721 238.649698 46.4983514 239.556381 45.3788559 239.556381 44.2602432 239.556381 43.3526396 238.649698 43.3526396 237.53222 43.3526396 236.414742 44.2602432 235.508058 45.3788559 235.508058 46.4983514 235.508058 47.4050721 236.414742 47.4050721 237.53222M120.828968 237.53222C120.828968 238.649698 119.922247 239.556381 118.802751 239.556381 117.684139 239.556381 116.776535 238.649698 116.776535 237.53222 116.776535 236.414742 117.684139 235.508058 118.802751 235.508058 119.922247 235.508058 120.828968 236.414742 120.828968 237.53222M145.303629 237.53222C145.303629 238.649698 144.396908 239.556381 143.277413 239.556381 142.1588 239.556381 141.251196 238.649698 141.251196 237.53222 141.251196 236.414742 142.1588 235.508058 143.277413 235.508058 144.396908 235.508058 145.303629 236.414742 145.303629 237.53222M169.778202 237.53222C169.778202 238.649698 168.871481 239.556381 167.751986 239.556381 166.633373 239.556381 165.725769 238.649698 165.725769 237.53222 165.725769 236.414742 166.633373 235.508058 167.751986 235.508058 168.871481 235.508058 169.778202 236.414742 169.778202 237.53222M194.252863 237.53222C194.252863 238.649698 193.346142 239.556381 192.226647 239.556381 191.108034 239.556381 190.200431 238.649698 190.200431 237.53222 190.200431 236.414742 191.108034 235.508058 192.226647 235.508058 193.346142 235.508058 194.252863 236.414742 194.252863 237.53222M218.727524 237.53222C218.727524 238.649698 217.820804 239.556381 216.701308 239.556381 215.582695 239.556381 214.675092 238.649698 214.675092 237.53222 214.675092 236.414742 215.582695 235.508058 216.701308 235.508058 217.820804 235.508058 218.727524 236.414742 218.727524 237.53222M243.202097 237.53222C243.202097 238.649698 242.295377 239.556381 241.175881 239.556381 240.057268 239.556381 239.149665 238.649698 239.149665 237.53222 239.149665 236.414742 240.057268 235.508058 241.175881 235.508058 242.295377 235.508058 243.202097 236.414742 243.202097 237.53222M267.676759 237.53222C267.676759 238.649698 266.770038 239.556381 265.650542 239.556381 264.53193 239.556381 263.624326 238.649698 263.624326 237.53222 263.624326 236.414742 264.53193 235.508058 265.650542 235.508058 266.770038 235.508058 267.676759 236.414742 267.676759 237.53222M133.565877 251.959949C133.565877 253.077427 132.659157 253.984111 131.539661 253.984111 130.421049 253.984111 129.513445 253.077427 129.513445 251.959949 129.513445 250.842471 130.421049 249.935788 131.539661 249.935788 132.659157 249.935788 133.565877 250.842471 133.565877 251.959949M158.040539 251.959949C158.040539 253.077427 157.133818 253.984111 156.014323 253.984111 154.89571 253.984111 153.988106 253.077427 153.988106 251.959949 153.988106 250.842471 154.89571 249.935788 156.014323 249.935788 157.133818 249.935788 158.040539 250.842471 158.040539 251.959949M182.5152 251.959949C182.5152 253.077427 181.608479 253.984111 180.488984 253.984111 179.370371 253.984111 178.462768 253.077427 178.462768 251.959949 178.462768 250.842471 179.370371 249.935788 180.488984 249.935788 181.608479 249.935788 182.5152 250.842471 182.5152 251.959949M206.989773 251.959949C206.989773 253.077427 206.083052 253.984111 204.963557 253.984111 203.844944 253.984111 202.937341 253.077427 202.937341 251.959949 202.937341 250.842471 203.844944 249.935788 204.963557 249.935788 206.083052 249.935788 206.989773 250.842471 206.989773 251.959949M231.464434 251.959949C231.464434 253.077427 230.557714 253.984111 229.438218 253.984111 228.319605 253.984111 227.412002 253.077427 227.412002 251.959949 227.412002 250.842471 228.319605 249.935788 229.438218 249.935788 230.557714 249.935788 231.464434 250.842471 231.464434 251.959949M255.939007 251.959949C255.939007 253.077427 255.032286 253.984111 253.912791 253.984111 252.794178 253.984111 251.886575 253.077427 251.886575 251.959949 251.886575 250.842471 252.794178 249.935788 253.912791 249.935788 255.032286 249.935788 255.939007 250.842471 255.939007 251.959949M145.303629 266.38759C145.303629 267.505068 144.396908 268.411752 143.277413 268.411752 142.1588 268.411752 141.251196 267.505068 141.251196 266.38759 141.251196 265.270112 142.1588 264.363429 143.277413 264.363429 144.396908 264.363429 145.303629 265.270112 145.303629 266.38759M169.778202 266.38759C169.778202 267.505068 168.871481 268.411752 167.751986 268.411752 166.633373 268.411752 165.725769 267.505068 165.725769 266.38759 165.725769 265.270112 166.633373 264.363429 167.751986 264.363429 168.871481 264.363429 169.778202 265.270112 169.778202 266.38759M194.252863 266.38759C194.252863 267.505068 193.346142 268.411752 192.226647 268.411752 191.108034 268.411752 190.200431 267.505068 190.200431 266.38759 190.200431 265.270112 191.108034 264.363429 192.226647 264.363429 193.346142 264.363429 194.252863 265.270112 194.252863 266.38759M218.727524 266.38759C218.727524 267.505068 217.820804 268.411752 216.701308 268.411752 215.582695 268.411752 214.675092 267.505068 214.675092 266.38759 214.675092 265.270112 215.582695 264.363429 216.701308 264.363429 217.820804 264.363429 218.727524 265.270112 218.727524 266.38759M243.202097 266.38759C243.202097 267.505068 242.295377 268.411752 241.175881 268.411752 240.057268 268.411752 239.149665 267.505068 239.149665 266.38759 239.149665 265.270112 240.057268 264.363429 241.175881 264.363429 242.295377 264.363429 243.202097 265.270112 243.202097 266.38759M158.040539 280.815319C158.040539 281.932798 157.133818 282.839481 156.014323 282.839481 154.89571 282.839481 153.988106 281.932798 153.988106 280.815319 153.988106 279.697841 154.89571 278.791158 156.014323 278.791158 157.133818 278.791158 158.040539 279.697841 158.040539 280.815319M182.5152 280.815319C182.5152 281.932798 181.608479 282.839481 180.488984 282.839481 179.370371 282.839481 178.462768 281.932798 178.462768 280.815319 178.462768 279.697841 179.370371 278.791158 180.488984 278.791158 181.608479 278.791158 182.5152 279.697841 182.5152 280.815319M206.989773 280.815319C206.989773 281.932798 206.083052 282.839481 204.963557 282.839481 203.844944 282.839481 202.937341 281.932798 202.937341 280.815319 202.937341 279.697841 203.844944 278.791158 204.963557 278.791158 206.083052 278.791158 206.989773 279.697841 206.989773 280.815319M231.464434 280.815319C231.464434 281.932798 230.557714 282.839481 229.438218 282.839481 228.319605 282.839481 227.412002 281.932798 227.412002 280.815319 227.412002 279.697841 228.319605 278.791158 229.438218 278.791158 230.557714 278.791158 231.464434 279.697841 231.464434 280.815319M169.778202 295.24296C169.778202 296.360439 168.871481 297.267122 167.751986 297.267122 166.633373 297.267122 165.725769 296.360439 165.725769 295.24296 165.725769 294.125482 166.633373 293.218799 167.751986 293.218799 168.871481 293.218799 169.778202 294.125482 169.778202 295.24296M194.252863 295.24296C194.252863 296.360439 193.346142 297.267122 192.226647 297.267122 191.108034 297.267122 190.200431 296.360439 190.200431 295.24296 190.200431 294.125482 191.108034 293.218799 192.226647 293.218799 193.346142 293.218799 194.252863 294.125482 194.252863 295.24296M218.727524 295.24296C218.727524 296.360439 217.820804 297.267122 216.701308 297.267122 215.582695 297.267122 214.675092 296.360439 214.675092 295.24296 214.675092 294.125482 215.582695 293.218799 216.701308 293.218799 217.820804 293.218799 218.727524 294.125482 218.727524 295.24296M158.040539 309.670689C158.040539 310.788168 157.133818 311.694851 156.014323 311.694851 154.89571 311.694851 153.988106 310.788168 153.988106 309.670689 153.988106 308.553211 154.89571 307.646528 156.014323 307.646528 157.133818 307.646528 158.040539 308.553211 158.040539 309.670689M182.5152 309.670689C182.5152 310.788168 181.608479 311.694851 180.488984 311.694851 179.370371 311.694851 178.462768 310.788168 178.462768 309.670689 178.462768 308.553211 179.370371 307.646528 180.488984 307.646528 181.608479 307.646528 182.5152 308.553211 182.5152 309.670689M206.989773 309.670689C206.989773 310.788168 206.083052 311.694851 204.963557 311.694851 203.844944 311.694851 202.937341 310.788168 202.937341 309.670689 202.937341 308.553211 203.844944 307.646528 204.963557 307.646528 206.083052 307.646528 206.989773 308.553211 206.989773 309.670689M231.464434 309.670689C231.464434 310.788168 230.557714 311.694851 229.438218 311.694851 228.319605 311.694851 227.412002 310.788168 227.412002 309.670689 227.412002 308.553211 228.319605 307.646528 229.438218 307.646528 230.557714 307.646528 231.464434 308.553211 231.464434 309.670689M169.778202 324.09833C169.778202 325.215809 168.871481 326.122492 167.751986 326.122492 166.633373 326.122492 165.725769 325.215809 165.725769 324.09833 165.725769 322.980852 166.633373 322.074169 167.751986 322.074169 168.871481 322.074169 169.778202 322.980852 169.778202 324.09833M194.252863 324.09833C194.252863 325.215809 193.346142 326.122492 192.226647 326.122492 191.108034 326.122492 190.200431 325.215809 190.200431 324.09833 190.200431 322.980852 191.108034 322.074169 192.226647 322.074169 193.346142 322.074169 194.252863 322.980852 194.252863 324.09833M218.727524 324.09833C218.727524 325.215809 217.820804 326.122492 216.701308 326.122492 215.582695 326.122492 214.675092 325.215809 214.675092 324.09833 214.675092 322.980852 215.582695 322.074169 216.701308 322.074169 217.820804 322.074169 218.727524 322.980852 218.727524 324.09833M158.040539 338.52606C158.040539 339.643538 157.133818 340.550221 156.014323 340.550221 154.89571 340.550221 153.988106 339.643538 153.988106 338.52606 153.988106 337.408581 154.89571 336.501898 156.014323 336.501898 157.133818 336.501898 158.040539 337.408581 158.040539 338.52606M182.5152 338.52606C182.5152 339.643538 181.608479 340.550221 180.488984 340.550221 179.370371 340.550221 178.462768 339.643538 178.462768 338.52606 178.462768 337.408581 179.370371 336.501898 180.488984 336.501898 181.608479 336.501898 182.5152 337.408581 182.5152 338.52606M206.989773 338.52606C206.989773 339.643538 206.083052 340.550221 204.963557 340.550221 203.844944 340.550221 202.937341 339.643538 202.937341 338.52606 202.937341 337.408581 203.844944 336.501898 204.963557 336.501898 206.083052 336.501898 206.989773 337.408581 206.989773 338.52606M231.464434 338.52606C231.464434 339.643538 230.557714 340.550221 229.438218 340.550221 228.319605 340.550221 227.412002 339.643538 227.412002 338.52606 227.412002 337.408581 228.319605 336.501898 229.438218 336.501898 230.557714 336.501898 231.464434 337.408581 231.464434 338.52606M145.303629 352.953701C145.303629 354.071179 144.396908 354.977862 143.277413 354.977862 142.1588 354.977862 141.251196 354.071179 141.251196 352.953701 141.251196 351.836222 142.1588 350.929539 143.277413 350.929539 144.396908 350.929539 145.303629 351.836222 145.303629 352.953701M167.751986 354.977862C166.633373 354.977862 165.725769 354.071179 165.725769 352.953701 165.725769 351.836222 166.633373 350.929539 167.751986 350.929539 168.871481 350.929539 169.778202 351.836222 169.778202 352.953701 169.778202 354.071179 168.871481 354.977862 167.751986 354.977862zM154.751986 365.977862C153.633373 365.977862 152.725769 365.071179 152.725769 363.953701 152.725769 362.836222 153.633373 361.929539 154.751986 361.929539 155.871481 361.929539 156.778202 362.836222 156.778202 363.953701 156.778202 365.071179 155.871481 365.977862 154.751986 365.977862zM180.751986 365.977862C179.633373 365.977862 178.725769 365.071179 178.725769 363.953701 178.725769 362.836222 179.633373 361.929539 180.751986 361.929539 181.871481 361.929539 182.778202 362.836222 182.778202 363.953701 182.778202 365.071179 181.871481 365.977862 180.751986 365.977862zM194.252863 352.953701C194.252863 354.071179 193.346142 354.977862 192.226647 354.977862 191.108034 354.977862 190.200431 354.071179 190.200431 352.953701 190.200431 351.836222 191.108034 350.929539 192.226647 350.929539 193.346142 350.929539 194.252863 351.836222 194.252863 352.953701M218.727524 352.953701C218.727524 354.071179 217.820804 354.977862 216.701308 354.977862 215.582695 354.977862 214.675092 354.071179 214.675092 352.953701 214.675092 351.836222 215.582695 350.929539 216.701308 350.929539 217.820804 350.929539 218.727524 351.836222 218.727524 352.953701"/>
    <path fill="#F2CCB0" d="M188.711714,208.232857 C182.629533,202.663106 173.506705,177.515876 173.506705,177.515876 C173.506705,177.515876 162.772614,177.520286 174.619137,175.83128 C174.840741,175.796882 179.090939,175.19713 179.090939,175.19713 C179.268398,173.449031 179.860813,165.450286 180.265173,159.90082 L197.578506,160.42472 C197.150308,164.822311 197.371029,175.028671 197.371029,175.028671 C197.371029,175.028671 211.407984,176.477776 216.8642,178.90677 C222.263912,181.312832 206.715461,178.374932 202.058254,181.397503 C199.002596,183.381093 200.30838,191.581814 195.976074,194.899851 C190.908326,198.781478 193.980759,207.716894 188.189047,208.191404 L189.893894,207.895056"/>
    <path fill="#1C0C3D" d="M133.565877 194.249209C133.565877 195.366687 132.659157 196.27337 131.539661 196.27337 130.421049 196.27337 129.513445 195.366687 129.513445 194.249209 129.513445 193.13173 130.421049 192.225047 131.539661 192.225047 132.659157 192.225047 133.565877 193.13173 133.565877 194.249209M120.828968 208.67685C120.828968 209.794328 119.922247 210.701011 118.802751 210.701011 117.684139 210.701011 116.776535 209.794328 116.776535 208.67685 116.776535 207.559371 117.684139 206.652688 118.802751 206.652688 119.922247 206.652688 120.828968 207.559371 120.828968 208.67685M145.303629 208.67685C145.303629 209.794328 144.396908 210.701011 143.277413 210.701011 142.1588 210.701011 141.251196 209.794328 141.251196 208.67685 141.251196 207.559371 142.1588 206.652688 143.277413 206.652688 144.396908 206.652688 145.303629 207.559371 145.303629 208.67685M133.565877 223.104579C133.565877 224.222057 132.659157 225.12874 131.539661 225.12874 130.421049 225.12874 129.513445 224.222057 129.513445 223.104579 129.513445 221.987101 130.421049 221.080417 131.539661 221.080417 132.659157 221.080417 133.565877 221.987101 133.565877 223.104579M120.828968 237.53222C120.828968 238.649698 119.922247 239.556381 118.802751 239.556381 117.684139 239.556381 116.776535 238.649698 116.776535 237.53222 116.776535 236.414742 117.684139 235.508058 118.802751 235.508058 119.922247 235.508058 120.828968 236.414742 120.828968 237.53222M133.565877 251.959949C133.565877 253.077427 132.659157 253.984111 131.539661 253.984111 130.421049 253.984111 129.513445 253.077427 129.513445 251.959949 129.513445 250.842471 130.421049 249.935788 131.539661 249.935788 132.659157 249.935788 133.565877 250.842471 133.565877 251.959949"/>
    <path fill="#CDCDCD" d="M188.189047,208.191404 L177.489389,173.583093 L172.783623,182.545851 C172.783623,182.545851 186.217569,208.194932 188.189047,208.191404"/>
    <path fill="#B9B9B9" d="M177.490184,173.583534 C177.490184,173.583534 172.740274,192.525099 169.591031,200.378317 C169.256418,201.209149 154.515805,178.988354 154.515805,178.988354 C154.515805,178.988354 163.356112,166.89454 171.090166,163.800528 C170.743193,171.254205 177.490184,173.583534 177.490184,173.583534"/>
    <path fill="#CDCDCD" d="M188.980993,208.866565 L199.68065,174.258255 L204.386416,183.221012 C204.386416,183.221012 190.95247,208.870093 188.980993,208.866565"/>
    <path fill="#CDCDCD" d="M193.14873,363.871384 C192.129883,360.118527 188.351144,347.39762 187.800225,342.68075 C185.71309,324.84167 186.020333,308.113893 192.557198,292.98516 C193.913306,289.849694 195.409793,286.383483 197.03518,282.418067 C203.622369,266.33326 198.419541,255.385148 194.241739,246.589086 C192.228766,242.360837 190.332333,238.364552 189.969468,234.395607 C188.838495,221.895198 189.963288,210.434651 189.894423,208.40167 L186.684261,206.882887 C186.708982,209.171645 185.688369,221.770837 186.857306,234.67608 C187.266964,239.200676 189.285234,243.438626 191.416514,247.928825 C195.538694,256.596999 200.210027,266.42675 194.14109,281.23444 C192.528946,285.181334 191.035108,288.629024 189.69136,291.745086 C183.129775,306.92762 182.509991,324.37598 184.691595,343.039719 C185.230153,347.640166 188.971811,360.261409 189.947396,363.939297"/>
    <path fill="#B9B9B9" d="M199.679856,174.258607 C199.679856,174.258607 204.429766,193.200173 207.579892,201.05339 C207.913622,201.884222 222.654234,179.663427 222.654234,179.663427 C222.654234,179.663427 213.813928,167.569614 206.079874,164.475601 C206.426847,171.929278 199.679856,174.258607 199.679856,174.258607"/>
    <path fill="#F2CCB0" d="M227.806474,83.5608261 C235.525519,122.209522 220.015915,157.879745 193.163915,163.231646 C166.311915,168.583547 141.023501,145.961447 130.567519,102.942503 C120.11242,59.924441 145.509429,33.0414596 165.210077,23.2716832 C184.910726,13.5019068 220.087429,44.9121304 227.806474,83.5608261"/>
    <path fill="#C68119" d="M202.902467,23.7770621 C202.902467,23.7770621 199.927151,38.6120932 195.11544,44.8450994 C191.064773,50.0920435 181.006088,59.4023043 168.619241,58.9004534 C160.725386,58.5811739 160.613259,56.5270248 160.613259,56.5270248 C160.613259,56.5270248 170.099836,56.1239565 178.112881,51.5499689 C186.125926,46.9759814 185.803674,45.7085652 185.803674,45.7085652 C185.803674,45.7085652 168.688106,45.5991988 158.514647,51.9274596 C148.34207,58.2548385 151.442755,60.8275963 144.340845,61.5816957 L137.238052,62.335795 C137.238052,62.335795 132.021097,68.3368385 132.232989,73.5873106 C132.444881,78.8377826 133.353368,84.5495342 131.984016,87.468913 C130.613782,90.3882919 129.215295,93.1418571 131.531097,101.942329 C133.846899,110.741919 134.841025,113.134752 134.954034,115.096292 C135.067043,117.058714 136.874305,122.114267 136.874305,122.114267 L136.641223,125.13772 C136.641223,125.13772 135.633854,122.848963 133.840719,115.267398 C132.047584,107.686714 132.917223,116.121161 129.458088,114.164913 C125.998953,112.207783 122.327926,105.001062 121.550989,102.509447 C120.774935,100.017832 118.211926,95.567323 117.894088,93.9762174 C117.57625,92.3859938 114.145368,84.3687267 116.305782,73.4541304 C119.243133,58.6146894 116.849638,53.8299068 116.849638,53.8299068 C116.849638,53.8299068 116.390539,40.3593106 117.838467,36.4327019 C119.285512,32.5052112 121.671944,22.1065776 132.190611,14.7172857 C142.71016,7.32799379 150.772647,4.39803106 150.772647,4.39803106 C150.772647,4.39803106 174.917728,-0.414975155 179.986359,1.2211118 C185.054989,2.85719876 188.831962,6.4045528 188.831962,6.4045528 C188.831962,6.4045528 194.000359,11.3278075 199.111368,8.98613043 C204.222377,6.64445342 206.347476,14.4897329 205.987259,16.8772733 C205.627926,19.2648137 202.902467,23.7770621 202.902467,23.7770621"/>
    <path fill="#C68119" d="M204.674501,14.4928199 C204.674501,14.4928199 209.69369,14.484882 214.134591,18.5614286 C218.575492,22.6379752 228.029402,29.5686335 231.135384,39.5342112 C234.241366,49.4997888 236.40178,60.3156025 236.295834,63.9758509 C236.189888,67.6352174 239.112231,86.3536398 238.596627,90.7565217 C238.081023,95.1594037 237.170771,98.9792919 237.170771,98.9792919 C237.170771,98.9792919 233.802573,94.6893043 233.012393,93.5233168 C232.22133,92.3582112 231.988249,95.3816646 231.988249,95.3816646 C231.988249,95.3816646 232.534753,91.5026832 230.897005,94.4749814 C229.258375,97.4481615 232.268123,98.6432547 231.9856,100.022683 C231.703077,101.402112 229.818123,108.568261 229.818123,108.568261 C229.818123,108.568261 226.714789,92.0927329 227.716861,85.9391056 C228.719816,79.7854783 212.834987,78.1855528 211.465636,72.0045839 C210.117474,65.9162236 204.970267,62.0654658 203.071186,58.1441491 C201.172105,54.2228323 198.892501,48.3920124 198.892501,48.3920124 C198.892501,48.3920124 199.944014,56.4524969 198.419276,61.3872174 L196.894537,66.3219379 C196.894537,66.3219379 196.407186,55.5034783 196.181168,51.5786335 C195.95515,47.6546708 191.457744,53.6945217 191.457744,53.6945217 L188.683726,59.2536894 C188.683726,59.2536894 189.510105,43.3161739 193.935996,36.1491429 C198.362771,28.9821118 204.674501,14.4928199 204.674501,14.4928199"/>
    <path fill="#F2CCB0" d="M132.43976 103.840102C132.43976 103.840102 121.252751 101.736561 125.155094 115.140127 129.053905 128.54722 135.30295 128.279096 137.651418 123.369071 140.006067 118.461692 132.43976 103.840102 132.43976 103.840102M229.431067 84.5073752C229.431067 84.5073752 238.673968 78.3316981 240.250796 92.1983068 241.832923 106.067561 236.123319 108.182568 232.15476 104.532021 228.181787 100.885884 229.431067 84.5073752 229.431067 84.5073752"/>
    <path fill="#C68119" d="M125.696301 103.713537C125.696301 103.713537 130.778175 107.753922 132.925346 113.156096 135.0734 118.55827 139.426013 124.298245 140.066986 125.724419 140.707959 127.151475 137.802391 114.579624 135.997778 109.109537 134.192283 103.638568 135.749688 100.543673 134.287634 95.0047913 132.824697 89.4659093 132.302914 86.8490522 132.302914 86.8490522L132.003616 85.3540832 125.696301 103.713537zM229.196308 109.659456C228.78047 111.09445 229.54593 109.804984 232.511533 104.40281 233.611605 102.398934 233.258452 93.2333193 233.526849 91.0944994 233.795245 88.9565615 234.298488 86.2506236 235.034813 84.7142012 235.771137 83.1777789 236.440362 82.174959 235.671371 80.9384124 234.903263 79.7018658 234.100723 79.1673814 233.833209 78.699046 233.565695 78.2315925 234.068056 78.131928 232.930903 77.6635925 231.79375 77.1952571 228.648921 79.7327354 228.648921 79.7327354L228.313425 81.537282C228.313425 81.537282 226.537948 88.3188845 226.937011 93.7977913 227.335191 99.2775801 229.196308 109.659456 229.196308 109.659456M205.769629 11.3161652C205.769629 11.3161652 207.198133 7.98842609 204.992692 5.3530472L202.786368 2.71678634C202.786368 2.71678634 207.092187 4.65451304 208.059827 8.09691056 209.026584 11.5384261 208.649593 12.4530472 209.566908 8.63492298L210.483341 4.81768075C210.483341 4.81768075 211.118133 10.7084758 208.790854 14.1182398 206.463575 17.5288857 208.380314 12.5068484 212.580187 11.1097801 216.779178 9.71359379 218.295971 10.5214944 218.295971 10.5214944 218.295971 10.5214944 209.22435 13.3835441 210.621953 17.5994447 212.019557 21.8153453 216.18235 19.3396062 216.18235 19.3396062 216.18235 19.3396062 212.898908 19.7144509 210.530133 20.4659043 208.161359 21.2182398 198.257178 19.2769851 197.827214 18.5246497 197.39725 17.7714323 195.944025 16.1035938 196.591178 15.1360534 197.237449 14.168513 205.769629 11.3161652 205.769629 11.3161652"/>
    <path fill="#1C0C3D" d="M135.177227 123.438836C135.409425 124.599532 134.65456 125.728476 133.492686 125.960439 132.330813 126.192401 131.200723 125.438302 130.968524 124.277606 130.736326 123.116911 131.491191 121.987966 132.653065 121.756004 133.814939 121.524041 134.945029 122.27814 135.177227 123.438836M238.848602 103.07436C239.0808 104.235056 238.325935 105.364 237.164061 105.595963 236.002187 105.827925 234.872097 105.073826 234.639899 103.91313 234.407701 102.752435 235.162566 101.623491 236.32444 101.391528 237.486314 101.159565 238.616404 101.913665 238.848602 103.07436"/>
    <path fill="#C68119" d="M181.68273 77.3091217C181.68273 77.3091217 181.882261 76.9933702 182.294568 76.512687 182.702459 76.0267118 183.320477 75.372277 184.138027 74.6852087 185.759 73.2996062 188.201937 71.7861155 190.987432 70.9235317 192.376207 70.4984137 193.840027 70.2223516 195.25882 70.2091217 195.966892 70.2020658 196.657306 70.2452832 197.309757 70.3661155 197.958676 70.472836 198.570514 70.6527615 199.107306 70.8776683 199.376586 70.9826248 199.628207 71.1034571 199.85864 71.2384012 200.089955 71.3662894 200.304495 71.4880037 200.490784 71.6379416 200.877486 71.8990099 201.159126 72.2015317 201.384261 72.4370224 201.616459 72.6628112 201.73918 72.9088857 201.842477 73.0403019 201.933414 73.1858298 201.982856 73.2625627 201.982856 73.2625627 201.982856 73.2625627 201.891919 73.241395 201.723288 73.1999416 201.556423 73.1602522 201.326874 73.0870472 201.031108 73.029718 200.734459 72.9723888 200.387486 72.9115317 199.991072 72.8824261 199.798604 72.8568484 199.591126 72.8445006 199.372171 72.8462646 199.158514 72.8374447 198.93691 72.8268609 198.699414 72.8471466 198.467216 72.8524385 198.230604 72.8559665 197.978982 72.890364 197.732658 72.9080037 197.478387 72.9300534 197.215288 72.9767988 196.69527 73.0376559 196.144351 73.1523143 195.579306 73.2696186 195.011613 73.3895689 194.428027 73.5474447 193.829432 73.7000286 193.234369 73.8764261 192.622532 74.0343019 192.014225 74.237159 189.570405 74.9868484 187.070964 75.871482 185.096838 76.442128 184.112423 76.7331839 183.264856 76.9554447 182.655667 77.0965627 182.050009 77.2438547 181.68273 77.3091217 181.68273 77.3091217M160.440656 81.5431913C160.440656 81.5431913 160.076025 81.6234522 159.460656 81.7195888 158.843521 81.8227814 157.975647 81.9427317 156.955034 82.0512161 154.912926 82.2814149 152.26516 82.4234149 149.719809 82.6677255 149.080602 82.7135888 148.454638 82.8017876 147.837503 82.8670547 147.226548 82.9561354 146.626187 83.0337503 146.056728 83.1404708 145.489034 83.2498373 144.937232 83.3547938 144.433106 83.4976758 144.171773 83.555005 143.92898 83.6326199 143.695016 83.7102348 143.449575 83.7746199 143.228854 83.8637006 143.012548 83.9466075 142.785647 84.0189304 142.585232 84.1133031 142.390998 84.2041478 142.187935 84.2861727 142.001647 84.3778994 141.833899 84.474918 141.47898 84.6530795 141.181449 84.8427068 140.929827 85.0094025 140.679088 85.1760981 140.494566 85.331328 140.356836 85.4318745 140.215575 85.5350671 140.14053 85.5897503 140.14053 85.5897503 140.14053 85.5897503 140.156422 85.4989056 140.184674 85.330446 140.229701 85.1690422 140.248241 84.8947441 140.375377 84.5975143 140.4928 84.2941106 140.637593 83.906036 140.894512 83.5170795 141.008404 83.3071665 141.160259 83.1122472 141.324476 82.9058621 141.48516 82.6924211 141.671449 82.484272 141.879809 82.2849429 142.288584 81.8704087 142.784764 81.4708683 143.342746 81.1233652 143.898962 80.7617503 144.519629 80.4565826 145.176494 80.1919863 146.491989 79.6601478 147.949629 79.3532161 149.394908 79.2138621 152.29871 78.9422099 155.136295 79.4034894 157.16516 80.0614522 158.184007 80.3833776 159.006854 80.7494025 159.570133 81.0422224 160.135178 81.3279863 160.440656 81.5431913 160.440656 81.5431913"/>
    <path fill="#FFFFFF" d="M160.589686,98.7439776 C160.518173,96.2400149 157.309777,94.6215677 153.407434,95.1278286 C149.516569,95.6270335 146.423831,98.0586733 146.48475,100.5644 C146.547434,103.062189 149.754065,104.671816 153.640515,104.169083 C157.542858,103.667232 160.652371,101.240002 160.589686,98.7439776"/>
    <path fill="#C68119" d="M156.616272,99.2750224 C156.463533,97.5895441 154.978524,96.3468236 153.293101,96.4976435 C151.612975,96.6440534 150.375173,98.1284385 150.523497,99.8139168 C150.672705,101.494985 152.155948,102.731532 153.834308,102.582476 C155.520614,102.434302 156.764596,100.954327 156.616272,99.2750224"/>
    <path fill="#FFFFFF" d="M156.087072 97.7142571C156.218622 98.3739839 155.790423 99.0143068 155.13091 99.146605 154.470514 99.2780211 153.828658 98.8502571 153.697108 98.1905304 153.565559 97.5316857 153.993757 96.8904807 154.65327 96.7590646 155.313667 96.6267665 155.955523 97.0545304 156.087072 97.7142571M203.120715 90.2664894C203.049202 87.7625267 199.840805 86.1440795 195.938463 86.6503404 192.047598 87.1495453 188.954859 89.5811851 189.015778 92.0869118 189.078463 94.5847006 192.285094 96.194328 196.171544 95.691595 200.073886 95.1897441 203.1834 92.7625143 203.120715 90.2664894"/>
    <path fill="#C68119" d="M199.147213,90.7975342 C198.994474,89.1120559 197.509465,87.8693354 195.824041,88.0201553 C194.143915,88.1665652 192.906114,89.6509503 193.054438,91.3364286 C193.203645,93.0174969 194.686888,94.2540435 196.365249,94.1049876 C198.051555,93.9568137 199.295537,92.4768385 199.147213,90.7975342"/>
    <path fill="#FFFFFF" d="M198.618101,89.2368571 C198.74965,89.8965839 198.321452,90.5369068 197.661939,90.669205 C197.001542,90.8006211 196.359686,90.3728571 196.228137,89.7131304 C196.096587,89.0542857 196.524786,88.4130807 197.184299,88.2816646 C197.844695,88.1493665 198.486551,88.5771304 198.618101,89.2368571"/>
    <path fill="#DA9183" d="M165.032883,134.369396 C165.032883,134.369396 165.639423,134.753061 166.744793,135.306949 C167.852811,135.857309 169.457892,136.580539 171.442613,137.22439 C173.42645,137.864713 175.790811,138.415955 178.352937,138.647036 C179.634,138.749347 180.96009,138.79962 182.305604,138.746701 C183.654649,138.685843 185.003694,138.535906 186.370396,138.301297 C187.679712,138.06757 189.011982,137.68567 190.287748,137.256142 C191.570577,136.826614 192.807495,136.310651 193.979964,135.749707 C196.33991,134.654278 198.446468,133.391272 200.214883,132.24557 C203.742,129.931235 205.930667,128.086117 205.930667,128.086117 C205.930667,128.086117 205.497171,128.653235 204.651369,129.576676 C203.803802,130.495707 202.537748,131.765769 200.879694,133.144316 C199.224288,134.525508 197.167171,136.002837 194.780739,137.321409 C193.580901,137.966142 192.302486,138.572949 190.956973,139.095086 C189.607045,139.618104 188.200613,140.018527 186.720018,140.315757 C185.296811,140.60152 183.81445,140.757632 182.370054,140.780564 C180.922126,140.814961 179.493622,140.739111 178.131333,140.530961 C175.400577,140.152589 172.945279,139.330576 170.975568,138.404489 C168.997027,137.482812 167.491712,136.463235 166.505532,135.682676 C165.514054,134.904763 165.032883,134.369396 165.032883,134.369396"/>
    <polyline fill="#8A2F36" points="8.971 229.231 82.518 224.356 74.501 124.072 2 129.643 7.577 228.534"/>
    <polyline fill="#CD2230" points="6.971 227.231 80.518 222.356 72.501 122.072 0 127.643 5.577 226.534"/>
    <path fill="#F2CCB0" d="M60.3722378,261.836711 C60.3722378,261.836711 57.5682018,251.827034 54.8445081,250.013667 C52.1208144,248.199419 35.5208505,240.037506 35.5208505,240.037506 C35.5208505,240.037506 33.2650847,238.098897 32.9269405,237.70553 C32.2471207,236.913506 30.3948324,235.194512 30.3948324,235.194512 C30.3948324,235.194512 30.5925982,234.984599 26.1834811,232.134897 C21.7734811,229.284313 18.7911027,227.859021 19.4391387,224.231406 C20.0880577,220.603791 29.0360757,212.57153 30.722382,211.016586 C32.4086883,209.461642 33.8345441,208.814263 34.6132468,209.33199 C35.3910667,209.850599 36.1688865,212.052922 35.6506342,212.830835 C35.1314991,213.607866 33.6791568,216.5784 32.5119856,217.87404 C31.3448144,219.16968 28.6078775,223.294735 28.6078775,223.294735 L31.6299856,225.656698 L32.7971568,226.175307 L40.8384541,233.04158 C40.8384541,233.04158 54.091409,231.373742 57.5929225,232.02112 C61.094436,232.669381 71.2255171,236.58276 72.8129405,242.201903 C74.0551568,246.594201 74.4727604,249.030251 74.7323279,249.936934 C74.9918955,250.843617 77.3129946,259.060214 77.3129946,259.060214 L60.3722378,261.836711 Z"/>
    <path fill="#F2CCB0" d="M30.7458667,228.438134 C30.7458667,228.438134 31.135218,214.186979 31.7832541,213.150643 C32.432173,212.114308 42.8069297,206.025066 42.8069297,206.025066 C42.8069297,206.025066 46.5680108,204.34047 48.6427856,203.693091 C50.7175604,203.04483 54.6084252,200.323898 55.5160288,202.267799 C56.4245153,204.210817 54.8679928,206.672445 54.8679928,206.672445 L53.1816865,207.968084 C53.1816865,207.968084 56.4245153,207.70878 58.3695063,207.579128 C60.3153802,207.449476 62.5199387,207.968084 61.8710198,209.393376 C61.2229838,210.818668 59.796245,212.632035 57.980155,212.891339 C56.1649477,213.150643 52.6634342,214.186979 52.6634342,214.186979 C52.6634342,214.186979 59.0184252,212.891339 58.4992901,215.223314 C57.980155,217.555289 57.0725514,218.591625 56.035164,218.850929 C54.9977766,219.110234 53.4412541,219.62796 53.4412541,219.62796 L52.0145153,223.774184 C52.0145153,223.774184 60.5740649,230.252383 62.2603712,232.065749 C63.9466775,233.879116 70.041218,238.284643 71.0794883,240.616619 C72.1168757,242.948594 72.1168757,246.576209 72.1168757,246.576209 L63.038191,248.389575 L43.1962811,240.227662 L35.4145514,237.248308 C35.4145514,237.248308 33.3397766,235.563712 33.080209,234.786681 C32.8206414,234.008768 30.7458667,228.438134 30.7458667,228.438134"/>
    <path fill="#F2CCB0" d="M65.2031081,234.731998 L56.6665135,223.889724 L52.1002432,224.15432 L54.0196306,235.987948 C54.0196306,235.987948 60.5706216,238.565998 62.0264955,239.359786 C63.4823694,240.152693 64.0783153,241.277227 64.4747297,240.020395 C64.872027,238.764445 65.2031081,234.731998 65.2031081,234.731998"/>
  </g>
</svg>
